<svg width="274" height="275" viewBox="0 0 274 275" fill="none" xmlns="http://www.w3.org/2000/svg">
<path d="M30.4444 2H243.556C259.189 2 272 14.8477 272 30.5556V244.444C272 260.152 259.189 273 243.556 273H30.4444C14.8114 273 2 260.152 2 244.444V30.5556C2 14.8477 14.8114 2 30.4444 2ZM43.6667 206.25C43.6667 220.028 54.7541 231.167 68.5 231.167C82.2459 231.167 93.3333 220.028 93.3333 206.25C93.3333 192.472 82.2459 181.333 68.5 181.333C54.7541 181.333 43.6667 192.472 43.6667 206.25ZM43.6667 68.75C43.6667 82.5283 54.7541 93.6667 68.5 93.6667C82.2459 93.6667 93.3333 82.5283 93.3333 68.75C93.3333 54.9718 82.2459 43.8333 68.5 43.8333C54.7541 43.8333 43.6667 54.9718 43.6667 68.75ZM112.167 137.5C112.167 151.278 123.254 162.417 137 162.417C150.746 162.417 161.833 151.278 161.833 137.5C161.833 123.722 150.746 112.583 137 112.583C123.254 112.583 112.167 123.722 112.167 137.5ZM180.667 206.25C180.667 220.028 191.754 231.167 205.5 231.167C219.246 231.167 230.333 220.028 230.333 206.25C230.333 192.472 219.246 181.333 205.5 181.333C191.754 181.333 180.667 192.472 180.667 206.25ZM180.667 68.75C180.667 82.5283 191.754 93.6667 205.5 93.6667C219.246 93.6667 230.333 82.5283 230.333 68.75C230.333 54.9718 219.246 43.8333 205.5 43.8333C191.754 43.8333 180.667 54.9718 180.667 68.75Z" stroke="#A9B4D0" stroke-width="4"/>
</svg>
