<svg width="199" height="199" viewBox="0 0 199 199" fill="none" xmlns="http://www.w3.org/2000/svg">
<rect width="199" height="199" fill="#777DAD"/>
<rect width="135" height="46.1964" transform="translate(32 76.4014)" fill="#777DAD"/>
<path fill-rule="evenodd" clip-rule="evenodd" d="M137.852 100.699C140.198 100.72 142.545 100.741 144.892 100.762C144.897 95.7368 137.895 95.9198 137.852 100.699Z" fill="#181A19"/>
<path fill-rule="evenodd" clip-rule="evenodd" d="M57.8135 102.592C56.0689 102.992 52.1566 103.19 53.7376 105.937C54.3372 106.978 56.3233 107.341 57.7517 106.757C59.5093 106.039 60.0985 104.648 60.0367 102.024C59.2957 102.214 58.5546 102.403 57.8135 102.592Z" fill="#181A19"/>
<path fill-rule="evenodd" clip-rule="evenodd" d="M113.334 102.592C111.545 103.005 109.622 102.741 109.134 104.486C108.988 105.009 109.092 105.718 109.319 106.063C109.94 107.002 111.94 107.313 113.272 106.757C115.018 106.028 115.621 104.648 115.557 102.024C114.816 102.214 114.075 102.403 113.334 102.592Z" fill="#181A19"/>
<path fill-rule="evenodd" clip-rule="evenodd" d="M32 86.5V112.5H167V86.5H32ZM36.0759 108.461C36.0556 102.509 36.0346 96.5542 36.0142 90.6019H48.6125V92.6845H38.3609C38.3406 94.4931 38.3196 96.303 38.2992 98.1117C41.5309 98.1325 44.7632 98.1539 47.995 98.1748V100.194C44.7842 100.215 41.5717 100.236 38.3609 100.257C38.3406 102.277 38.3196 104.296 38.2992 106.316H48.9831C49.0035 107.031 49.0245 107.746 49.0448 108.461H36.0759ZM62.8166 108.398C62.1169 108.419 61.4165 108.44 60.7168 108.461C60.4822 108.076 60.2957 107.626 60.2845 107.01C60.2642 106.989 60.2432 106.967 60.2228 106.947C59.4613 107.409 58.6992 107.872 57.9378 108.335C55.0081 109.506 51.7553 108.297 51.2681 105.684C50.372 100.879 56.7971 101.026 60.0375 100.257C60.2598 95.6884 54.2274 96.1661 53.7383 99.4369C53.0386 99.353 52.3383 99.2684 51.6386 99.1845C51.8344 97.2427 53.1696 96.0298 54.7882 95.5243C55.3854 95.4189 55.982 95.3141 56.5791 95.2087C58.8691 95.186 60.8471 95.4833 61.7049 96.9126C62.979 99.0355 61.8044 103.488 62.2607 106.379C62.3787 107.124 62.6313 107.72 62.8166 108.335V108.398ZM65.9661 99.8155C65.9458 98.9951 65.9248 98.1748 65.9044 97.3544C65.6759 97.1329 64.8582 97.2054 64.4222 97.2282C64.4019 96.6602 64.3809 96.0922 64.3605 95.5243H65.9044C65.9248 94.4515 65.9458 93.3786 65.9661 92.3058C66.6455 91.8849 67.3248 91.4646 68.0041 91.0437C68.0245 92.5368 68.0455 94.0312 68.0659 95.5243H70.1656C70.186 96.0714 70.207 96.6179 70.2274 97.165C69.5067 97.1859 68.7866 97.2073 68.0659 97.2282C68.0511 99.594 67.5866 105.098 68.5599 106.442C69.1157 106.484 69.6715 106.526 70.2274 106.568C70.3305 107.178 70.433 107.788 70.5361 108.398C64.7162 109.674 65.9655 104.79 65.9661 99.8155ZM85.4195 105.18C84.1102 108.414 79.1549 109.791 75.1679 108.019C73.196 107.143 72.445 105.544 71.833 103.223V102.718C72.5327 102.655 73.2331 102.592 73.9328 102.529C74.7597 104.886 75.3785 106.028 77.9469 106.568C80.4771 107.099 84.0331 105.946 83.505 103.223C82.8788 99.9916 77.1484 100.484 74.7356 98.9951C72.3623 97.5304 71.515 93.6923 74.0563 91.6748C75.1636 90.7957 76.3728 90.8859 77.8852 90.2864C81.895 90.2277 85.1879 91.6217 85.1725 95.5874C84.4518 95.6505 83.7317 95.7136 83.011 95.7767C82.6386 93.8469 81.837 92.8347 79.9849 92.432C77.5634 91.9057 74.0779 92.8321 74.7356 95.5874C75.1475 97.3127 77.4276 97.4774 79.1203 97.9223C82.3187 98.7629 87.3864 100.32 85.4195 105.18ZM105.058 108.335C104.584 108.562 103.574 108.478 102.897 108.461V101.583C102.897 100.503 103.029 99.1813 102.711 98.3641C102.461 97.7204 101.781 97.2483 101.044 97.1019C96.4251 96.185 97.4676 104.337 97.5238 108.398H95.5476C95.1943 107.98 95.4241 106.314 95.4241 105.621C95.4241 102.907 96.0972 97.9734 94.1272 97.2282C88.9971 95.2883 90.0049 104.295 90.0512 108.398C89.3515 108.419 88.6512 108.44 87.9515 108.461C87.9311 104.149 87.9101 99.8364 87.8898 95.5243H89.8042V97.165C90.3186 96.7025 90.8337 96.2393 91.3481 95.7767C93.3941 94.5373 96.54 95.3842 97.1533 97.3544C97.1946 97.3752 97.2354 97.3967 97.2768 97.4175C98.8219 94.6035 103.88 94.2388 104.873 97.8592C105.685 100.821 104.316 105.284 105.058 108.335ZM118.336 108.461H116.236C115.987 108.046 115.846 107.53 115.742 106.947C114.981 107.409 114.218 107.872 113.457 108.335C110.73 109.426 107.459 108.377 106.849 106.063C105.55 101.133 111.922 100.823 115.433 100.32C117.115 96.7744 109.832 95.4586 109.258 99.4369C108.558 99.353 107.858 99.2684 107.158 99.1845C107.354 97.2395 108.687 96.0304 110.307 95.5243L112.16 95.2087C114.695 95.186 116.759 95.595 117.471 97.4175C117.794 98.2429 117.718 99.4407 117.718 100.573C117.718 103.249 117.493 106.435 118.336 108.272V108.461ZM126.488 97.8592C125.811 97.745 125.08 97.2446 124.203 97.5437C121.619 98.4247 122.348 104.866 122.412 108.398C121.732 108.419 121.053 108.44 120.374 108.461C120.353 104.149 120.332 99.8364 120.312 95.5243H122.226V97.2913H122.288C124.172 95.2895 123.786 94.6793 127.105 95.8398C126.9 96.5132 126.693 97.1859 126.488 97.8592ZM130.317 107.704C129.319 106.352 129.787 99.6912 129.823 97.2282H128.279V95.5243H129.823V92.3058C130.522 91.8849 131.223 91.4646 131.922 91.0437C131.943 92.516 131.964 93.9889 131.984 95.4612C132.684 95.482 133.384 95.5034 134.084 95.5243V97.165C133.384 97.1859 132.684 97.2073 131.984 97.2282C131.973 99.0759 131.508 104.757 132.108 106C132.399 106.661 133.239 106.601 134.084 106.505L134.392 108.398C132.96 108.728 131.027 108.668 130.317 107.704ZM147.176 102.466C144.027 102.487 140.876 102.508 137.727 102.529C137.743 107.475 143.15 108.441 144.891 104.296C145.612 104.38 146.332 104.465 147.053 104.549C146.695 107.708 142.68 109.766 139.086 108.335C136.304 107.227 134.523 103.216 135.875 99.1845C136.865 96.2323 140.839 93.7712 144.397 95.966C146.286 97.131 147.234 99.3012 147.176 102.466ZM155.699 97.8592C154.823 97.8315 153.713 97.1783 152.734 97.9223C151.167 99.1132 151.65 105.446 151.684 108.398C150.985 108.419 150.284 108.44 149.585 108.461C149.564 104.149 149.543 99.8364 149.523 95.5243H151.437V97.2913H151.499C152.438 96.3005 152.873 94.7985 154.957 95.335C155.526 95.4814 156.028 95.6044 156.378 95.966C156.151 96.5971 155.925 97.2282 155.699 97.8592ZM160.454 108.461V105.937H162.862C162.883 106.757 162.904 107.578 162.924 108.398C162.101 108.419 161.277 108.44 160.454 108.461ZM162.986 94.6408C162.801 97.7538 162.615 100.868 162.43 103.981H161.01C160.886 99.5347 160.368 95.4233 160.392 90.6019H162.986V94.6408Z" fill="#181A19"/>
</svg>
