<svg width="199" height="199" viewBox="0 0 199 199" fill="none" xmlns="http://www.w3.org/2000/svg">
<rect width="199" height="199" fill="#AD787B"/>
<rect width="111" height="83.6499" transform="translate(44 56.8574)" fill="#AD787B"/>
<path d="M101.885 83.0357C102.983 82.9699 104.081 83.1499 105.101 83.5626C106.121 83.9753 107.035 84.6103 107.778 85.4212C107.812 85.4601 107.831 85.51 107.831 85.5616C107.831 85.6132 107.812 85.663 107.778 85.7019L106.235 87.3156C106.094 87.4559 106.024 87.4559 105.954 87.3156C105.832 87.1785 105.69 87.0603 105.533 86.9648C105.044 86.5113 104.47 86.1598 103.843 85.9309C103.217 85.702 102.551 85.6003 101.885 85.6317C101.289 85.6411 100.701 85.7688 100.155 86.0074C99.6094 86.2461 99.1165 86.5909 98.7052 87.0218C98.2938 87.4527 97.9723 87.9612 97.7593 88.5175C97.5463 89.0739 97.446 89.667 97.4644 90.2625C97.4711 91.4764 97.9516 92.6398 98.8034 93.5048C99.6553 94.3697 100.811 94.8679 102.025 94.8932C104.481 94.8932 105.603 93.9811 106.165 92.0867C106.162 92.0503 106.146 92.016 106.121 91.9902C106.095 91.9644 106.061 91.9488 106.024 91.9464H102.306C102.277 91.9504 102.248 91.9478 102.22 91.9387C102.193 91.9295 102.168 91.9141 102.148 91.8937C102.127 91.8733 102.112 91.8484 102.103 91.821C102.094 91.7936 102.091 91.7645 102.095 91.7359V89.7713C102.091 89.7427 102.094 89.7136 102.103 89.6862C102.112 89.6588 102.127 89.6339 102.148 89.6135C102.168 89.593 102.193 89.5777 102.22 89.5685C102.248 89.5594 102.277 89.5567 102.306 89.5608H108.62C108.761 89.5608 108.831 89.631 108.831 89.7012V89.7713C108.971 94.1214 106.515 97.3489 101.885 97.3489C100.018 97.3461 98.2279 96.6082 96.9015 95.295C95.5752 93.9818 94.8195 92.199 94.7982 90.3326V90.2625C94.7624 88.414 95.4569 86.6259 96.731 85.2862C98.0051 83.9464 99.756 83.163 101.604 83.1059C101.814 83.0357 101.814 83.0357 101.885 83.0357Z" fill="#181A19"/>
<path d="M101.885 100.226C102.983 100.16 104.081 100.34 105.101 100.753C106.121 101.166 107.035 101.801 107.778 102.612C107.812 102.651 107.831 102.7 107.831 102.752C107.831 102.804 107.812 102.853 107.778 102.892L106.235 104.506C106.094 104.646 106.024 104.646 105.954 104.506C105.832 104.369 105.69 104.251 105.533 104.155C105.044 103.702 104.47 103.35 103.843 103.121C103.217 102.892 102.551 102.791 101.885 102.822C101.289 102.831 100.701 102.959 100.155 103.198C99.6094 103.437 99.1165 103.781 98.7052 104.212C98.2938 104.643 97.9723 105.152 97.7593 105.708C97.5463 106.264 97.446 106.857 97.4644 107.453C97.4593 108.67 97.9359 109.841 98.7903 110.708C99.6446 111.576 100.807 112.07 102.025 112.084C104.481 112.084 105.603 111.172 106.165 109.277C106.162 109.241 106.146 109.206 106.121 109.181C106.095 109.155 106.061 109.139 106.024 109.137H102.306C102.277 109.141 102.248 109.138 102.22 109.129C102.193 109.12 102.168 109.105 102.148 109.084C102.127 109.064 102.112 109.039 102.103 109.011C102.094 108.984 102.091 108.955 102.095 108.926V106.962C102.091 106.933 102.094 106.904 102.103 106.877C102.112 106.849 102.127 106.824 102.148 106.804C102.168 106.783 102.193 106.768 102.22 106.759C102.248 106.75 102.277 106.747 102.306 106.751H108.62C108.761 106.751 108.831 106.821 108.831 106.892V106.962C108.971 111.312 106.515 114.539 101.885 114.539C100.018 114.537 98.2279 113.799 96.9015 112.485C95.5752 111.172 94.8195 109.389 94.7982 107.523V107.453C94.7624 105.604 95.4569 103.816 96.731 102.477C98.0051 101.137 99.756 100.353 101.604 100.296C101.814 100.226 101.814 100.226 101.885 100.226Z" fill="#181A19"/>
<path d="M117.879 83.0352C116 83.0352 114.198 83.7818 112.869 85.1107C111.54 86.4397 110.793 88.2421 110.793 90.1216C110.793 92.001 111.54 93.8035 112.869 95.1325C114.198 96.4614 116 97.208 117.879 97.208C118.793 97.2118 119.698 97.0348 120.542 96.6871C121.387 96.3393 122.154 95.8278 122.8 95.1821C123.445 94.5363 123.957 93.7691 124.305 92.9246C124.652 92.0801 124.829 91.1752 124.826 90.2619V90.1216C124.838 89.1994 124.668 88.2838 124.325 87.4276C123.982 86.5714 123.473 85.7916 122.827 85.1329C122.181 84.4742 121.412 83.9498 120.563 83.5898C119.714 83.2298 118.802 83.0413 117.879 83.0352ZM117.879 94.7523C116.698 94.7229 115.577 94.2263 114.762 93.3713C113.946 92.5164 113.503 91.3729 113.529 90.1917V90.1216C113.469 88.9799 113.863 87.8608 114.626 87.0092C115.389 86.1577 116.458 85.6431 117.6 85.5781C118.741 85.5132 119.862 85.9031 120.716 86.6626C121.571 87.4221 122.09 88.4893 122.159 89.6304V90.1216C122.188 90.7079 122.099 91.294 121.898 91.8456C121.697 92.3972 121.389 92.9033 120.99 93.3343C120.592 93.7654 120.112 94.1128 119.577 94.3563C119.043 94.5997 118.466 94.7344 117.879 94.7523Z" fill="#181A19"/>
<path d="M133.949 83.0355C132.548 83.0217 131.174 83.4238 130.001 84.1909C128.828 84.958 127.909 86.0557 127.36 87.3452C126.81 88.6347 126.656 90.058 126.916 91.4353C127.176 92.8125 127.838 94.0818 128.819 95.0826C129.8 96.0834 131.056 96.7708 132.428 97.0578C133.8 97.3448 135.226 97.2187 136.526 96.6952C137.826 96.1717 138.942 95.2745 139.732 94.117C140.522 92.9594 140.952 91.5936 140.965 90.1921V90.1219C140.975 88.2518 140.241 86.4547 138.925 85.1258C137.609 83.7968 135.819 83.045 133.949 83.0355ZM133.949 94.7527C132.768 94.7232 131.647 94.2266 130.831 93.3717C130.016 92.5167 129.573 91.3733 129.599 90.1921V90.1219C129.565 89.554 129.642 88.9847 129.828 88.447C130.014 87.9092 130.305 87.4134 130.683 86.9881C131.061 86.5627 131.519 86.2163 132.031 85.9685C132.543 85.7207 133.099 85.5765 133.668 85.5442C134.236 85.5118 134.805 85.592 135.342 85.7801C135.879 85.9681 136.373 86.2604 136.797 86.6401C137.221 87.0198 137.566 87.4794 137.811 87.9926C138.057 88.5059 138.199 89.0626 138.229 89.6308V90.1219C138.257 90.7082 138.169 91.2943 137.968 91.8459C137.767 92.3975 137.459 92.9036 137.06 93.3347C136.662 93.7658 136.181 94.1132 135.647 94.3566C135.113 94.6001 134.536 94.7347 133.949 94.7527Z" fill="#181A19"/>
<path d="M118.305 100.647H115.639C115.569 100.647 115.499 100.718 115.428 100.788L109.745 113.978C109.675 114.119 109.815 114.259 109.956 114.259H112.201C112.255 114.258 112.309 114.245 112.357 114.221C112.406 114.196 112.448 114.161 112.482 114.119L113.534 111.593C113.534 111.523 113.604 111.523 113.674 111.523H120.34C120.41 111.523 120.41 111.523 120.48 111.593L121.533 114.119C121.566 114.161 121.608 114.196 121.657 114.221C121.706 114.245 121.759 114.258 121.813 114.259H124.058C124.199 114.259 124.339 114.119 124.269 113.978L118.586 100.788C118.445 100.647 118.375 100.647 118.305 100.647ZM114.586 108.997L116.902 103.524C116.902 103.454 117.042 103.454 117.042 103.524L119.358 108.997C119.358 109.067 119.358 109.137 119.287 109.137H114.657C114.586 109.067 114.516 108.997 114.586 108.997Z" fill="#181A19"/>
<path d="M153.593 102.822V100.788C153.597 100.759 153.594 100.73 153.585 100.702C153.576 100.675 153.561 100.65 153.54 100.63C153.52 100.609 153.495 100.594 153.468 100.585C153.44 100.576 153.411 100.573 153.382 100.577H143.419C143.391 100.573 143.362 100.576 143.334 100.585C143.307 100.594 143.282 100.609 143.262 100.63C143.241 100.65 143.226 100.675 143.217 100.702C143.207 100.73 143.205 100.759 143.209 100.788V113.978C143.205 114.007 143.207 114.036 143.217 114.063C143.226 114.091 143.241 114.116 143.262 114.136C143.282 114.156 143.307 114.172 143.334 114.181C143.362 114.19 143.391 114.193 143.419 114.189H153.382C153.411 114.193 153.44 114.19 153.468 114.181C153.495 114.172 153.52 114.156 153.54 114.136C153.561 114.116 153.576 114.091 153.585 114.063C153.594 114.036 153.597 114.007 153.593 113.978V111.943C153.597 111.915 153.594 111.886 153.585 111.858C153.576 111.831 153.561 111.806 153.54 111.786C153.52 111.765 153.495 111.75 153.468 111.741C153.44 111.731 153.411 111.729 153.382 111.733H145.945C145.875 111.733 145.875 111.663 145.805 111.593V108.505C145.805 108.435 145.875 108.435 145.945 108.365H152.681C152.709 108.369 152.739 108.367 152.766 108.357C152.793 108.348 152.818 108.333 152.839 108.312C152.859 108.292 152.875 108.267 152.884 108.24C152.893 108.212 152.895 108.183 152.891 108.155V106.19C152.895 106.161 152.893 106.132 152.884 106.105C152.875 106.078 152.859 106.053 152.839 106.032C152.818 106.012 152.793 105.996 152.766 105.987C152.739 105.978 152.709 105.976 152.681 105.98H145.945C145.875 105.98 145.875 105.909 145.805 105.839V103.103C145.805 103.033 145.875 103.033 145.945 102.963H153.382C153.523 103.033 153.593 102.963 153.593 102.822Z" fill="#181A19"/>
<path d="M136.616 100.787L133.178 108.435C133.178 108.505 133.038 108.505 133.038 108.435L129.6 100.787C129.567 100.744 129.524 100.709 129.476 100.685C129.427 100.661 129.374 100.648 129.319 100.647H126.373C126.344 100.643 126.315 100.645 126.287 100.654C126.26 100.663 126.235 100.679 126.215 100.699C126.194 100.72 126.179 100.745 126.17 100.772C126.161 100.799 126.158 100.829 126.162 100.857V114.048C126.158 114.076 126.161 114.105 126.17 114.133C126.179 114.16 126.194 114.185 126.215 114.206C126.235 114.226 126.26 114.241 126.287 114.251C126.315 114.26 126.344 114.262 126.373 114.258H128.407C128.436 114.262 128.465 114.26 128.492 114.251C128.52 114.241 128.545 114.226 128.565 114.206C128.586 114.185 128.601 114.16 128.61 114.133C128.619 114.105 128.622 114.076 128.618 114.048V104.295C128.618 104.225 128.758 104.155 128.758 104.225L132.056 111.522C132.126 111.592 132.196 111.592 132.266 111.662H134.02C134.09 111.662 134.161 111.592 134.231 111.522L137.528 104.225C137.599 104.155 137.669 104.155 137.669 104.295V114.048C137.665 114.076 137.667 114.105 137.676 114.133C137.686 114.16 137.701 114.185 137.721 114.206C137.742 114.226 137.767 114.241 137.794 114.251C137.821 114.26 137.851 114.262 137.879 114.258H139.914C139.943 114.262 139.972 114.26 139.999 114.251C140.026 114.241 140.051 114.226 140.072 114.206C140.092 114.185 140.108 114.16 140.117 114.133C140.126 114.105 140.128 114.076 140.124 114.048V100.857C140.128 100.829 140.126 100.799 140.117 100.772C140.108 100.745 140.092 100.72 140.072 100.699C140.051 100.679 140.026 100.663 139.999 100.654C139.972 100.645 139.943 100.643 139.914 100.647H136.967C136.757 100.577 136.616 100.647 136.616 100.787Z" fill="#181A19"/>
<path d="M148.401 96.928C149.681 96.9334 150.948 96.6705 152.12 96.1562C153.733 95.1038 154.996 93.2796 154.996 90.3327C155.033 89.2219 154.811 88.1179 154.348 87.1073C153.886 86.0968 153.195 85.2075 152.33 84.5092C150.716 83.3165 148.19 83.3866 147.278 83.3866H143.419C143.391 83.3826 143.362 83.3852 143.334 83.3943C143.307 83.4035 143.282 83.4188 143.262 83.4393C143.241 83.4597 143.226 83.4846 143.217 83.512C143.207 83.5394 143.205 83.5685 143.209 83.5971V96.7175C143.205 96.7461 143.207 96.7753 143.217 96.8027C143.226 96.8301 143.241 96.855 143.262 96.8754C143.282 96.8958 143.307 96.9112 143.334 96.9203C143.362 96.9295 143.391 96.9321 143.419 96.928H148.401ZM145.805 85.9125C145.805 85.8423 145.875 85.8423 145.945 85.7722H147.348C148.578 85.6625 149.81 85.9582 150.857 86.6141C152.4 87.7367 152.33 90.1924 152.33 90.1924C152.33 90.1924 152.47 92.6481 150.716 93.7707C149.911 94.1705 149.019 94.3634 148.12 94.332H145.875C145.805 94.332 145.805 94.2618 145.735 94.1917C145.875 94.332 145.805 85.9125 145.805 85.9125Z" fill="#181A19"/>
<path d="M82.7999 85.7021L66.2416 75.6689C65.6442 75.3241 64.9667 75.1426 64.277 75.1426C63.5873 75.1426 62.9098 75.3241 62.3125 75.6689L45.8242 85.7021C45.2988 86.0537 44.861 86.5212 44.5448 87.0686C44.2285 87.616 44.0421 88.2287 44 88.8595V108.505C44.0421 109.136 44.2285 109.749 44.5448 110.296C44.861 110.843 45.2988 111.311 45.8242 111.662L62.3826 121.696C62.9799 122.04 63.6575 122.222 64.3472 122.222C65.0369 122.222 65.7144 122.04 66.3117 121.696L82.8701 111.662C83.3956 111.311 83.8333 110.843 84.1496 110.296C84.4659 109.749 84.6522 109.136 84.6943 108.505V88.8595C84.6154 88.2304 84.4061 87.6248 84.0799 87.0811C83.7538 86.5375 83.3178 86.0678 82.7999 85.7021ZM80.3443 109.628L64.9786 118.959C64.7969 119.063 64.5914 119.117 64.3823 119.117C64.1731 119.117 63.9676 119.063 63.7859 118.959L48.3501 109.628C46.7363 108.645 46.7363 107.172 48.3501 106.119L57.6817 100.436C57.8635 100.333 58.069 100.278 58.2781 100.278C58.4872 100.278 58.6927 100.333 58.8745 100.436L61.26 101.84C61.3979 101.907 61.5043 102.025 61.5567 102.169C61.6091 102.313 61.6033 102.471 61.5407 102.611C61.4855 102.737 61.3854 102.837 61.26 102.892L53.8929 107.382C53.7551 107.449 53.6486 107.567 53.5963 107.711C53.5439 107.856 53.5496 108.014 53.6123 108.154C53.6675 108.28 53.7676 108.38 53.8929 108.435L63.3649 114.118C63.6636 114.29 64.0023 114.381 64.3472 114.381C64.692 114.381 65.0308 114.29 65.3295 114.118L74.8716 108.295C75.0095 108.228 75.1159 108.11 75.1682 107.965C75.2206 107.821 75.2149 107.663 75.1522 107.523C75.097 107.397 74.9969 107.297 74.8716 107.242L72.486 105.839C72.3043 105.735 72.0988 105.681 71.8897 105.681C71.6805 105.681 71.475 105.735 71.2933 105.839L64.9786 109.698C64.7969 109.801 64.5914 109.856 64.3823 109.856C64.1731 109.856 63.9676 109.801 63.7859 109.698L61.4003 108.295C61.2625 108.228 61.1561 108.11 61.1037 107.965C61.0513 107.821 61.057 107.663 61.1197 107.523C61.1749 107.397 61.275 107.297 61.4003 107.242L70.8021 101.489C71.1008 101.316 71.4396 101.226 71.7844 101.226C72.1293 101.226 72.468 101.316 72.7667 101.489L80.2039 106.049C81.8878 107.102 81.8878 108.645 80.3443 109.628ZM80.3443 91.245L64.9786 100.647C64.7969 100.75 64.5914 100.805 64.3823 100.805C64.1731 100.805 63.9676 100.75 63.7859 100.647L48.4202 91.245C46.8065 90.2627 46.8065 88.7893 48.4202 87.7369L63.7859 78.4052C63.9676 78.3018 64.1731 78.2474 64.3823 78.2474C64.5914 78.2474 64.7969 78.3018 64.9786 78.4052L67.3642 79.8085C67.502 79.8754 67.6085 79.9935 67.6608 80.1375C67.7132 80.2816 67.7075 80.4404 67.6448 80.5803C67.5896 80.7056 67.4895 80.8057 67.3642 80.8609L53.8228 89.07C53.6849 89.1369 53.5785 89.2549 53.5261 89.399C53.4737 89.543 53.4795 89.7018 53.5421 89.8417C53.5973 89.9671 53.6974 90.0672 53.8228 90.1224L63.3649 95.8757C63.6636 96.0481 64.0023 96.1388 64.3472 96.1388C64.692 96.1388 65.0308 96.0481 65.3295 95.8757L74.8716 90.0522C75.0095 89.9853 75.1159 89.8672 75.1682 89.7232C75.2206 89.5791 75.2149 89.4203 75.1522 89.2804C75.097 89.1551 74.9969 89.055 74.8716 88.9998L72.486 87.5965C72.3043 87.4931 72.0988 87.4387 71.8897 87.4387C71.6805 87.4387 71.475 87.4931 71.2933 87.5965L64.9786 91.4555C64.7969 91.5589 64.5914 91.6133 64.3823 91.6133C64.1731 91.6133 63.9676 91.5589 63.7859 91.4555L61.4003 90.0522C61.2625 89.9853 61.1561 89.8672 61.1037 89.7232C61.0513 89.5791 61.057 89.4203 61.1197 89.2804C61.1749 89.1551 61.275 89.055 61.4003 88.9998L70.8021 83.2464C71.1008 83.0741 71.4396 82.9833 71.7844 82.9833C72.1293 82.9833 72.468 83.0741 72.7667 83.2464L80.2039 87.7369C81.8878 88.7893 81.8878 90.3329 80.3443 91.245Z" fill="#181A19"/>
</svg>
