<svg width="40" height="40" viewBox="0 0 40 40" fill="none" xmlns="http://www.w3.org/2000/svg">
<path fill-rule="evenodd" clip-rule="evenodd" d="M2.94443 0.0800781C1.31877 0.0800781 0 1.35869 0 2.93393V37.0672C0 38.6426 1.31892 39.9201 2.94443 39.9201H36.8956C38.5219 39.9201 39.84 38.6424 39.84 37.0667V2.93393C39.84 1.35869 38.5219 0.0800781 36.8956 0.0800781H2.94443ZM12.1061 15.4841V33.4202H6.14437V15.4841H12.1061ZM12.499 9.93716C12.499 11.6584 11.205 13.0357 9.12646 13.0357L9.12599 13.0355H9.08739C7.08652 13.0355 5.79297 11.6582 5.79297 9.93701C5.79297 8.17673 7.12559 6.83789 9.16599 6.83789C11.205 6.83789 12.4601 8.17673 12.499 9.93716ZM21.3671 33.4202H15.4059L15.4058 33.4208C15.4058 33.4208 15.484 17.1673 15.4062 15.4847H21.3676V18.0235C22.1601 16.8016 23.5784 15.0636 26.7406 15.0636C30.6628 15.0636 33.6035 17.6272 33.6035 23.1362V33.4202H27.6424V23.8259C27.6424 21.4145 26.7792 19.7699 24.6225 19.7699C22.9752 19.7699 21.9943 20.879 21.5635 21.9505C21.406 22.3328 21.3671 22.8696 21.3671 23.4049V33.4202Z" fill="#FFFCF0"/>
</svg>
