<svg width="356" height="200" viewBox="0 0 356 200" fill="none" xmlns="http://www.w3.org/2000/svg">
<path d="M356 0H0V200H356V0Z" fill="#ADA178"/>
<g filter="url(#filter0_d_9_910)">
<path d="M250.622 57.4941L124.954 29.8411C120.327 28.8229 115.75 31.7485 114.732 36.3755L96.2968 120.154C95.2787 124.781 98.2042 129.358 102.831 130.376L228.5 158.029C233.127 159.047 237.703 156.122 238.721 151.495L257.156 67.7155C258.175 63.0885 255.249 58.5123 250.622 57.4941Z" fill="#E7E4D7"/>
</g>
<g style="mix-blend-mode:multiply">
<path d="M217.098 50.1158L250.61 57.49C255.239 58.5085 258.163 63.0826 257.144 67.7114L236.865 159.868L194.976 150.651L217.098 50.1158Z" fill="#E7E4D7"/>
</g>
<g style="mix-blend-mode:multiply">
<path d="M202.691 55.7345L127.29 39.1427C124.977 38.6336 122.689 40.0964 122.18 42.4099L107.431 109.433C106.922 111.747 108.385 114.035 110.698 114.544L186.1 131.136C188.413 131.645 190.701 130.182 191.21 127.868L205.959 60.8452C206.468 58.5317 205.005 56.2436 202.691 55.7345Z" fill="#E7E4D7"/>
</g>
<g filter="url(#filter1_d_9_910)">
<path d="M156.603 133.42L170.018 136.369C170.94 136.573 171.519 137.484 171.315 138.406L168.463 151.403C168.259 152.325 167.348 152.904 166.426 152.7L153.011 149.751C152.089 149.548 151.51 148.636 151.714 147.714L154.566 134.718C154.77 133.796 155.681 133.217 156.603 133.42Z" fill="#777DAD"/>
<path d="M157.633 142.438C157.805 142.17 157.987 141.87 158.158 141.527C158.351 141.205 158.523 140.873 158.705 140.562C158.866 140.283 159.016 140.004 159.145 139.715H159.156C159.166 139.897 159.177 140.09 159.188 140.294C159.198 140.508 159.22 140.723 159.241 140.959C159.263 141.195 159.284 141.409 159.306 141.645C159.327 141.87 159.338 142.085 159.359 142.288C159.381 142.481 159.402 142.674 159.413 142.824L157.644 142.438M158.512 138.246L158.437 138.31C158.405 138.46 158.351 138.61 158.298 138.75L158.18 138.953L154.513 144.905L154.566 145.044L155.874 145.334L156.025 145.269L156.915 143.736L159.509 144.304V144.272L159.724 146.073L159.82 146.17L161.279 146.492L161.375 146.395L160.389 138.718L160.314 138.642L158.523 138.246H158.501" fill="#383D75"/>
<path d="M163.992 143.564C164.056 143.393 164.131 143.242 164.26 143.092C164.453 142.856 164.742 142.728 165.032 142.728C165.117 142.728 165.214 142.739 165.3 142.76C165.718 142.835 166.029 143.178 166.061 143.607V143.875L166.029 143.95L165.857 143.972C165.772 143.961 165.643 143.929 165.461 143.897L163.992 143.575M164.871 141.484C164.71 141.484 164.549 141.505 164.399 141.538C164.034 141.623 163.702 141.784 163.413 142.02C163.112 142.256 162.866 142.535 162.683 142.856C162.48 143.189 162.351 143.553 162.265 143.929C162.212 144.186 162.179 144.454 162.179 144.722C162.179 144.808 162.179 144.894 162.179 144.98C162.201 145.333 162.297 145.677 162.458 145.998C162.63 146.341 162.887 146.631 163.187 146.856C163.52 147.092 163.949 147.274 164.474 147.392C164.806 147.478 165.139 147.521 165.482 147.521C165.536 147.521 165.579 147.521 165.632 147.521C165.836 147.521 166.029 147.499 166.233 147.457L166.297 147.414L166.329 147.328L166.565 146.256L166.522 146.191C166.383 146.213 166.243 146.223 166.093 146.223C166.018 146.223 165.943 146.223 165.868 146.223C165.621 146.223 165.375 146.191 165.128 146.138C164.817 146.073 164.528 145.945 164.27 145.762C164.077 145.634 163.938 145.451 163.852 145.226C163.788 145.055 163.766 144.883 163.766 144.701C163.766 144.647 163.766 144.604 163.766 144.551L165.975 145.033C166.158 145.076 166.318 145.14 166.479 145.173C166.64 145.205 166.78 145.226 166.887 145.237C167.005 145.258 167.08 145.269 167.123 145.269L167.241 145.205C167.262 145.14 167.294 145.044 167.337 144.915C167.369 144.787 167.412 144.636 167.444 144.476C167.487 144.283 167.509 144.079 167.509 143.875C167.509 143.779 167.509 143.693 167.498 143.596C167.477 143.285 167.38 142.985 167.251 142.706C167.112 142.417 166.897 142.181 166.64 141.988C166.329 141.763 165.975 141.613 165.611 141.538C165.343 141.484 165.096 141.441 164.86 141.441" fill="#383D75"/>
</g>
<g filter="url(#filter2_d_9_910)">
<path d="M224.211 124.209L255.844 137.506C258.032 138.428 259.05 140.937 258.139 143.125L245.25 173.771C244.328 175.958 241.819 176.977 239.631 176.065L207.998 162.769C205.811 161.847 204.792 159.338 205.704 157.15L218.593 126.504C219.515 124.317 222.024 123.298 224.211 124.209Z" fill="#ADA178"/>
</g>
<path d="M240.596 147.682C240.51 147.682 240.457 147.735 240.403 147.853L235.074 160.539C235.074 160.539 235.042 160.635 235.042 160.678C235.042 160.774 235.095 160.85 235.213 160.903L238.441 162.265C238.441 162.265 238.516 162.286 238.548 162.286C238.644 162.286 238.709 162.222 238.762 162.093L244.092 149.408C244.092 149.408 244.124 149.322 244.124 149.279C244.124 149.194 244.081 149.129 243.974 149.086L240.714 147.714C240.714 147.714 240.628 147.682 240.596 147.682ZM243.791 142.706C243.523 142.706 243.255 142.749 242.998 142.856C242.44 143.071 242.011 143.511 241.786 144.079C241.647 144.39 241.572 144.722 241.572 145.055C241.572 145.312 241.615 145.58 241.711 145.827C241.947 146.374 242.387 146.802 242.934 147.017C243.223 147.156 243.556 147.231 243.867 147.231C244.145 147.231 244.413 147.178 244.671 147.071C245.239 146.824 245.668 146.363 245.882 145.795C246.022 145.494 246.086 145.173 246.086 144.84C246.086 144.583 246.043 144.336 245.958 144.1C245.754 143.564 245.346 143.167 244.703 142.889C244.413 142.771 244.102 142.706 243.791 142.706ZM225.906 148.132C226.442 147.542 227.021 146.878 227.6 146.127C228.211 145.419 228.801 144.69 229.38 144.004C229.905 143.393 230.388 142.76 230.838 142.117H230.87C230.817 142.578 230.752 143.049 230.688 143.564C230.624 144.1 230.57 144.636 230.517 145.215C230.463 145.795 230.409 146.352 230.356 146.931C230.291 147.489 230.248 148.025 230.206 148.54C230.173 149.033 230.13 149.494 230.088 149.88L225.906 148.121M229.97 138.171L229.766 138.299C229.616 138.664 229.423 139.007 229.219 139.329C229.069 139.5 228.94 139.661 228.822 139.8L217.091 152.839C217.027 152.915 216.995 152.99 217.006 153.043C217.006 153.118 217.049 153.172 217.156 153.204L220.255 154.502C220.255 154.502 220.351 154.544 220.405 154.544C220.501 154.544 220.598 154.491 220.662 154.405L223.547 151.059L229.68 153.633L229.38 158.126C229.38 158.126 229.38 158.147 229.38 158.158C229.38 158.276 229.455 158.394 229.573 158.415L233.015 159.863C233.015 159.863 233.101 159.895 233.133 159.895C233.229 159.895 233.272 159.82 233.294 159.67L234.42 140.176C234.42 140.176 234.42 140.154 234.42 140.144C234.42 140.068 234.366 140.004 234.259 139.961L229.991 138.171" fill="#756638"/>
<g filter="url(#filter3_d_9_910)">
<path d="M131.469 127.93L144.851 130.836C145.773 131.04 146.363 131.951 146.159 132.873L143.339 145.837C143.135 146.76 142.224 147.349 141.302 147.146L127.92 144.24C126.997 144.036 126.408 143.125 126.611 142.202L129.432 129.238C129.635 128.316 130.547 127.726 131.469 127.93Z" fill="#AD787B"/>
</g>
<path d="M133.517 132.745L133.399 132.809L131.833 139.994L131.898 140.122L133.27 140.422L133.388 140.326L134.954 133.152L134.943 133.131L134.868 133.034L133.517 132.745Z" fill="#75383B"/>
<path d="M136.616 138.642C136.616 138.481 136.637 138.331 136.67 138.181C136.745 137.817 136.895 137.538 137.088 137.345C137.292 137.152 137.527 137.023 137.796 136.959C137.935 136.927 138.074 136.905 138.224 136.905C138.375 136.905 138.492 136.916 138.632 136.948L138.857 137.012L139.039 137.088L138.375 140.154L138.117 140.133C138.021 140.122 137.924 140.111 137.817 140.079C137.624 140.036 137.431 139.961 137.259 139.865C137.088 139.768 136.948 139.64 136.841 139.479C136.734 139.307 136.659 139.114 136.637 138.91C136.627 138.814 136.616 138.728 136.616 138.632M139.886 133.495L139.801 133.56L139.318 135.758L139.104 135.694L138.964 135.651C138.632 135.576 138.321 135.543 138.021 135.543C137.699 135.543 137.399 135.586 137.109 135.672C136.595 135.822 136.133 136.112 135.769 136.508C135.415 136.894 135.168 137.377 135.061 137.892C134.997 138.181 134.965 138.449 134.965 138.707C134.965 139.018 135.008 139.296 135.093 139.565C135.254 140.026 135.544 140.444 135.94 140.744C136.359 141.066 136.852 141.28 137.367 141.387C137.731 141.462 138.096 141.505 138.46 141.527C138.535 141.527 138.6 141.527 138.675 141.527C139.007 141.527 139.35 141.495 139.672 141.43L139.769 141.334C139.79 141.216 139.811 141.076 139.833 140.926C139.854 140.776 139.886 140.626 139.908 140.508L141.345 133.871L141.28 133.796L139.865 133.485" fill="#75383B"/>
<g filter="url(#filter4_d_9_910)">
<path d="M106.002 122.569L119.331 125.389C120.253 125.582 120.843 126.483 120.65 127.405L117.915 140.315C117.722 141.237 116.821 141.827 115.899 141.634L102.571 138.814C101.649 138.621 101.059 137.72 101.252 136.798L103.986 123.888C104.179 122.965 105.08 122.376 106.002 122.569Z" fill="#777DAD"/>
</g>
<path d="M107.932 131.179L108.425 128.842C108.425 128.842 108.576 128.863 108.715 128.895C108.844 128.917 109.004 128.949 109.187 128.992C109.476 129.045 109.744 129.142 109.98 129.303C110.163 129.421 110.302 129.592 110.388 129.807C110.431 129.935 110.452 130.064 110.452 130.193C110.452 130.279 110.441 130.375 110.42 130.461C110.356 130.761 110.238 130.986 110.055 131.126C109.862 131.265 109.648 131.362 109.412 131.372C109.326 131.372 109.23 131.383 109.144 131.383C108.962 131.383 108.769 131.362 108.597 131.329L108.232 131.254L107.964 131.179M107.267 127.201L107.182 127.265L105.67 134.407L105.734 134.514L107.053 134.793H107.085L107.182 134.718L107.653 132.487C107.782 132.52 107.879 132.541 107.954 132.562C108.018 132.584 108.136 132.605 108.297 132.638C108.683 132.723 109.047 132.766 109.401 132.766C109.573 132.766 109.744 132.755 109.905 132.734C110.388 132.659 110.838 132.455 111.203 132.123C111.567 131.79 111.803 131.329 111.932 130.729C111.975 130.547 111.985 130.354 111.985 130.171C111.985 130.043 111.985 129.914 111.964 129.785C111.921 129.464 111.803 129.153 111.621 128.885C111.406 128.574 111.138 128.305 110.806 128.123C110.452 127.898 109.991 127.726 109.423 127.609C109.219 127.566 109.004 127.523 108.79 127.48C108.576 127.437 108.372 127.394 108.179 127.362C107.986 127.33 107.814 127.298 107.653 127.265C107.493 127.244 107.385 127.212 107.267 127.19" fill="#383D75"/>
<path d="M114.312 130.514C114.119 130.514 113.937 130.536 113.765 130.579C113.433 130.654 113.133 130.825 112.897 131.061C112.693 131.286 112.543 131.554 112.479 131.855C112.446 131.973 112.436 132.08 112.436 132.198C112.436 132.327 112.457 132.466 112.489 132.595C112.575 132.863 112.704 133.099 112.897 133.292C113.154 133.56 113.454 133.796 113.776 133.999C114.087 134.203 114.291 134.353 114.387 134.471C114.462 134.568 114.505 134.653 114.505 134.728C114.505 134.75 114.505 134.761 114.505 134.782C114.484 134.911 114.377 135.007 114.259 135.029C114.205 135.039 114.13 135.05 114.055 135.05C113.948 135.05 113.819 135.039 113.658 135.007C113.379 134.954 113.111 134.857 112.865 134.728C112.575 134.589 112.318 134.428 112.071 134.203L112.007 134.182L111.964 134.235L111.707 135.447L111.76 135.597C111.964 135.747 112.189 135.876 112.425 135.972C112.725 136.101 113.026 136.198 113.347 136.262C113.637 136.326 113.905 136.348 114.151 136.348C114.334 136.348 114.495 136.337 114.655 136.305C114.999 136.251 115.31 136.09 115.567 135.854C115.803 135.618 115.974 135.318 116.028 134.986C116.06 134.868 116.071 134.75 116.071 134.632C116.071 134.503 116.049 134.364 116.017 134.235C115.931 133.967 115.792 133.742 115.588 133.538C115.299 133.259 114.977 133.013 114.623 132.809C114.473 132.702 114.323 132.595 114.184 132.477L113.991 132.241L113.958 132.048L114.055 131.876L114.302 131.78C114.302 131.78 114.355 131.78 114.387 131.78C114.505 131.78 114.623 131.79 114.73 131.823C114.999 131.876 115.245 131.973 115.492 132.08C115.717 132.176 115.921 132.305 116.103 132.455L116.232 132.477L116.285 132.412L116.521 131.276V131.19L116.468 131.115C116.296 130.997 116.103 130.9 115.899 130.825C115.62 130.729 115.331 130.643 115.052 130.579C114.784 130.525 114.548 130.493 114.323 130.493" fill="#383D75"/>
<g filter="url(#filter5_d_9_910)">
<path d="M181.695 139.028L195.067 141.881C195.978 142.074 196.557 142.974 196.364 143.886L193.598 156.85C193.405 157.761 192.504 158.34 191.592 158.147L178.221 155.295C177.309 155.102 176.73 154.201 176.923 153.29L179.69 140.326C179.883 139.414 180.784 138.835 181.695 139.028Z" fill="#777DAD"/>
<path d="M186.349 152.046L181.942 151.102L181.856 150.952L183.379 143.854L183.475 143.768L183.497 143.779L184.858 144.068L184.923 144.143V144.165L183.679 149.998L186.896 150.684L186.949 150.791L186.488 151.96L186.435 152.035L186.349 152.046Z" fill="#777DAD"/>
<path d="M188.643 146.717L189.855 146.974L189.973 147.114L189.995 147.285V147.51L189.941 147.757C190.198 147.564 190.499 147.414 190.81 147.317C191.163 147.21 191.539 147.199 191.893 147.296L191.978 147.392V147.414L191.678 148.776L191.549 148.829C191.11 148.711 190.638 148.69 190.188 148.786C190.037 148.818 189.887 148.872 189.759 148.969L189.008 152.518L188.901 152.593L187.55 152.303L187.453 152.196V152.175L188.279 148.325C188.311 148.154 188.354 147.982 188.386 147.8C188.418 147.618 188.461 147.435 188.493 147.253C188.515 147.092 188.536 146.942 188.558 146.781L188.622 146.717H188.654" fill="#777DAD"/>
<path d="M183.475 143.768L183.379 143.854L181.856 150.952L181.942 151.102L186.349 152.046L186.435 152.035L186.488 151.96L186.949 150.791L186.896 150.684L183.679 149.998L184.923 144.165V144.143L184.858 144.068L183.497 143.779L183.475 143.768Z" fill="#383D75"/>
<path d="M188.611 146.717L188.547 146.781C188.536 146.942 188.515 147.092 188.483 147.253C188.451 147.435 188.418 147.607 188.376 147.8C188.343 147.982 188.311 148.154 188.268 148.325L187.443 152.175V152.196L187.528 152.303L188.879 152.593L188.987 152.518L189.737 148.969C189.866 148.872 190.016 148.829 190.166 148.786C190.359 148.743 190.552 148.733 190.756 148.733C191.013 148.733 191.281 148.765 191.528 148.84L191.657 148.786L191.946 147.425V147.403L191.871 147.307C191.71 147.264 191.539 147.242 191.378 147.242C191.174 147.242 190.981 147.274 190.788 147.328C190.477 147.425 190.177 147.575 189.92 147.768L189.963 147.521V147.296V147.124L189.845 146.985L188.633 146.728H188.601" fill="#383D75"/>
</g>
<path d="M178.886 69.1472L179.347 67.0562L177.256 66.5951L177.084 67.3779L137.291 58.6173L137.463 57.8345L135.372 57.3734L134.911 59.4644L135.694 59.6359L126.933 99.4287L126.15 99.2571L125.689 101.348L127.78 101.809L127.952 101.026L167.745 109.787L167.573 110.57L169.664 111.031L170.125 108.94L169.342 108.768L178.103 68.9756L178.886 69.1472ZM168.817 108.661L168.034 108.49L167.863 109.272L128.07 100.512L128.241 99.7289L127.459 99.5574L136.219 59.7646L137.002 59.9362L137.174 59.1534L176.966 67.914L176.795 68.6968L177.577 68.8684L168.817 108.661Z" fill="#ADA178"/>
<defs>
<filter id="filter0_d_9_910" x="96.0945" y="29.6388" width="165.264" height="132.592" filterUnits="userSpaceOnUse" color-interpolation-filters="sRGB">
<feFlood flood-opacity="0" result="BackgroundImageFix"/>
<feColorMatrix in="SourceAlpha" type="matrix" values="0 0 0 0 0 0 0 0 0 0 0 0 0 0 0 0 0 0 127 0" result="hardAlpha"/>
<feOffset dx="4" dy="4"/>
<feColorMatrix type="matrix" values="0 0 0 0 0.0941176 0 0 0 0 0.101961 0 0 0 0 0.0980392 0 0 0 1 0"/>
<feBlend mode="normal" in2="BackgroundImageFix" result="effect1_dropShadow_9_910"/>
<feBlend mode="normal" in="SourceGraphic" in2="effect1_dropShadow_9_910" result="shape"/>
</filter>
<filter id="filter1_d_9_910" x="151.673" y="133.38" width="21.6831" height="22.3615" filterUnits="userSpaceOnUse" color-interpolation-filters="sRGB">
<feFlood flood-opacity="0" result="BackgroundImageFix"/>
<feColorMatrix in="SourceAlpha" type="matrix" values="0 0 0 0 0 0 0 0 0 0 0 0 0 0 0 0 0 0 127 0" result="hardAlpha"/>
<feOffset dx="2" dy="3"/>
<feColorMatrix type="matrix" values="0 0 0 0 0.0941176 0 0 0 0 0.101961 0 0 0 0 0.0980392 0 0 0 1 0"/>
<feBlend mode="normal" in2="BackgroundImageFix" result="effect1_dropShadow_9_910"/>
<feBlend mode="normal" in="SourceGraphic" in2="effect1_dropShadow_9_910" result="shape"/>
</filter>
<filter id="filter2_d_9_910" x="205.37" y="123.876" width="55.1022" height="55.5232" filterUnits="userSpaceOnUse" color-interpolation-filters="sRGB">
<feFlood flood-opacity="0" result="BackgroundImageFix"/>
<feColorMatrix in="SourceAlpha" type="matrix" values="0 0 0 0 0 0 0 0 0 0 0 0 0 0 0 0 0 0 127 0" result="hardAlpha"/>
<feOffset dx="2" dy="3"/>
<feColorMatrix type="matrix" values="0 0 0 0 0.0941176 0 0 0 0 0.101961 0 0 0 0 0.0980392 0 0 0 1 0"/>
<feBlend mode="normal" in2="BackgroundImageFix" result="effect1_dropShadow_9_910"/>
<feBlend mode="normal" in="SourceGraphic" in2="effect1_dropShadow_9_910" result="shape"/>
</filter>
<filter id="filter3_d_9_910" x="126.571" y="127.89" width="21.6284" height="22.296" filterUnits="userSpaceOnUse" color-interpolation-filters="sRGB">
<feFlood flood-opacity="0" result="BackgroundImageFix"/>
<feColorMatrix in="SourceAlpha" type="matrix" values="0 0 0 0 0 0 0 0 0 0 0 0 0 0 0 0 0 0 127 0" result="hardAlpha"/>
<feOffset dx="2" dy="3"/>
<feColorMatrix type="matrix" values="0 0 0 0 0.0941176 0 0 0 0 0.101961 0 0 0 0 0.0980392 0 0 0 1 0"/>
<feBlend mode="normal" in2="BackgroundImageFix" result="effect1_dropShadow_9_910"/>
<feBlend mode="normal" in="SourceGraphic" in2="effect1_dropShadow_9_910" result="shape"/>
</filter>
<filter id="filter4_d_9_910" x="101.215" y="122.532" width="21.4709" height="22.1385" filterUnits="userSpaceOnUse" color-interpolation-filters="sRGB">
<feFlood flood-opacity="0" result="BackgroundImageFix"/>
<feColorMatrix in="SourceAlpha" type="matrix" values="0 0 0 0 0 0 0 0 0 0 0 0 0 0 0 0 0 0 127 0" result="hardAlpha"/>
<feOffset dx="2" dy="3"/>
<feColorMatrix type="matrix" values="0 0 0 0 0.0941176 0 0 0 0 0.101961 0 0 0 0 0.0980392 0 0 0 1 0"/>
<feBlend mode="normal" in2="BackgroundImageFix" result="effect1_dropShadow_9_910"/>
<feBlend mode="normal" in="SourceGraphic" in2="effect1_dropShadow_9_910" result="shape"/>
</filter>
<filter id="filter5_d_9_910" x="176.886" y="138.991" width="21.5148" height="22.1931" filterUnits="userSpaceOnUse" color-interpolation-filters="sRGB">
<feFlood flood-opacity="0" result="BackgroundImageFix"/>
<feColorMatrix in="SourceAlpha" type="matrix" values="0 0 0 0 0 0 0 0 0 0 0 0 0 0 0 0 0 0 127 0" result="hardAlpha"/>
<feOffset dx="2" dy="3"/>
<feColorMatrix type="matrix" values="0 0 0 0 0.0941176 0 0 0 0 0.101961 0 0 0 0 0.0980392 0 0 0 1 0"/>
<feBlend mode="normal" in2="BackgroundImageFix" result="effect1_dropShadow_9_910"/>
<feBlend mode="normal" in="SourceGraphic" in2="effect1_dropShadow_9_910" result="shape"/>
</filter>
</defs>
</svg>
