<?xml version="1.0" encoding="UTF-8"?>
<svg id="Illustration_x5F_Design-Implementation" xmlns="http://www.w3.org/2000/svg" xmlns:xlink="http://www.w3.org/1999/xlink" viewBox="0 0 200 200">
  <defs>
    <filter id="drop-shadow-28" filterUnits="userSpaceOnUse">
      <feOffset dx="4" dy="4"/>
      <feGaussianBlur result="blur" stdDeviation="0"/>
      <feFlood flood-color="#181a19" flood-opacity="1"/>
      <feComposite in2="blur" operator="in"/>
      <feComposite in="SourceGraphic"/>
    </filter>
    <filter id="drop-shadow-23" x="37" y="55" width="132" height="84" filterUnits="userSpaceOnUse">
      <feOffset dx="4" dy="4"/>
      <feGaussianBlur result="blur-2" stdDeviation="0"/>
      <feFlood flood-color="#181a19" flood-opacity="1"/>
      <feComposite in2="blur-2" operator="in"/>
      <feComposite in="SourceGraphic"/>
    </filter>
    <filter id="drop-shadow-24" x="85" y="135" width="36" height="12" filterUnits="userSpaceOnUse">
      <feOffset dx="4" dy="4"/>
      <feGaussianBlur result="blur-3" stdDeviation="0"/>
      <feFlood flood-color="#181a19" flood-opacity="1"/>
      <feComposite in2="blur-3" operator="in"/>
      <feComposite in="SourceGraphic"/>
    </filter>
    <filter id="drop-shadow-25" x="71.82" y="143" width="60.35" height="19" filterUnits="userSpaceOnUse">
      <feOffset dx="2" dy="3"/>
      <feGaussianBlur result="blur-4" stdDeviation="0"/>
      <feFlood flood-color="#181a19" flood-opacity="1"/>
      <feComposite in2="blur-4" operator="in"/>
      <feComposite in="SourceGraphic"/>
    </filter>
    <filter id="drop-shadow-26" x=".29" y="61" width="85.71" height="86.54" filterUnits="userSpaceOnUse">
      <feOffset dx="2" dy="3"/>
      <feGaussianBlur result="blur-5" stdDeviation="0"/>
      <feFlood flood-color="#181a19" flood-opacity="1"/>
      <feComposite in2="blur-5" operator="in"/>
      <feComposite in="SourceGraphic"/>
    </filter>
    <clipPath id="clippath">
      <polygon points="83.23 107.76 79.67 99.55 74.53 105.68 83.23 107.76" style="fill: #e7e4d7;"/>
    </clipPath>
    <filter id="drop-shadow-27" x="98.29" y="30.25" width="25.71" height="70.75" filterUnits="userSpaceOnUse">
      <feOffset dx="2" dy="3"/>
      <feGaussianBlur result="blur-6" stdDeviation="0"/>
      <feFlood flood-color="#181a19" flood-opacity="1"/>
      <feComposite in2="blur-6" operator="in"/>
      <feComposite in="SourceGraphic"/>
    </filter>
    <filter id="drop-shadow-28-1" x="126.07" y="104.31" width="55.93" height="68.69" filterUnits="userSpaceOnUse">
      <feOffset dx="4" dy="4"/>
      <feGaussianBlur result="blur-7" stdDeviation="0"/>
      <feFlood flood-color="#181a19" flood-opacity="1"/>
      <feComposite in2="blur-7" operator="in"/>
      <feComposite in="SourceGraphic"/>
    </filter>
    <filter id="drop-shadow-29" x="134.62" y="55" width="50.38" height="68.88" filterUnits="userSpaceOnUse">
      <feOffset dx="2" dy="3"/>
      <feGaussianBlur result="blur-8" stdDeviation="0"/>
      <feFlood flood-color="#181a19" flood-opacity="1"/>
      <feComposite in2="blur-8" operator="in"/>
      <feComposite in="SourceGraphic"/>
    </filter>
  </defs>
  <rect width="200" height="200" style="fill: #ad787b;"/>
  <g style="filter: url(#drop-shadow-23);">
    <path d="M157,135H45c-4.42,0-8-3.58-8-8V63c0-4.42,3.58-8,8-8h112c4.42,0,8,3.58,8,8v64c0,4.42-3.58,8-8,8" style="fill: #e7e4d7;"/>
    <path d="M158,59H44c-1.66,0-3,1.19-3,2.67v58.67c0,1.47,1.34,2.67,3,2.67h114c1.66,0,3-1.19,3-2.67v-58.67c0-1.47-1.34-2.67-3-2.67" style="fill: #d1ccb5;"/>
  </g>
  <polyline points="117 135 85 135 85 143 117 143 117 135" style="fill: #ada178; filter: url(#drop-shadow-24);"/>
  <path d="M128.17,159h-54.34c-1.78,0-2.67-2.15-1.41-3.41l12.59-12.59h32l12.59,12.59c1.26,1.26.37,3.41-1.41,3.41Z" style="fill: #d1ccb5; filter: url(#drop-shadow-25);"/>
  <g style="filter: url(#drop-shadow-26);">
    <rect x="55.05" y="51.04" width="2" height="60" transform="translate(154.16 90.18) rotate(129.98)" style="fill: #777dad;"/>
    <polyline points="77.1 102.62 78.39 101.09 32.42 62.53 31.13 64.07 77.1 102.62" style="fill: #383d75;"/>
    <polyline points="74.53 105.68 75.82 104.15 29.85 65.6 28.56 67.13 74.53 105.68" style="fill: #383d75;"/>
    <rect x="52.47" y="54.11" width="2" height="60" transform="translate(152.28 97.18) rotate(129.98)" style="fill: #777dad;"/>
    <g>
      <polygon points="83.23 107.76 79.67 99.55 74.53 105.68 83.23 107.76" style="fill: #e7e4d7;"/>
      <g style="clip-path: url(#clippath);">
        <polygon points="82.22 104.3 79.65 107.36 84 108.4 82.22 104.3" style="fill: #ada178;"/>
        <g>
          <line x1="54.96" y1="141.47" x2="2.86" y2="97.78" style="fill: #78ad85;"/>
          <g>
            <g>
              <polyline points="30.46 115.71 5.43 94.71 .29 100.84 25.32 121.84 30.46 115.71" style="fill: #78ad85;"/>
              <polyline points="7.38 102.88 7.06 102.61 10.28 98.78 10.59 99.04 7.38 102.88" style="fill: #387545;"/>
              <polyline points="7.41 100.29 7.1 100.03 9.03 97.73 9.34 97.99 7.41 100.29" style="fill: #387545;"/>
              <polyline points="4.91 98.19 4.6 97.93 6.52 95.63 6.84 95.89 4.91 98.19" style="fill: #387545;"/>
              <polyline points="6.16 99.24 5.85 98.98 7.77 96.68 8.09 96.94 6.16 99.24" style="fill: #387545;"/>
              <polyline points="12.42 104.49 12.11 104.23 14.03 101.93 14.35 102.19 12.42 104.49" style="fill: #387545;"/>
              <polyline points="9.91 102.39 9.6 102.13 11.53 99.83 11.84 100.09 9.91 102.39" style="fill: #387545;"/>
              <polyline points="11.17 103.44 10.85 103.18 12.78 100.88 13.09 101.14 11.17 103.44" style="fill: #387545;"/>
              <polyline points="17.43 108.69 17.11 108.43 19.04 106.13 19.35 106.39 17.43 108.69" style="fill: #387545;"/>
              <polyline points="14.92 106.59 14.61 106.33 16.54 104.03 16.85 104.29 14.92 106.59" style="fill: #387545;"/>
              <polyline points="16.17 107.64 15.86 107.38 17.79 105.08 18.1 105.34 16.17 107.64" style="fill: #387545;"/>
              <polyline points="22.43 112.89 22.12 112.63 24.05 110.33 24.36 110.59 22.43 112.89" style="fill: #387545;"/>
              <polyline points="19.93 110.79 19.62 110.53 21.54 108.23 21.86 108.49 19.93 110.79" style="fill: #387545;"/>
              <polyline points="21.18 111.84 20.87 111.58 22.8 109.28 23.11 109.54 21.18 111.84" style="fill: #387545;"/>
              <polyline points="27.44 117.09 27.13 116.83 29.05 114.53 29.37 114.79 27.44 117.09" style="fill: #387545;"/>
              <polyline points="24.94 114.99 24.62 114.73 26.55 112.43 26.86 112.69 24.94 114.99" style="fill: #387545;"/>
              <polyline points="26.19 116.04 25.87 115.78 27.8 113.48 28.12 113.74 26.19 116.04" style="fill: #387545;"/>
              <polyline points="2.37 98.68 2.21 98.54 5.43 94.71 5.58 94.84 2.37 98.68" style="fill: #387545;"/>
              <polyline points="27.25 119.54 27.09 119.41 30.31 115.58 30.46 115.71 27.25 119.54" style="fill: #387545;"/>
              <polyline points="12.38 107.07 12.07 106.81 15.29 102.98 15.6 103.24 12.38 107.07" style="fill: #387545;"/>
              <polyline points="17.39 111.27 17.08 111.01 20.29 107.18 20.6 107.44 17.39 111.27" style="fill: #387545;"/>
              <polyline points="22.4 115.47 22.09 115.21 25.3 111.38 25.61 111.64 22.4 115.47" style="fill: #387545;"/>
            </g>
            <g>
              <polyline points="55.5 136.7 30.46 115.71 25.32 121.84 50.36 142.83 55.5 136.7" style="fill: #78ad85;"/>
              <polyline points="32.41 123.87 32.1 123.61 35.31 119.78 35.63 120.04 32.41 123.87" style="fill: #387545;"/>
              <polyline points="32.45 121.29 32.13 121.03 34.06 118.73 34.37 118.99 32.45 121.29" style="fill: #387545;"/>
              <polyline points="29.94 119.19 29.63 118.93 31.56 116.63 31.87 116.89 29.94 119.19" style="fill: #387545;"/>
              <polyline points="31.19 120.24 30.88 119.98 32.81 117.68 33.12 117.94 31.19 120.24" style="fill: #387545;"/>
              <polyline points="37.45 125.49 37.14 125.22 39.07 122.93 39.38 123.19 37.45 125.49" style="fill: #387545;"/>
              <polyline points="34.95 123.39 34.64 123.12 36.56 120.83 36.88 121.09 34.95 123.39" style="fill: #387545;"/>
              <polyline points="36.2 124.44 35.89 124.17 37.82 121.88 38.13 122.14 36.2 124.44" style="fill: #387545;"/>
              <polyline points="42.46 129.69 42.15 129.42 44.07 127.12 44.39 127.39 42.46 129.69" style="fill: #387545;"/>
              <polyline points="39.96 127.59 39.64 127.32 41.57 125.02 41.88 125.29 39.96 127.59" style="fill: #387545;"/>
              <polyline points="41.21 128.64 40.9 128.37 42.82 126.07 43.14 126.34 41.21 128.64" style="fill: #387545;"/>
              <polyline points="47.47 133.88 47.15 133.62 49.08 131.32 49.39 131.59 47.47 133.88" style="fill: #387545;"/>
              <polyline points="44.96 131.79 44.65 131.52 46.58 129.22 46.89 129.49 44.96 131.79" style="fill: #387545;"/>
              <polyline points="46.21 132.83 45.9 132.57 47.83 130.27 48.14 130.54 46.21 132.83" style="fill: #387545;"/>
              <polyline points="52.47 138.08 52.16 137.82 54.09 135.52 54.4 135.78 52.47 138.08" style="fill: #387545;"/>
              <polyline points="49.97 135.98 49.66 135.72 51.58 133.42 51.9 133.69 49.97 135.98" style="fill: #387545;"/>
              <polyline points="51.22 137.03 50.91 136.77 52.84 134.47 53.15 134.73 51.22 137.03" style="fill: #387545;"/>
              <polyline points="27.41 119.67 27.25 119.54 30.46 115.71 30.62 115.84 27.41 119.67" style="fill: #387545;"/>
              <polyline points="52.28 140.53 52.13 140.4 55.34 136.57 55.5 136.7 52.28 140.53" style="fill: #387545;"/>
              <polyline points="37.42 128.07 37.11 127.81 40.32 123.98 40.63 124.24 37.42 128.07" style="fill: #387545;"/>
              <polyline points="42.43 132.27 42.11 132.01 45.33 128.17 45.64 128.44 42.43 132.27" style="fill: #387545;"/>
              <polyline points="47.43 136.47 47.12 136.2 50.33 132.37 50.65 132.64 47.43 136.47" style="fill: #387545;"/>
            </g>
            <g>
              <rect x="50.02" y="139.46" width="8" height="2.45" transform="translate(-88.49 91.68) rotate(-50.02)" style="fill: #ad787b;"/>
              <g>
                <line x1="55.65" y1="136.83" x2="50.51" y2="142.96" style="fill: #ad787b;"/>
                <rect x="49.08" y="139.7" width="8" height=".41" transform="translate(-88.22 90.67) rotate(-50.01)" style="fill: #181a19;"/>
              </g>
            </g>
          </g>
        </g>
      </g>
    </g>
  </g>
  <g style="filter: url(#drop-shadow-27);">
    <g>
      <polyline points="106.36 63.07 98.29 96.1 106.06 98 114.14 64.97 106.36 63.07" style="fill: #78ad85;"/>
      <polyline points="104.81 90.48 104.71 90.89 99.85 89.7 99.96 89.29 104.81 90.48" style="fill: #387545;"/>
      <polyline points="102.47 91.65 102.37 92.07 99.45 91.35 99.55 90.94 102.47 91.65" style="fill: #387545;"/>
      <polyline points="101.66 94.95 101.56 95.37 98.64 94.66 98.74 94.24 101.66 94.95" style="fill: #387545;"/>
      <polyline points="102.06 93.3 101.96 93.72 99.05 93 99.15 92.59 102.06 93.3" style="fill: #387545;"/>
      <polyline points="104.08 85.05 103.98 85.46 101.07 84.75 101.17 84.33 104.08 85.05" style="fill: #387545;"/>
      <polyline points="103.27 88.35 103.17 88.76 100.26 88.05 100.36 87.64 103.27 88.35" style="fill: #387545;"/>
      <polyline points="103.68 86.7 103.58 87.11 100.66 86.4 100.76 85.99 103.68 86.7" style="fill: #387545;"/>
      <polyline points="105.7 78.44 105.59 78.85 102.68 78.14 102.78 77.73 105.7 78.44" style="fill: #387545;"/>
      <polyline points="104.89 81.74 104.79 82.16 101.87 81.44 101.97 81.03 104.89 81.74" style="fill: #387545;"/>
      <polyline points="105.29 80.09 105.19 80.51 102.28 79.79 102.38 79.38 105.29 80.09" style="fill: #387545;"/>
      <polyline points="107.31 71.84 107.21 72.25 104.3 71.54 104.4 71.12 107.31 71.84" style="fill: #387545;"/>
      <polyline points="106.5 75.14 106.4 75.55 103.49 74.84 103.59 74.43 106.5 75.14" style="fill: #387545;"/>
      <polyline points="106.91 73.49 106.81 73.9 103.89 73.19 103.99 72.77 106.91 73.49" style="fill: #387545;"/>
      <polyline points="108.93 65.23 108.82 65.64 105.91 64.93 106.01 64.52 108.93 65.23" style="fill: #387545;"/>
      <polyline points="108.12 68.53 108.02 68.95 105.1 68.23 105.2 67.82 108.12 68.53" style="fill: #387545;"/>
      <polyline points="108.52 66.88 108.42 67.29 105.51 66.58 105.61 66.17 108.52 66.88" style="fill: #387545;"/>
      <polyline points="103.2 97.08 103.15 97.29 98.29 96.1 98.34 95.89 103.2 97.08" style="fill: #387545;"/>
      <polyline points="111.22 64.26 111.17 64.47 106.31 63.28 106.36 63.07 111.22 64.26" style="fill: #387545;"/>
      <polyline points="106.43 83.87 106.33 84.28 101.47 83.1 101.57 82.68 106.43 83.87" style="fill: #387545;"/>
      <polyline points="108.04 77.26 107.94 77.68 103.08 76.49 103.19 76.08 108.04 77.26" style="fill: #387545;"/>
      <polyline points="109.66 70.66 109.56 71.07 104.7 69.88 104.8 69.47 109.66 70.66" style="fill: #387545;"/>
    </g>
    <g>
      <path d="M115.41,30.28l5.83,1.42c.54.13.87.67.73,1.21l-7.84,32.06-7.77-1.9,7.84-32.06c.13-.54.67-.87,1.21-.73ZM117.85,32.94c-.54-.13-1.08.2-1.21.73s.2,1.08.73,1.21,1.08-.2,1.21-.73-.2-1.08-.73-1.21Z" style="fill: #78ad85;"/>
      <polyline points="112.89 57.45 112.79 57.86 107.93 56.67 108.03 56.26 112.89 57.45" style="fill: #387545;"/>
      <polyline points="110.54 58.62 110.44 59.04 107.52 58.33 107.63 57.91 110.54 58.62" style="fill: #387545;"/>
      <polyline points="109.73 61.93 109.63 62.34 106.72 61.63 106.82 61.21 109.73 61.93" style="fill: #387545;"/>
      <polyline points="110.14 60.28 110.04 60.69 107.12 59.98 107.22 59.56 110.14 60.28" style="fill: #387545;"/>
      <polyline points="112.15 52.02 112.05 52.43 109.14 51.72 109.24 51.31 112.15 52.02" style="fill: #387545;"/>
      <polyline points="111.35 55.32 111.25 55.73 108.33 55.02 108.43 54.61 111.35 55.32" style="fill: #387545;"/>
      <polyline points="111.75 53.67 111.65 54.08 108.74 53.37 108.84 52.96 111.75 53.67" style="fill: #387545;"/>
      <polyline points="113.77 45.41 113.67 45.83 110.75 45.11 110.85 44.7 113.77 45.41" style="fill: #387545;"/>
      <polyline points="112.96 48.72 112.86 49.13 109.95 48.42 110.05 48 112.96 48.72" style="fill: #387545;"/>
      <polyline points="113.37 47.07 113.26 47.48 110.35 46.77 110.45 46.35 113.37 47.07" style="fill: #387545;"/>
      <polyline points="115.38 38.81 115.28 39.22 112.37 38.51 112.47 38.1 115.38 38.81" style="fill: #387545;"/>
      <polyline points="114.58 42.11 114.48 42.52 111.56 41.81 111.66 41.4 114.58 42.11" style="fill: #387545;"/>
      <polyline points="114.98 40.46 114.88 40.87 111.96 40.16 112.07 39.75 114.98 40.46" style="fill: #387545;"/>
      <polyline points="111.27 64.05 111.22 64.26 106.36 63.07 106.41 62.87 111.27 64.05" style="fill: #387545;"/>
      <polyline points="114.5 50.84 114.4 51.26 109.54 50.07 109.64 49.66 114.5 50.84" style="fill: #387545;"/>
      <polyline points="116.12 44.24 116.01 44.65 111.16 43.46 111.26 43.05 116.12 44.24" style="fill: #387545;"/>
      <polyline points="117.73 37.63 117.63 38.04 112.77 36.86 112.87 36.44 117.73 37.63" style="fill: #387545;"/>
    </g>
  </g>
  <g>
    <rect x="136.05" y="106.96" width="31.97" height="59.38" rx="4" ry="4" transform="translate(-44.3 79.71) rotate(-25.78)" style="fill: #e7e4d7; filter: url(#drop-shadow-28-1);"/>
    <path d="M151.63,106.4c-.29,0-.59.06-.87.2l-21.48,10.37c-.72.35-1.13,1.06-1.13,1.8,0,.29.06.59.2.87l21.1,43.7c.34.71,1.06,1.13,1.8,1.13.29,0,.59-.06.87-.2l21.48-10.37c.72-.35,1.13-1.06,1.13-1.8,0-.29-.06-.59-.2-.87l-21.1-43.7c-.34-.71-1.06-1.13-1.8-1.13" style="fill: #d1ccb5;"/>
  </g>
  <g style="filter: url(#drop-shadow-29);">
    <path d="M180.95,54.77h0c.55,0,1,.45,1,1v4h-2v-4c0-.55.45-1,1-1Z" transform="translate(57.38 -86.79) rotate(31.82)" style="fill: #e7e4d7;"/>
    <g>
      <line x1="163.06" y1="78.53" x2="170.7" y2="83.28" style="fill: #ada178;"/>
      <rect x="166.63" y="76.41" width=".5" height="9" transform="translate(10.15 180.05) rotate(-58.18)" style="fill: #e7e4d7;"/>
    </g>
    <g>
      <path d="M134.87,107.42c-1.2-1.15,2.22-6.66,3.37-7.85l33.21-34.66,2.89,2.77-39.46,39.74Z" style="fill: #ada178;"/>
      <circle cx="138.24" cy="99.57" r="1" style="fill: #ad787b;"/>
    </g>
    <g>
      <path d="M156.49,120.84c1.56.56,4.98-4.95,5.54-6.51l16.3-45.15-3.76-1.36-18.08,53.01Z" style="fill: #ada178;"/>
      <circle cx="162.03" cy="114.33" r="1" style="fill: #ad787b;"/>
    </g>
    <rect x="164.46" y="79.64" width="4" height="2" rx="1" ry="1" transform="translate(67.52 -75.64) rotate(31.82)" style="fill: #ada178;"/>
    <path d="M182.1,66.81c-1.75,2.82-5.45,3.68-8.26,1.94s-3.68-5.45-1.94-8.26c1.75-2.82,5.45-3.68,8.26-1.94s3.68,5.45,1.94,8.26ZM179.11,60.25c-1.88-1.16-4.34-.59-5.51,1.29-1.16,1.88-.59,4.34,1.29,5.51s4.34.59,5.51-1.29c1.16-1.88.59-4.34-1.29-5.51Z" style="fill: #ada178;"/>
    <path d="M174.89,63.05h0c.55,0,1,.45,1,1v7h-2v-7c0-.55.45-1,1-1Z" transform="translate(61.62 -82.13) rotate(31.82)" style="fill: #e7e4d7;"/>
  </g>
</svg>