<svg width="356" height="200" viewBox="0 0 356 200" fill="none" xmlns="http://www.w3.org/2000/svg">
<path d="M356 0H0V200H356V0Z" fill="#ADA178"/>
<g filter="url(#filter0_d_9_1234)">
<path d="M245.65 54.504L127.118 35.794C122.753 35.1051 118.657 38.0845 117.968 42.4488L104.247 129.373C103.558 133.737 106.538 137.833 110.902 138.522L229.435 157.232C233.799 157.921 237.895 154.942 238.584 150.577L252.305 63.6535C252.994 59.2893 250.014 55.1929 245.65 54.504Z" fill="#E7E4D7"/>
</g>
<g filter="url(#filter1_d_9_1234)">
<path d="M169.058 164.656L168.418 160.486C168.378 160.216 168.088 160.166 167.958 160.416L166.058 164.186C165.908 164.486 165.548 164.336 165.598 163.996L184.828 42.1161C184.938 41.4361 185.468 40.9461 186.008 41.0361L187.988 41.3461C188.538 41.4361 188.888 42.0561 188.778 42.7361L169.548 164.616C169.498 164.956 169.108 164.986 169.058 164.656Z" fill="#AD787B"/>
</g>
<g filter="url(#filter2_d_9_1234)">
<path d="M160.798 48.2561L133.648 52.4961L137.998 25.3461C143.528 26.2161 148.868 28.7961 153.128 33.0961C157.388 37.3861 159.958 42.7361 160.788 48.2561H160.798Z" fill="#E7E4D7"/>
<path d="M153.048 71.9861C150.938 74.0861 148.588 75.7761 146.058 77.0061C135.728 82.2961 122.778 80.5661 114.158 71.9061L133.648 52.5061L160.798 48.2661C162.118 56.6561 159.538 65.5361 153.048 71.9961V71.9861Z" fill="#78AD85"/>
<path d="M137.898 25.3361C129.548 24.0161 120.708 26.5861 114.248 33.0161C112.138 35.1161 110.448 37.4661 109.178 39.9761C107.828 42.5861 106.928 45.3761 106.478 48.2261C105.158 56.5861 107.728 65.4461 114.158 71.9061L133.648 52.5061L137.998 25.3561C137.998 25.3561 137.928 25.3461 137.888 25.3361" fill="#777DAD"/>
</g>
<path d="M128.717 105.733L129.705 105.889C129.982 105.932 130.165 106.184 130.121 106.46L127.237 124.734L125.261 124.422L128.146 106.149C128.189 105.872 128.441 105.689 128.717 105.733Z" fill="#777DAD"/>
<path d="M139.801 112.547L140.788 112.703C141.065 112.747 141.248 112.999 141.204 113.275L139.099 126.61L137.124 126.298L139.229 112.963C139.272 112.687 139.524 112.504 139.801 112.547Z" fill="#777DAD"/>
<path d="M148.534 95.7076L149.522 95.8635C149.798 95.9072 149.981 96.1588 149.937 96.4354L145.026 127.55L143.051 127.238L147.962 96.1235C148.006 95.8469 148.257 95.6639 148.534 95.7076Z" fill="#777DAD"/>
<path d="M136.055 97.7844L137.043 97.9403C137.32 97.984 137.503 98.2356 137.459 98.5121L133.171 125.676L131.196 125.364L135.483 98.2003C135.527 97.9237 135.779 97.7407 136.055 97.7844Z" fill="#777DAD"/>
<path d="M152.906 106.518L153.894 106.674C154.17 106.717 154.353 106.969 154.31 107.245L150.957 128.482L148.982 128.171L152.334 106.934C152.378 106.657 152.629 106.474 152.906 106.518Z" fill="#777DAD"/>
<path d="M126.308 92.196L121.328 123.806L152.928 128.796" stroke="#777DAD" stroke-width="0.5" stroke-miterlimit="10"/>
<path d="M126.568 91.4661L126.988 92.5661C127.028 92.6761 126.938 92.796 126.818 92.776L125.648 92.596C125.528 92.576 125.468 92.4361 125.548 92.3361L126.288 91.4161C126.368 91.3261 126.518 91.3461 126.558 91.4561L126.568 91.4661Z" fill="#777DAD"/>
<path d="M154.128 129.126L153.028 129.546C152.918 129.586 152.798 129.496 152.818 129.376L152.998 128.206C153.018 128.086 153.158 128.026 153.258 128.106L154.178 128.846C154.268 128.926 154.248 129.076 154.138 129.116L154.128 129.126Z" fill="#777DAD"/>
<path d="M230.078 98.6061L199.458 93.7761C199.188 93.7361 198.928 93.9161 198.888 94.1961L198.728 95.1861C198.688 95.4561 198.868 95.7161 199.148 95.7561L229.768 100.586C230.038 100.626 230.298 100.446 230.338 100.166L230.498 99.1761C230.538 98.9061 230.358 98.6461 230.078 98.6061Z" fill="#D1CCB5"/>
<path d="M229.458 102.556L198.838 97.726C198.568 97.686 198.308 97.866 198.268 98.146L198.108 99.136C198.068 99.406 198.248 99.666 198.528 99.706L229.148 104.536C229.418 104.576 229.678 104.396 229.718 104.116L229.878 103.126C229.918 102.856 229.738 102.596 229.458 102.556Z" fill="#D1CCB5"/>
<path d="M228.838 106.506L198.218 101.676C197.948 101.636 197.688 101.816 197.648 102.096L197.488 103.086C197.448 103.356 197.628 103.616 197.908 103.656L228.528 108.486C228.798 108.526 229.058 108.346 229.098 108.066L229.258 107.076C229.298 106.806 229.118 106.546 228.838 106.506Z" fill="#D1CCB5"/>
<path d="M228.208 110.456L197.588 105.626C197.318 105.586 197.058 105.766 197.018 106.046L196.858 107.036C196.818 107.306 196.998 107.566 197.278 107.606L227.898 112.436C228.168 112.476 228.428 112.296 228.468 112.016L228.628 111.026C228.668 110.756 228.488 110.496 228.208 110.456Z" fill="#D1CCB5"/>
<path d="M227.588 114.406L196.968 109.576C196.698 109.536 196.438 109.716 196.398 109.996L196.238 110.986C196.198 111.256 196.378 111.516 196.658 111.556L227.278 116.386C227.548 116.426 227.808 116.246 227.848 115.966L228.008 114.976C228.048 114.706 227.868 114.446 227.588 114.406Z" fill="#D1CCB5"/>
<path d="M226.968 118.356L196.348 113.526C196.078 113.486 195.818 113.666 195.778 113.946L195.618 114.936C195.578 115.206 195.758 115.466 196.038 115.506L226.658 120.336C226.928 120.376 227.188 120.196 227.228 119.916L227.388 118.926C227.428 118.656 227.248 118.396 226.968 118.356Z" fill="#D1CCB5"/>
<path d="M226.338 122.316L195.718 117.486C195.448 117.446 195.188 117.626 195.148 117.906L194.988 118.896C194.948 119.166 195.128 119.426 195.408 119.466L226.028 124.296C226.298 124.336 226.558 124.156 226.598 123.876L226.758 122.886C226.798 122.616 226.618 122.356 226.338 122.316Z" fill="#D1CCB5"/>
<path d="M225.718 126.266L195.098 121.436C194.828 121.396 194.568 121.576 194.528 121.856L194.368 122.846C194.328 123.116 194.508 123.376 194.788 123.416L225.408 128.246C225.678 128.286 225.938 128.106 225.978 127.826L226.138 126.836C226.178 126.566 225.998 126.306 225.718 126.266Z" fill="#D1CCB5"/>
<path d="M225.088 130.216L194.468 125.386C194.198 125.346 193.938 125.526 193.898 125.806L193.738 126.796C193.698 127.066 193.878 127.326 194.158 127.366L224.778 132.196C225.048 132.236 225.308 132.056 225.348 131.776L225.508 130.786C225.548 130.516 225.368 130.256 225.088 130.216Z" fill="#D1CCB5"/>
<path d="M224.468 134.166L193.848 129.336C193.578 129.296 193.318 129.476 193.278 129.756L193.118 130.746C193.078 131.016 193.258 131.276 193.538 131.316L224.158 136.146C224.428 136.186 224.688 136.006 224.728 135.726L224.888 134.736C224.928 134.466 224.748 134.206 224.468 134.166Z" fill="#D1CCB5"/>
<path d="M223.848 138.116L193.228 133.286C192.958 133.246 192.698 133.426 192.658 133.706L192.498 134.696C192.458 134.966 192.638 135.226 192.918 135.266L223.538 140.096C223.808 140.136 224.068 139.956 224.108 139.676L224.268 138.686C224.308 138.416 224.128 138.156 223.848 138.116Z" fill="#D1CCB5"/>
<path d="M223.218 142.066L192.598 137.236C192.328 137.196 192.068 137.376 192.028 137.656L191.868 138.646C191.828 138.916 192.008 139.176 192.288 139.216L222.908 144.046C223.178 144.086 223.438 143.906 223.478 143.626L223.638 142.636C223.678 142.366 223.498 142.106 223.218 142.066Z" fill="#D1CCB5"/>
<path d="M222.598 146.026L191.978 141.196C191.708 141.156 191.448 141.336 191.408 141.616L191.248 142.606C191.208 142.876 191.388 143.136 191.668 143.176L222.288 148.006C222.558 148.046 222.818 147.866 222.858 147.586L223.018 146.596C223.058 146.326 222.878 146.066 222.598 146.026Z" fill="#D1CCB5"/>
<g filter="url(#filter3_d_9_1234)">
<path d="M216.258 145.916C222.676 145.916 227.878 140.714 227.878 134.296C227.878 127.879 222.676 122.676 216.258 122.676C209.841 122.676 204.638 127.879 204.638 134.296C204.638 140.714 209.841 145.916 216.258 145.916Z" fill="#E7E4D7"/>
<mask id="mask0_9_1234" style="mask-type:luminance" maskUnits="userSpaceOnUse" x="204" y="122" width="24" height="24">
<path d="M216.258 145.916C222.676 145.916 227.878 140.714 227.878 134.296C227.878 127.879 222.676 122.676 216.258 122.676C209.841 122.676 204.638 127.879 204.638 134.296C204.638 140.714 209.841 145.916 216.258 145.916Z" fill="white"/>
</mask>
<g mask="url(#mask0_9_1234)">
<path d="M229.858 126.916L205.968 123.146C205.698 123.106 205.438 123.286 205.398 123.566L205.028 125.946C204.988 126.216 205.168 126.476 205.448 126.516L229.338 130.286C229.608 130.326 229.868 130.146 229.908 129.866L230.278 127.486C230.318 127.216 230.138 126.956 229.858 126.916Z" fill="#D1CCB5"/>
<path d="M228.758 133.836L204.868 130.066C204.598 130.026 204.338 130.206 204.298 130.486L203.928 132.866C203.888 133.136 204.068 133.396 204.348 133.436L228.238 137.206C228.508 137.246 228.768 137.066 228.808 136.786L229.178 134.406C229.218 134.136 229.038 133.876 228.758 133.836Z" fill="#D1CCB5"/>
<path d="M227.668 140.746L203.778 136.976C203.508 136.936 203.248 137.116 203.208 137.396L202.838 139.776C202.798 140.046 202.978 140.306 203.258 140.346L227.148 144.116C227.418 144.156 227.678 143.976 227.718 143.696L228.088 141.316C228.128 141.046 227.948 140.786 227.668 140.746Z" fill="#D1CCB5"/>
</g>
<path d="M222.938 129.446L223.548 128.996C223.768 128.836 223.808 128.526 223.648 128.316C220.588 124.536 215.148 123.676 211.078 126.336C210.858 126.486 210.808 126.796 210.958 127.006L211.408 127.616C211.538 127.796 211.778 127.856 211.978 127.756C215.438 126.166 219.538 126.816 222.348 129.396C222.508 129.546 222.758 129.566 222.938 129.436V129.446Z" fill="#ADA178"/>
<path d="M228.798 125.186C223.758 118.266 214.068 116.736 207.148 121.766C200.228 126.796 198.698 136.496 203.728 143.416C208.368 149.786 216.948 151.576 223.678 147.896L242.588 173.886C243.238 174.776 244.488 174.976 245.378 174.326C246.268 173.676 246.468 172.426 245.818 171.536L226.908 145.546C232.488 140.276 233.428 131.556 228.788 125.186H228.798ZM223.098 143.706C217.908 147.486 210.638 146.336 206.858 141.146C203.078 135.956 204.228 128.686 209.418 124.906C214.608 121.126 221.878 122.276 225.658 127.466C229.438 132.656 228.288 139.926 223.098 143.706Z" fill="#777DAD"/>
</g>
<path d="M205.878 76.5562C206.43 76.5562 206.878 76.1084 206.878 75.5562C206.878 75.0039 206.43 74.5562 205.878 74.5562C205.326 74.5562 204.878 75.0039 204.878 75.5562C204.878 76.1084 205.326 76.5562 205.878 76.5562Z" fill="#78AD85"/>
<path d="M209.518 79.1561C210.07 79.1561 210.518 78.7084 210.518 78.1561C210.518 77.6038 210.07 77.1561 209.518 77.1561C208.966 77.1561 208.518 77.6038 208.518 78.1561C208.518 78.7084 208.966 79.1561 209.518 79.1561Z" fill="#78AD85"/>
<path d="M214.718 71.8761C215.27 71.8761 215.718 71.4284 215.718 70.8761C215.718 70.3238 215.27 69.8761 214.718 69.8761C214.166 69.8761 213.718 70.3238 213.718 70.8761C213.718 71.4284 214.166 71.8761 214.718 71.8761Z" fill="#78AD85"/>
<path d="M217.728 78.4261C218.28 78.4261 218.728 77.9784 218.728 77.4261C218.728 76.8739 218.28 76.4261 217.728 76.4261C217.176 76.4261 216.728 76.8739 216.728 77.4261C216.728 77.9784 217.176 78.4261 217.728 78.4261Z" fill="#78AD85"/>
<path d="M229.118 83.2561C229.67 83.2561 230.118 82.8084 230.118 82.2561C230.118 81.7038 229.67 81.2561 229.118 81.2561C228.566 81.2561 228.118 81.7038 228.118 82.2561C228.118 82.8084 228.566 83.2561 229.118 83.2561Z" fill="#78AD85"/>
<path d="M227.818 65.8461C228.37 65.8461 228.818 65.3984 228.818 64.8461C228.818 64.2938 228.37 63.8461 227.818 63.8461C227.266 63.8461 226.818 64.2938 226.818 64.8461C226.818 65.3984 227.266 65.8461 227.818 65.8461Z" fill="#78AD85"/>
<path d="M221.838 78.0562C222.39 78.0562 222.838 77.6084 222.838 77.0562C222.838 76.5039 222.39 76.0562 221.838 76.0562C221.286 76.0562 220.838 76.5039 220.838 77.0562C220.838 77.6084 221.286 78.0562 221.838 78.0562Z" fill="#78AD85"/>
<path d="M204.848 56.4061L199.858 88.0161L231.228 92.9661" stroke="#777DAD" stroke-width="0.5" stroke-miterlimit="10"/>
<path d="M205.108 55.6761L205.528 56.7761C205.568 56.8861 205.478 57.0061 205.358 56.9861L204.188 56.8061C204.068 56.7861 204.008 56.6461 204.088 56.5461L204.828 55.6261C204.908 55.5361 205.058 55.5561 205.098 55.6661L205.108 55.6761Z" fill="#777DAD"/>
<path d="M232.418 93.2962L231.318 93.7162C231.208 93.7562 231.088 93.6662 231.108 93.5462L231.288 92.3762C231.308 92.2562 231.448 92.1962 231.548 92.2762L232.468 93.0162C232.558 93.0962 232.538 93.2462 232.428 93.2862L232.418 93.2962Z" fill="#777DAD"/>
<path d="M200.988 81.8561C201.54 81.8561 201.988 81.4084 201.988 80.8561C201.988 80.3038 201.54 79.8561 200.988 79.8561C200.436 79.8561 199.988 80.3038 199.988 80.8561C199.988 81.4084 200.436 81.8561 200.988 81.8561Z" fill="#78AD85"/>
<path d="M200.988 80.8561L205.878 75.5561L209.518 78.1561L214.718 70.8761L217.728 77.4261L221.838 77.0561L227.818 64.8461L229.118 82.2561" stroke="#78AD85" stroke-width="0.5" stroke-miterlimit="10"/>
<path d="M151.478 134.796L120.858 129.966C120.588 129.926 120.328 130.106 120.288 130.386L120.128 131.376C120.088 131.646 120.268 131.906 120.548 131.946L151.168 136.776C151.438 136.816 151.698 136.636 151.738 136.356L151.898 135.366C151.938 135.096 151.758 134.836 151.478 134.796Z" fill="#D1CCB5"/>
<defs>
<filter id="filter0_d_9_1234" x="104.148" y="35.6949" width="152.255" height="125.636" filterUnits="userSpaceOnUse" color-interpolation-filters="sRGB">
<feFlood flood-opacity="0" result="BackgroundImageFix"/>
<feColorMatrix in="SourceAlpha" type="matrix" values="0 0 0 0 0 0 0 0 0 0 0 0 0 0 0 0 0 0 127 0" result="hardAlpha"/>
<feOffset dx="4" dy="4"/>
<feColorMatrix type="matrix" values="0 0 0 0 0.0941176 0 0 0 0 0.101961 0 0 0 0 0.0980392 0 0 0 1 0"/>
<feBlend mode="normal" in2="BackgroundImageFix" result="effect1_dropShadow_9_1234"/>
<feBlend mode="normal" in="SourceGraphic" in2="effect1_dropShadow_9_1234" result="shape"/>
</filter>
<filter id="filter1_d_9_1234" x="165.593" y="41.0254" width="25.2049" height="126.863" filterUnits="userSpaceOnUse" color-interpolation-filters="sRGB">
<feFlood flood-opacity="0" result="BackgroundImageFix"/>
<feColorMatrix in="SourceAlpha" type="matrix" values="0 0 0 0 0 0 0 0 0 0 0 0 0 0 0 0 0 0 127 0" result="hardAlpha"/>
<feOffset dx="2" dy="3"/>
<feColorMatrix type="matrix" values="0 0 0 0 0.0941176 0 0 0 0 0.101961 0 0 0 0 0.0980392 0 0 0 1 0"/>
<feBlend mode="normal" in2="BackgroundImageFix" result="effect1_dropShadow_9_1234"/>
<feBlend mode="normal" in="SourceGraphic" in2="effect1_dropShadow_9_1234" result="shape"/>
</filter>
<filter id="filter2_d_9_1234" x="106.142" y="25" width="56.9911" height="58.0007" filterUnits="userSpaceOnUse" color-interpolation-filters="sRGB">
<feFlood flood-opacity="0" result="BackgroundImageFix"/>
<feColorMatrix in="SourceAlpha" type="matrix" values="0 0 0 0 0 0 0 0 0 0 0 0 0 0 0 0 0 0 127 0" result="hardAlpha"/>
<feOffset dx="2" dy="3"/>
<feColorMatrix type="matrix" values="0 0 0 0 0.0941176 0 0 0 0 0.101961 0 0 0 0 0.0980392 0 0 0 1 0"/>
<feBlend mode="normal" in2="BackgroundImageFix" result="effect1_dropShadow_9_1234"/>
<feBlend mode="normal" in="SourceGraphic" in2="effect1_dropShadow_9_1234" result="shape"/>
</filter>
<filter id="filter3_d_9_1234" x="200.766" y="118.804" width="47.4344" height="58.9044" filterUnits="userSpaceOnUse" color-interpolation-filters="sRGB">
<feFlood flood-opacity="0" result="BackgroundImageFix"/>
<feColorMatrix in="SourceAlpha" type="matrix" values="0 0 0 0 0 0 0 0 0 0 0 0 0 0 0 0 0 0 127 0" result="hardAlpha"/>
<feOffset dx="2" dy="3"/>
<feColorMatrix type="matrix" values="0 0 0 0 0.0941176 0 0 0 0 0.101961 0 0 0 0 0.0980392 0 0 0 1 0"/>
<feBlend mode="normal" in2="BackgroundImageFix" result="effect1_dropShadow_9_1234"/>
<feBlend mode="normal" in="SourceGraphic" in2="effect1_dropShadow_9_1234" result="shape"/>
</filter>
</defs>
</svg>
