<svg width="356" height="200" viewBox="0 0 356 200" fill="none" xmlns="http://www.w3.org/2000/svg">
<path d="M356 0H0V200H356V0Z" fill="#777DAD"/>
<path d="M229.786 49.3005L105.746 80.8947C101.464 81.9853 98.8776 86.3403 99.9682 90.6219L119.715 168.147C120.805 172.428 125.16 175.015 129.442 173.924L253.481 142.33C257.763 141.24 260.35 136.885 259.259 132.603L239.513 55.0783C238.422 50.7968 234.067 48.21 229.786 49.3005Z" fill="#181A19"/>
<path d="M225.792 45.3016L101.752 76.8958C97.4709 77.9864 94.8841 82.3414 95.9746 86.623L115.721 164.148C116.812 168.429 121.167 171.016 125.448 169.925L249.488 138.331C253.769 137.241 256.356 132.886 255.265 128.604L235.519 51.0795C234.429 46.7979 230.074 44.2111 225.792 45.3016Z" fill="#E7E4D7"/>
<path d="M124.363 97.1934L126.833 100.133C127.053 100.393 127.383 100.523 127.713 100.483L131.523 100.043C132.353 99.9434 132.933 100.853 132.483 101.563L130.453 104.813C130.273 105.093 130.253 105.453 130.393 105.763L131.983 109.253C132.333 110.013 131.643 110.843 130.833 110.643L127.113 109.713C126.783 109.633 126.443 109.713 126.193 109.943L123.363 112.533C122.743 113.103 121.743 112.703 121.693 111.863L121.423 108.033C121.403 107.693 121.213 107.393 120.913 107.233L117.573 105.343C116.843 104.933 116.913 103.863 117.693 103.543L121.253 102.103C121.563 101.973 121.793 101.703 121.863 101.373L122.623 97.6134C122.793 96.7934 123.833 96.5234 124.373 97.1734L124.363 97.1934Z" fill="#ADA178"/>
<path d="M147.623 91.2734L150.093 94.2134C150.313 94.4734 150.643 94.6034 150.973 94.5634L154.783 94.1234C155.613 94.0234 156.193 94.9334 155.743 95.6434L153.713 98.8934C153.533 99.1734 153.513 99.5334 153.653 99.8434L155.243 103.333C155.593 104.093 154.903 104.923 154.093 104.723L150.373 103.793C150.043 103.713 149.703 103.793 149.453 104.023L146.623 106.613C146.003 107.183 145.003 106.783 144.953 105.943L144.683 102.113C144.663 101.773 144.473 101.473 144.173 101.313L140.833 99.4234C140.103 99.0134 140.173 97.9434 140.953 97.6234L144.513 96.1834C144.823 96.0534 145.053 95.7834 145.123 95.4534L145.883 91.6934C146.053 90.8734 147.093 90.6034 147.633 91.2534L147.623 91.2734Z" fill="#ADA178"/>
<path d="M170.873 85.3435L173.343 88.2835C173.563 88.5435 173.893 88.6735 174.223 88.6335L178.033 88.1935C178.863 88.0935 179.443 89.0035 178.993 89.7135L176.963 92.9635C176.783 93.2435 176.763 93.6035 176.903 93.9135L178.493 97.4035C178.843 98.1635 178.153 98.9935 177.343 98.7935L173.623 97.8635C173.293 97.7835 172.953 97.8635 172.703 98.0935L169.873 100.683C169.253 101.253 168.253 100.853 168.203 100.013L167.933 96.1835C167.913 95.8435 167.723 95.5435 167.423 95.3835L164.083 93.4935C163.353 93.0835 163.423 92.0135 164.203 91.6935L167.763 90.2535C168.073 90.1235 168.303 89.8535 168.373 89.5235L169.133 85.7635C169.303 84.9435 170.343 84.6735 170.883 85.3235L170.873 85.3435Z" fill="#ADA178"/>
<path d="M194.133 79.4234L196.603 82.3634C196.823 82.6234 197.153 82.7534 197.483 82.7134L201.293 82.2734C202.123 82.1734 202.703 83.0834 202.253 83.7934L200.223 87.0434C200.043 87.3234 200.023 87.6834 200.163 87.9934L201.753 91.4834C202.103 92.2434 201.413 93.0734 200.603 92.8734L196.883 91.9434C196.553 91.8634 196.213 91.9434 195.963 92.1734L193.133 94.7634C192.513 95.3334 191.513 94.9334 191.463 94.0934L191.193 90.2634C191.173 89.9234 190.983 89.6234 190.683 89.4634L187.343 87.5734C186.613 87.1634 186.683 86.0934 187.463 85.7734L191.023 84.3334C191.333 84.2034 191.563 83.9334 191.633 83.6034L192.393 79.8434C192.563 79.0234 193.603 78.7534 194.143 79.4034L194.133 79.4234Z" fill="#ADA178"/>
<path d="M215.723 89.3635C215.563 89.3635 215.413 89.3335 215.253 89.2735C214.803 89.0935 214.503 88.6835 214.473 88.2035L214.203 84.3735C214.183 84.1235 214.043 83.8935 213.823 83.7735L210.483 81.8935C210.063 81.6535 209.823 81.2035 209.853 80.7235C209.883 80.2435 210.183 79.8235 210.633 79.6435L214.193 78.2035C214.423 78.1135 214.593 77.9035 214.643 77.6535L215.403 73.8935C215.503 73.4235 215.853 73.0535 216.323 72.9335C216.793 72.8135 217.273 72.9735 217.593 73.3435L220.063 76.2835C220.223 76.4735 220.463 76.5735 220.723 76.5435L224.533 76.1035C225.003 76.0435 225.473 76.2635 225.733 76.6735C225.993 77.0835 225.993 77.5935 225.733 78.0035L223.703 81.2535C223.573 81.4635 223.553 81.7335 223.653 81.9635L225.243 85.4535C225.443 85.8935 225.373 86.4035 225.063 86.7735C224.753 87.1435 224.273 87.3135 223.803 87.1835L220.083 86.2535C219.843 86.1935 219.583 86.2535 219.393 86.4335L216.563 89.0235C216.323 89.2435 216.023 89.3535 215.723 89.3535V89.3635ZM216.633 73.3935C216.573 73.3935 216.503 73.3935 216.443 73.4135C216.153 73.4835 215.953 73.7035 215.893 73.9935L215.133 77.7535C215.053 78.1635 214.763 78.5035 214.373 78.6635L210.813 80.1035C210.543 80.2135 210.363 80.4535 210.343 80.7535C210.323 81.0435 210.463 81.3135 210.723 81.4535L214.063 83.3335C214.433 83.5435 214.663 83.9135 214.693 84.3335L214.963 88.1635C214.983 88.4535 215.163 88.7035 215.433 88.8035C215.703 88.9135 216.003 88.8635 216.223 88.6635L219.053 86.0635C219.363 85.7835 219.793 85.6735 220.203 85.7735L223.923 86.7035C224.213 86.7735 224.493 86.6835 224.683 86.4535C224.873 86.2235 224.913 85.9335 224.793 85.6635L223.203 82.1735C223.033 81.7935 223.053 81.3535 223.283 80.9935L225.313 77.7435C225.473 77.4935 225.473 77.1935 225.313 76.9435C225.153 76.6935 224.893 76.5735 224.593 76.6035L220.783 77.0435C220.363 77.0935 219.953 76.9235 219.683 76.6035L217.213 73.6635C217.063 73.4935 216.863 73.3935 216.643 73.3935H216.633Z" fill="#ADA178"/>
<path d="M233.753 28.7035L240.773 37.0735C241.203 37.5835 241.863 37.8535 242.533 37.7735L253.383 36.5235C255.043 36.3335 256.193 38.1535 255.303 39.5735L249.513 48.8435C249.153 49.4135 249.113 50.1235 249.393 50.7335L253.933 60.6735C254.633 62.1935 253.253 63.8535 251.633 63.4435L241.033 60.8035C240.383 60.6435 239.693 60.8135 239.193 61.2735L231.143 68.6635C229.913 69.7935 227.913 69.0035 227.793 67.3335L227.033 56.4335C226.983 55.7635 226.603 55.1635 226.023 54.8335L216.513 49.4635C215.053 48.6435 215.193 46.4935 216.743 45.8635L226.873 41.7735C227.493 41.5235 227.953 40.9735 228.083 40.3135L230.253 29.6035C230.583 27.9635 232.663 27.4335 233.743 28.7135L233.753 28.7035Z" fill="#181A19"/>
<path d="M231.753 25.7035L238.773 34.0735C239.203 34.5835 239.863 34.8535 240.533 34.7735L251.383 33.5235C253.043 33.3335 254.193 35.1535 253.303 36.5735L247.513 45.8435C247.153 46.4135 247.113 47.1235 247.393 47.7335L251.933 57.6735C252.633 59.1935 251.253 60.8535 249.633 60.4435L239.033 57.8035C238.383 57.6435 237.693 57.8135 237.193 58.2735L229.143 65.6635C227.913 66.7935 225.913 66.0035 225.793 64.3335L225.033 53.4335C224.983 52.7635 224.603 52.1635 224.023 51.8335L214.513 46.4635C213.053 45.6435 213.193 43.4935 214.743 42.8635L224.873 38.7735C225.493 38.5235 225.953 37.9735 226.083 37.3135L228.253 26.6035C228.583 24.9635 230.663 24.4335 231.743 25.7135L231.753 25.7035Z" fill="#ADA178"/>
<g style="mix-blend-mode:multiply">
<path d="M106.153 88.0935C107.257 88.0935 108.153 87.1981 108.153 86.0935C108.153 84.9889 107.257 84.0935 106.153 84.0935C105.048 84.0935 104.153 84.9889 104.153 86.0935C104.153 87.1981 105.048 88.0935 106.153 88.0935Z" fill="#AD787B"/>
</g>
<g style="mix-blend-mode:multiply">
<path d="M113.913 86.1135C115.017 86.1135 115.913 85.2181 115.913 84.1135C115.913 83.009 115.017 82.1135 113.913 82.1135C112.808 82.1135 111.913 83.009 111.913 84.1135C111.913 85.2181 112.808 86.1135 113.913 86.1135Z" fill="#ADA178"/>
</g>
<g style="mix-blend-mode:multiply">
<path d="M121.663 84.1436C122.767 84.1436 123.663 83.2481 123.663 82.1436C123.663 81.039 122.767 80.1436 121.663 80.1436C120.558 80.1436 119.663 81.039 119.663 82.1436C119.663 83.2481 120.558 84.1436 121.663 84.1436Z" fill="#78AD85"/>
</g>
<path d="M227.003 94.6536C226.673 94.6536 226.343 94.6936 226.013 94.7736L125.233 120.444C123.423 120.904 122.223 122.534 122.223 124.324C122.223 124.654 122.263 124.984 122.343 125.314L128.263 148.574C128.723 150.384 130.353 151.584 132.133 151.584C132.463 151.584 132.793 151.544 133.123 151.464L233.903 125.794C235.713 125.334 236.913 123.704 236.913 121.914C236.913 121.584 236.873 121.254 236.793 120.924L230.873 97.6636C230.413 95.8536 228.783 94.6536 227.003 94.6536Z" fill="#D1CCB5"/>
</svg>
