<svg width="356" height="200" viewBox="0 0 356 200" fill="none" xmlns="http://www.w3.org/2000/svg">
<path d="M356 0H0V200H356V0Z" fill="#AD787B"/>
<g filter="url(#filter0_d_9_758)">
<path d="M250.368 72.3595L126.241 41.1118C121.956 40.0332 117.608 42.6322 116.53 46.9168L98.953 116.738C97.8744 121.023 100.473 125.371 104.758 126.449L228.885 157.697C233.17 158.776 237.518 156.177 238.596 151.892L256.173 82.0705C257.252 77.7859 254.653 73.4381 250.368 72.3595Z" fill="#E7E4D7"/>
</g>
<path d="M127.176 49.7196C125.386 49.7196 123.756 50.9296 123.296 52.7396C123.216 53.0696 123.176 53.3896 123.176 53.7196C123.176 55.5096 124.386 57.1396 126.196 57.5996C126.526 57.6796 126.856 57.7196 127.176 57.7196C128.966 57.7196 130.596 56.5096 131.056 54.6996C131.136 54.3696 131.176 54.0496 131.176 53.7196C131.176 51.9296 129.966 50.2996 128.156 49.8396C127.826 49.7596 127.496 49.7196 127.176 49.7196Z" fill="#D1CCB5"/>
<path d="M176.167 63.9936L141.256 55.2052C140.185 54.9355 139.098 55.5853 138.828 56.6564C138.559 57.7276 139.208 58.8145 140.279 59.0841L175.19 67.8726C176.261 68.1422 177.348 67.4925 177.618 66.4213C177.888 65.3502 177.238 64.2632 176.167 63.9936Z" fill="#ADA178"/>
<path d="M203.29 87.3163L137.348 70.7159C136.277 70.4463 135.19 71.096 134.92 72.1671C134.65 73.2383 135.3 74.3252 136.371 74.5949L202.314 91.1952C203.385 91.4649 204.472 90.8151 204.742 89.744C205.011 88.6728 204.362 87.5859 203.29 87.3163Z" fill="#78AD85"/>
<path d="M195.554 68.8729L183.917 65.9434C182.846 65.6738 181.759 66.3235 181.49 67.3947C181.22 68.4658 181.87 69.5528 182.941 69.8224L194.578 72.7519C195.649 73.0215 196.736 72.3718 197.006 71.3007C197.275 70.2295 196.625 69.1426 195.554 68.8729Z" fill="#AD787B"/>
<path d="M145.078 89.1658L133.441 86.2363C132.37 85.9666 131.283 86.6164 131.014 87.6875C130.744 88.7587 131.394 89.8456 132.465 90.1153L144.102 93.0447C145.173 93.3144 146.26 92.6647 146.53 91.5935C146.799 90.5224 146.15 89.4354 145.078 89.1658Z" fill="#777DAD"/>
<path d="M179.985 97.9597L152.832 91.1242C151.761 90.8546 150.674 91.5043 150.405 92.5755C150.135 93.6466 150.785 94.7336 151.856 95.0032L179.009 101.839C180.08 102.108 181.167 101.459 181.436 100.387C181.706 99.3163 181.056 98.2293 179.985 97.9597Z" fill="#AD787B"/>
<path d="M172.192 112.486L129.524 101.745C128.453 101.475 127.366 102.125 127.096 103.196C126.826 104.267 127.476 105.354 128.547 105.624L171.216 116.365C172.287 116.635 173.374 115.985 173.644 114.914C173.913 113.843 173.264 112.756 172.192 112.486Z" fill="#78AD85"/>
<path d="M234.26 128.124L179.954 114.453C178.883 114.183 177.796 114.833 177.526 115.904C177.257 116.975 177.906 118.062 178.978 118.332L233.283 132.003C234.354 132.272 235.441 131.623 235.711 130.552C235.981 129.48 235.331 128.393 234.26 128.124Z" fill="#ADA178"/>
<path d="M238.173 112.599L187.746 99.9041C186.675 99.6345 185.588 100.284 185.318 101.355C185.048 102.427 185.698 103.513 186.769 103.783L237.196 116.478C238.267 116.747 239.354 116.097 239.624 115.026C239.893 113.955 239.244 112.868 238.173 112.599Z" fill="#78AD85"/>
<path d="M242.077 97.0831L211.045 89.2712C209.974 89.0016 208.887 89.6513 208.617 90.7224C208.348 91.7936 208.997 92.8805 210.068 93.1502L241.1 100.962C242.171 101.232 243.258 100.582 243.528 99.5109C243.798 98.4397 243.148 97.3528 242.077 97.0831Z" fill="#ADA178"/>
<path d="M191.561 133.864L125.619 117.264C124.548 116.994 123.461 117.644 123.191 118.715C122.921 119.786 123.571 120.873 124.642 121.143L190.585 137.743C191.656 138.013 192.743 137.363 193.013 136.292C193.282 135.221 192.633 134.134 191.561 133.864Z" fill="#777DAD"/>
<path d="M230.357 143.634L199.326 135.822C198.254 135.552 197.168 136.202 196.898 137.273C196.628 138.344 197.278 139.431 198.349 139.701L229.381 147.513C230.452 147.782 231.539 147.132 231.809 146.061C232.078 144.99 231.429 143.903 230.357 143.634Z" fill="#ADA178"/>
<path d="M245.988 81.5653L203.319 70.8239C202.248 70.5543 201.161 71.204 200.892 72.2752C200.622 73.3463 201.272 74.4333 202.343 74.7029L245.012 85.4443C246.083 85.714 247.17 85.0642 247.439 83.9931C247.709 82.9219 247.059 81.835 245.988 81.5653Z" fill="#777DAD"/>
<path d="M123.266 65.2396C121.476 65.2396 119.846 66.4496 119.386 68.2596C119.306 68.5896 119.266 68.9096 119.266 69.2396C119.266 71.0296 120.476 72.6596 122.286 73.1196C122.616 73.1996 122.946 73.2396 123.266 73.2396C125.056 73.2396 126.686 72.0296 127.146 70.2196C127.226 69.8896 127.266 69.5696 127.266 69.2396C127.266 67.4496 126.056 65.8196 124.246 65.3596C123.916 65.2796 123.586 65.2396 123.266 65.2396Z" fill="#D1CCB5"/>
<path d="M119.366 80.7596C117.576 80.7596 115.946 81.9696 115.486 83.7796C115.406 84.1096 115.366 84.4296 115.366 84.7596C115.366 86.5496 116.576 88.1796 118.386 88.6396C118.716 88.7196 119.046 88.7596 119.366 88.7596C121.156 88.7596 122.786 87.5496 123.246 85.7396C123.326 85.4096 123.366 85.0896 123.366 84.7596C123.366 82.9696 122.156 81.3396 120.346 80.8796C120.016 80.7996 119.686 80.7596 119.366 80.7596Z" fill="#D1CCB5"/>
<path d="M115.456 96.2697C113.666 96.2697 112.036 97.4797 111.576 99.2897C111.496 99.6197 111.456 99.9397 111.456 100.27C111.456 102.06 112.666 103.69 114.476 104.15C114.806 104.23 115.136 104.27 115.456 104.27C117.246 104.27 118.876 103.06 119.336 101.25C119.416 100.92 119.456 100.6 119.456 100.27C119.456 98.4797 118.246 96.8497 116.436 96.3897C116.106 96.3097 115.776 96.2697 115.456 96.2697Z" fill="#D1CCB5"/>
<path d="M111.546 111.79C109.756 111.79 108.126 113 107.666 114.81C107.586 115.14 107.546 115.46 107.546 115.79C107.546 117.58 108.756 119.21 110.566 119.67C110.896 119.75 111.226 119.79 111.546 119.79C113.336 119.79 114.966 118.58 115.426 116.77C115.506 116.44 115.546 116.12 115.546 115.79C115.546 114 114.336 112.37 112.526 111.91C112.196 111.83 111.866 111.79 111.546 111.79Z" fill="#D1CCB5"/>
<g filter="url(#filter1_d_9_758)">
<path d="M201.257 27.2698L163.326 39.9686C161.231 40.67 160.102 42.9367 160.803 45.0316L168.422 67.79C169.124 69.8849 171.39 71.0146 173.485 70.3132L211.416 57.6144C213.511 56.9131 214.64 54.6463 213.939 52.5515L206.32 29.793C205.619 27.6982 203.352 26.5685 201.257 27.2698Z" fill="#777DAD"/>
</g>
<path d="M177.246 43.4998C177.156 43.4998 177.066 43.5498 177.016 43.6398L171.966 53.7698C171.966 53.7698 171.936 53.8498 171.936 53.8798C171.936 53.9698 171.986 54.0598 172.076 54.0998L182.206 59.1498L182.316 59.1798C182.406 59.1798 182.496 59.1298 182.536 59.0398C182.556 58.9998 182.566 58.9598 182.566 58.9298C182.566 58.8398 182.516 58.7498 182.426 58.7098L172.526 53.7798L177.456 43.8798C177.456 43.8798 177.486 43.7998 177.486 43.7698C177.486 43.6798 177.436 43.5898 177.346 43.5498L177.236 43.5198" fill="#383D75"/>
<path d="M192.416 38.4098C192.326 38.4098 192.236 38.4598 192.186 38.5498C192.166 38.5898 192.156 38.6298 192.156 38.6598C192.156 38.7498 192.206 38.8398 192.296 38.8798L202.196 43.8098L197.266 53.7098C197.266 53.7098 197.236 53.7898 197.236 53.8198C197.236 53.9098 197.286 53.9998 197.376 54.0398L197.486 54.0698C197.576 54.0698 197.666 54.0198 197.706 53.9298L202.756 43.7998C202.756 43.7998 202.786 43.7198 202.786 43.6898C202.786 43.5998 202.736 43.5098 202.646 43.4698L192.516 38.4198L192.406 38.3898" fill="#383D75"/>
<path d="M188.616 39.6798C188.496 39.6798 188.396 39.7698 188.376 39.8998L185.866 57.6098C185.866 57.6098 185.866 57.6398 185.866 57.6498C185.866 57.7698 185.956 57.8798 186.076 57.8898H186.116C186.236 57.8898 186.346 57.7998 186.366 57.6798L188.876 39.9698C188.876 39.9698 188.876 39.9398 188.876 39.9298C188.876 39.8098 188.786 39.6998 188.666 39.6898H188.626" fill="#383D75"/>
<g filter="url(#filter2_d_9_758)">
<path d="M183.891 138.515L144.048 142.057C141.847 142.252 140.222 144.195 140.418 146.395L142.543 170.301C142.738 172.501 144.681 174.127 146.881 173.931L186.724 170.389C188.925 170.194 190.55 168.251 190.354 166.051L188.229 142.145C188.034 139.945 186.091 138.319 183.891 138.515Z" fill="#78AD85"/>
</g>
<path d="M172.756 148.29C172.756 148.29 172.726 148.29 172.716 148.29C171.596 148.39 170.786 148.9 170.306 149.79C169.986 150.39 169.826 151.15 169.826 152.05C169.826 152.29 169.836 152.54 169.866 152.8C169.866 152.8 169.926 153.49 169.926 154.27C169.926 154.43 169.926 154.6 169.926 154.77C169.876 156.18 169.606 156.58 169.456 156.6C169.326 156.61 169.226 156.72 169.226 156.85V156.87C169.236 157 169.346 157.1 169.476 157.1H169.506C169.906 157.1 170.396 158.8 170.576 160.77C170.686 162.01 171.016 162.98 171.546 163.66C172.106 164.37 172.876 164.73 173.826 164.73C173.946 164.73 174.066 164.73 174.186 164.71C174.316 164.7 174.416 164.59 174.416 164.46C174.416 164.46 174.416 164.44 174.416 164.43C174.406 164.3 174.316 164.2 174.176 164.2C174.166 164.2 174.156 164.2 174.146 164.2C174.036 164.2 173.936 164.21 173.836 164.21C173.046 164.21 172.406 163.91 171.946 163.33C171.476 162.73 171.176 161.85 171.076 160.7C171.006 159.88 170.736 157.52 169.986 156.79C170.246 156.44 170.386 155.78 170.426 154.76C170.426 154.59 170.426 154.41 170.426 154.25C170.426 153.44 170.366 152.76 170.366 152.73C170.346 152.48 170.336 152.24 170.336 152.01C170.336 151.19 170.476 150.52 170.756 149.99C171.156 149.25 171.826 148.83 172.776 148.75C172.906 148.74 173.006 148.63 173.006 148.5C173.006 148.5 173.006 148.49 173.006 148.48C172.996 148.36 172.906 148.25 172.776 148.25" fill="#387545"/>
<path d="M177.056 147.92C176.936 147.92 176.816 147.92 176.696 147.94C176.566 147.95 176.466 148.06 176.466 148.19C176.466 148.19 176.466 148.2 176.466 148.21C176.476 148.34 176.576 148.44 176.716 148.44C176.716 148.44 176.726 148.44 176.736 148.44C176.846 148.43 176.956 148.42 177.056 148.42C179.056 148.42 179.656 150.31 179.806 151.93C179.806 151.97 179.896 152.95 180.116 153.94C180.326 154.93 180.586 155.56 180.906 155.86C180.546 156.37 180.446 157.42 180.446 158.36C180.446 158.99 180.486 159.57 180.516 159.91C180.536 160.14 180.546 160.38 180.546 160.62C180.546 162.14 180.056 163.71 178.106 163.88C177.976 163.89 177.876 164 177.876 164.13C177.876 164.13 177.876 164.15 177.876 164.16C177.886 164.29 177.996 164.39 178.126 164.39H178.146C180.026 164.22 181.036 162.9 181.046 160.63C181.046 160.39 181.036 160.13 181.006 159.86C180.966 159.35 180.936 158.86 180.936 158.41C180.936 157.08 181.116 156.08 181.416 156.06C181.546 156.05 181.646 155.94 181.646 155.81V155.79C181.636 155.67 181.546 155.56 181.416 155.56C181.406 155.56 181.386 155.56 181.376 155.56C181.206 155.56 180.896 155.2 180.606 153.84C180.396 152.88 180.306 151.9 180.306 151.89C180.076 149.32 178.926 147.93 177.046 147.93" fill="#387545"/>
<path d="M152.836 150.06C152.836 150.06 152.816 150.06 152.796 150.06L148.566 150.44L150.026 166.88L154.256 166.5C154.386 166.49 154.486 166.38 154.486 166.25C154.486 166.25 154.486 166.23 154.486 166.22C154.476 166.09 154.376 165.99 154.246 165.99C154.236 165.99 154.226 165.99 154.216 165.99L150.476 166.32L149.106 150.88L152.836 150.55C152.966 150.54 153.066 150.43 153.066 150.3C153.066 150.3 153.066 150.28 153.066 150.27C153.056 150.14 152.966 150.04 152.836 150.04" fill="#387545"/>
<path d="M161.016 149.33L156.786 149.71C156.656 149.72 156.556 149.83 156.556 149.96C156.556 149.96 156.556 149.98 156.556 149.99C156.566 150.11 156.656 150.22 156.786 150.22C156.796 150.22 156.816 150.22 156.826 150.22L160.566 149.89L161.936 165.33L158.196 165.66C158.066 165.67 157.966 165.78 157.966 165.91C157.966 165.91 157.966 165.93 157.966 165.94C157.976 166.07 158.086 166.17 158.216 166.17H158.236L162.466 165.79L161.006 149.36" fill="#387545"/>
<defs>
<filter id="filter0_d_9_758" x="98.709" y="40.8678" width="161.708" height="121.073" filterUnits="userSpaceOnUse" color-interpolation-filters="sRGB">
<feFlood flood-opacity="0" result="BackgroundImageFix"/>
<feColorMatrix in="SourceAlpha" type="matrix" values="0 0 0 0 0 0 0 0 0 0 0 0 0 0 0 0 0 0 127 0" result="hardAlpha"/>
<feOffset dx="4" dy="4"/>
<feColorMatrix type="matrix" values="0 0 0 0 0.0941176 0 0 0 0 0.101961 0 0 0 0 0.0980392 0 0 0 1 0"/>
<feBlend mode="normal" in2="BackgroundImageFix" result="effect1_dropShadow_9_758"/>
<feBlend mode="normal" in="SourceGraphic" in2="effect1_dropShadow_9_758" result="shape"/>
</filter>
<filter id="filter1_d_9_758" x="160.595" y="27.0618" width="55.5522" height="46.4595" filterUnits="userSpaceOnUse" color-interpolation-filters="sRGB">
<feFlood flood-opacity="0" result="BackgroundImageFix"/>
<feColorMatrix in="SourceAlpha" type="matrix" values="0 0 0 0 0 0 0 0 0 0 0 0 0 0 0 0 0 0 127 0" result="hardAlpha"/>
<feOffset dx="2" dy="3"/>
<feColorMatrix type="matrix" values="0 0 0 0 0.0941176 0 0 0 0 0.101961 0 0 0 0 0.0980392 0 0 0 1 0"/>
<feBlend mode="normal" in2="BackgroundImageFix" result="effect1_dropShadow_9_758"/>
<feBlend mode="normal" in="SourceGraphic" in2="effect1_dropShadow_9_758" result="shape"/>
</filter>
<filter id="filter2_d_9_758" x="140.402" y="138.499" width="51.9684" height="38.4481" filterUnits="userSpaceOnUse" color-interpolation-filters="sRGB">
<feFlood flood-opacity="0" result="BackgroundImageFix"/>
<feColorMatrix in="SourceAlpha" type="matrix" values="0 0 0 0 0 0 0 0 0 0 0 0 0 0 0 0 0 0 127 0" result="hardAlpha"/>
<feOffset dx="2" dy="3"/>
<feColorMatrix type="matrix" values="0 0 0 0 0.0941176 0 0 0 0 0.101961 0 0 0 0 0.0980392 0 0 0 1 0"/>
<feBlend mode="normal" in2="BackgroundImageFix" result="effect1_dropShadow_9_758"/>
<feBlend mode="normal" in="SourceGraphic" in2="effect1_dropShadow_9_758" result="shape"/>
</filter>
</defs>
</svg>
