<svg width="356" height="200" viewBox="0 0 356 200" fill="none" xmlns="http://www.w3.org/2000/svg">
<path d="M356 0H0V200H356V0Z" fill="#ADA178"/>
<path d="M202.8 148.35C202.4 148.35 202 148.35 201.59 148.32C201.45 148.32 201.35 148.2 201.35 148.06C201.35 147.92 201.47 147.84 201.61 147.82C202 147.84 202.4 147.84 202.79 147.85C203.05 147.85 203.31 147.85 203.57 147.84C203.7 147.84 203.81 147.95 203.82 148.08C203.82 148.22 203.72 148.33 203.58 148.34C203.31 148.34 203.05 148.35 202.78 148.35M205.57 148.18C205.45 148.18 205.34 148.09 205.32 147.96C205.3 147.82 205.4 147.7 205.54 147.68C206.18 147.6 206.83 147.5 207.48 147.37C207.62 147.34 207.75 147.43 207.78 147.56C207.81 147.7 207.72 147.83 207.59 147.86C206.93 147.99 206.27 148.1 205.61 148.18H205.58M199.63 148.14H199.6C198.94 148.05 198.28 147.94 197.62 147.8C197.49 147.77 197.4 147.64 197.43 147.5C197.46 147.37 197.59 147.28 197.73 147.31C198.37 147.45 199.02 147.56 199.66 147.64C199.8 147.66 199.89 147.78 199.88 147.92C199.86 148.05 199.76 148.14 199.63 148.14ZM209.45 147.38C209.34 147.38 209.24 147.31 209.21 147.2C209.17 147.07 209.25 146.93 209.38 146.89C210 146.71 210.63 146.5 211.24 146.26C211.37 146.21 211.51 146.27 211.56 146.4C211.61 146.53 211.55 146.67 211.42 146.72C210.79 146.96 210.16 147.18 209.52 147.36H209.45M195.76 147.31H195.69C195.05 147.11 194.41 146.89 193.8 146.64C193.67 146.59 193.61 146.44 193.66 146.32C193.71 146.19 193.86 146.13 193.98 146.18C194.58 146.42 195.21 146.63 195.83 146.82C195.96 146.86 196.04 147 196 147.13C195.97 147.24 195.87 147.31 195.76 147.31ZM213.14 145.95C213.05 145.95 212.96 145.9 212.92 145.81C212.86 145.69 212.92 145.54 213.04 145.48C213.62 145.2 214.21 144.88 214.77 144.55C214.89 144.48 215.04 144.52 215.11 144.64C215.18 144.76 215.14 144.91 215.02 144.98C214.45 145.32 213.85 145.64 213.25 145.93L213.14 145.96M192.07 145.86L191.96 145.83C191.36 145.54 190.77 145.21 190.2 144.87C190.08 144.8 190.04 144.64 190.12 144.53C190.19 144.41 190.35 144.37 190.46 144.44C191.02 144.78 191.6 145.09 192.18 145.38C192.3 145.44 192.36 145.59 192.29 145.71C192.25 145.8 192.16 145.85 192.07 145.85M216.56 143.94L216.36 143.83C216.28 143.72 216.31 143.56 216.42 143.48C216.96 143.1 217.48 142.7 217.97 142.28C218.07 142.19 218.23 142.2 218.32 142.31C218.41 142.42 218.39 142.57 218.29 142.66C217.79 143.08 217.25 143.49 216.7 143.88L216.56 143.93M188.68 143.82L188.53 143.77C188 143.39 187.47 142.97 186.95 142.53C186.84 142.44 186.83 142.28 186.92 142.18C187.01 142.08 187.17 142.06 187.27 142.15C187.77 142.58 188.29 142.99 188.81 143.36C188.92 143.44 188.95 143.6 188.87 143.71L188.67 143.81M219.6 141.4L219.42 141.33C219.32 141.23 219.32 141.07 219.42 140.98C219.88 140.52 220.33 140.04 220.76 139.54C220.85 139.44 221.01 139.42 221.11 139.51C221.21 139.6 221.23 139.76 221.14 139.86C220.71 140.36 220.25 140.86 219.78 141.33L219.6 141.4ZM185.66 141.24L185.48 141.17C185.02 140.7 184.56 140.2 184.13 139.69C184.04 139.58 184.05 139.43 184.16 139.34C184.26 139.25 184.42 139.26 184.51 139.37C184.93 139.87 185.38 140.36 185.83 140.82C185.93 140.92 185.93 141.08 185.83 141.17L185.65 141.24M222.17 138.39L222.02 138.34C221.91 138.26 221.88 138.1 221.96 137.99C222.34 137.46 222.71 136.91 223.04 136.35C223.11 136.23 223.26 136.19 223.38 136.27C223.5 136.34 223.54 136.49 223.47 136.61C223.13 137.18 222.76 137.74 222.37 138.28L222.17 138.38M183.12 138.21L182.92 138.1C182.54 137.56 182.17 137 181.83 136.42C181.76 136.3 181.8 136.15 181.92 136.08C182.04 136.01 182.19 136.05 182.26 136.17C182.6 136.74 182.96 137.29 183.33 137.82C183.41 137.93 183.38 138.09 183.27 138.17L183.13 138.22M224.22 134.99L224.11 134.96C223.99 134.9 223.94 134.75 224 134.62C224.29 134.03 224.56 133.43 224.8 132.83C224.85 132.7 224.99 132.64 225.12 132.69C225.25 132.74 225.31 132.89 225.26 133.01C225.02 133.63 224.74 134.24 224.45 134.84C224.41 134.93 224.32 134.98 224.22 134.98M181.1 134.8C181.01 134.8 180.92 134.75 180.88 134.66C180.59 134.06 180.32 133.45 180.08 132.82C180.03 132.69 180.09 132.55 180.22 132.5C180.35 132.45 180.49 132.51 180.54 132.64C180.78 133.25 181.04 133.86 181.32 134.44C181.38 134.56 181.32 134.71 181.21 134.77L181.1 134.8ZM225.67 131.31H225.6C225.47 131.26 225.39 131.12 225.43 130.99C225.62 130.38 225.78 129.74 225.92 129.09L225.94 129.01C225.97 128.88 226.1 128.8 226.24 128.82C226.37 128.85 226.46 128.98 226.43 129.12L226.41 129.21C226.27 129.86 226.1 130.52 225.91 131.14C225.88 131.25 225.78 131.32 225.67 131.32M179.67 131.1C179.56 131.1 179.46 131.03 179.43 130.92C179.24 130.27 179.08 129.62 178.94 128.98C178.91 128.85 179 128.71 179.14 128.68C179.27 128.66 179.41 128.74 179.44 128.88C179.57 129.51 179.73 130.15 179.92 130.78C179.96 130.91 179.88 131.05 179.75 131.09H179.68M226.52 127.35H226.49C226.35 127.33 226.26 127.21 226.27 127.07C226.35 126.42 226.41 125.76 226.44 125.11C226.44 124.98 226.56 124.87 226.69 124.87H226.7C226.84 124.87 226.94 124.99 226.94 125.13C226.91 125.79 226.85 126.46 226.77 127.13C226.75 127.26 226.65 127.35 226.52 127.35ZM178.87 127.22C178.75 127.22 178.64 127.13 178.62 127C178.54 126.34 178.49 125.66 178.46 125C178.46 124.86 178.56 124.75 178.7 124.74C178.85 124.76 178.95 124.84 178.96 124.98C178.98 125.63 179.04 126.29 179.11 126.94C179.13 127.08 179.03 127.2 178.89 127.22H178.86M226.69 123.39C226.56 123.39 226.45 123.28 226.44 123.15C226.42 122.5 226.36 121.85 226.28 121.19C226.26 121.05 226.36 120.93 226.5 120.91C226.63 120.89 226.76 120.99 226.78 121.13C226.86 121.8 226.92 122.47 226.94 123.13C226.94 123.27 226.84 123.38 226.7 123.39H226.69ZM178.72 123.26H178.71C178.57 123.26 178.47 123.14 178.47 123C178.5 122.34 178.56 121.66 178.65 121C178.67 120.86 178.79 120.77 178.93 120.78C179.07 120.8 179.16 120.92 179.15 121.06C179.07 121.71 179.01 122.37 178.98 123.02C178.98 123.15 178.86 123.26 178.73 123.26M226.21 119.46C226.09 119.46 225.99 119.38 225.97 119.26C225.84 118.62 225.68 117.99 225.49 117.36C225.45 117.23 225.53 117.09 225.66 117.05C225.79 117.01 225.93 117.09 225.97 117.22C226.16 117.86 226.33 118.51 226.46 119.16C226.49 119.29 226.4 119.43 226.27 119.46H226.22M179.23 119.31H179.18C179.05 119.28 178.95 119.16 178.98 119.03L179.22 119.08L178.98 118.99C179.12 118.35 179.28 117.71 179.47 117.09C179.51 116.96 179.65 116.88 179.78 116.92C179.91 116.96 179.99 117.1 179.95 117.23C179.77 117.84 179.61 118.46 179.47 119.09C179.44 119.21 179.33 119.31 179.21 119.31M225.08 115.66C224.98 115.66 224.89 115.6 224.85 115.5C224.61 114.88 224.34 114.28 224.06 113.7C224 113.58 224.06 113.43 224.18 113.37C224.3 113.31 224.45 113.37 224.51 113.48C224.8 114.07 225.07 114.69 225.31 115.32C225.36 115.45 225.3 115.59 225.17 115.64L225.08 115.66ZM180.37 115.54L180.28 115.52C180.15 115.47 180.09 115.32 180.14 115.2C180.38 114.59 180.65 113.97 180.95 113.37C181.01 113.25 181.16 113.2 181.29 113.26C181.41 113.32 181.46 113.47 181.4 113.59C181.11 114.18 180.84 114.78 180.61 115.38C180.57 115.48 180.48 115.54 180.38 115.54M223.35 112.1L223.14 111.98C222.8 111.41 222.44 110.86 222.07 110.33C221.99 110.22 222.02 110.06 222.13 109.98C222.24 109.9 222.4 109.93 222.48 110.04C222.86 110.58 223.23 111.14 223.57 111.72C223.64 111.84 223.6 111.99 223.48 112.06L223.35 112.1ZM182.12 111.99L181.99 111.95C181.87 111.88 181.83 111.73 181.9 111.61C182.24 111.04 182.61 110.48 183 109.94C183.08 109.83 183.24 109.8 183.35 109.88C183.46 109.96 183.49 110.12 183.41 110.23C183.03 110.76 182.67 111.31 182.33 111.87L182.12 111.99ZM221.05 108.87L220.86 108.78C220.44 108.28 219.99 107.79 219.54 107.33C219.44 107.23 219.44 107.07 219.54 106.98C219.64 106.88 219.8 106.88 219.89 106.98C220.36 107.45 220.81 107.95 221.24 108.46C221.33 108.57 221.32 108.72 221.21 108.81L221.05 108.87ZM184.44 108.77L184.28 108.71C184.17 108.62 184.16 108.46 184.25 108.36C184.68 107.86 185.14 107.36 185.61 106.89C185.71 106.79 185.87 106.79 185.96 106.89C186.06 106.99 186.06 107.15 185.96 107.24C185.5 107.7 185.05 108.19 184.63 108.68L184.44 108.77ZM218.26 106.06L218.1 106C217.6 105.57 217.08 105.17 216.56 104.79C216.45 104.71 216.42 104.55 216.5 104.44C216.58 104.33 216.74 104.3 216.85 104.38C217.39 104.76 217.92 105.18 218.43 105.61C218.54 105.7 218.55 105.86 218.46 105.96L218.27 106.05M187.25 105.98L187.06 105.89C186.97 105.78 186.98 105.63 187.09 105.54C187.6 105.12 188.13 104.7 188.68 104.31C188.79 104.23 188.95 104.25 189.03 104.37C189.11 104.48 189.08 104.64 188.97 104.72C188.44 105.1 187.91 105.5 187.42 105.92L187.26 105.98M215.04 103.75L214.91 103.71C214.35 103.38 213.77 103.06 213.19 102.77C213.07 102.71 213.02 102.56 213.08 102.44C213.14 102.32 213.29 102.27 213.42 102.33C214.02 102.62 214.61 102.95 215.18 103.29C215.3 103.36 215.34 103.51 215.27 103.63L215.06 103.75M190.48 103.69L190.26 103.57C190.19 103.45 190.23 103.3 190.35 103.23C190.92 102.89 191.51 102.57 192.11 102.28C192.23 102.22 192.38 102.28 192.44 102.4C192.5 102.52 192.44 102.67 192.32 102.73C191.73 103.02 191.15 103.33 190.59 103.66L190.46 103.7M211.48 102L211.39 101.98C210.79 101.74 210.16 101.53 209.53 101.34C209.4 101.3 209.32 101.16 209.36 101.03C209.4 100.9 209.54 100.82 209.67 100.86C210.31 101.05 210.95 101.27 211.56 101.51C211.69 101.56 211.75 101.71 211.7 101.83C211.66 101.93 211.57 101.99 211.47 101.99M194.04 101.96C193.94 101.96 193.85 101.9 193.81 101.8C193.76 101.67 193.82 101.53 193.95 101.48C194.57 101.24 195.21 101.02 195.84 100.83C195.98 100.79 196.11 100.87 196.15 101C196.19 101.13 196.11 101.27 195.98 101.31C195.36 101.49 194.73 101.71 194.12 101.94L194.03 101.96M207.69 100.87H207.64C207.01 100.73 206.36 100.62 205.71 100.53C205.57 100.51 205.48 100.39 205.49 100.25C205.51 100.11 205.63 100.01 205.77 100.03C206.44 100.12 207.1 100.23 207.75 100.37C207.88 100.4 207.97 100.53 207.94 100.67C207.92 100.79 207.81 100.87 207.7 100.87M197.84 100.83C197.72 100.83 197.62 100.75 197.6 100.63C197.57 100.5 197.66 100.36 197.79 100.33C198.44 100.2 199.11 100.09 199.77 100.01C199.91 99.99 200.03 100.09 200.05 100.23C200.07 100.37 199.97 100.49 199.83 100.51C199.18 100.59 198.53 100.7 197.89 100.83H197.84ZM203.76 100.36H203.75C203.09 100.33 202.44 100.33 201.79 100.36C201.65 100.36 201.54 100.26 201.53 100.12C201.53 99.98 201.63 99.87 201.77 99.86C202.43 99.83 203.1 99.84 203.78 99.86C203.92 99.86 204.02 99.98 204.02 100.12C204.02 100.25 203.9 100.36 203.77 100.36" fill="#ADA178"/>
<path d="M201.62 147.82C201.48 147.84 201.37 147.92 201.36 148.06C201.36 148.06 201.36 148.06 201.36 148.07C201.36 148.2 201.47 148.31 201.6 148.32C202 148.34 202.41 148.34 202.81 148.35C203.08 148.35 203.34 148.35 203.61 148.34C203.75 148.34 203.85 148.22 203.85 148.09C203.85 147.96 203.73 147.85 203.6 147.85C203.34 147.85 203.08 147.86 202.82 147.86C202.43 147.86 202.03 147.86 201.64 147.83M207.53 147.36C207.53 147.36 207.5 147.36 207.48 147.36C206.84 147.49 206.19 147.6 205.54 147.67C205.41 147.68 205.32 147.79 205.32 147.92C205.32 147.93 205.32 147.94 205.32 147.95C205.33 148.08 205.44 148.17 205.57 148.17H205.6C206.26 148.09 206.92 147.98 207.58 147.85C207.7 147.83 207.78 147.72 207.78 147.6C207.78 147.58 207.78 147.57 207.78 147.55C207.76 147.43 207.65 147.35 207.54 147.35M197.68 147.31C197.57 147.31 197.46 147.39 197.44 147.51C197.44 147.53 197.44 147.54 197.44 147.56C197.44 147.68 197.52 147.78 197.64 147.81C198.3 147.95 198.96 148.06 199.62 148.15H199.65C199.77 148.15 199.88 148.06 199.9 147.93C199.9 147.92 199.9 147.91 199.9 147.9C199.9 147.78 199.81 147.67 199.68 147.65C199.04 147.57 198.39 147.45 197.75 147.32C197.73 147.32 197.71 147.32 197.7 147.32M211.33 146.24C211.33 146.24 211.27 146.24 211.24 146.26C210.63 146.5 210 146.71 209.38 146.89C209.27 146.92 209.2 147.02 209.2 147.13C209.2 147.15 209.2 147.18 209.21 147.2C209.24 147.31 209.34 147.38 209.45 147.38H209.52C210.15 147.18 210.79 146.97 211.42 146.73C211.52 146.69 211.58 146.6 211.58 146.5C211.58 146.47 211.58 146.44 211.56 146.41C211.52 146.31 211.43 146.25 211.33 146.25M193.89 146.17C193.79 146.17 193.7 146.23 193.66 146.33C193.65 146.36 193.64 146.39 193.64 146.42C193.64 146.52 193.7 146.61 193.8 146.65C194.42 146.89 195.05 147.11 195.69 147.31H195.76C195.87 147.32 195.97 147.25 196 147.14C196 147.12 196.01 147.09 196.01 147.07C196.01 146.96 195.94 146.87 195.83 146.83C195.2 146.64 194.58 146.42 193.98 146.19C193.95 146.18 193.92 146.17 193.89 146.17ZM214.89 144.52C214.89 144.52 214.8 144.53 214.76 144.56C214.2 144.89 213.62 145.2 213.03 145.49C212.94 145.53 212.89 145.62 212.89 145.71C212.89 145.75 212.89 145.78 212.92 145.82C212.96 145.91 213.05 145.96 213.14 145.96L213.25 145.93C213.85 145.64 214.44 145.32 215.02 144.98C215.1 144.93 215.14 144.85 215.14 144.77C215.14 144.73 215.13 144.68 215.11 144.64C215.06 144.56 214.98 144.52 214.9 144.52M190.33 144.41C190.25 144.41 190.16 144.45 190.12 144.53C190.1 144.57 190.08 144.62 190.08 144.66C190.08 144.74 190.12 144.83 190.2 144.87C190.77 145.21 191.36 145.54 191.96 145.83L192.07 145.86C192.16 145.86 192.25 145.81 192.29 145.72C192.31 145.69 192.32 145.65 192.32 145.61C192.32 145.52 192.27 145.43 192.18 145.38C191.6 145.09 191.02 144.78 190.46 144.44C190.42 144.42 190.38 144.4 190.33 144.4M218.13 142.23C218.07 142.23 218.02 142.25 217.97 142.29C217.48 142.7 216.95 143.11 216.42 143.49C216.35 143.54 216.31 143.62 216.31 143.69C216.31 143.74 216.32 143.79 216.36 143.83L216.56 143.94L216.7 143.89C217.25 143.5 217.78 143.09 218.29 142.67C218.35 142.62 218.38 142.55 218.38 142.48C218.38 142.42 218.36 142.37 218.32 142.32C218.27 142.26 218.2 142.23 218.13 142.23ZM187.12 142.1C187.05 142.1 186.98 142.13 186.93 142.19C186.89 142.24 186.87 142.3 186.87 142.35C186.87 142.42 186.9 142.49 186.96 142.54C187.47 142.98 188 143.39 188.54 143.78L188.69 143.83L188.89 143.73C188.89 143.73 188.94 143.64 188.94 143.59C188.94 143.51 188.9 143.43 188.84 143.39C188.32 143.01 187.8 142.61 187.3 142.18C187.25 142.14 187.2 142.12 187.14 142.12M220.95 139.45C220.88 139.45 220.81 139.48 220.76 139.54C220.34 140.03 219.89 140.52 219.42 140.98C219.37 141.03 219.35 141.09 219.35 141.16C219.35 141.22 219.37 141.29 219.42 141.34L219.6 141.41L219.78 141.34C220.25 140.87 220.71 140.38 221.14 139.87C221.18 139.82 221.2 139.76 221.2 139.71C221.2 139.64 221.17 139.57 221.11 139.52C221.06 139.48 221 139.46 220.95 139.46M184.33 139.28C184.27 139.28 184.22 139.3 184.17 139.34C184.11 139.39 184.08 139.46 184.08 139.53C184.08 139.59 184.1 139.64 184.14 139.69C184.57 140.2 185.03 140.7 185.49 141.17L185.67 141.24L185.85 141.17C185.85 141.17 185.92 141.06 185.92 140.99C185.92 140.93 185.9 140.86 185.85 140.81C185.4 140.35 184.95 139.86 184.53 139.36C184.48 139.3 184.41 139.27 184.34 139.27M223.27 136.23C223.19 136.23 223.1 136.27 223.06 136.35C222.73 136.9 222.36 137.45 221.98 137.99C221.95 138.03 221.93 138.08 221.93 138.13C221.93 138.21 221.97 138.29 222.03 138.33L222.18 138.38L222.38 138.28C222.77 137.74 223.14 137.17 223.48 136.61C223.5 136.57 223.52 136.52 223.52 136.48C223.52 136.4 223.48 136.31 223.4 136.27C223.36 136.25 223.31 136.23 223.27 136.23ZM182.04 136.05C182.04 136.05 181.95 136.06 181.91 136.08C181.83 136.13 181.79 136.21 181.79 136.29C181.79 136.33 181.8 136.38 181.82 136.42C182.16 137 182.53 137.57 182.91 138.1L183.11 138.21L183.25 138.16C183.32 138.11 183.36 138.03 183.36 137.96C183.36 137.91 183.35 137.86 183.31 137.81C182.94 137.29 182.58 136.73 182.24 136.16C182.19 136.08 182.11 136.04 182.02 136.04M225.02 132.68C224.92 132.68 224.83 132.74 224.79 132.84C224.55 133.45 224.28 134.05 223.99 134.63C223.97 134.66 223.96 134.7 223.96 134.74C223.96 134.83 224.01 134.92 224.1 134.97L224.21 135C224.3 135 224.39 134.95 224.44 134.86C224.73 134.26 225.01 133.65 225.25 133.03C225.26 133 225.27 132.97 225.27 132.94C225.27 132.84 225.21 132.75 225.11 132.71C225.08 132.7 225.05 132.69 225.02 132.69M180.31 132.48C180.31 132.48 180.25 132.48 180.22 132.5C180.12 132.54 180.06 132.63 180.06 132.73C180.06 132.76 180.06 132.79 180.08 132.82C180.32 133.44 180.59 134.06 180.88 134.66C180.92 134.75 181.01 134.8 181.1 134.8L181.21 134.77C181.3 134.73 181.35 134.64 181.35 134.54C181.35 134.5 181.35 134.47 181.32 134.43C181.04 133.85 180.77 133.24 180.54 132.63C180.5 132.53 180.41 132.47 180.31 132.47M226.19 128.81C226.07 128.81 225.96 128.89 225.94 129.01L225.92 129.09C225.78 129.74 225.62 130.37 225.43 130.99C225.43 131.01 225.42 131.04 225.42 131.06C225.42 131.17 225.49 131.26 225.6 131.3H225.67C225.78 131.31 225.88 131.24 225.91 131.13C226.1 130.5 226.27 129.85 226.41 129.2L226.43 129.11C226.43 129.11 226.43 129.08 226.43 129.06C226.43 128.94 226.35 128.84 226.23 128.81C226.22 128.81 226.2 128.81 226.19 128.81ZM179.18 128.68C179.18 128.68 179.15 128.68 179.14 128.68C179.02 128.71 178.94 128.81 178.94 128.92C178.94 128.94 178.94 128.95 178.94 128.97C179.07 129.61 179.24 130.27 179.43 130.91C179.46 131.02 179.56 131.09 179.67 131.09H179.74C179.85 131.05 179.92 130.95 179.92 130.84C179.92 130.82 179.92 130.79 179.91 130.77C179.72 130.14 179.56 129.5 179.43 128.87C179.4 128.75 179.29 128.67 179.18 128.67M226.7 124.87H226.69C226.56 124.87 226.45 124.97 226.44 125.11C226.41 125.76 226.35 126.41 226.27 127.07C226.27 127.08 226.27 127.09 226.27 127.1C226.27 127.22 226.36 127.33 226.49 127.35H226.52C226.64 127.35 226.75 127.26 226.77 127.13C226.85 126.47 226.91 125.79 226.94 125.13C226.94 125.13 226.94 125.13 226.94 125.12C226.94 124.99 226.83 124.88 226.7 124.87ZM178.71 124.75C178.57 124.75 178.47 124.87 178.47 125C178.49 125.66 178.55 126.33 178.63 127C178.65 127.13 178.75 127.22 178.88 127.22H178.91C179.04 127.2 179.13 127.1 179.13 126.97C179.13 126.96 179.13 126.95 179.13 126.94C179.05 126.29 179 125.63 178.98 124.98C178.98 124.84 178.87 124.76 178.72 124.74M226.53 120.91C226.53 120.91 226.51 120.91 226.5 120.91C226.37 120.93 226.28 121.03 226.28 121.16C226.28 121.17 226.28 121.18 226.28 121.19C226.36 121.84 226.41 122.5 226.44 123.15C226.44 123.28 226.56 123.39 226.69 123.39H226.7C226.84 123.39 226.94 123.27 226.94 123.14C226.91 122.48 226.86 121.81 226.78 121.14C226.76 121.01 226.65 120.92 226.53 120.92M178.91 120.79C178.78 120.79 178.67 120.88 178.65 121.01C178.56 121.67 178.51 122.34 178.47 123.01C178.47 123.01 178.47 123.01 178.47 123.02C178.47 123.15 178.58 123.26 178.71 123.27H178.72C178.85 123.27 178.96 123.17 178.97 123.03C179 122.38 179.06 121.72 179.14 121.07C179.14 121.06 179.14 121.05 179.14 121.04C179.14 120.92 179.05 120.81 178.92 120.79C178.92 120.79 178.91 120.79 178.9 120.79M225.73 117.03C225.73 117.03 225.68 117.03 225.66 117.04C225.55 117.07 225.48 117.17 225.48 117.28C225.48 117.3 225.48 117.33 225.49 117.35C225.68 117.98 225.84 118.62 225.97 119.25C225.99 119.37 226.1 119.45 226.21 119.45H226.26C226.38 119.42 226.46 119.32 226.46 119.2C226.46 119.18 226.46 119.17 226.46 119.15C226.33 118.5 226.16 117.85 225.97 117.21C225.94 117.1 225.84 117.03 225.73 117.03ZM179.72 116.91C179.61 116.91 179.51 116.98 179.48 117.09C179.29 117.71 179.13 118.35 178.99 118.99L179.23 119.08L178.99 119.03C178.99 119.03 178.99 119.06 178.99 119.08C178.99 119.19 179.07 119.28 179.19 119.31H179.24C179.36 119.31 179.47 119.22 179.5 119.1C179.63 118.47 179.79 117.85 179.98 117.24C179.98 117.22 179.99 117.19 179.99 117.17C179.99 117.06 179.92 116.97 179.81 116.93C179.79 116.93 179.76 116.92 179.74 116.92M224.29 113.34C224.29 113.34 224.22 113.34 224.18 113.37C224.09 113.41 224.04 113.5 224.04 113.6C224.04 113.64 224.04 113.67 224.07 113.71C224.35 114.29 224.62 114.89 224.86 115.51C224.9 115.61 224.99 115.67 225.09 115.67L225.18 115.65C225.28 115.61 225.34 115.52 225.34 115.42C225.34 115.39 225.34 115.36 225.32 115.33C225.08 114.7 224.8 114.08 224.52 113.49C224.48 113.4 224.39 113.35 224.3 113.35M181.18 113.23C181.09 113.23 181 113.28 180.95 113.37C180.66 113.97 180.38 114.59 180.14 115.2C180.13 115.23 180.12 115.26 180.12 115.29C180.12 115.39 180.18 115.48 180.28 115.52L180.37 115.54C180.47 115.54 180.56 115.48 180.6 115.38C180.84 114.78 181.1 114.17 181.39 113.59C181.41 113.56 181.42 113.52 181.42 113.48C181.42 113.39 181.37 113.3 181.28 113.25C181.24 113.23 181.21 113.22 181.17 113.22M222.27 109.94C222.22 109.94 222.17 109.96 222.13 109.99C222.06 110.04 222.02 110.12 222.02 110.19C222.02 110.24 222.03 110.29 222.07 110.33C222.44 110.86 222.8 111.41 223.14 111.98L223.35 112.1L223.48 112.06C223.56 112.01 223.6 111.93 223.6 111.85C223.6 111.81 223.59 111.76 223.56 111.72C223.22 111.14 222.85 110.58 222.47 110.04C222.42 109.97 222.34 109.93 222.27 109.93M183.21 109.83C183.13 109.83 183.06 109.87 183.01 109.93C182.62 110.47 182.25 111.03 181.91 111.6C181.89 111.64 181.87 111.69 181.87 111.73C181.87 111.81 181.91 111.9 181.99 111.94L182.12 111.98L182.33 111.86C182.67 111.3 183.03 110.75 183.41 110.22C183.44 110.18 183.46 110.13 183.46 110.08C183.46 110 183.42 109.92 183.36 109.88C183.32 109.85 183.26 109.83 183.21 109.83ZM219.71 106.9C219.65 106.9 219.58 106.92 219.54 106.97C219.49 107.02 219.47 107.08 219.47 107.15C219.47 107.21 219.49 107.28 219.54 107.33C220 107.79 220.44 108.28 220.86 108.78L221.05 108.87L221.21 108.81C221.27 108.76 221.3 108.69 221.3 108.62C221.3 108.56 221.28 108.51 221.24 108.46C220.81 107.95 220.35 107.45 219.89 106.98C219.84 106.93 219.78 106.91 219.71 106.91M185.78 106.82C185.72 106.82 185.65 106.84 185.6 106.89C185.12 107.36 184.67 107.86 184.24 108.36C184.2 108.41 184.18 108.47 184.18 108.52C184.18 108.59 184.21 108.66 184.27 108.71L184.43 108.77L184.62 108.68C185.04 108.19 185.49 107.7 185.95 107.24C186 107.19 186.02 107.13 186.02 107.06C186.02 107 186 106.93 185.95 106.88C185.9 106.83 185.84 106.81 185.77 106.81M216.7 104.34C216.62 104.34 216.55 104.38 216.5 104.44C216.47 104.48 216.45 104.53 216.45 104.58C216.45 104.66 216.49 104.74 216.55 104.78C217.07 105.16 217.59 105.56 218.09 105.99L218.25 106.05L218.44 105.96C218.44 105.96 218.5 105.85 218.5 105.8C218.5 105.73 218.47 105.66 218.41 105.61C217.9 105.17 217.37 104.76 216.83 104.38C216.79 104.35 216.73 104.33 216.68 104.33M188.82 104.27C188.77 104.27 188.72 104.29 188.68 104.32C188.13 104.71 187.6 105.12 187.09 105.55C187.03 105.6 187 105.67 187 105.74C187 105.8 187.02 105.85 187.06 105.9L187.25 105.99L187.41 105.93C187.91 105.51 188.43 105.11 188.96 104.73C189.03 104.68 189.07 104.6 189.07 104.53C189.07 104.48 189.05 104.43 189.02 104.39C188.97 104.32 188.89 104.28 188.82 104.28M213.3 102.3C213.21 102.3 213.12 102.35 213.07 102.44C213.05 102.47 213.04 102.51 213.04 102.55C213.04 102.64 213.09 102.73 213.18 102.78C213.76 103.07 214.34 103.38 214.9 103.72L215.03 103.76L215.24 103.64C215.24 103.64 215.28 103.55 215.28 103.51C215.28 103.43 215.24 103.34 215.16 103.3C214.59 102.96 214 102.64 213.4 102.34C213.37 102.32 213.33 102.32 213.29 102.32M192.23 102.25C192.23 102.25 192.16 102.25 192.12 102.28C191.52 102.57 190.93 102.89 190.36 103.23C190.28 103.28 190.24 103.36 190.24 103.44C190.24 103.48 190.25 103.53 190.27 103.57L190.49 103.69L190.62 103.65C191.18 103.32 191.76 103.01 192.35 102.72C192.44 102.68 192.49 102.59 192.49 102.49C192.49 102.45 192.49 102.42 192.46 102.38C192.42 102.29 192.33 102.24 192.23 102.24M209.61 100.85C209.5 100.85 209.41 100.92 209.37 101.03C209.37 101.05 209.36 101.08 209.36 101.1C209.36 101.21 209.43 101.31 209.54 101.34C210.17 101.53 210.79 101.74 211.4 101.98L211.49 102C211.59 102 211.68 101.94 211.72 101.84C211.73 101.81 211.74 101.78 211.74 101.75C211.74 101.65 211.68 101.56 211.58 101.52C210.96 101.28 210.33 101.06 209.69 100.87C209.66 100.87 209.64 100.86 209.61 100.86M195.92 100.82C195.92 100.82 195.87 100.82 195.85 100.82C195.22 101.01 194.58 101.23 193.96 101.47C193.86 101.51 193.8 101.6 193.8 101.7C193.8 101.73 193.8 101.76 193.82 101.79C193.86 101.89 193.95 101.95 194.05 101.95L194.14 101.93C194.75 101.69 195.38 101.48 196 101.3C196.11 101.27 196.18 101.17 196.18 101.06C196.18 101.04 196.18 101.01 196.17 100.99C196.14 100.88 196.04 100.81 195.93 100.81M205.73 100.03C205.61 100.03 205.5 100.12 205.49 100.25C205.49 100.26 205.49 100.27 205.49 100.28C205.49 100.4 205.58 100.51 205.71 100.53C206.36 100.61 207.01 100.73 207.64 100.86H207.69C207.81 100.86 207.91 100.79 207.93 100.67C207.93 100.65 207.93 100.64 207.93 100.62C207.93 100.5 207.85 100.4 207.73 100.37C207.09 100.23 206.42 100.12 205.75 100.03C205.74 100.03 205.73 100.03 205.71 100.03M199.8 100.01C199.8 100.01 199.78 100.01 199.77 100.01C199.11 100.09 198.45 100.2 197.79 100.33C197.67 100.36 197.59 100.46 197.59 100.58C197.59 100.6 197.59 100.61 197.59 100.63C197.61 100.75 197.72 100.83 197.83 100.83H197.88C198.52 100.69 199.17 100.58 199.82 100.51C199.95 100.49 200.04 100.39 200.04 100.26C200.04 100.25 200.04 100.24 200.04 100.23C200.02 100.1 199.92 100.01 199.79 100.01M202.68 99.84C202.37 99.84 202.07 99.84 201.76 99.86C201.62 99.86 201.52 99.98 201.52 100.11C201.52 100.25 201.64 100.34 201.78 100.35C202.08 100.34 202.38 100.33 202.68 100.33C203.03 100.33 203.38 100.33 203.74 100.36H203.75C203.88 100.36 203.99 100.26 204 100.12C204 100.12 204 100.12 204 100.11C204 99.98 203.89 99.87 203.76 99.86C203.4 99.84 203.03 99.84 202.67 99.84" fill="#756638"/>
<g filter="url(#filter0_d_9_1061)">
<path d="M223.68 52.88C223.68 52.88 215.49 55.64 213.16 66.43C211.99 71.84 211.8 78.17 213.88 84.99L219.05 90.94C219.9 91.92 221.42 91.89 222.23 90.88L239.8 68.96C240.46 68.13 240.39 66.93 239.64 66.19L223.69 52.88" fill="#E7E4D7"/>
<path d="M223.68 52.88C223.68 52.88 215.49 55.64 213.16 66.43C211.99 71.84 211.8 78.17 213.88 84.99L219.05 90.94C219.9 91.92 221.42 91.89 222.23 90.88L239.8 68.96C240.46 68.13 240.39 66.93 239.64 66.19L223.69 52.88" fill="#E7E4D7"/>
<path d="M153.29 37.74C153.29 37.74 159.62 43.63 157.31 54.42C156.15 59.83 153.72 65.68 149.02 71.05L141.86 74.35C140.69 74.89 139.31 74.24 138.99 72.98L131.99 45.77C131.73 44.74 132.28 43.68 133.28 43.31L153.29 37.74Z" fill="#E7E4D7"/>
<path d="M153.29 37.74C153.29 37.74 159.62 43.63 157.31 54.42C156.15 59.83 153.72 65.68 149.02 71.05L141.86 74.35C140.69 74.89 139.31 74.24 138.99 72.98L131.99 45.77C131.73 44.74 132.28 43.68 133.28 43.31L153.29 37.74Z" fill="#E7E4D7"/>
<path d="M187.55 49.65C175.39 47.03 173.95 34 173.95 34L153.29 37.74C153.29 37.74 163.08 54.99 149.02 71.05L146.87 95.5C146.35 101.37 145.06 107.15 143.02 112.68L127.27 155.34C126.46 157.54 127.63 159.97 129.84 160.71L147.41 166.58C156.7 169.69 166.31 171.75 176.06 172.74L194.49 174.61C196.82 174.85 198.88 173.11 199.04 170.78L202.22 125.42C202.63 119.54 203.83 113.74 205.77 108.17L213.87 85C207.66 64.58 223.68 52.88 223.68 52.88L206.38 40.98C206.38 40.98 199.71 52.27 187.55 49.65Z" fill="#E7E4D7"/>
<path d="M173.95 34C173.95 34 173.93 34.47 173.93 35.3C173.93 40.37 174.65 58.7 185.12 60.95C185.78 61.09 186.44 61.16 187.09 61.16C198.25 61.16 206.38 40.97 206.38 40.97L197.99 40.23C192.51 39.75 187.1 38.59 181.9 36.77L173.95 33.99" fill="#D1CCB5"/>
</g>
<path d="M123.41 148.86C123.41 148.86 123.41 148.87 123.42 148.88L123.4 148.85C123.4 148.85 123.4 148.86 123.4 148.87L123.41 148.86Z" fill="#78AD85"/>
<path d="M127.5 153C127.66 153.11 127.82 153.22 127.99 153.32L128.85 151L127.5 153Z" fill="#78AD85"/>
<path d="M129.56 149.08L130.9 145.46C130.61 145.16 130.34 144.83 130.09 144.46C129.78 144.01 129.52 143.47 129.31 142.98C129.14 142.58 129.04 142.04 128.95 141.52C128.84 140.45 128.95 139.34 129.3 138.31C129.65 137.27 130.24 136.29 131.03 135.37C131.83 134.46 132.88 133.65 134.01 132.9L132.42 130.36L132.22 130.5L129.51 126.3C129.01 126.63 128.52 126.98 128.04 127.35L129.83 129.72C129.69 129.83 129.56 129.95 129.42 130.06L127.55 127.73C127.07 128.11 126.59 128.51 126.14 128.94L128.22 131.1L127.85 131.49L125.71 129.4C125.49 129.63 125.26 129.84 125.05 130.09C124.84 130.33 124.64 130.59 124.44 130.85L126.78 132.7L126.45 133.13L124.03 131.36L124.05 131.34C123.66 131.88 123.31 132.44 122.97 133.03L127.31 135.48C127.23 135.61 127.14 135.74 127.09 135.88L122.67 133.62C122.36 134.22 122.09 134.83 121.86 135.47L124.67 136.48L124.5 137L121.65 136.12C121.45 136.77 121.3 137.43 121.18 138.1L124.1 138.6C124.07 138.78 124.05 138.96 124.03 139.14L121.07 138.77C120.98 139.45 120.93 140.13 120.93 140.81L123.93 140.78C123.93 140.96 123.93 141.15 123.95 141.33L120.97 141.49C120.99 141.83 120.99 142.17 121.03 142.51C121.08 142.85 121.14 143.19 121.2 143.53L126.1 142.58C126.12 142.73 126.16 142.88 126.2 143.02L121.34 144.21C121.34 144.21 121.33 144.14 121.32 144.11C121.46 144.71 121.63 145.31 121.88 145.93C121.92 146.04 121.98 146.14 122.02 146.24L124.77 145.08L124.99 145.58L122.29 146.85C122.57 147.45 122.89 148.04 123.25 148.61L125.77 147.02L126.07 147.47L123.62 149.17C124 149.73 124.43 150.25 124.9 150.76L127.1 148.76L127.49 149.15L125.38 151.26C125.87 151.75 126.39 152.23 126.96 152.65C126.96 152.65 126.96 152.65 126.95 152.65L129.59 149.11L129.56 149.08Z" fill="#78AD85"/>
<path d="M121.99 146.22L122.26 146.83H122.28C122.19 146.62 122.09 146.42 122 146.22H121.99Z" fill="#387545"/>
<path d="M124.76 145.05L122.01 146.21C122.1 146.42 122.19 146.61 122.29 146.81L124.99 145.54L124.77 145.04L124.76 145.05Z" fill="#387545"/>
<path d="M124.86 150.75L125.34 151.24C125.18 151.07 125.02 150.9 124.87 150.73L124.85 150.75H124.86Z" fill="#387545"/>
<path d="M127.08 148.73L124.88 150.73C125.03 150.9 125.19 151.07 125.35 151.24L127.46 149.13L127.07 148.74L127.08 148.73Z" fill="#387545"/>
<path d="M123.22 148.58L123.4 148.85C123.34 148.76 123.3 148.67 123.24 148.57H123.23L123.22 148.58Z" fill="#387545"/>
<path d="M123.6 149.14H123.61C123.55 149.04 123.48 148.96 123.42 148.88L123.6 149.14Z" fill="#387545"/>
<path d="M125.76 146.98L123.24 148.57C123.3 148.66 123.34 148.76 123.4 148.85L123.42 148.88C123.48 148.97 123.55 149.05 123.61 149.14L126.06 147.44L125.76 146.99V146.98Z" fill="#387545"/>
<path d="M121.6 136.08H121.62C121.65 135.98 121.67 135.88 121.71 135.78L121.61 136.08H121.6Z" fill="#387545"/>
<path d="M121.82 135.44L121.72 135.74C121.75 135.64 121.8 135.54 121.84 135.44H121.82Z" fill="#387545"/>
<path d="M124.64 136.45L121.83 135.44C121.79 135.54 121.75 135.64 121.71 135.74V135.77C121.66 135.87 121.64 135.98 121.61 136.08L124.46 136.96L124.63 136.44L124.64 136.45Z" fill="#387545"/>
<path d="M120.93 141.46H120.95C120.94 141.24 120.91 141.01 120.91 140.79C120.91 141.01 120.91 141.24 120.93 141.46Z" fill="#387545"/>
<path d="M123.91 140.75L120.91 140.78C120.91 141 120.94 141.23 120.95 141.45L123.93 141.29C123.91 141.11 123.91 140.93 123.91 140.74V140.75Z" fill="#387545"/>
<path d="M121.12 138.06C121.08 138.28 121.06 138.51 121.03 138.73H121.05C121.08 138.51 121.12 138.28 121.16 138.06H121.13H121.12Z" fill="#387545"/>
<path d="M124.07 138.57L121.15 138.07C121.11 138.29 121.07 138.52 121.04 138.74L124 139.11C124.02 138.93 124.04 138.75 124.07 138.57Z" fill="#387545"/>
<path d="M128.02 127.31C127.86 127.43 127.7 127.57 127.54 127.7C127.7 127.58 127.87 127.46 128.03 127.33L128.01 127.31H128.02Z" fill="#387545"/>
<path d="M129.83 129.7L128.04 127.33C127.88 127.45 127.71 127.58 127.55 127.7L129.42 130.03C129.56 129.92 129.69 129.8 129.83 129.69V129.7Z" fill="#387545"/>
<path d="M124.41 130.82L124.03 131.32C124.15 131.15 124.29 130.99 124.42 130.83L124.41 130.82Z" fill="#387545"/>
<path d="M126.44 133.11L126.77 132.68L124.43 130.83C124.3 130.99 124.16 131.15 124.04 131.32L124.02 131.34L126.44 133.11Z" fill="#387545"/>
<path d="M126.13 128.92L125.69 129.38C125.84 129.23 125.98 129.07 126.13 128.93V128.92Z" fill="#387545"/>
<path d="M128.21 131.09L126.13 128.93C125.98 129.07 125.84 129.24 125.69 129.39L127.83 131.48L128.2 131.09H128.21Z" fill="#387545"/>
<path d="M129.51 126.29C129.59 126.24 129.68 126.18 129.76 126.12L129.51 126.29Z" fill="#387545"/>
<path d="M132.42 130.35L129.77 126.11C129.69 126.16 129.6 126.22 129.52 126.28L132.23 130.48L132.43 130.34L132.42 130.35Z" fill="#387545"/>
<path d="M127.49 153.01C127.3 152.87 127.1 152.76 126.92 152.62C127.1 152.76 127.29 152.88 127.48 153.01H127.49Z" fill="#387545"/>
<path d="M129.56 149.08L126.92 152.62C126.92 152.62 126.92 152.62 126.93 152.62C127.11 152.76 127.31 152.87 127.5 152.99L128.85 150.99L129.56 149.07V149.08Z" fill="#387545"/>
<path d="M121.17 143.5C121.2 143.69 121.25 143.89 121.3 144.08C121.26 143.89 121.22 143.69 121.18 143.5H121.17Z" fill="#387545"/>
<path d="M126.18 142.99C126.14 142.84 126.1 142.7 126.08 142.55L121.18 143.5C121.22 143.69 121.26 143.89 121.3 144.08C121.3 144.11 121.31 144.15 121.32 144.18L126.18 142.99Z" fill="#387545"/>
<path d="M122.94 133C122.83 133.19 122.71 133.38 122.62 133.58H122.65C122.75 133.4 122.85 133.2 122.96 133H122.94Z" fill="#387545"/>
<path d="M127.29 135.46L122.95 133.01C122.84 133.2 122.74 133.4 122.64 133.6L127.06 135.86C127.12 135.72 127.2 135.59 127.28 135.46H127.29Z" fill="#387545"/>
<path d="M132.42 130.35L134.01 132.89C134.62 132.55 135.21 132.19 135.85 131.88L135.91 131.85L138.44 124.99L137.43 122.52L136.03 123.09L137.16 125.87L136.69 126.06L135.56 123.28L135.83 123.17L134.86 123.57C134.64 123.66 134.39 123.77 134.13 123.88L135.29 126.65L134.82 126.86L133.61 124.11L132.31 124.7C132.23 124.74 132.14 124.79 132.06 124.83L133.4 127.5L132.94 127.75L131.54 125.1C131.02 125.38 130.51 125.66 130 125.96L132.6 130.22C132.53 130.26 132.46 130.3 132.4 130.35H132.42Z" fill="#78AD85"/>
<path d="M139.77 121.56L140.9 124.34L140.43 124.53L139.48 122.19L138.71 124.29L139.8 126.95L139.33 127.14L138.45 124.99L135.92 131.85L136.85 131.43C137.18 131.28 137.49 131.13 137.91 130.97L142.57 129.06L151.89 125.24L170.53 117.6L169.39 114.82L169.16 114.92L167.26 110.29L167.49 110.19L161.73 112.55L162.13 112.39L163.27 115.17L162.8 115.36L161.66 112.58L160.26 113.15L162.16 117.78L161.69 117.97L159.8 113.34L160.15 113.2L156.54 114.68L157.68 117.46L157.21 117.65L156.07 114.87L156.2 114.82L154.53 115.51L154.68 115.45L155.82 118.23L155.35 118.42L154.21 115.64L152.81 116.21L154.7 120.84L154.23 121.03L152.34 116.4L150.94 116.97L152.08 119.75L151.61 119.94L150.47 117.16L150.8 117.02L148.84 117.83L148.63 117.92L149.08 117.74L150.22 120.52L149.75 120.71L148.61 117.93L145.08 119.38L145.35 119.27L147.24 123.9L146.77 124.09L144.88 119.46L143.48 120.03L144.61 122.81L144.14 123L143.01 120.22L143.14 120.17L141.5 120.84L141.6 120.8L142.73 123.58L142.26 123.77L141.13 120.99L139.67 121.59L139.73 121.56H139.77ZM165.86 110.86L167 113.64L166.53 113.83L165.39 111.05L165.86 110.86ZM163.53 111.82L164 111.63L165.14 114.41L164.67 114.6L163.53 111.82ZM157.94 114.11L158.41 113.92L159.55 116.7L159.08 116.89L157.94 114.11ZM146.76 118.7L147.23 118.51L148.37 121.29L147.9 121.48L146.76 118.7Z" fill="#78AD85"/>
<path d="M138.71 124.29L139.48 122.19L139.3 121.75L139.71 121.59L139.54 121.66L137.71 122.4L137.91 122.33L138.71 124.29Z" fill="#78AD85"/>
<path d="M137.44 122.52L137.71 122.4L137.44 122.52Z" fill="#387545"/>
<path d="M138.71 124.29L137.91 122.33L137.71 122.4L137.44 122.52L138.45 124.99L138.71 124.29Z" fill="#387545"/>
<path d="M139.8 126.95L138.71 124.29L138.45 124.99L139.33 127.15L139.8 126.95Z" fill="#387545"/>
<path d="M136.04 123.09L135.85 123.17L136.04 123.09Z" fill="#387545"/>
<path d="M136.71 126.06L137.18 125.87L136.04 123.09L135.85 123.17L135.58 123.28L136.71 126.06Z" fill="#387545"/>
<path d="M132.07 124.82L131.56 125.1C131.73 125.02 131.9 124.92 132.08 124.83L132.07 124.82Z" fill="#387545"/>
<path d="M133.41 127.5L132.07 124.83C131.9 124.92 131.72 125.01 131.55 125.1L132.95 127.75L133.41 127.5Z" fill="#387545"/>
<path d="M134.15 123.88L133.63 124.11C133.8 124.03 133.98 123.95 134.15 123.88Z" fill="#387545"/>
<path d="M135.31 126.64L134.15 123.87C133.98 123.95 133.8 124.02 133.63 124.1L134.84 126.85L135.31 126.64Z" fill="#387545"/>
<path d="M143.5 120.03L143.16 120.17L143.5 120.03Z" fill="#387545"/>
<path d="M144.16 123L144.63 122.81L143.5 120.03L143.16 120.17L143.03 120.22L144.16 123Z" fill="#387545"/>
<path d="M140.9 124.34L139.77 121.56L139.71 121.59L139.48 122.19L140.44 124.53L140.9 124.34Z" fill="#387545"/>
<path d="M139.3 121.75L139.48 122.19L139.71 121.59L139.3 121.75Z" fill="#387545"/>
<path d="M141.17 120.99L141.53 120.84L141.17 120.99Z" fill="#387545"/>
<path d="M142.77 123.57L141.63 120.8L141.53 120.84L141.17 120.99L142.3 123.77L142.77 123.57Z" fill="#387545"/>
<path d="M150.95 116.98L150.82 117.03L150.95 116.98Z" fill="#387545"/>
<path d="M151.62 119.94L152.09 119.75L150.95 116.98L150.82 117.03L150.48 117.17L151.62 119.94Z" fill="#387545"/>
<path d="M148.36 121.28L147.22 118.5L146.76 118.7L147.89 121.47L148.36 121.28Z" fill="#387545"/>
<path d="M148.62 117.93L148.64 117.92L148.62 117.93Z" fill="#387545"/>
<path d="M150.22 120.52L149.09 117.74L148.64 117.92L148.62 117.93L149.76 120.71L150.22 120.52Z" fill="#387545"/>
<path d="M158.404 113.905L157.942 114.095L159.078 116.871L159.541 116.681L158.404 113.905Z" fill="#387545"/>
<path d="M154.21 115.64L154.53 115.51L154.21 115.64Z" fill="#387545"/>
<path d="M155.81 118.22L154.68 115.45L154.53 115.51L154.21 115.64L155.35 118.42L155.81 118.22Z" fill="#387545"/>
<path d="M156.54 114.68L156.2 114.82L156.54 114.68Z" fill="#387545"/>
<path d="M157.21 117.65L157.68 117.46L156.54 114.68L156.2 114.82L156.07 114.87L157.21 117.65Z" fill="#387545"/>
<path d="M165.855 110.856L165.392 111.046L166.53 113.822L166.993 113.632L165.855 110.856Z" fill="#387545"/>
<path d="M161.66 112.58L161.73 112.56L161.66 112.58Z" fill="#387545"/>
<path d="M163.27 115.17L162.13 112.39L161.73 112.56L161.66 112.58L162.8 115.36L163.27 115.17Z" fill="#387545"/>
<path d="M163.991 111.626L163.528 111.816L164.666 114.592L165.128 114.402L163.991 111.626Z" fill="#387545"/>
<path d="M130.01 125.96C129.92 126.01 129.84 126.06 129.76 126.12C129.85 126.07 129.93 126.02 130.02 125.97L130.01 125.96Z" fill="#387545"/>
<path d="M132.42 130.35L129.76 126.12L132.42 130.35Z" fill="#387545"/>
<path d="M132.62 130.23L130.02 125.97C129.93 126.02 129.85 126.07 129.76 126.12L132.41 130.36C132.47 130.31 132.54 130.27 132.61 130.23H132.62Z" fill="#387545"/>
<path d="M169.15 114.92L169.38 114.82L167.49 110.19L167.25 110.29L169.15 114.92Z" fill="#387545"/>
<path d="M144.89 119.46L145.09 119.38L144.89 119.46Z" fill="#387545"/>
<path d="M147.25 123.9L145.36 119.27L145.09 119.38L144.89 119.46L146.79 124.09L147.25 123.9Z" fill="#387545"/>
<path d="M152.799 116.217L152.336 116.406L154.23 121.034L154.692 120.845L152.799 116.217Z" fill="#387545"/>
<path d="M160.27 113.16L160.15 113.2L160.27 113.16Z" fill="#387545"/>
<path d="M161.7 117.97L162.16 117.78L160.27 113.16L160.15 113.2L159.8 113.35L161.7 117.97Z" fill="#387545"/>
<path d="M170.99 117.41L170.75 117.5L173.55 116.35L170.51 108.95L167.72 110.1L167.95 110L170.99 117.41Z" fill="#AD787B"/>
<path d="M169.38 114.82L170.52 117.6L170.75 117.5L167.72 110.1L167.49 110.19L169.38 114.82Z" fill="#181A19"/>
<path d="M169.38 114.82L170.52 117.6L169.38 114.82Z" fill="#181A19"/>
<path d="M167.951 110.004L167.72 110.099L170.756 117.5L170.987 117.405L167.951 110.004Z" fill="#181A19"/>
<g filter="url(#filter1_d_9_1061)">
<path d="M131.32 99.77L112.86 107.47C108.78 109.17 106.09 112.01 107.79 116.09C109.49 120.17 113.25 122.48 117.33 120.78C117.33 120.78 124.23 118.36 127.05 113.98L132.47 102.54L131.31 99.77H131.32ZM124.44 112.49C122.52 115.29 117.84 117.41 116.34 117.94L116.21 117.99C112.67 119.47 110.89 115.7 110.57 114.93C110.22 114.1 109.41 112.16 114.03 110.24L128.35 104.26L124.45 112.49H124.44Z" fill="#AD787B"/>
<path d="M168.23 84.36C169 86.21 132.09 101.61 132.09 101.61L131.32 99.76C131.32 99.76 138.32 95.76 137.64 94.14C148.57 90.02 167.68 83.04 168.23 84.36Z" fill="#777DAD"/>
<path d="M131.32 99.7699L132.09 101.62C132.09 101.62 169 86.2099 168.23 84.3699C167.68 83.0499 148.57 90.0399 137.64 94.1499C138.32 95.7699 131.32 99.7699 131.32 99.7699Z" fill="#383D75"/>
<path d="M129.78 96.07C129.78 96.07 167.46 82.51 168.33 84.58C169.39 87.12 147.24 96.36 133.4 102.14C135.69 100.08 132.78 98.06 130.94 98.83" fill="#383D75"/>
<path d="M168.23 84.36C169 86.21 132.47 102.53 132.47 102.53L131.31 99.76C131.31 99.76 138.31 95.76 137.15 92.99C148.08 88.87 167.67 83.04 168.22 84.36H168.23Z" fill="#777DAD"/>
<path d="M138.7 97.6799C139.252 97.6799 139.7 97.2322 139.7 96.6799C139.7 96.1276 139.252 95.6799 138.7 95.6799C138.148 95.6799 137.7 96.1276 137.7 96.6799C137.7 97.2322 138.148 97.6799 138.7 97.6799Z" fill="#E7E4D7"/>
<path d="M129.79 96.0899L117.85 91.9C112.75 90.83 106.18 94.03 106.18 94.03C102.1 95.73 101.1 100.03 102.8 104.11C104.5 108.19 108.42 108.27 112.49 106.57L130.95 98.87L129.79 96.1V96.0899ZM111.33 103.8C106.72 105.73 105.91 103.79 105.56 102.96C105.24 102.19 103.81 98.27 107.35 96.79L107.48 96.73C108.91 96.03 113.71 94.1999 117.05 94.8099L125.64 97.83L111.32 103.81L111.33 103.8Z" fill="#AD787B"/>
</g>
<path d="M153.74 38.8801C153.65 38.8801 153.56 38.8301 153.51 38.7401C153.25 38.1801 153.07 37.8701 153.07 37.8701C153 37.7501 153.04 37.6 153.16 37.53C153.28 37.46 153.43 37.5001 153.5 37.6201C153.5 37.6201 153.68 37.94 153.96 38.53C154.02 38.65 153.96 38.8001 153.84 38.8601C153.81 38.8801 153.77 38.8801 153.73 38.8801H153.74Z" fill="#ADA178"/>
<path d="M150.9 68.9501C150.85 68.9501 150.8 68.9301 150.75 68.9001C150.64 68.8201 150.61 68.6601 150.7 68.5501C151.09 68.0101 151.47 67.4701 151.81 66.9301C151.88 66.8101 152.04 66.7801 152.15 66.8501C152.27 66.9201 152.3 67.0801 152.23 67.1901C151.88 67.7401 151.5 68.2901 151.1 68.8401C151.05 68.9101 150.98 68.9401 150.9 68.9401V68.9501ZM153.04 65.6201C153.04 65.6201 152.96 65.6201 152.92 65.5901C152.8 65.5201 152.76 65.3701 152.82 65.2501C153.14 64.6701 153.44 64.0801 153.72 63.5001C153.78 63.3701 153.93 63.3201 154.05 63.3801C154.17 63.4401 154.23 63.5901 154.17 63.7101C153.89 64.3001 153.58 64.9001 153.26 65.4901C153.21 65.5701 153.13 65.6201 153.04 65.6201ZM154.72 62.0301C154.72 62.0301 154.66 62.0301 154.63 62.0101C154.5 61.9601 154.44 61.8101 154.49 61.6901C154.73 61.0801 154.94 60.4601 155.13 59.8301C155.17 59.7001 155.31 59.6301 155.44 59.6601C155.57 59.7001 155.65 59.8401 155.61 59.9701C155.41 60.6001 155.19 61.2401 154.95 61.8601C154.91 61.9601 154.82 62.0201 154.72 62.0201V62.0301ZM155.89 58.2401C155.89 58.2401 155.85 58.2401 155.83 58.2401C155.7 58.2101 155.61 58.0701 155.64 57.9401C155.79 57.3001 155.91 56.6501 156.01 56.0101C156.03 55.8701 156.15 55.7801 156.3 55.8001C156.44 55.8201 156.53 55.9501 156.51 56.0901C156.41 56.7401 156.28 57.4001 156.13 58.0501C156.1 58.1701 156 58.2401 155.89 58.2401ZM156.5 54.3201C156.5 54.3201 156.49 54.3201 156.48 54.3201C156.34 54.3101 156.24 54.1901 156.25 54.0501C156.3 53.4001 156.34 52.7401 156.35 52.0901C156.35 51.9501 156.46 51.8401 156.6 51.8401C156.74 51.8401 156.85 51.9601 156.85 52.0901C156.85 52.7501 156.81 53.4201 156.75 54.0901C156.74 54.2201 156.63 54.3201 156.5 54.3201ZM156.57 50.3601C156.44 50.3601 156.33 50.2601 156.32 50.1201C156.29 49.4701 156.23 48.8101 156.16 48.1601C156.14 48.0201 156.24 47.9001 156.38 47.8801C156.51 47.8601 156.64 47.9601 156.66 48.1001C156.74 48.7601 156.79 49.4301 156.83 50.0901C156.83 50.2301 156.73 50.3401 156.59 50.3501H156.58L156.57 50.3601ZM156.11 46.4201C155.99 46.4201 155.89 46.3401 155.86 46.2101C155.74 45.5701 155.61 44.9301 155.45 44.2901C155.42 44.1601 155.5 44.0201 155.63 43.9901C155.76 43.9501 155.9 44.0401 155.93 44.1701C156.09 44.8201 156.23 45.4801 156.35 46.1201C156.37 46.2601 156.28 46.3901 156.15 46.4101C156.13 46.4101 156.12 46.4101 156.11 46.4101V46.4201ZM155.16 42.5801C155.05 42.5801 154.95 42.5101 154.92 42.4001C154.73 41.7701 154.51 41.1501 154.28 40.5401C154.23 40.4101 154.29 40.2701 154.42 40.2201C154.55 40.1701 154.69 40.2301 154.74 40.3601C154.98 40.9801 155.2 41.6101 155.4 42.2501C155.44 42.3801 155.37 42.5201 155.23 42.5601C155.21 42.5601 155.18 42.5701 155.16 42.5701V42.5801Z" fill="#ADA178"/>
<path d="M149.02 71.29C148.96 71.29 148.9 71.2701 148.86 71.2301C148.76 71.1401 148.74 70.98 148.84 70.88C149.06 70.63 149.28 70.3801 149.48 70.1201C149.57 70.0101 149.73 70 149.83 70.09C149.94 70.18 149.95 70.3401 149.86 70.4401C149.65 70.7001 149.43 70.95 149.21 71.21C149.16 71.27 149.09 71.3001 149.02 71.3001V71.29Z" fill="#ADA178"/>
<path d="M213.63 85.0701C213.53 84.7501 213.44 84.4201 213.35 84.1001L213.83 83.9701C213.92 84.2901 214.01 84.6001 214.11 84.9201L213.63 85.0601V85.0701Z" fill="#ADA178"/>
<path d="M212.88 82.1601C212.74 81.5101 212.62 80.8501 212.52 80.1901L213.01 80.1201C213.11 80.7701 213.23 81.4201 213.36 82.0601L212.87 82.1601H212.88ZM212.29 78.2101C212.24 77.5401 212.2 76.8701 212.19 76.2101H212.69C212.7 76.8501 212.73 77.5101 212.79 78.1701L212.29 78.2101ZM212.73 74.2401L212.23 74.2101C212.27 73.5401 212.33 72.8701 212.41 72.2201L212.91 72.2801C212.83 72.9201 212.77 73.5801 212.74 74.2401H212.73ZM213.22 70.3401L212.73 70.2401C212.86 69.5901 213.01 68.9401 213.19 68.2901L213.67 68.4201C213.5 69.0501 213.34 69.7001 213.22 70.3301V70.3401ZM214.26 66.5501L213.79 66.3801C214.01 65.7601 214.25 65.1301 214.52 64.5201L214.98 64.7201C214.72 65.3301 214.48 65.9401 214.26 66.5501ZM215.82 62.9401L215.37 62.7101C215.67 62.1301 215.99 61.5401 216.34 60.9601L216.77 61.2201C216.43 61.7901 216.11 62.3701 215.81 62.9401H215.82ZM217.83 59.5701L217.42 59.2901C217.79 58.7501 218.19 58.2101 218.6 57.6801L218.99 57.9901C218.58 58.5101 218.19 59.0401 217.82 59.5801L217.83 59.5701ZM220.26 56.4701L219.89 56.1401C220.34 55.6401 220.8 55.1501 221.26 54.6901L221.61 55.0501C221.15 55.5001 220.7 55.9801 220.26 56.4801V56.4701Z" fill="#ADA178"/>
<path d="M223.07 53.7001L222.75 53.3201C223.24 52.9001 223.54 52.6801 223.54 52.6801L223.83 53.0801C223.83 53.0801 223.54 53.2901 223.07 53.6901V53.7001Z" fill="#ADA178"/>
<defs>
<filter id="filter0_d_9_1061" x="127.013" y="33.99" width="117.24" height="144.642" filterUnits="userSpaceOnUse" color-interpolation-filters="sRGB">
<feFlood flood-opacity="0" result="BackgroundImageFix"/>
<feColorMatrix in="SourceAlpha" type="matrix" values="0 0 0 0 0 0 0 0 0 0 0 0 0 0 0 0 0 0 127 0" result="hardAlpha"/>
<feOffset dx="4" dy="4"/>
<feColorMatrix type="matrix" values="0 0 0 0 0.0941176 0 0 0 0 0.101961 0 0 0 0 0.0980392 0 0 0 1 0"/>
<feBlend mode="normal" in2="BackgroundImageFix" result="effect1_dropShadow_9_1061"/>
<feBlend mode="normal" in="SourceGraphic" in2="effect1_dropShadow_9_1061" result="shape"/>
</filter>
<filter id="filter1_d_9_1061" x="102.009" y="84.1696" width="68.358" height="40.1744" filterUnits="userSpaceOnUse" color-interpolation-filters="sRGB">
<feFlood flood-opacity="0" result="BackgroundImageFix"/>
<feColorMatrix in="SourceAlpha" type="matrix" values="0 0 0 0 0 0 0 0 0 0 0 0 0 0 0 0 0 0 127 0" result="hardAlpha"/>
<feOffset dx="2" dy="3"/>
<feColorMatrix type="matrix" values="0 0 0 0 0.0941176 0 0 0 0 0.101961 0 0 0 0 0.0980392 0 0 0 1 0"/>
<feBlend mode="normal" in2="BackgroundImageFix" result="effect1_dropShadow_9_1061"/>
<feBlend mode="normal" in="SourceGraphic" in2="effect1_dropShadow_9_1061" result="shape"/>
</filter>
</defs>
</svg>
