<?xml version="1.0" encoding="UTF-8"?>
<svg xmlns="http://www.w3.org/2000/svg" xmlns:xlink="http://www.w3.org/1999/xlink" viewBox="0 0 200 200">
  <defs>
    <filter id="drop-shadow-3" filterUnits="userSpaceOnUse">
      <feOffset dx="4" dy="4"/>
      <feGaussianBlur result="blur" stdDeviation="0"/>
      <feFlood flood-color="#181a19" flood-opacity="1"/>
      <feComposite in2="blur" operator="in"/>
      <feComposite in="SourceGraphic"/>
    </filter>
    <filter id="drop-shadow-3-1" x="40" y="40" width="124" height="116" filterUnits="userSpaceOnUse">
      <feOffset dx="4" dy="4"/>
      <feGaussianBlur result="blur-2" stdDeviation="0"/>
      <feFlood flood-color="#181a19" flood-opacity="1"/>
      <feComposite in2="blur-2" operator="in"/>
      <feComposite in="SourceGraphic"/>
    </filter>
    <filter id="drop-shadow-4" x="30.69" y="73.7" width="79.31" height="104.3" filterUnits="userSpaceOnUse">
      <feOffset dx="2" dy="3"/>
      <feGaussianBlur result="blur-3" stdDeviation="0"/>
      <feFlood flood-color="#181a19" flood-opacity="1"/>
      <feComposite in2="blur-3" operator="in"/>
      <feComposite in="SourceGraphic"/>
    </filter>
    <clipPath id="clippath">
      <path d="M108,81.1l-12.65,6.49c-1.85.95-3.26,2.59-3.93,4.56l-1.69,5.02,6.2,5.06,4.58-2.67c1.8-1.05,3.12-2.76,3.68-4.76l3.81-13.7Z" style="fill: #78ad85;"/>
    </clipPath>
    <filter id="drop-shadow-5" x="29.23" y="29.23" width="39.55" height="40.55" filterUnits="userSpaceOnUse">
      <feOffset dx="2" dy="3"/>
      <feGaussianBlur result="blur-4" stdDeviation="0"/>
      <feFlood flood-color="#181a19" flood-opacity="1"/>
      <feComposite in2="blur-4" operator="in"/>
      <feComposite in="SourceGraphic"/>
    </filter>
    <filter id="drop-shadow-6" x="103.06" y="138.06" width="75.88" height="38.88" filterUnits="userSpaceOnUse">
      <feOffset dx="2" dy="3"/>
      <feGaussianBlur result="blur-5" stdDeviation="0"/>
      <feFlood flood-color="#181a19" flood-opacity="1"/>
      <feComposite in2="blur-5" operator="in"/>
      <feComposite in="SourceGraphic"/>
    </filter>
  </defs>
  <g style="isolation: isolate;">
    <g id="Illustration_x5F_Illustration-Graphics">
      <rect width="200" height="200" style="fill: #ada178;"/>
      <g>
        <rect x="119.83" y="39.75" width="23.35" height=".5" transform="translate(8.32 100.98) rotate(-43.25)" style="fill: #ada178; mix-blend-mode: multiply;"/>
        <rect x="123.83" y="39.75" width="23.35" height=".5" transform="translate(9.4 103.72) rotate(-43.25)" style="fill: #ada178; mix-blend-mode: multiply;"/>
        <rect x="127.83" y="39.75" width="23.35" height=".5" transform="translate(10.49 106.46) rotate(-43.25)" style="fill: #ada178; mix-blend-mode: multiply;"/>
        <rect x="131.83" y="39.75" width="23.35" height=".5" transform="translate(11.58 109.2) rotate(-43.25)" style="fill: #ada178; mix-blend-mode: multiply;"/>
        <rect x="135.83" y="39.75" width="23.35" height=".5" transform="translate(12.66 111.94) rotate(-43.25)" style="fill: #ada178; mix-blend-mode: multiply;"/>
        <rect x="139.83" y="39.75" width="23.35" height=".5" transform="translate(13.75 114.68) rotate(-43.25)" style="fill: #ada178; mix-blend-mode: multiply;"/>
        <rect x="143.83" y="39.75" width="23.35" height=".5" transform="translate(14.84 117.42) rotate(-43.25)" style="fill: #ada178; mix-blend-mode: multiply;"/>
        <rect x="147.83" y="39.75" width="23.35" height=".5" transform="translate(15.92 120.16) rotate(-43.25)" style="fill: #ada178; mix-blend-mode: multiply;"/>
        <rect x="151.83" y="39.75" width="23.35" height=".5" transform="translate(17.01 122.9) rotate(-43.25)" style="fill: #ada178; mix-blend-mode: multiply;"/>
        <rect x="155.83" y="39.75" width="23.35" height=".5" transform="translate(18.1 125.65) rotate(-43.25)" style="fill: #ada178; mix-blend-mode: multiply;"/>
      </g>
      <rect x="40" y="40" width="120" height="112" rx="8" ry="8" style="fill: #e7e4d7; filter: url(#drop-shadow-3-1);"/>
      <rect x="48" y="48" width="104" height="88" rx="4" ry="4" style="fill: #e7e4d7; mix-blend-mode: multiply;"/>
      <g style="filter: url(#drop-shadow-4);">
        <path d="M95.93,102.23l-6.2-5.06-6.25,6.48c-6.97,7.23-13.53,14.85-19.65,22.81l-32.24,42c-1.4,1.71-1.14,4.23.57,5.63h0c1.71,1.4,4.23,1.14,5.63-.57l34.65-40.04c6.57-7.59,12.71-15.55,18.39-23.84l5.09-7.43Z" style="fill: #ad787b;"/>
        <g>
          <path d="M108,81.1l-12.65,6.49c-1.85.95-3.26,2.59-3.93,4.56l-1.69,5.02,6.2,5.06,4.58-2.67c1.8-1.05,3.12-2.76,3.68-4.76l3.81-13.7Z" style="fill: #78ad85;"/>
          <g style="clip-path: url(#clippath);">
            <path d="M90.17,76.7c1.93,0,1.93-3,0-3s-1.93,3,0,3h0Z" style="fill: #e7e4d7;"/>
            <g>
              <path d="M91.52,75.65l-2.94,3.61" style="fill: none;"/>
              <path d="M90.46,74.59c-.98,1.2-1.96,2.41-2.94,3.61-.26.32-.44.64-.44,1.06,0,.37.16.81.44,1.06s.66.46,1.06.44c.37-.02.81-.14,1.06-.44.98-1.2,1.96-2.41,2.94-3.61.26-.32.44-.64.44-1.06,0-.37-.16-.81-.44-1.06s-.66-.46-1.06-.44c-.37.02-.81.14-1.06.44h0Z" style="fill: #e7e4d7;"/>
            </g>
          </g>
        </g>
        <g>
          <path d="M95.35,87.59c-.94.48-1.77,1.15-2.45,1.94l.19.18c1.95,1.61,4.1,2.44,6.61,2.67.96.09,1.97.06,2.98.03.74-.02,1.48-.04,2.17-.01l3.15-11.3-12.65,6.49" style="fill: #78ad85;"/>
          <path d="M108,81.1l-12.65,6.49c-.94.48-1.77,1.15-2.45,1.94l.19.18c1.95,1.61,4.1,2.44,6.61,2.67.49.04,1,.06,1.52.06.48,0,.97-.01,1.46-.03.49-.01.97-.03,1.44-.03.25,0,.49,0,.73.01l3.15-11.3" style="fill: #387545;"/>
        </g>
      </g>
      <g>
        <rect x="32" y="32" width="32" height="32" rx="4" ry="4" transform="translate(14.6 -11.1) rotate(15.52)" style="fill: #e7e4d7; filter: url(#drop-shadow-5);"/>
        <path d="M36.44,44.79c3.95-2.53,9.53-1.37,12.9,1.72-.6.66,1.34-1.48-1.33,1.49,2.68-2.96.75-.82,1.34-1.48.14.12.35.31.49.43,2.87,2.35,5.89,3.51,9.72,4.26-2.87,1.87-6.86,1.74-9.95.25-1.02-.48-2.02-1.16-2.87-1.91-.02-.02-.06-.05-.08-.07.6-.66-1.34,1.48,1.33-1.49-2.68,2.96-.74.82-1.34,1.48-.02-.01-.04-.04-.06-.05-2.93-2.6-6.15-3.87-10.16-4.64h0Z" style="fill: #777dad; mix-blend-mode: multiply;"/>
      </g>
      <g style="filter: url(#drop-shadow-6);">
        <path d="M108.44,148.56h20v24h-20c-2.21,0-4-1.79-4-4v-16c0-2.21,1.79-4,4-4Z" transform="translate(-28.4 25.07) rotate(-10.96)" style="fill: #78ad85;"/>
        <rect x="128" y="144" width="24" height="24" transform="translate(-27.11 29.46) rotate(-10.96)" style="fill: #777dad;"/>
        <path d="M151.56,139.44h20c2.21,0,4,1.79,4,4v16c0,2.21-1.79,4-4,4h-20v-24h0Z" transform="translate(-25.81 33.86) rotate(-10.96)" style="fill: #ad787b;"/>
      </g>
      <path d="M151,103v.75h-22.05c-.11-.43-.49-.75-.95-.75-.55,0-1,.45-1,1s.45,1,1,1c.46,0,.84-.32.95-.75h17.43c-13.29,2.34-23.79,12.85-26.13,26.13v-17.43c.43-.11.75-.49.75-.95,0-.55-.45-1-1-1s-1,.45-1,1c0,.46.32.84.75.95v22.05h-.75v2h2v-2h-.72c.52-16.71,14.01-30.2,30.72-30.72v.72h2v-2h-2Z" style="fill: #ada178;"/>
    </g>
  </g>
</svg>