<svg width="199" height="199" viewBox="0 0 199 199" fill="none" xmlns="http://www.w3.org/2000/svg">
<rect width="199" height="199" fill="#AD787B"/>
<rect width="100" height="115.491" transform="translate(54 42.6426)" fill="#AD787B"/>
<path d="M54.4548 94.3927L58.4748 93.7754C58.6354 93.7522 58.752 93.6159 58.7567 93.4586L58.7231 86.38L58.722 86.3277V86.3193C58.7231 86.3056 58.7346 86.2929 58.7493 86.2908C58.764 86.2876 58.7777 86.2945 58.7845 86.3061L61.2391 93.0947C61.2947 93.2357 61.4407 93.3218 61.595 93.2996L65.8986 92.6389C65.9045 92.6383 65.9098 92.6407 65.9157 92.6399L69.6185 92.0717C72.2767 91.6644 76.8285 90.3068 77.4673 83.4507L77.429 90.4896C77.428 90.5059 77.4295 90.5223 77.4316 90.5387C77.461 90.7198 77.629 90.846 77.8096 90.8154L81.8301 90.2028C81.9907 90.1764 82.1072 90.0386 82.112 89.8812L82.0762 82.8048L82.0736 82.752C82.0731 82.7504 82.0736 82.7478 82.0731 82.7457V82.7441C82.0752 82.7293 82.0873 82.7182 82.102 82.7161C82.1167 82.7145 82.1308 82.7214 82.1356 82.734L84.5907 89.5174C84.6479 89.6584 84.7959 89.7492 84.9497 89.7238L89.3104 89.0569C89.491 89.0315 89.6133 88.8588 89.5818 88.6798C89.5765 88.6439 89.566 88.6117 89.5513 88.5816L86.3345 82.123C86.3329 82.1199 86.3319 82.1162 86.3308 82.1125C86.3282 82.0987 86.335 82.0855 86.346 82.0787C87.5669 81.3867 88.3377 80.327 88.7272 79.1234C88.6964 79.5321 88.6751 79.9395 88.672 80.3402C88.6526 84.8585 90.2736 89.2174 95.3697 88.4379C97.7246 88.0771 99.2196 86.8157 100.16 85.1448L99.3835 87.0009C99.3635 87.0558 99.3578 87.1181 99.3667 87.1825C99.3919 87.3637 99.5583 87.4893 99.7389 87.4592L110.797 85.7678C110.958 85.7451 111.074 85.6066 111.079 85.4483L111.099 81.9227C111.099 81.9043 111.088 81.8858 111.086 81.8668C111.061 81.6872 110.895 81.5636 110.716 81.5879L105.877 82.5258C105.86 82.5269 105.845 82.5153 105.842 82.4973C105.841 82.4921 105.841 82.4867 105.844 82.482L111.539 68.3329C111.549 68.2822 111.556 68.2262 111.547 68.1686C111.523 67.988 111.356 67.8644 111.176 67.8914L100.568 69.5147C100.407 69.5395 100.29 69.6795 100.287 69.839L100.275 71.9871C99.2566 70.6344 97.6078 69.6604 95.4201 69.9949C91.6114 70.5781 89.7373 73.6222 89.0253 76.9763C88.9364 72.4886 86.0376 71.738 82.0479 72.3486L77.8054 72.9981C77.6432 73.0235 77.5261 73.1639 77.5224 73.3229L77.483 80.5673C77.0687 76.0094 74.2719 73.5391 69.3965 74.285L65.9104 74.8189C65.7482 74.8448 65.6322 74.9832 65.6291 75.1432L65.6045 79.6113C65.1445 75.9621 62.3894 75.3586 58.6937 75.9233L54.4507 76.5734C54.289 76.5982 54.172 76.736 54.1699 76.8955L54.0754 94.0669C54.0754 94.0833 54.0759 94.0997 54.079 94.116C54.1063 94.2966 54.2748 94.4186 54.4548 94.3927ZM95.4611 74.2898C96.1387 74.1874 96.5587 74.8728 96.7088 75.5097C96.7571 75.6576 96.9057 75.7542 97.0663 75.7294L101.254 75.0857C101.378 75.0651 101.448 74.8845 101.429 74.7419C101.424 74.7097 101.422 74.6933 101.414 74.6605L101.412 74.6495C101.36 74.3084 101.268 73.9579 101.143 73.6089L105.244 72.8654C105.261 72.8633 105.277 72.8754 105.28 72.8934C105.281 72.8992 105.279 72.9045 105.278 72.9092L100.954 83.2452C101.51 81.4437 101.667 79.4313 101.671 77.6179L101.665 77.244C101.664 77.2286 101.664 77.2139 101.662 77.1991C101.636 77.0179 101.469 76.8923 101.29 76.9208L95.4159 77.8196C95.2553 77.8444 95.1382 77.9806 95.1335 78.1385L95.1209 81.2427C95.1204 81.2564 95.1209 81.2712 95.1235 81.2854C95.1482 81.466 95.3151 81.5928 95.4957 81.5632L96.8017 81.3631C96.8201 81.3604 96.8375 81.3731 96.8395 81.3916C96.8437 82.4293 96.4453 83.9708 95.2164 84.1588C93.3991 84.4355 93.5193 81.2997 93.4406 80.0339C93.4532 78.6856 93.3062 74.6209 95.4611 74.2898ZM82.2022 76.1793C82.2033 76.1656 82.2133 76.154 82.2269 76.1503C83.4862 75.8963 84.4022 76.4191 84.3818 77.9727C84.3881 79.1292 83.7036 80.3423 82.4673 80.5324L82.1996 80.554C82.1828 80.5551 82.1681 80.5429 82.166 80.5255C82.166 80.5239 82.166 80.5229 82.1655 80.5212L82.2022 76.1793ZM70.2485 87.6325L70.3057 78.6164C70.3057 78.6016 70.3167 78.589 70.3325 78.5863C72.4448 78.2848 72.7934 80.9099 72.7808 82.8417C72.7535 84.5147 72.3844 87.2929 70.28 87.6663C70.2647 87.6663 70.2506 87.6547 70.2485 87.6378C70.2474 87.6362 70.2485 87.6346 70.2485 87.6325ZM62.9919 85.6523C64.5205 84.786 65.3461 83.3483 65.5926 81.7684L65.5426 90.8407L62.9793 85.6967C62.9772 85.694 62.9767 85.6903 62.9751 85.6866C62.973 85.6729 62.9803 85.6592 62.9919 85.6523ZM58.8097 84.0939L58.847 79.752C58.8496 79.7382 58.858 79.7266 58.8722 79.7229C60.1336 79.4689 61.0475 79.9933 61.0255 81.5459C61.0339 82.7024 60.3504 83.9197 59.111 84.1082L58.8444 84.1267C58.8281 84.1272 58.8118 84.1151 58.8097 84.0982V84.0939Z" fill="#181A19"/>
<path d="M153.996 94.5336C153.967 94.3525 153.799 94.2268 153.621 94.2559L149.427 94.8985C149.408 94.9007 149.391 94.888 149.389 94.8706C149.388 94.8679 149.389 94.8669 149.389 94.8642L149.4 92.2122C149.401 92.1968 149.413 92.1831 149.429 92.1805L152.728 91.674C152.888 91.6508 153.005 91.5098 153.009 91.3519L153.047 87.801C153.047 87.7857 153.046 87.7693 153.043 87.7535C153.015 87.5745 152.848 87.453 152.671 87.4762L149.482 87.9663C149.464 87.9684 149.449 87.9563 149.446 87.9388C149.446 87.9367 149.446 87.9352 149.446 87.9336L149.445 85.517H149.446C149.446 85.5017 149.458 85.489 149.473 85.4853L153.189 84.9161C153.349 84.887 153.463 84.7481 153.465 84.5892L153.484 81.0499C153.484 81.0335 153.483 81.0166 153.481 80.9997C153.452 80.8181 153.284 80.6945 153.103 80.723L145.061 81.9535C144.926 81.9733 144.825 82.078 144.794 82.2055C144.729 82.092 144.601 82.0235 144.463 82.0437L135.179 83.4643C135.019 83.4917 134.904 83.6301 134.901 83.7901L134.878 87.4693H134.879C134.878 87.4867 134.879 87.5052 134.881 87.5232C134.912 87.7043 135.083 87.8311 135.262 87.8004L137.409 87.472C137.428 87.4693 137.444 87.482 137.447 87.4994C137.447 87.5005 137.448 87.5021 137.448 87.5042L137.384 99.9636L134.067 83.9572C134.036 83.7829 133.874 83.6656 133.698 83.6931L128.511 84.4858C128.373 84.508 128.268 84.6115 128.237 84.7387L124.335 101.675L121.498 95.989C121.496 95.9853 121.494 95.9821 121.494 95.9779C121.492 95.9637 121.499 95.951 121.51 95.9452C123.356 94.9022 124.194 93.0333 124.196 91.0783C124.217 86.3709 121.28 85.5909 117.218 86.2151L112.966 86.8641C112.804 86.8884 112.698 87.0294 112.694 87.1889H112.692L112.654 94.1047C112.233 90.3505 110.296 86.9663 106.166 87.5974C102.574 88.1471 100.627 91.2283 99.88 94.5788C99.7415 90.2003 96.6656 89.3587 92.6836 89.9687L88.692 90.5823C88.5308 90.605 88.4148 90.7423 88.4111 90.9018L88.3851 95.4985C87.9726 91.7363 85.1944 91.1147 81.4593 91.6883L77.2141 92.3378C77.0525 92.3605 76.938 92.4979 76.9338 92.6589L76.8997 98.7431C76.3033 95.3306 74.3624 92.4649 70.5298 93.0539C65.7765 93.7801 63.9019 98.9374 63.8799 103.289C63.8733 104.543 64.0209 105.815 64.3466 106.976C64.3151 106.971 64.2834 106.965 64.2502 106.97C64.1863 106.979 64.13 107.011 64.0854 107.054H64.0844C63.5306 107.535 62.4592 108.23 61.6838 108.345C59.3442 108.705 58.7699 106.151 58.7815 104.069C58.7909 102.106 59.393 99.2465 61.8245 98.8726C62.5458 98.7617 63.0397 98.9016 63.518 99.2079C63.5788 99.2433 63.6529 99.2597 63.7285 99.2491C63.8891 99.2264 64.004 99.0891 64.0051 98.9307L64.046 94.7107C64.046 94.7028 64.0455 94.6949 64.0439 94.6864C64.0235 94.5438 63.9164 94.4366 63.7846 94.4134V94.4123C63.1038 94.2803 62.3767 94.3004 61.6455 94.4139C59.3715 94.7593 54.0387 96.9245 54.0004 104.915C53.961 111.023 57.2046 113.527 61.0413 112.936C62.3279 112.744 63.3925 112.235 64.2187 111.576V111.574C64.308 111.519 64.3684 111.423 64.3762 111.314L64.5993 107.753C65.5165 110.223 67.3622 111.972 70.4311 111.5C74.2618 110.912 76.2366 107.444 76.871 103.841L76.8373 109.827C76.8363 109.843 76.8379 109.859 76.841 109.877C76.8694 110.056 77.0389 110.18 77.2174 110.155L81.2421 109.537C81.4017 109.514 81.5182 109.379 81.5182 109.221L81.4856 102.144L81.4851 102.092V102.085L81.4856 102.083C81.4872 102.069 81.4993 102.058 81.514 102.056C81.5287 102.054 81.5418 102.061 81.5471 102.073L84.0022 108.857C84.0552 108.998 84.2011 109.088 84.3549 109.065L88.7193 108.391L92.7204 107.786C92.8826 107.755 93.0007 107.615 92.9982 107.456L93.0302 101.923C93.0318 101.908 93.0428 101.895 93.058 101.892C96.2585 101.488 98.6527 100.242 99.5273 97.4436C99.5234 97.5732 99.5155 97.7041 99.5149 97.8324C99.4907 102.189 101.318 106.772 106.069 106.048C110.201 105.413 112.173 101.43 112.634 97.5415L112.596 104.355H112.597C112.596 104.371 112.597 104.388 112.599 104.405C112.624 104.585 112.791 104.712 112.971 104.686L117.001 104.068C117.161 104.046 117.269 103.91 117.274 103.75L117.244 96.6708V96.6175C117.245 96.6154 117.245 96.6133 117.244 96.6111L117.245 96.6095C117.247 96.5963 117.258 96.5842 117.273 96.5826C117.287 96.5805 117.301 96.5873 117.307 96.5989L119.761 103.389C119.814 103.527 119.959 103.609 120.114 103.588L124.472 102.922C124.478 102.921 124.483 102.917 124.49 102.916C124.497 102.915 124.503 102.918 124.51 102.917L128.622 102.287C128.768 102.267 128.874 102.151 128.892 102.01L129.247 99.9187C129.251 99.9055 129.261 99.8949 129.274 99.8928L132.362 99.4265C132.379 99.4244 132.394 99.436 132.397 99.4524L132.686 101.329C132.715 101.509 132.881 101.636 133.061 101.61L137.235 100.971C137.345 100.955 137.429 100.883 137.476 100.791C137.546 100.863 137.646 100.904 137.755 100.888L141.778 100.273C141.94 100.246 142.056 100.109 142.06 99.9507L142.133 86.7754C142.135 86.76 142.145 86.7485 142.161 86.7458L144.543 86.3799C144.634 86.3668 144.708 86.3158 144.758 86.247L144.684 99.4401C144.684 99.4575 144.687 99.4755 144.689 99.494C144.719 99.6741 144.887 99.8009 145.067 99.7749L153.7 98.4457C153.861 98.423 153.978 98.2841 153.982 98.1247L154 94.5796C153.999 94.5648 153.998 94.549 153.996 94.5336ZM70.4589 107.006C68.6883 107.276 68.6384 103.668 68.6558 102.555C68.65 101.445 68.7387 97.8168 70.5067 97.5475C72.2726 97.2776 72.3272 100.886 72.3308 101.996C72.3083 103.109 72.2237 106.737 70.4589 107.006ZM81.8736 99.8669L81.6059 99.8938C81.5891 99.8943 81.5749 99.8822 81.5723 99.8653C81.5712 99.8637 81.5712 99.8626 81.5712 99.8611L81.6085 95.5138C81.609 95.5006 81.6185 95.4885 81.6332 95.4848C82.8977 95.2318 83.8127 95.7557 83.788 97.3072C83.8011 98.4643 83.1114 99.6815 81.8736 99.8669ZM85.7355 101.452C85.7329 101.438 85.7397 101.424 85.7507 101.418C87.3144 100.535 88.1476 99.058 88.3742 97.4387L88.3222 106.634L85.7397 101.462C85.7376 101.459 85.7361 101.456 85.7355 101.452ZM93.0894 97.8705C93.0726 97.8721 93.058 97.8594 93.0559 97.8425C93.0559 97.8404 93.0548 97.8378 93.0548 97.8357L93.0884 93.7815C93.0889 93.7667 93.1004 93.7535 93.1167 93.7515L93.4301 93.6807C94.5797 93.5086 95.1656 94.4322 95.1509 95.5686C95.1393 96.882 94.3661 97.7322 93.0894 97.8705ZM106.096 101.555C104.326 101.825 104.276 98.2169 104.289 97.1036C104.288 95.9936 104.377 92.3614 106.14 92.0905C107.908 91.8217 107.958 95.4301 107.969 96.5396C107.946 97.6529 107.858 101.285 106.096 101.555ZM117.628 94.3984L117.361 94.4195C117.345 94.4206 117.329 94.4095 117.327 94.3915C117.327 94.3899 117.326 94.3884 117.327 94.3868L117.367 90.0448C117.367 90.0316 117.378 90.0195 117.391 90.0163C118.657 89.7628 119.563 90.2835 119.543 91.8387C119.559 92.9958 118.869 94.2083 117.628 94.3984ZM131.853 95.7183L129.949 96.0113C129.931 96.0129 129.915 96.0003 129.913 95.9828C129.913 95.9802 129.913 95.9765 129.913 95.9734L130.557 91.7803C130.758 90.6682 130.869 89.5476 131.013 88.4365C131.016 88.4227 131.027 88.4111 131.041 88.409C131.059 88.4064 131.076 88.419 131.078 88.4375L131.079 88.4386L131.88 95.6856C131.88 95.7008 131.87 95.7151 131.853 95.7183Z" fill="#181A19"/>
<path d="M138.924 106.228C139.714 106.107 140.967 106.856 141.561 107.411C141.631 107.477 141.729 107.512 141.832 107.492C141.992 107.465 142.109 107.33 142.109 107.172L142.131 102.866C142.13 102.848 142.129 102.829 142.126 102.811C142.108 102.688 142.027 102.591 141.92 102.549C140.985 102.214 140.094 101.652 138.366 101.922C134.373 102.526 133.074 106.51 133.057 108.592C133.046 109.893 133.422 110.827 133.981 111.571C134.585 112.326 135.374 112.89 136.289 113.484C136.594 113.653 136.854 113.821 137.055 114.051C137.303 114.277 137.436 114.564 137.434 114.991C137.433 115.77 136.686 116.286 136.042 116.379C135.135 116.519 133.835 115.751 133.19 115.14C133.121 115.078 133.025 115.045 132.926 115.059C132.84 115.072 132.768 115.118 132.718 115.181L132.784 103.457H132.782C132.782 103.443 132.782 103.428 132.78 103.413C132.755 103.232 132.588 103.105 132.408 103.141L128.761 103.695C128.597 103.718 128.482 103.86 128.487 104.022L128.763 114.347C128.763 114.363 128.752 114.378 128.735 114.381C128.719 114.383 128.704 114.374 128.699 114.359L125.116 104.52C125.065 104.374 124.917 104.282 124.759 104.31L120.852 104.902C120.692 104.93 120.575 105.07 120.569 105.226L120.531 111.952C120.068 108.275 118.134 105.016 114.066 105.633C110.043 106.251 108.088 110.041 107.567 113.83L107.6 107.299C107.6 107.289 107.6 107.278 107.598 107.268C107.573 107.087 107.407 106.961 107.226 106.988L103.203 107.604C103.072 107.623 102.974 107.722 102.938 107.843C102.87 107.74 102.748 107.679 102.616 107.697L93.3301 109.118C93.1684 109.141 93.0566 109.279 93.0545 109.44L93.0314 113.119C93.0309 113.137 93.0314 113.155 93.0345 113.173C93.0608 113.354 93.2335 113.48 93.4125 113.455L95.5626 113.121C95.581 113.118 95.5973 113.13 95.5999 113.149C95.5999 113.15 95.5994 113.152 95.5999 113.154L95.5349 125.602L92.2201 109.607C92.1891 109.432 92.0269 109.317 91.851 109.347L86.6615 110.14C86.525 110.159 86.4211 110.261 86.3896 110.388L82.8904 125.584L82.8952 124.714C82.8957 124.696 82.8942 124.679 82.891 124.662C82.86 124.48 82.6905 124.359 82.5115 124.386L79.4207 124.858C79.4028 124.861 79.386 124.85 79.3839 124.831C79.3829 124.83 79.3839 124.829 79.3839 124.828L79.4543 111.626L79.4537 111.627C79.4537 111.609 79.4537 111.591 79.4506 111.573C79.4259 111.392 79.2595 111.275 79.0789 111.301L75.0542 111.918C74.8905 111.942 74.775 112.083 74.7745 112.244L74.6989 125.66C74.6366 125.622 74.5637 125.6 74.4861 125.611L70.2882 126.254C70.2709 126.256 70.2541 126.244 70.252 126.227C70.2515 126.225 70.2515 126.223 70.252 126.221L70.2614 123.568C70.2614 123.551 70.2735 123.538 70.2882 123.535L73.5927 123.031C73.7543 123.006 73.8677 122.87 73.8683 122.711L73.9066 119.16C73.9066 119.144 73.9061 119.129 73.904 119.113C73.8788 118.933 73.7134 118.808 73.537 118.833L70.3417 119.321C70.3249 119.323 70.3082 119.311 70.3055 119.293L70.3072 116.872C70.3082 116.857 70.3198 116.843 70.3344 116.84L74.0557 116.276C74.2148 116.249 74.3266 116.107 74.3261 115.948L74.3439 112.407C74.3439 112.39 74.3429 112.374 74.3408 112.357C74.315 112.176 74.1486 112.056 73.9686 112.082L65.9208 113.309C65.7602 113.34 65.6473 113.474 65.6436 113.632L65.619 118.165C65.1851 114.463 62.4195 113.847 58.7036 114.417L54.4569 115.066C54.2957 115.089 54.1802 115.227 54.1791 115.386L54.0847 132.559C54.0847 132.575 54.0857 132.591 54.0883 132.608C54.1146 132.788 54.281 132.911 54.4605 132.884L58.4852 132.268C58.6453 132.243 58.7592 132.107 58.7639 131.949L58.733 124.873L58.7319 124.82C58.7314 124.818 58.7319 124.816 58.7319 124.814V124.811C58.7335 124.797 58.7445 124.786 58.7587 124.784C58.7734 124.782 58.7881 124.789 58.7949 124.802L61.2485 131.585C61.3046 131.727 61.4495 131.817 61.6044 131.793L65.9244 131.131L65.9255 131.131L74.5654 129.806C74.666 129.791 74.7438 129.73 74.7915 129.649C74.8628 129.713 74.9572 129.75 75.0584 129.736L82.5928 128.582C82.6049 128.58 82.6146 128.573 82.6262 128.57C82.638 128.57 82.6489 128.574 82.6609 128.572L86.7712 127.942C86.9176 127.92 87.0247 127.802 87.0452 127.66L87.4006 125.573C87.4032 125.56 87.4137 125.55 87.4279 125.548L90.5134 125.073C90.5313 125.07 90.546 125.081 90.5502 125.098L90.8357 126.983C90.8672 127.164 91.0336 127.29 91.2142 127.261L95.3864 126.623C95.4959 126.604 95.5797 126.532 95.6274 126.439C95.6981 126.514 95.7983 126.558 95.9075 126.542L99.9295 125.923C100.091 125.901 100.208 125.764 100.212 125.605L100.283 112.429C100.284 112.414 100.295 112.402 100.31 112.4L102.695 112.034C102.777 112.022 102.847 111.979 102.897 111.92L102.823 125.098C102.823 125.115 102.824 125.132 102.826 125.15C102.861 125.331 103.028 125.454 103.208 125.423L107.23 124.81C107.391 124.784 107.507 124.645 107.513 124.488L107.546 117.895C108.037 121.519 109.957 124.697 113.969 124.086C118.038 123.463 120.009 119.592 120.509 115.76L120.471 122.401C120.472 122.416 120.473 122.431 120.475 122.448C120.508 122.629 120.676 122.754 120.856 122.723L124.5 122.165C124.665 122.142 124.784 121.998 124.784 121.835L124.724 111.93C124.724 111.913 124.736 111.9 124.751 111.898C124.767 111.896 124.782 111.906 124.787 111.919L128.095 121.345C128.145 121.492 128.294 121.586 128.453 121.56L132.414 120.959C132.569 120.933 132.678 120.8 132.687 120.647L132.69 120.033C132.734 120.092 132.789 120.14 132.858 120.162C133.894 120.416 134.859 120.89 136.566 120.629C139.832 120.128 142.099 117.13 142.115 113.82C142.128 112.472 141.826 111.574 141.295 110.85C140.761 110.132 139.97 109.592 138.999 109.031C138.758 108.851 138.4 108.673 138.154 108.426C137.907 108.179 137.693 107.878 137.71 107.497C137.699 106.814 138.374 106.316 138.924 106.228ZM59.1178 122.602L58.8506 122.622C58.8349 122.623 58.8191 122.61 58.817 122.594C58.817 122.593 58.817 122.591 58.8165 122.59L58.8558 118.247C58.8575 118.234 58.8679 118.222 58.8816 118.219C60.144 117.96 61.0548 118.484 61.0328 120.036C61.0438 121.192 60.3598 122.411 59.1178 122.602ZM62.9839 124.181C62.9818 124.167 62.9892 124.153 63.0007 124.147C64.5453 123.273 65.3729 121.818 65.6078 120.222L65.5582 129.341L62.9876 124.19C62.9855 124.187 62.9845 124.185 62.9839 124.181ZM90.007 121.372L88.1015 121.661C88.0836 121.662 88.0679 121.65 88.0652 121.632C88.0652 121.629 88.0642 121.626 88.0658 121.623L88.7093 117.433C88.9109 116.318 89.0185 115.197 89.166 114.09C89.1681 114.077 89.1792 114.065 89.1939 114.064C89.2117 114.061 89.228 114.073 89.2306 114.091L89.2316 114.093L90.0332 121.339C90.0332 121.355 90.0222 121.368 90.007 121.372ZM113.997 119.592C112.227 119.862 112.177 116.256 112.198 115.144C112.188 114.033 112.277 110.401 114.048 110.126C115.809 109.856 115.868 113.465 115.869 114.575C115.846 115.688 115.768 119.318 113.997 119.592Z" fill="#181A19"/>
</svg>
