<svg width="24" height="24" viewBox="0 0 24 24" fill="none" xmlns="http://www.w3.org/2000/svg">
<path d="M19.2947 23.7931C18.4408 24.4013 12.9622 20.5461 11.9129 20.5376C10.8637 20.5292 5.32336 24.2957 4.47948 23.6739C3.6356 23.0521 5.61952 16.6651 5.30336 15.6674C4.9872 14.6698 -0.317303 10.5795 0.0149744 9.58699C0.347325 8.59452 7.05207 8.50234 7.90591 7.89416C8.75975 7.28606 11.0217 0.991608 12.0711 1.00001C13.1203 1.00848 15.2801 7.33851 16.124 7.96034C16.9679 8.5821 23.6703 8.78225 23.9866 9.7799C24.3027 10.7775 18.9328 14.782 18.6005 15.7744C18.2682 16.7669 20.1485 23.1849 19.2947 23.7931Z" fill="var(--off-white-darker)"/>
</svg>
