<?xml version="1.0" encoding="UTF-8"?>
<svg id="Tile_x5F_Ruler" xmlns="http://www.w3.org/2000/svg" viewBox="0 0 200 200">
  <path d="M200,67.21h0v-32s0,0,0,0V16C200,7.16,192.84,0,184,0H16C7.16,0,0,7.16,0,16v168c0,8.84,7.16,16,16,16h20.93s0,0,0,0h32s0,0,0,0h32s0,0,0,0h32s0,0,0,0h32s0,0,0,0h19.09c8.84,0,16-7.16,16-16v-20.8s0,0,0,0v-32s0,0,0,0v-32s0,0,0,0v-32ZM198,101.21v30l-23-.04v2s23,.04,23,.04v30l-23-.03v2s23,.03,23,.03v18.8c0,7.72-6.28,14-14,14h-19.09l.04-23h-2s-.04,23-.04,23h-30l.03-23h-2s-.03,23-.03,23h-30l.03-23h-2s-.03,23-.03,23h-30l.04-23h-2s-.04,23-.04,23h-30l.03-23h-2s-.03,23-.03,23h-18.93c-7.72,0-14-6.28-14-14V16C2,8.28,8.28,2,16,2h168c7.72,0,14,6.28,14,14v19.21l-23-.04v2s23,.04,23,.04v30l-23-.04v2s23,.04,23,.04v30l-23-.03v2s23,.03,23,.03Z" style="fill: #777dad;"/>
</svg>