<?xml version="1.0" encoding="UTF-8"?>
<svg id="Tile_x5F_Diagram" xmlns="http://www.w3.org/2000/svg" viewBox="0 0 200 200">
  <path d="M184,2c7.72,0,14,6.28,14,14v168c0,7.72-6.28,14-14,14H16c-7.72,0-14-6.28-14-14V16C2,8.28,8.28,2,16,2h168M184,0H16C7.16,0,0,7.16,0,16v168c0,8.84,7.16,16,16,16h168c8.84,0,16-7.16,16-16V16C200,7.16,192.84,0,184,0h0Z" style="fill: #777dad;"/>
  <path d="M200.76,56.24l-.76-.65c0-1.38,0-2.67,0-2.67-1.66,0-3,1.34-3,3,0,.46.11.89.29,1.28l-24.21,28.02c-.34-.13-.7-.21-1.09-.21-.46,0-.89.11-1.29.3l-20.01-20.01c.19-.39.3-.82.3-1.29,0-1.66-1.34-3-3-3s-3,1.34-3,3c0,.72.27,1.38.7,1.9l-21.1,35.16c-.19-.04-.39-.06-.6-.06-1.66,0-3,1.34-3,3,0,.46.11.9.3,1.29l-20.01,20.01c-.39-.19-.82-.3-1.29-.3-.96,0-1.81.46-2.35,1.16l-18.65-6.22c-.03-1.63-1.36-2.94-2.99-2.94s-3,1.34-3,3c0,.25.04.5.1.73l-19.31,12.87c-.5-.38-1.12-.6-1.79-.6-.2,0-.4.02-.6.06l-21.1-35.16c.43-.52.69-1.17.69-1.9,0-1.66-1.34-3-3-3s-3,1.34-3,3c0,.21.02.41.06.61l-22.62,13.66c-.54-.76-1.43-1.26-2.44-1.26,0,0,0,6,0,6,1.56,0,2.83-1.2,2.97-2.72l23.14-13.97c.52.42,1.17.69,1.89.69.2,0,.4-.02.6-.06l21.1,35.16c-.43.52-.69,1.17-.69,1.9,0,1.66,1.34,3,3,3s3-1.34,3-3c0-.25-.04-.5-.1-.73l19.31-12.87c.5.38,1.12.6,1.79.6.96,0,1.81-.46,2.35-1.16l18.65,6.22c.03,1.63,1.36,2.94,2.99,2.94s3-1.34,3-3c0-.46-.11-.89-.3-1.29l20.01-20.01c.39.19.82.3,1.29.3,1.66,0,3-1.34,3-3,0-.72-.27-1.38-.69-1.9l21.1-35.16c.19.04.39.06.6.06.46,0,.89-.11,1.29-.3l20.01,20.01c-.19.39-.3.82-.3,1.29,0,1.66,1.34,3,3,3s3-1.34,3-3c0-.54-.15-1.04-.4-1.48l24.11-27.91c.39.19.83.3,1.29.3,0,0,0-.79,0-1.8l.76-.88Z" style="fill: #777dad;"/>
</svg>