<?xml version="1.0" encoding="UTF-8"?>
<svg id="Tile_x5F_Ae" xmlns="http://www.w3.org/2000/svg" viewBox="0 0 200 200">
  <rect y="0" width="200" height="200" rx="16" ry="16" style="fill: #777dad;"/>
  <path d="M56.02,105.28h0c1.26-3.52,2.61-7.45,3.71-11.72,1.35-4.19,2.61-8.37,3.87-12.39,1.18-3.6,2.11-7.2,2.87-10.8h.17c.58,2.01,1.17,4.19,1.83,6.54.67,2.43,1.42,4.86,2.25,7.46s1.58,5.11,2.42,7.71c.75,2.51,1.5,4.94,2.25,7.21.75,2.18,1.42,4.27,1.92,6.03h0l-21.28-.04h0M55.6,55.1c-.38.07-.69.42-.68.79,0,.04,0,.08.01.13h0c0,1.84-.17,3.69-.51,5.44-.34,1-.59,1.76-.84,2.6l-27.11,77.27c-.06.24-.09.46-.09.64,0,.58.31.87,1.01.87l15.75.03c.06,0,.11,0,.17,0,.68,0,1.27-.48,1.43-1.18l6.4-19.76,31.16.05v-.42s6.83,20.12,6.83,20.12c.15.54.66.93,1.19.93.05,0,.1,0,.15-.01l17.51.03h0c.63,0,.93-.24.93-.76,0-.17-.03-.36-.09-.58l-30.43-85.49c-.08-.42-.5-.67-1.09-.67l-21.44-.04h-.25" style="fill: #383d75;"/>
  <path d="M131.66,102.31h0c.26-2.09.84-4.1,1.85-6.03,2.08-3.98,6.13-6.37,10.48-6.37.22,0,.45,0,.67.02.12,0,.24,0,.35,0,4.8,0,9.06,3.15,10.52,7.73.33,1.01.5,2.01.5,3.1h0v.84c-.59.42-1.26.58-1.93.67-.8.07-1.98.08-3.53.08-.39,0-.81,0-1.25,0l-17.67-.03h0M145.83,75.44c-.18,0-.37,0-.55,0h-.11c-5.32,0-9.97.67-13.89,2.57-3.94,1.92-7.38,4.59-10.15,7.94-2.85,3.43-4.95,7.28-6.3,11.47-1.43,4.35-2.11,8.79-2.12,13.32,0,.03,0,.07,0,.1,0,4.15.58,8.23,1.74,12.13,1.17,4.02,3.09,7.71,5.76,10.98,2.84,3.44,6.44,6.21,10.54,7.98,4.35,1.93,9.71,2.95,16.08,2.96.44,0,.87.01,1.3.01,3.57,0,7.08-.33,10.59-1,2.93-.5,5.7-1.33,8.38-2.5.25-.17.42-.33.59-.59.08-.33.17-.67.17-1l.02-12.82h0c0-.58-.12-.83-.32-.83-.1,0-.21.06-.34.16-2.35.92-4.86,1.58-7.46,1.91-2.85.58-5.78.83-8.71.91-.17,0-.34,0-.51,0-3.51,0-7.01-.75-10.21-2.12-2.51-1.01-4.6-2.77-6.11-5.04-1.42-2.26-2.25-4.86-2.58-7.46h0l26.55.05c2.18,0,4.19.34,6.11.35.04,0,.08,0,.12,0,1.87,0,3.43-.08,4.74-.24,1.33-.08,2.25-.16,2.75-.16h.01c.59,0,1.09-.5,1.17-1.09.09-.75.17-1.93.34-3.52.09-1.59.17-3.35.18-5.36v-.08c0-3.41-.5-6.82-1.57-10.14-1.08-3.52-2.84-6.71-5.01-9.56-2.34-2.94-5.35-5.2-8.78-6.72-3.93-1.77-8.17-2.62-12.43-2.62" style="fill: #383d75;"/>
</svg>