<?xml version="1.0" encoding="UTF-8"?>
<svg id="Tile_x5F_Star" xmlns="http://www.w3.org/2000/svg" viewBox="0 0 199 199">
  <path d="M183,0H16C7.16,0,0,7.16,0,16v167C0,191.84,7.16,199,16,199h167c8.84,0,16-7.16,16-16V16C199,7.16,191.84,0,183,0" style="fill: #ada178;"/>
  <path d="M99.5,38.15c-1.8,0-3.6.94-4.5,2.83l-15.19,31.53c-.73,1.51-2.17,2.56-3.83,2.78l-34.69,4.71c-2.69.37-4.34,2.64-4.33,4.99,0,1.27.49,2.56,1.55,3.58l25.3,24.2c1,.95,1.54,2.26,1.54,3.61,0,.3-.03.59-.08.89l-6.24,34.44c-.06.32-.08.63-.08.93,0,2.81,2.36,4.97,5,4.97.78,0,1.59-.19,2.37-.61l30.83-16.58c.74-.4,1.55-.6,2.37-.6s1.63.2,2.37.6l30.83,16.58c.78.42,1.59.61,2.37.61,2.64,0,5-2.16,5-4.97,0-.3-.03-.62-.08-.93l-6.24-34.44c-.05-.3-.08-.6-.08-.89,0-1.35.55-2.66,1.54-3.61l25.3-24.2c1.06-1.02,1.55-2.31,1.55-3.58,0-2.35-1.64-4.62-4.33-4.99l-34.69-4.71c-1.66-.23-3.1-1.27-3.83-2.78l-15.19-31.53c-.91-1.89-2.71-2.83-4.5-2.83" style="fill: #756638;"/>
</svg>