<?xml version="1.0" encoding="UTF-8"?>
<svg id="Illustration_x5F_Branding" xmlns="http://www.w3.org/2000/svg" viewBox="0 0 199 199">
  <path d="M183,2c7.72,0,14,6.28,14,14v167c0,7.72-6.28,14-14,14H16c-7.72,0-14-6.28-14-14V16c0-7.72,6.28-14,14-14h167M183,0H16C7.16,0,0,7.16,0,16v167c0,8.84,7.16,16,16,16h167c8.84,0,16-7.16,16-16V16c0-8.84-7.16-16-16-16h0Z" style="fill: #777dad;"/>
  <path d="M98.31,162.69h-20.45s0-10.22,0-10.22c0-1.88,1.53-3.41,3.41-3.41h6.82c1.88,0,3.41-1.53,3.41-3.41V57.04c0-1.88-1.53-3.41-3.41-3.41h-20.45c-1.88,0-3.41,1.53-3.41,3.41v6.82c0,1.88-1.53,3.41-3.41,3.41h-6.82c-1.88,0-3.41-1.53-3.41-3.41v-17.04c0-3.76,3.05-6.82,6.82-6.82h40.9s40.9,0,40.9,0c3.76,0,6.82,3.05,6.82,6.82v17.04c0,1.88-1.53,3.41-3.41,3.41h-6.82c-1.88,0-3.41-1.53-3.41-3.41v-6.82c0-1.88-1.53-3.41-3.41-3.41h-20.45c-1.88,0-3.41,1.53-3.41,3.41v88.61c0,1.88,1.53,3.41,3.41,3.41h6.82c1.88,0,3.41,1.53,3.41,3.41v10.22s-20.45,0-20.45,0Z" style="fill: #777dad;"/>
</svg>