<svg width="16" height="16" viewBox="0 0 16 16" fill="none" xmlns="http://www.w3.org/2000/svg">
<g clip-path="url(#clip0_4757_6812)">
<rect width="16" height="16" fill="#181A19"/>
<path d="M11.0611 4.83446C11.0998 4.81516 11.1191 4.77656 11.1191 4.73795C11.095 2.62443 9.65808 1.91992 7.98899 1.91992C6.30055 1.91992 4.854 2.88018 4.854 5.04678C4.854 5.04678 4.80078 6.2483 4.80078 7.93237C4.80078 9.71776 4.854 10.9531 4.854 10.9531C4.854 13.1197 6.30055 14.0799 7.98899 14.0799C9.67743 14.0799 11.124 13.3561 11.124 11.1943V7.49326C11.124 7.26164 10.8821 7.13618 10.6402 7.25199C10.3886 7.37262 9.571 7.80208 9.19364 7.95167C8.94207 8.04818 8.70984 7.95167 8.70984 7.71522V6.533C8.70984 6.29173 8.50181 6.16627 8.22605 6.29173C7.83901 6.46545 7.123 6.8177 6.95367 6.93351C6.82304 7.02037 6.7795 7.09757 6.7795 7.21338C6.7795 7.21338 6.79885 7.24716 6.81821 7.23751C7.04559 7.14583 7.2633 7.26646 7.2633 7.49808V8.6996C7.2633 8.94087 7.49552 9.04703 7.74709 8.94087C8.16799 8.75751 8.83079 8.3956 9.19364 8.21706C9.52262 8.06265 9.67743 8.21706 9.67743 8.45351V10.9579C9.67743 11.9181 9.67743 13.3609 7.98899 13.3609C6.30055 13.3609 6.30055 11.6769 6.30055 10.9579V5.04678C6.30055 4.08653 6.30055 2.64373 7.98899 2.64373C9.67743 2.64373 9.67743 4.32779 9.67743 5.04678C9.67743 5.28805 9.91933 5.40386 10.1612 5.28805L11.0659 4.83446H11.0611Z" fill="#D2CCB5"/>
</g>
<defs>
<clipPath id="clip0_4757_6812">
<rect width="16" height="16" fill="white"/>
</clipPath>
</defs>
</svg>
