<svg width="50" height="50" viewBox="0 0 50 50" fill="none" xmlns="http://www.w3.org/2000/svg">
<g clip-path="url(#clip0_21_2)">
<rect width="50" height="50" fill="white"/>
<path d="M48.223 25.5917C46.7176 27.2579 43.6203 30.4087 39.5229 33.1367C35.4176 35.8699 30.389 38.125 25 38.125C19.611 38.125 14.5824 35.8699 10.4771 33.1367C6.37968 30.4087 3.28243 27.2579 1.77702 25.5917C1.49641 25.2812 1.49641 24.8438 1.77702 24.5333C3.28243 22.8671 6.37968 19.7163 10.4771 16.9883C14.5824 14.2551 19.611 12 25 12C30.389 12 35.4176 14.2551 39.5229 16.9883C43.6203 19.7163 46.7176 22.8671 48.223 24.5333C48.5036 24.8438 48.5036 25.2812 48.223 25.5917Z" stroke="#181A19" stroke-width="2" stroke-linejoin="round"/>
</g>
<defs>
<clipPath id="clip0_21_2">
<rect width="50" height="50" fill="white"/>
</clipPath>
</defs>
</svg>
