<svg width="199" height="199" viewBox="0 0 199 199" fill="none" xmlns="http://www.w3.org/2000/svg">
<rect width="199" height="199" fill="#ADA178"/>
<rect width="135.081" height="63.5615" transform="translate(32 67.5176)" fill="#ADA178"/>
<path d="M103.611 96.7481C102.864 95.1696 102.116 93.5912 101.451 92.0128V92.5112C101.119 93.5912 100.538 94.5881 100.288 95.6681C100.371 96.0835 100.87 96.0004 101.119 96.2496C101.701 97.0804 102.864 96.7481 103.611 96.7481ZM97.8792 95.3358C98.4607 94.1728 97.8792 92.7605 98.3777 91.5143C98.0454 91.5974 97.63 91.7636 97.2146 91.8466C97.0463 93.0511 97.2799 94.2775 97.8792 95.3358ZM96.3008 96.5819C94.8899 94.4832 93.3355 92.4846 91.6486 90.6005L91.9809 91.5143C91.1762 92.4986 90.6333 93.6702 90.4025 94.9204C90.6517 95.7512 91.5655 96.1665 92.064 96.7481C93.4783 96.7773 94.8931 96.7218 96.3008 96.5819ZM101.95 83.0407C103.113 82.0438 104.608 82.8746 105.854 83.2069C106.187 83.8715 104.941 84.3699 105.024 85.1176C105.854 84.0376 107.101 83.2899 108.014 82.21C108.347 82.4592 108.014 82.8746 108.18 83.0407C108.596 82.6253 109.011 82.21 109.593 82.4592C109.622 82.8998 109.506 83.338 109.26 83.7053C109.842 84.5361 110.922 85.2007 111.42 86.1976C111.254 86.2806 111.337 86.4468 111.337 86.5299C111.919 86.8622 113.082 87.1114 113.497 87.6929C113.264 88.1079 112.954 88.4745 112.583 88.7729C111.705 88.9391 110.803 88.9391 109.925 88.7729C108.928 88.939 107.848 88.1914 106.934 88.856C106.519 89.0221 105.937 89.6867 105.605 89.1883C105.522 88.6067 105.273 87.776 104.525 87.6098C104.691 88.3575 105.356 89.0221 105.107 89.9359C104.276 91.4313 104.691 93.2589 104.941 94.9204C105.356 95.6681 106.353 95.5019 106.934 96.2496C106.934 96.665 106.436 96.5819 106.104 96.8311C107.267 97.0804 108.43 96.8311 109.51 97.1634L109.177 97.2465H85.418C85.9995 96.665 87.2456 97.0804 88.0764 96.8311C87.9982 96.2439 87.8873 95.6615 87.7441 95.0866C87.6384 93.5382 87.6106 91.9855 87.661 90.4344C87.661 88.3575 87.4948 86.2806 88.9071 84.6191C89.2394 83.5392 90.4855 83.373 91.0671 82.5423C91.861 82.0796 92.7345 81.7697 93.6424 81.6284C95.5531 81.0469 97.5469 81.7946 99.2915 82.0438C100.196 82.3258 101.083 82.6586 101.95 83.0407Z" fill="#181A19"/>
<path d="M41.969 112.781C41.0552 112.864 40.9721 112.947 40.9721 113.861V115.107C40.9558 115.58 40.9836 116.052 41.0552 116.52C39.9502 116.862 38.805 117.057 37.6491 117.101C34.243 117.101 32 115.024 32 112.034C32 108.544 34.8245 106.8 37.8152 106.8C38.7958 106.842 39.7698 106.981 40.7229 107.215C40.7516 108.023 40.8348 108.828 40.9721 109.624L40.4736 109.707C40.1413 107.88 38.9783 107.381 37.4829 107.381C35.2399 107.381 33.5784 109.043 33.5784 111.867C33.5784 114.11 34.8245 116.603 37.7322 116.603C38.1597 116.6 38.5827 116.516 38.9783 116.353C39.3106 116.187 39.4767 116.021 39.4767 115.357V114.027C39.4767 112.947 39.3937 112.864 37.8983 112.698V112.283H41.8859V112.781H41.969Z" fill="#181A19"/>
<path d="M51.9387 114.527C51.7938 115.341 51.5996 116.145 51.3572 116.936H44.3789V116.52C45.625 116.437 45.7912 116.354 45.7912 115.025V108.961C45.7912 107.631 45.7081 107.631 44.462 107.465V107.05H48.5327V107.465C47.3696 107.548 47.2035 107.631 47.2035 108.961V114.942C47.2035 115.773 47.2865 116.022 47.5358 116.188C47.9885 116.347 48.4708 116.403 48.948 116.354C49.7788 116.354 50.2772 116.271 50.6095 115.856C50.9825 115.417 51.2649 114.909 51.4403 114.36L51.9387 114.527Z" fill="#181A19"/>
<path d="M55.9274 111.702C55.9274 114.527 57.4227 116.603 59.4996 116.603C61.1611 116.603 62.5734 115.191 62.5734 112.283C62.5734 109.127 60.995 107.382 59.0012 107.382C57.4227 107.382 55.9274 108.877 55.9274 111.702ZM64.318 111.868C64.3548 112.555 64.2509 113.242 64.0125 113.887C63.7741 114.533 63.4063 115.122 62.9317 115.62C62.4571 116.118 61.8858 116.514 61.2527 116.783C60.6196 117.052 59.9382 117.189 59.2504 117.185C58.588 117.188 57.9318 117.058 57.3204 116.803C56.709 116.548 56.1547 116.174 55.6903 115.701C55.2258 115.229 54.8605 114.669 54.6159 114.053C54.3712 113.438 54.2522 112.78 54.2659 112.117C54.2456 111.432 54.3644 110.749 54.615 110.11C54.8656 109.471 55.2429 108.89 55.7242 108.401C56.2054 107.912 56.7806 107.526 57.4152 107.265C58.0497 107.004 58.7305 106.874 59.4165 106.884C60.0722 106.866 60.7244 106.983 61.3327 107.228C61.941 107.474 62.4923 107.841 62.9521 108.309C63.412 108.777 63.7706 109.334 64.0056 109.946C64.2406 110.559 64.3469 111.213 64.318 111.868Z" fill="#181A19"/>
<path d="M69.9661 115.023C69.9661 116.103 70.2153 116.436 71.2122 116.436C71.5127 116.459 71.8146 116.417 72.0973 116.312C72.38 116.208 72.6367 116.043 72.8498 115.83C73.0629 115.617 73.2274 115.361 73.3319 115.078C73.4364 114.795 73.4785 114.493 73.4552 114.193C73.4552 112.697 72.3753 111.95 70.6307 111.95H70.0492V115.023H69.9661ZM70.6307 111.451C72.2922 111.451 72.9568 110.787 72.9568 109.541C72.9799 109.277 72.9434 109.011 72.8501 108.763C72.7569 108.515 72.6091 108.291 72.4178 108.107C72.2265 107.924 71.9964 107.786 71.7446 107.703C71.4929 107.621 71.2258 107.596 70.963 107.63C70.6776 107.628 70.3949 107.684 70.1322 107.796C69.9661 107.879 69.9661 108.045 69.9661 108.544V111.534L70.6307 111.451ZM72.3753 111.617C73.9537 111.867 75.1167 112.531 75.1167 114.027C75.115 114.495 74.9818 114.954 74.7321 115.351C74.4824 115.747 74.1263 116.066 73.7045 116.27C72.7689 116.701 71.7429 116.901 70.7138 116.851H67.2246V116.436C68.4707 116.353 68.5538 116.27 68.5538 114.94V108.876C68.5538 107.63 68.4707 107.547 67.3077 107.381V106.965H71.2953C72.1032 106.893 72.914 107.067 73.6214 107.464C73.8902 107.666 74.1062 107.93 74.2508 108.234C74.3955 108.538 74.4645 108.872 74.4521 109.208C74.452 109.792 74.2423 110.356 73.8611 110.799C73.4799 111.241 72.9527 111.531 72.3753 111.617Z" fill="#181A19"/>
<path d="M86.2495 114.526C86.1665 115.024 85.8342 116.436 85.7511 116.935H78.3574V116.519C79.6866 116.436 79.8528 116.27 79.8528 115.024V109.043C79.8528 107.713 79.6866 107.63 78.5236 107.547V107.132H85.3357C85.3357 107.464 85.4188 108.544 85.5019 109.292L85.0034 109.375C84.9253 108.904 84.756 108.452 84.505 108.046C84.2557 107.713 83.8404 107.63 82.8435 107.63H81.7635C81.265 107.63 81.265 107.63 81.265 108.129V111.535H82.5942C83.9234 111.535 84.0896 111.452 84.2557 110.372H84.7542V113.279H84.2557C84.0896 112.199 83.9234 112.116 82.5942 112.116H81.265V114.941C81.265 115.689 81.3481 116.021 81.5973 116.187C82.1053 116.356 82.6438 116.412 83.1758 116.353C84.2557 116.353 84.7542 116.27 85.0034 115.855C85.3328 115.431 85.5858 114.953 85.7511 114.442L86.2495 114.526Z" fill="#181A19"/>
<path d="M97.0485 109.458C96.9664 108.962 96.7977 108.484 96.5501 108.046C96.3008 107.714 96.0516 107.548 94.9716 107.548H93.9747V114.941C93.9747 116.187 94.0578 116.27 95.5532 116.437V116.852H91.0671V116.437C92.3963 116.353 92.5625 116.187 92.5625 114.941V107.548H91.7317C90.4856 107.548 90.1533 107.714 89.9871 108.046C89.7395 108.484 89.5708 108.962 89.4887 109.458H88.9902C89.0733 108.544 89.1564 107.464 89.1564 106.717H89.4887C89.5713 106.86 89.6941 106.975 89.8417 107.049C89.9894 107.123 90.1555 107.152 90.3194 107.132H96.3839C96.7993 107.132 96.9654 107.049 97.1316 106.717H97.4639C97.4639 107.381 97.547 108.544 97.63 109.458H97.0485Z" fill="#181A19"/>
<path d="M103.695 112.116C103.973 112.155 104.255 112.138 104.526 112.067C104.797 111.996 105.051 111.871 105.274 111.701C105.545 111.482 105.761 111.203 105.905 110.885C106.049 110.568 106.117 110.222 106.104 109.873C106.137 109.578 106.105 109.279 106.009 108.997C105.914 108.716 105.757 108.459 105.551 108.245C105.345 108.031 105.094 107.865 104.816 107.758C104.538 107.652 104.241 107.609 103.944 107.63C103.658 107.618 103.373 107.675 103.114 107.797C103.031 107.88 102.947 108.046 102.947 108.461V112.116H103.695ZM109.261 117.018H108.763C108.244 117.047 107.728 116.93 107.273 116.681C106.817 116.431 106.441 116.058 106.187 115.606C105.689 114.858 105.107 113.944 104.692 113.196C104.443 112.781 104.194 112.615 103.446 112.615H103.031V115.024C103.031 116.27 103.197 116.436 104.36 116.519V116.935H100.289V116.519C101.535 116.436 101.618 116.353 101.618 115.024V108.96C101.618 107.713 101.452 107.63 100.289 107.464V107.049H104.111C104.971 106.992 105.831 107.164 106.603 107.547C106.92 107.772 107.177 108.071 107.351 108.419C107.525 108.767 107.611 109.152 107.6 109.541C107.587 110.115 107.397 110.672 107.055 111.133C106.712 111.595 106.235 111.938 105.689 112.116C105.938 112.615 106.603 113.612 107.018 114.276C107.36 114.856 107.779 115.387 108.264 115.855C108.535 116.197 108.917 116.432 109.344 116.519L109.261 117.018Z" fill="#181A19"/>
<path d="M113.498 111.702C113.498 114.527 114.993 116.603 117.07 116.603C118.732 116.603 120.144 115.191 120.144 112.283C120.144 109.127 118.565 107.382 116.572 107.382C114.91 107.382 113.498 108.877 113.498 111.702ZM121.888 111.868C121.925 112.555 121.821 113.242 121.583 113.887C121.345 114.533 120.977 115.122 120.502 115.62C120.028 116.118 119.456 116.514 118.823 116.783C118.19 117.052 117.509 117.189 116.821 117.185C116.157 117.195 115.497 117.069 114.883 116.817C114.268 116.565 113.711 116.191 113.245 115.717C112.779 115.243 112.414 114.68 112.172 114.061C111.93 113.443 111.816 112.781 111.836 112.117C111.816 111.432 111.935 110.749 112.186 110.11C112.436 109.471 112.813 108.89 113.295 108.401C113.776 107.912 114.351 107.526 114.986 107.265C115.62 107.004 116.301 106.874 116.987 106.884C117.643 106.866 118.295 106.983 118.903 107.228C119.511 107.474 120.063 107.841 120.523 108.309C120.982 108.777 121.341 109.334 121.576 109.946C121.811 110.559 121.917 111.213 121.888 111.868Z" fill="#181A19"/>
<path d="M132.687 109.458C132.605 108.962 132.436 108.484 132.189 108.046C131.94 107.714 131.69 107.548 130.61 107.548H129.613V114.941C129.613 116.187 129.696 116.27 131.192 116.437V116.852H126.706V116.437C128.035 116.353 128.201 116.187 128.201 114.941V107.548H127.37C126.124 107.548 125.792 107.714 125.626 108.046C125.378 108.484 125.209 108.962 125.127 109.458H124.629C124.712 108.544 124.795 107.464 124.795 106.717H125.127C125.21 106.86 125.333 106.975 125.48 107.049C125.628 107.123 125.794 107.152 125.958 107.132H132.023C132.438 107.132 132.604 107.049 132.77 106.717H133.103C133.103 107.381 133.186 108.544 133.269 109.458H132.687Z" fill="#181A19"/>
<path d="M144.318 109.458C144.236 108.962 144.067 108.484 143.82 108.046C143.57 107.714 143.321 107.548 142.241 107.548H141.244V114.941C141.244 116.187 141.327 116.27 142.823 116.437V116.852H138.337V116.437C139.666 116.353 139.832 116.187 139.832 114.941V107.548H139.001C137.755 107.548 137.423 107.714 137.257 108.046C137.009 108.484 136.84 108.962 136.758 109.458H136.26C136.343 108.544 136.426 107.464 136.426 106.717H136.758C136.841 106.86 136.964 106.975 137.111 107.049C137.259 107.123 137.425 107.152 137.589 107.132H143.653C144.069 107.132 144.235 107.049 144.401 106.717H144.733C144.733 107.381 144.816 108.544 144.9 109.458H144.318Z" fill="#181A19"/>
<path d="M155.284 114.526C155.201 115.024 154.868 116.436 154.785 116.935H147.309V116.519C148.638 116.436 148.804 116.27 148.804 115.024V109.043C148.804 107.713 148.638 107.63 147.475 107.547V107.132H154.287C154.287 107.464 154.37 108.544 154.453 109.292L153.955 109.375C153.877 108.904 153.707 108.452 153.456 108.046C153.207 107.713 152.792 107.63 151.795 107.63H150.715C150.216 107.63 150.216 107.63 150.216 108.129V111.535H151.545C152.875 111.535 153.041 111.452 153.207 110.372H153.705V113.279H153.29C153.124 112.199 152.958 112.116 151.628 112.116H150.299V114.941C150.299 115.689 150.382 116.021 150.632 116.187C151.141 116.349 151.678 116.406 152.21 116.353C153.29 116.353 153.788 116.27 154.038 115.855C154.367 115.431 154.62 114.953 154.785 114.442L155.284 114.526Z" fill="#181A19"/>
<path d="M161.348 112.116C161.626 112.155 161.908 112.138 162.179 112.067C162.45 111.996 162.704 111.871 162.927 111.701C163.198 111.482 163.414 111.203 163.558 110.885C163.702 110.568 163.771 110.222 163.758 109.873C163.791 109.578 163.758 109.279 163.662 108.997C163.567 108.716 163.41 108.459 163.204 108.245C162.998 108.031 162.747 107.865 162.469 107.758C162.192 107.652 161.894 107.609 161.598 107.63C161.311 107.618 161.026 107.675 160.767 107.797C160.684 107.88 160.601 108.046 160.601 108.461V112.116H161.348ZM166.997 117.018H166.499C165.981 117.047 165.464 116.93 165.009 116.681C164.554 116.431 164.178 116.058 163.924 115.606C163.425 114.858 162.844 113.944 162.428 113.196C162.179 112.781 161.93 112.615 161.182 112.615H160.767V115.024C160.767 116.27 160.933 116.436 162.096 116.519V116.935H158.025V116.519C159.272 116.436 159.355 116.353 159.355 115.024V108.96C159.355 107.713 159.188 107.63 158.025 107.464V107.049H161.847C162.707 106.992 163.567 107.164 164.339 107.547C164.657 107.772 164.914 108.071 165.088 108.419C165.262 108.767 165.347 109.152 165.336 109.541C165.324 110.115 165.133 110.672 164.791 111.133C164.449 111.595 163.971 111.938 163.425 112.116C163.674 112.615 164.339 113.612 164.754 114.276C165.097 114.856 165.516 115.387 166.001 115.855C166.271 116.197 166.653 116.432 167.081 116.519L166.997 117.018Z" fill="#181A19"/>
</svg>
