<svg width="356" height="200" viewBox="0 0 356 200" fill="none" xmlns="http://www.w3.org/2000/svg">
<path d="M356 0H0V200H356V0Z" fill="#777DAD"/>
<path d="M178.727 151.712L178.187 151.822C177.957 151.872 177.777 152.052 177.727 152.282L177.177 155.112L178.617 158.232C178.667 158.352 178.777 158.402 178.877 158.402C179.007 158.402 179.137 158.322 179.167 158.162L179.727 155.282C179.777 155.052 179.957 154.862 180.187 154.822L183.057 154.232C183.207 154.202 183.287 154.072 183.287 153.942C183.287 153.832 183.227 153.732 183.117 153.672L178.727 151.702" fill="#020302"/>
<path d="M173.397 147.242C173.237 147.242 173.107 147.372 173.107 147.532C173.107 147.572 173.107 147.612 173.137 147.652L176.627 155.222C176.677 155.342 176.787 155.392 176.887 155.392C177.017 155.392 177.147 155.312 177.177 155.152L177.737 152.272C177.787 152.042 177.967 151.862 178.197 151.812L181.067 151.222C181.217 151.192 181.297 151.062 181.297 150.932C181.297 150.822 181.237 150.722 181.127 150.662L173.527 147.252C173.527 147.252 173.447 147.222 173.407 147.222" fill="#383D75"/>
<path d="M212.717 159.172C212.737 159.322 212.747 159.472 212.747 159.632C212.747 159.632 212.747 159.652 212.747 159.662C212.747 161.852 210.957 163.642 208.767 163.652L184.767 163.772C184.767 163.772 184.757 163.772 184.747 163.772C184.027 163.772 183.357 163.582 182.777 163.252C183.017 165.232 184.707 166.772 186.747 166.772C186.747 166.772 186.757 166.772 186.767 166.772L210.767 166.652C212.957 166.642 214.747 164.842 214.747 162.662C214.747 162.662 214.747 162.642 214.747 162.632C214.747 161.152 213.917 159.862 212.717 159.172Z" fill="#020302"/>
<path d="M208.747 155.652C208.747 155.652 208.737 155.652 208.727 155.652L184.727 155.772C182.537 155.782 180.747 157.582 180.747 159.762C180.747 159.762 180.747 159.782 180.747 159.792C180.747 161.272 181.577 162.562 182.777 163.252C183.357 163.582 184.037 163.772 184.747 163.772C184.747 163.772 184.757 163.772 184.767 163.772L208.767 163.652C210.957 163.642 212.747 161.842 212.747 159.662C212.747 159.662 212.747 159.642 212.747 159.632C212.747 159.482 212.737 159.322 212.717 159.172C212.477 157.192 210.787 155.652 208.747 155.652Z" fill="#383D75"/>
<g filter="url(#filter0_d_9_844)">
<path d="M153.127 57.82L113.127 57.7711C108.709 57.7657 105.123 61.3431 105.117 65.7614L105.01 153.761C105.004 158.18 108.582 161.766 113 161.771L153 161.82C157.418 161.825 161.004 158.248 161.01 153.83L161.117 65.8298C161.123 61.4115 157.545 57.8254 153.127 57.82Z" fill="#E7E4D7"/>
</g>
<path d="M120.02 145.78L114.02 145.772C113.467 145.772 113.019 146.219 113.018 146.771L113.011 152.771C113.01 153.323 113.457 153.772 114.01 153.772L120.01 153.78C120.562 153.78 121.01 153.333 121.011 152.781L121.018 146.781C121.019 146.228 120.572 145.78 120.02 145.78Z" fill="#ADA178"/>
<path d="M136.02 145.799L130.02 145.792C129.467 145.791 129.019 146.238 129.018 146.791L129.011 152.791C129.01 153.343 129.457 153.791 130.01 153.792L136.01 153.799C136.562 153.8 137.01 153.353 137.011 152.8L137.018 146.8C137.019 146.248 136.572 145.8 136.02 145.799Z" fill="#78AD85"/>
<path d="M152.019 145.819L146.019 145.811C145.467 145.811 145.019 146.258 145.018 146.81L145.011 152.81C145.01 153.362 145.457 153.811 146.01 153.811L152.01 153.819C152.562 153.819 153.01 153.372 153.011 152.82L153.018 146.82C153.019 146.268 152.572 145.819 152.019 145.819Z" fill="#AD787B"/>
<g style="mix-blend-mode:multiply">
<path d="M151.087 97.562L115.087 97.522C113.847 97.522 112.837 98.532 112.837 99.772L112.797 135.772C112.797 137.012 113.807 138.022 115.047 138.022L151.047 138.062C151.647 138.062 152.207 137.832 152.637 137.402C153.067 136.982 153.297 136.412 153.297 135.812L153.337 99.812C153.337 98.572 152.327 97.562 151.087 97.562ZM115.087 98.022L151.087 98.062C151.627 98.062 152.107 98.322 152.427 98.712L133.217 117.592L114.047 98.372C114.337 98.152 114.697 98.022 115.087 98.022ZM113.297 135.772L113.337 99.772C113.337 99.382 113.477 99.022 113.687 98.732L132.857 117.952L113.657 136.822C113.437 136.532 113.297 136.172 113.297 135.772ZM151.037 137.562L115.037 137.522C114.647 137.522 114.297 137.392 113.997 137.172L133.207 118.292L152.077 137.212C151.777 137.432 151.417 137.562 151.037 137.562ZM152.797 135.822C152.797 136.202 152.667 136.562 152.447 136.862L133.577 117.952L152.707 99.152C152.797 99.362 152.837 99.582 152.837 99.822L152.797 135.822Z" fill="#777DAD"/>
</g>
<g filter="url(#filter1_d_9_844)">
<path d="M225.696 34.0586L185.696 34.0098C181.278 34.0044 177.692 37.5817 177.686 42L177.579 130C177.573 134.418 181.151 138.004 185.569 138.01L225.569 138.059C229.987 138.064 233.573 134.487 233.579 130.068L233.686 42.0684C233.692 37.6501 230.114 34.064 225.696 34.0586Z" fill="#E7E4D7"/>
</g>
<path d="M192.589 122.018L186.589 122.011C186.036 122.01 185.588 122.457 185.587 123.01L185.58 129.01C185.579 129.562 186.027 130.01 186.579 130.011L192.579 130.018C193.131 130.019 193.579 129.572 193.58 129.019L193.587 123.019C193.588 122.467 193.141 122.019 192.589 122.018Z" fill="#ADA178"/>
<path d="M208.588 122.038L202.589 122.03C202.036 122.03 201.588 122.477 201.587 123.029L201.58 129.029C201.579 129.581 202.026 130.03 202.579 130.03L208.579 130.038C209.131 130.038 209.579 129.591 209.58 129.039L209.587 123.039C209.588 122.487 209.141 122.038 208.588 122.038Z" fill="#78AD85"/>
<path d="M224.588 122.057L218.589 122.05C218.036 122.049 217.588 122.496 217.587 123.049L217.58 129.049C217.579 129.601 218.026 130.049 218.579 130.05L224.579 130.057C225.131 130.058 225.579 129.611 225.58 129.058L225.587 123.058C225.588 122.506 225.141 122.058 224.588 122.057Z" fill="#AD787B"/>
<g style="mix-blend-mode:multiply">
<path d="M225.277 42.452C224.857 42.032 224.287 41.792 223.687 41.792L187.687 41.752C187.087 41.752 186.527 41.982 186.097 42.412C185.677 42.832 185.437 43.402 185.437 44.002L185.357 112.002C185.357 113.242 186.367 114.252 187.607 114.252L223.607 114.292C224.847 114.292 225.857 113.282 225.857 112.042L225.937 44.042C225.937 43.442 225.707 42.872 225.277 42.452ZM187.687 42.252L223.687 42.292C224.157 42.292 224.597 42.472 224.927 42.802C224.937 42.812 224.947 42.832 224.957 42.842L205.647 77.502L186.417 42.802C186.737 42.462 187.187 42.252 187.687 42.252ZM185.937 44.002C185.937 43.742 185.997 43.4919 186.107 43.2719L205.367 78.032L186.027 112.742C185.927 112.522 185.857 112.272 185.857 112.012L185.937 44.012V44.002ZM223.607 113.792L187.607 113.752C187.107 113.752 186.657 113.532 186.337 113.202L205.647 78.542L224.877 113.252C224.557 113.592 224.107 113.802 223.607 113.802V113.792ZM225.357 112.042C225.357 112.302 225.297 112.552 225.187 112.772L205.927 78.012L225.267 43.302C225.377 43.532 225.437 43.782 225.437 44.032L225.357 112.032V112.042Z" fill="#777DAD"/>
</g>
<g filter="url(#filter2_d_9_844)">
<path d="M255.89 134.483L239.266 123.363C238.348 122.749 237.106 122.995 236.492 123.913L225.372 140.537C224.758 141.455 225.004 142.697 225.922 143.311L242.546 154.432C243.464 155.046 244.706 154.799 245.32 153.881L256.44 137.258C257.054 136.339 256.808 135.097 255.89 134.483Z" fill="#ADA178"/>
</g>
<path d="M235.697 139.932L239.867 133.702L246.097 137.872L241.927 144.102L235.697 139.932ZM240.697 131.552L239.727 133.002L238.277 132.032L237.997 132.452L239.447 133.422L235.277 139.652L233.827 138.682L233.547 139.102L234.997 140.072L234.027 141.522L234.447 141.802L235.417 140.352L241.647 144.522L240.677 145.972L241.097 146.252L242.067 144.802L243.517 145.772L243.797 145.352L242.347 144.382L246.517 138.152L247.967 139.122L248.247 138.702L246.797 137.732L247.767 136.282L247.347 136.002L246.377 137.452L240.147 133.282L241.117 131.832L240.697 131.552Z" fill="#756638"/>
<path d="M178.787 85.742C178.677 85.252 178.247 84.882 177.727 84.882C177.647 84.882 177.577 84.882 177.497 84.902C177.047 84.992 176.717 85.372 176.657 85.822C176.587 85.832 176.517 85.842 176.457 85.852C174.137 86.342 172.677 88.292 171.647 90.862C170.107 94.732 169.477 100.112 168.397 104.682C167.857 106.972 167.217 109.052 166.307 110.632C165.397 112.212 164.247 113.272 162.687 113.602C162.637 113.602 162.597 113.622 162.547 113.632C162.427 113.652 162.287 113.652 162.157 113.662C161.977 113.232 161.577 112.932 161.087 112.932C161.007 112.932 160.917 112.932 160.837 112.962C160.307 113.072 159.907 113.542 159.907 114.112C159.907 114.202 159.907 114.282 159.937 114.362C160.047 114.892 160.527 115.292 161.087 115.292C161.167 115.292 161.257 115.292 161.337 115.262C161.847 115.152 162.227 114.712 162.257 114.172C162.437 114.152 162.617 114.122 162.787 114.092C165.107 113.602 166.567 111.652 167.597 109.082C169.137 105.212 169.767 99.832 170.847 95.262C171.387 92.972 172.027 90.892 172.937 89.312C173.847 87.732 174.997 86.672 176.557 86.342C176.607 86.332 176.667 86.342 176.717 86.322C176.867 86.742 177.257 87.052 177.727 87.052C177.807 87.052 177.877 87.052 177.957 87.032C178.447 86.932 178.817 86.492 178.817 85.962C178.817 85.882 178.817 85.802 178.797 85.732L178.787 85.742Z" fill="#E7E4D7"/>
<path d="M229.686 42.0636C229.689 39.8545 227.9 38.0614 225.691 38.0587C223.482 38.056 221.689 39.8447 221.686 42.0538C221.683 44.263 223.472 46.056 225.681 46.0587C227.89 46.0614 229.683 44.2727 229.686 42.0636Z" fill="#AD787B"/>
<g style="mix-blend-mode:multiply">
<path d="M152.717 66.222C152.297 65.802 151.727 65.562 151.127 65.562L115.127 65.522C113.887 65.522 112.877 66.532 112.877 67.772L112.857 87.772C112.857 89.012 113.867 90.022 115.107 90.022L151.107 90.062C151.707 90.062 152.267 89.832 152.697 89.402C153.117 88.982 153.357 88.412 153.357 87.812L153.377 67.812C153.377 67.212 153.147 66.642 152.717 66.222ZM115.127 66.022L151.127 66.062C151.647 66.062 152.107 66.292 152.427 66.662L133.237 77.652L114.067 66.392C114.357 66.162 114.727 66.032 115.127 66.032V66.022ZM113.367 67.772C113.367 67.392 113.497 67.042 113.697 66.752L132.737 77.932L113.707 88.832C113.477 88.532 113.347 88.162 113.347 87.772L113.367 67.772ZM151.097 89.562L115.097 89.522C114.727 89.522 114.377 89.402 114.077 89.192L133.237 78.222L152.067 89.272C151.787 89.462 151.457 89.562 151.107 89.562H151.097ZM152.847 87.822C152.847 88.232 152.697 88.612 152.447 88.922L133.737 77.942L152.707 67.082C152.817 67.312 152.877 67.562 152.877 67.822L152.857 87.822H152.847Z" fill="#777DAD"/>
</g>
<defs>
<filter id="filter0_d_9_844" x="105.01" y="57.7711" width="60.1075" height="108.049" filterUnits="userSpaceOnUse" color-interpolation-filters="sRGB">
<feFlood flood-opacity="0" result="BackgroundImageFix"/>
<feColorMatrix in="SourceAlpha" type="matrix" values="0 0 0 0 0 0 0 0 0 0 0 0 0 0 0 0 0 0 127 0" result="hardAlpha"/>
<feOffset dx="4" dy="4"/>
<feColorMatrix type="matrix" values="0 0 0 0 0.0941176 0 0 0 0 0.101961 0 0 0 0 0.0980392 0 0 0 1 0"/>
<feBlend mode="normal" in2="BackgroundImageFix" result="effect1_dropShadow_9_844"/>
<feBlend mode="normal" in="SourceGraphic" in2="effect1_dropShadow_9_844" result="shape"/>
</filter>
<filter id="filter1_d_9_844" x="177.579" y="34.0098" width="60.1075" height="108.049" filterUnits="userSpaceOnUse" color-interpolation-filters="sRGB">
<feFlood flood-opacity="0" result="BackgroundImageFix"/>
<feColorMatrix in="SourceAlpha" type="matrix" values="0 0 0 0 0 0 0 0 0 0 0 0 0 0 0 0 0 0 127 0" result="hardAlpha"/>
<feOffset dx="4" dy="4"/>
<feColorMatrix type="matrix" values="0 0 0 0 0.0941176 0 0 0 0 0.101961 0 0 0 0 0.0980392 0 0 0 1 0"/>
<feBlend mode="normal" in2="BackgroundImageFix" result="effect1_dropShadow_9_844"/>
<feBlend mode="normal" in="SourceGraphic" in2="effect1_dropShadow_9_844" result="shape"/>
</filter>
<filter id="filter2_d_9_844" x="225.034" y="123.025" width="33.7441" height="34.7441" filterUnits="userSpaceOnUse" color-interpolation-filters="sRGB">
<feFlood flood-opacity="0" result="BackgroundImageFix"/>
<feColorMatrix in="SourceAlpha" type="matrix" values="0 0 0 0 0 0 0 0 0 0 0 0 0 0 0 0 0 0 127 0" result="hardAlpha"/>
<feOffset dx="2" dy="3"/>
<feColorMatrix type="matrix" values="0 0 0 0 0.0941176 0 0 0 0 0.101961 0 0 0 0 0.0980392 0 0 0 1 0"/>
<feBlend mode="normal" in2="BackgroundImageFix" result="effect1_dropShadow_9_844"/>
<feBlend mode="normal" in="SourceGraphic" in2="effect1_dropShadow_9_844" result="shape"/>
</filter>
</defs>
</svg>
