<?xml version="1.0" encoding="UTF-8"?>
<svg xmlns="http://www.w3.org/2000/svg" xmlns:xlink="http://www.w3.org/1999/xlink" viewBox="0 0 200 200">
  <defs>
    <filter id="drop-shadow-1" filterUnits="userSpaceOnUse">
      <feOffset dx="4" dy="4"/>
      <feGaussianBlur result="blur" stdDeviation="0"/>
      <feFlood flood-color="#181a19" flood-opacity="1"/>
      <feComposite in2="blur" operator="in"/>
      <feComposite in="SourceGraphic"/>
    </filter>
    <filter id="drop-shadow-2" filterUnits="userSpaceOnUse">
      <feOffset dx="2" dy="3"/>
      <feGaussianBlur result="blur-2" stdDeviation="0"/>
      <feFlood flood-color="#181a19" flood-opacity="1"/>
      <feComposite in2="blur-2" operator="in"/>
      <feComposite in="SourceGraphic"/>
    </filter>
    <filter id="drop-shadow-1-1" x="41.21" y="14.98" width="123.06" height="170.83" filterUnits="userSpaceOnUse">
      <feOffset dx="4" dy="4"/>
      <feGaussianBlur result="blur-3" stdDeviation="0"/>
      <feFlood flood-color="#181a19" flood-opacity="1"/>
      <feComposite in2="blur-3" operator="in"/>
      <feComposite in="SourceGraphic"/>
    </filter>
    <filter id="drop-shadow-2-2" x="115.91" y="73.24" width="48.82" height="49.82" filterUnits="userSpaceOnUse">
      <feOffset dx="2" dy="3"/>
      <feGaussianBlur result="blur-4" stdDeviation="0"/>
      <feFlood flood-color="#181a19" flood-opacity="1"/>
      <feComposite in2="blur-4" operator="in"/>
      <feComposite in="SourceGraphic"/>
    </filter>
  </defs>
  <g style="isolation: isolate;">
    <g id="Illustration_x5F_UI">
      <g id="Illustration_x5F_UI_x5F_Optimiert">
        <rect width="200" height="200" style="fill: #ada178;"/>
        <g>
          <path d="M91.78,58.36l-6.03-31.43c-.23-1.19-.97-2.14-1.94-2.7l5.97,31.13c.42,2.17-1.01,4.27-3.17,4.68l-47.14,9.04c-.98.19-1.94-.01-2.74-.48l.06.3c.42,2.17,2.51,3.59,4.68,3.17l47.14-9.04c2.17-.42,3.59-2.51,3.17-4.68Z" style="fill: #181a19;"/>
          <path d="M79.83,20.68c-.25,0-.5.02-.76.07l-47.14,9.04c-1.92.37-3.25,2.04-3.25,3.92,0,.25.02.5.07.76l6.03,31.43c.37,1.92,2.04,3.25,3.92,3.25.25,0,.5-.02.76-.07l47.14-9.04c1.92-.37,3.25-2.04,3.25-3.92,0-.25-.02-.5-.07-.76l-6.03-31.43c-.37-1.92-2.04-3.25-3.92-3.25" style="fill: #387545;"/>
          <path d="M36.94,68.72l22.38-23.5,29.49,13.55c.12-.13.23-.26.33-.4l-29.46-13.54,22.36-23.48c-.14-.1-.3-.17-.45-.25l-22.38,23.5-29.49-13.55c-.12.13-.23.26-.33.4l29.46,13.54-22.36,23.48c.14.1.3.17.45.25Z" style="fill: #ada178; mix-blend-mode: multiply;"/>
        </g>
        <rect x="64.68" y="20.4" width="72.13" height="156" rx="8" ry="8" transform="translate(42.51 -29.82) rotate(21.25)" style="fill: #e7e4d7; filter: url(#drop-shadow-1-1);"/>
        <circle cx="54.47" cy="150.99" r="4" style="fill: #ada178;"/>
        <path d="M72.91,153.87c1.32.51,1.69,1.64,1.23,2.8-.69,1.78-2.94,2.95-5.39,4.04-.56.25-1.21,0-1.45-.56-1.06-2.46-1.93-4.84-1.24-6.62,0,0,.79-2.02,2.8-1.23.65.25,1,.63,1.19,1.02.22.47.79.69,1.27.49.41-.16.93-.2,1.57.05Z" style="fill: #ad787b;"/>
        <rect x="80.29" y="158.59" width="8" height="8" rx=".5" ry=".5" transform="translate(64.66 -19.5) rotate(21.25)" style="fill: #777dad;"/>
        <path d="M100.16,164.23l-6.73,5.4c-.3.24-.23.72.13.86l8.05,3.13c.36.14.73-.16.68-.54l-1.31-8.53c-.06-.38-.51-.55-.81-.31Z" style="fill: #ada178;"/>
        <g>
          <path d="M106.09,157.5s-.04.01-.05.02h0s.04-.01.05-.02M106.09,157.5s0,0,0,0c0,0,0,0,0,0M106.1,157.5s0,0,0,0c0,0,0,0,0,0M106.11,157.5s0,0,0,0c0,0,0,0,0,0M106.11,157.49s0,0,0,0h0M106.12,157.49s0,0-.01,0c0,0,0,0,.01,0M106.13,157.49s0,0,0,0c0,0,0,0,0,0M106.44,157.38c-.1.04-.21.08-.31.11.11-.03.21-.07.31-.11M106.44,157.38s0,0,0,0h0M106.45,157.37s0,0-.01,0c0,0,0,0,.01,0M106.46,157.37s0,0,0,0c0,0,0,0,0,0M106.47,157.36s0,0,0,0c0,0,0,0,0,0M106.48,157.36s0,0,0,0c0,0,0,0,0,0M106.48,157.36s0,0,0,0c0,0,0,0,0,0M106.52,157.34s-.02.01-.04.02c.01,0,.02-.01.04-.02h0M56.65,138.15c.04.07.08.15.12.22h0c-.04-.07-.08-.14-.12-.22M56.65,138.15h0s0,0,0,0M56.65,138.14s0,0,0,0c0,0,0,0,0,0M56.65,138.13s0,0,0,0c0,0,0,0,0,0M56.64,138.12s0,0,0,.01c0,0,0,0,0-.01M56.64,138.11s0,0,0,0c0,0,0,0,0,0M56.63,138.11s0,0,0,0c0,0,0,0,0,0M56.63,138.1s0,0,0,0c0,0,0,0,0,0M56.63,138.1s0,0,0,0c0,0,0,0,0,0M88.25,130.35l-31.47,8.01c.44.72,1.11,1.31,1.96,1.64l44.74,17.4c.48.19.97.27,1.45.27.38,0,.75-.05,1.11-.16l-17.79-27.17M120.18,122.22l-31.42,8,17.76,27.13c.95-.41,1.73-1.18,2.14-2.22l11.6-29.82c.19-.48.27-.97.27-1.45,0-.57-.12-1.12-.35-1.63M70.2,102.78c-.95.41-1.73,1.18-2.14,2.22l-11.6,29.82c-.18.47-.27.96-.27,1.44,0,.64.15,1.27.44,1.83-.03-.06-.06-.12-.09-.19h0l31.42-8-17.76-27.13M71.79,102.45c-.38,0-.75.05-1.11.16l17.79,27.17,31.47-8.01c-.44-.72-1.11-1.31-1.96-1.64l-44.74-17.4c-.48-.19-.97-.27-1.45-.27" style="fill: #d1ccb5;"/>
          <path d="M70.68,102.61c-.16.05-.33.11-.48.17l17.76,27.13-31.42,8c.07.16.15.31.24.45l31.47-8.01,17.79,27.17c.16-.05.33-.11.48-.17l-17.76-27.13,31.42-8c-.07-.16-.15-.31-.24-.45l-31.47,8.01-17.79-27.17" style="fill: #9d9065;"/>
        </g>
        <rect x="82.1" y="42.17" width="56.13" height="64" rx="4" ry="4" transform="translate(34.37 -34.89) rotate(21.25)" style="fill: #e7e4d7; mix-blend-mode: multiply;"/>
        <rect x="93.15" y="42.59" width="22" height="22" rx="2" ry="2" transform="translate(26.5 -34.1) rotate(21.25)" style="fill: #777dad;"/>
        <g>
          <rect x="99.3" y="76.65" width=".5" height="46.87" transform="translate(-29.81 156.58) rotate(-68.75)" style="fill: #ada178;"/>
          <rect x="100.75" y="72.92" width=".5" height="46.87" transform="translate(-25.41 155.56) rotate(-68.75)" style="fill: #ada178;"/>
          <rect x="102.2" y="69.19" width=".5" height="46.87" transform="translate(-21.01 154.53) rotate(-68.75)" style="fill: #ada178;"/>
          <rect x="103.65" y="65.46" width=".5" height="46.87" transform="translate(-16.61 153.51) rotate(-68.75)" style="fill: #ada178;"/>
          <rect x="105.1" y="61.73" width=".5" height="46.87" transform="translate(-12.21 152.48) rotate(-68.75)" style="fill: #ada178;"/>
          <rect x="106.55" y="58.01" width=".5" height="46.87" transform="translate(-7.81 151.46) rotate(-68.75)" style="fill: #ada178;"/>
          <rect x="108" y="54.28" width=".5" height="46.87" transform="translate(-3.42 150.43) rotate(-68.75)" style="fill: #ada178;"/>
          <rect x="109.45" y="50.55" width=".5" height="46.87" transform="translate(.98 149.41) rotate(-68.75)" style="fill: #ada178;"/>
        </g>
        <g>
          <path d="M133.51,76.91c-.28,0-.55-.05-.82-.15l-16.78-6.52c-1.16-.45-1.73-1.76-1.28-2.91l6.52-16.78c.45-1.16,1.75-1.73,2.91-1.28l16.78,6.52c.56.22,1,.64,1.24,1.19.24.55.26,1.16.04,1.72l-6.52,16.78c-.22.56-.64,1-1.19,1.24-.29.13-.6.19-.91.19ZM123.26,49.61c-.7,0-1.36.42-1.63,1.12l-6.52,16.78c-.35.9.1,1.92,1,2.27l16.78,6.52c.43.17.91.16,1.34-.03s.76-.53.93-.97l6.52-16.78c.17-.44.16-.91-.03-1.34-.19-.43-.53-.76-.97-.93l-16.78-6.52c-.21-.08-.42-.12-.63-.12Z" style="fill: #ad787b;"/>
          <polygon points="131.51 63.96 128.71 62.87 129.79 60.07 129.33 59.89 128.24 62.69 125.44 61.6 125.26 62.06 128.06 63.15 126.97 65.95 127.43 66.14 128.52 63.33 131.32 64.42 131.51 63.96" style="fill: #ad787b;"/>
        </g>
        <rect x="121.96" y="79.28" width="34.72" height="34.72" rx="2" ry="2" transform="translate(81.24 -62.65) rotate(35.22)" style="fill: #777dad; filter: url(#drop-shadow-2-2);"/>
        <polyline points="106.42 28.45 106.23 28.92 150.97 46.31 151.15 45.85 106.42 28.45" style="fill: #d1ccb5;"/>
        <circle cx="101.66" cy="26.87" r="3" style="fill: #e7e4d7; mix-blend-mode: multiply;"/>
        <g>
          <rect x="37" y="95" width="32" height="8" rx="2" ry="2" style="fill: #181a19;"/>
          <g>
            <path d="M39,96.25v-.5h24v.5h-24M65,92h-28c-1.1,0-2,.9-2,2v4c0,1.1.9,2,2,2h28c1.1,0,2-.9,2-2v-4c0-1.1-.9-2-2-2" style="fill: #ad787b;"/>
            <polyline points="63 95.75 39 95.75 39 96.25 63 96.25 63 95.75" style="fill: #75383b;"/>
          </g>
        </g>
      </g>
    </g>
  </g>
</svg>