<svg width="356" height="200" viewBox="0 0 356 200" fill="none" xmlns="http://www.w3.org/2000/svg">
<path d="M356 0H0V200H356V0Z" fill="#ADA178"/>
<path d="M167.78 58.3601L161.75 26.9301C161.52 25.7401 160.78 24.7901 159.81 24.2301L165.78 55.3601C166.2 57.5301 164.77 59.6301 162.61 60.0401L115.47 69.0801C114.49 69.2701 113.53 69.0701 112.73 68.6001L112.79 68.9001C113.21 71.0701 115.3 72.4901 117.47 72.0701L164.61 63.0301C166.78 62.6101 168.2 60.5201 167.78 58.3501V58.3601Z" fill="#181A19"/>
<path d="M155.83 20.6801C155.58 20.6801 155.33 20.7001 155.07 20.7501L107.93 29.7901C106.01 30.1601 104.68 31.8301 104.68 33.7101C104.68 33.9601 104.7 34.2101 104.75 34.4701L110.78 65.9001C111.15 67.8201 112.82 69.1501 114.7 69.1501C114.95 69.1501 115.2 69.1301 115.46 69.0801L162.6 60.0401C164.52 59.6701 165.85 58.0001 165.85 56.1201C165.85 55.8701 165.83 55.6201 165.78 55.3601L159.75 23.9301C159.38 22.0101 157.71 20.6801 155.83 20.6801Z" fill="#387545"/>
<g style="mix-blend-mode:multiply">
<path d="M112.94 68.7201L135.32 45.2201L164.81 58.7701C164.93 58.6401 165.04 58.5101 165.14 58.3701L135.68 44.8301L158.04 21.3501C157.9 21.2501 157.74 21.1801 157.59 21.1001L135.21 44.6001L105.72 31.0501C105.6 31.1801 105.49 31.3101 105.39 31.4501L134.85 44.9901L112.49 68.4701C112.63 68.5701 112.79 68.6401 112.94 68.7201Z" fill="#ADA178"/>
</g>
<g filter="url(#filter0_d_9_423)">
<path d="M231.168 35.8786L178.855 15.535C174.737 13.9337 170.1 15.9737 168.499 20.0916L117.758 150.573C116.156 154.691 118.196 159.327 122.314 160.928L174.628 181.272C178.746 182.873 183.382 180.833 184.983 176.715L235.725 46.2342C237.326 42.1163 235.286 37.48 231.168 35.8786Z" fill="#E7E4D7"/>
</g>
<path d="M130.47 154.99C132.679 154.99 134.47 153.199 134.47 150.99C134.47 148.781 132.679 146.99 130.47 146.99C128.261 146.99 126.47 148.781 126.47 150.99C126.47 153.199 128.261 154.99 130.47 154.99Z" fill="#ADA178"/>
<path d="M148.91 153.87C150.23 154.38 150.6 155.51 150.14 156.67C149.45 158.45 147.2 159.62 144.75 160.71C144.19 160.96 143.54 160.71 143.3 160.15C142.24 157.69 141.37 155.31 142.06 153.53C142.06 153.53 142.85 151.51 144.86 152.3C145.51 152.55 145.86 152.93 146.05 153.32C146.27 153.79 146.84 154.01 147.32 153.81C147.73 153.65 148.25 153.61 148.89 153.86L148.91 153.87Z" fill="#AD787B"/>
<path d="M165.002 160.126L158.478 157.588C158.22 157.488 157.931 157.616 157.831 157.873L155.294 164.397C155.193 164.655 155.321 164.944 155.578 165.045L162.102 167.582C162.36 167.682 162.65 167.554 162.75 167.297L165.287 160.773C165.387 160.515 165.259 160.226 165.002 160.126Z" fill="#777DAD"/>
<path d="M176.16 164.23L169.43 169.63C169.13 169.87 169.2 170.35 169.56 170.49L177.61 173.62C177.97 173.76 178.34 173.46 178.29 173.08L176.98 164.55C176.92 164.17 176.47 164 176.17 164.24L176.16 164.23Z" fill="#ADA178"/>
<path d="M182.09 157.5C182.09 157.5 182.05 157.51 182.04 157.52C182.04 157.52 182.08 157.51 182.09 157.5ZM182.12 157.49C182.12 157.49 182.12 157.49 182.11 157.49C182.11 157.49 182.11 157.49 182.12 157.49ZM182.44 157.38C182.34 157.42 182.23 157.46 182.13 157.49C182.24 157.46 182.34 157.42 182.44 157.38ZM182.45 157.37C182.45 157.37 182.45 157.37 182.44 157.37C182.44 157.37 182.44 157.37 182.45 157.37ZM182.52 157.34C182.52 157.34 182.5 157.35 182.48 157.36C182.49 157.36 182.5 157.35 182.52 157.34ZM132.65 138.15C132.69 138.22 132.73 138.3 132.77 138.37C132.73 138.3 132.69 138.23 132.65 138.15ZM132.64 138.12C132.64 138.12 132.64 138.12 132.64 138.13C132.64 138.13 132.64 138.13 132.64 138.12ZM164.25 130.35L132.78 138.36C133.22 139.08 133.89 139.67 134.74 140L179.48 157.4C179.96 157.59 180.45 157.67 180.93 157.67C181.31 157.67 181.68 157.62 182.04 157.51L164.25 130.34M196.18 122.22L164.76 130.22L182.52 157.35C183.47 156.94 184.25 156.17 184.66 155.13L196.26 125.31C196.45 124.83 196.53 124.34 196.53 123.86C196.53 123.29 196.41 122.74 196.18 122.23M146.2 102.78C145.25 103.19 144.47 103.96 144.06 105L132.46 134.82C132.28 135.29 132.19 135.78 132.19 136.26C132.19 136.9 132.34 137.53 132.63 138.09C132.6 138.03 132.57 137.97 132.54 137.9L163.96 129.9L146.2 102.77M147.79 102.45C147.41 102.45 147.04 102.5 146.68 102.61L164.47 129.78L195.94 121.77C195.5 121.05 194.83 120.46 193.98 120.13L149.24 102.73C148.76 102.54 148.27 102.46 147.79 102.46" fill="#D1CCB5"/>
<path d="M146.68 102.61C146.52 102.66 146.35 102.72 146.2 102.78L163.96 129.91L132.54 137.91C132.61 138.07 132.69 138.22 132.78 138.36L164.25 130.35L182.04 157.52C182.2 157.47 182.37 157.41 182.52 157.35L164.76 130.22L196.18 122.22C196.11 122.06 196.03 121.91 195.94 121.77L164.47 129.78L146.68 102.61Z" fill="#9D9065"/>
<g style="mix-blend-mode:multiply">
<path d="M220.189 53.0628L175.332 35.6187C173.273 34.818 170.955 35.838 170.154 37.897L149.858 90.0894C149.057 92.1484 150.077 94.4665 152.136 95.2672L196.993 112.711C199.052 113.512 201.371 112.492 202.171 110.433L222.468 58.2406C223.268 56.1817 222.248 53.8635 220.189 53.0628Z" fill="#E7E4D7"/>
</g>
<path d="M192.52 46.6041L175.744 40.0802C174.715 39.6799 173.556 40.1899 173.155 41.2194L166.631 57.9955C166.231 59.025 166.741 60.1841 167.771 60.5844L184.547 67.1083C185.576 67.5086 186.735 66.9986 187.136 65.9691L193.66 49.193C194.06 48.1635 193.55 47.0044 192.52 46.6041Z" fill="#777DAD"/>
<path d="M153.8 91.3465L153.619 91.8125L197.302 108.8L197.483 108.334L153.8 91.3465Z" fill="#ADA178"/>
<path d="M155.249 87.6231L155.068 88.0891L198.751 105.077L198.932 104.611L155.249 87.6231Z" fill="#ADA178"/>
<path d="M156.698 83.8898L156.517 84.3558L200.2 101.343L200.381 100.877L156.698 83.8898Z" fill="#ADA178"/>
<path d="M158.147 80.1666L157.966 80.6326L201.649 97.62L201.83 97.154L158.147 80.1666Z" fill="#ADA178"/>
<path d="M159.596 76.4333L159.415 76.8993L203.098 93.8868L203.28 93.4208L159.596 76.4333Z" fill="#ADA178"/>
<path d="M161.055 72.7136L160.874 73.1796L204.557 90.167L204.738 89.701L161.055 72.7136Z" fill="#ADA178"/>
<path d="M162.494 68.9803L162.313 69.4463L205.996 86.4338L206.177 85.9678L162.494 68.9803Z" fill="#ADA178"/>
<path d="M163.943 65.257L163.762 65.723L207.445 82.7105L207.626 82.2445L163.943 65.257Z" fill="#ADA178"/>
<path d="M209.51 76.91C209.23 76.91 208.96 76.86 208.69 76.76L191.91 70.24C190.75 69.79 190.18 68.48 190.63 67.33L197.15 50.55C197.6 49.39 198.9 48.82 200.06 49.27L216.84 55.79C217.4 56.01 217.84 56.43 218.08 56.98C218.32 57.53 218.34 58.14 218.12 58.7L211.6 75.48C211.38 76.04 210.96 76.48 210.41 76.72C210.12 76.85 209.81 76.91 209.5 76.91H209.51ZM199.26 49.61C198.56 49.61 197.9 50.03 197.63 50.73L191.11 67.51C190.76 68.41 191.21 69.43 192.11 69.78L208.89 76.3C209.32 76.47 209.8 76.46 210.23 76.27C210.66 76.08 210.99 75.74 211.16 75.3L217.68 58.52C217.85 58.08 217.84 57.61 217.65 57.18C217.46 56.75 217.12 56.42 216.68 56.25L199.9 49.73C199.69 49.65 199.48 49.61 199.27 49.61H199.26Z" fill="#AD787B"/>
<path d="M207.51 63.96L204.71 62.87L205.79 60.07L205.33 59.89L204.24 62.69L201.44 61.6L201.26 62.06L204.06 63.15L202.97 65.95L203.43 66.14L204.52 63.33L207.32 64.42L207.51 63.96Z" fill="#AD787B"/>
<g filter="url(#filter1_d_9_423)">
<path d="M237.883 91.3239L212.786 73.6072C211.884 72.9701 210.636 73.1853 209.999 74.0876L192.282 99.1841C191.645 100.087 191.86 101.334 192.763 101.971L217.859 119.688C218.761 120.325 220.009 120.11 220.646 119.208L238.363 94.1113C239 93.2089 238.785 91.961 237.883 91.3239Z" fill="#777DAD"/>
</g>
<path d="M182.42 28.45L182.23 28.92L226.97 46.31L227.15 45.8499L182.42 28.45Z" fill="#D1CCB5"/>
<g style="mix-blend-mode:multiply">
<path d="M177.66 29.87C179.317 29.87 180.66 28.5268 180.66 26.87C180.66 25.2131 179.317 23.87 177.66 23.87C176.003 23.87 174.66 25.2131 174.66 26.87C174.66 28.5268 176.003 29.87 177.66 29.87Z" fill="#E7E4D7"/>
</g>
<path d="M143 95H115C113.895 95 113 95.8954 113 97V101C113 102.105 113.895 103 115 103H143C144.105 103 145 102.105 145 101V97C145 95.8954 144.105 95 143 95Z" fill="#181A19"/>
<path d="M115 96.25V95.75H139V96.25H115ZM141 92H113C111.9 92 111 92.9 111 94V98C111 99.1 111.9 100 113 100H141C142.1 100 143 99.1 143 98V94C143 92.9 142.1 92 141 92Z" fill="#AD787B"/>
<path d="M139 95.75H115V96.25H139V95.75Z" fill="#75383B"/>
<defs>
<filter id="filter0_d_9_423" x="117.212" y="14.9889" width="123.059" height="170.829" filterUnits="userSpaceOnUse" color-interpolation-filters="sRGB">
<feFlood flood-opacity="0" result="BackgroundImageFix"/>
<feColorMatrix in="SourceAlpha" type="matrix" values="0 0 0 0 0 0 0 0 0 0 0 0 0 0 0 0 0 0 127 0" result="hardAlpha"/>
<feOffset dx="4" dy="4"/>
<feColorMatrix type="matrix" values="0 0 0 0 0.0941176 0 0 0 0 0.101961 0 0 0 0 0.0980392 0 0 0 1 0"/>
<feBlend mode="normal" in2="BackgroundImageFix" result="effect1_dropShadow_9_423"/>
<feBlend mode="normal" in="SourceGraphic" in2="effect1_dropShadow_9_423" result="shape"/>
</filter>
<filter id="filter1_d_9_423" x="191.916" y="73.2408" width="48.8136" height="49.8136" filterUnits="userSpaceOnUse" color-interpolation-filters="sRGB">
<feFlood flood-opacity="0" result="BackgroundImageFix"/>
<feColorMatrix in="SourceAlpha" type="matrix" values="0 0 0 0 0 0 0 0 0 0 0 0 0 0 0 0 0 0 127 0" result="hardAlpha"/>
<feOffset dx="2" dy="3"/>
<feColorMatrix type="matrix" values="0 0 0 0 0.0941176 0 0 0 0 0.101961 0 0 0 0 0.0980392 0 0 0 1 0"/>
<feBlend mode="normal" in2="BackgroundImageFix" result="effect1_dropShadow_9_423"/>
<feBlend mode="normal" in="SourceGraphic" in2="effect1_dropShadow_9_423" result="shape"/>
</filter>
</defs>
</svg>
