<?xml version="1.0" encoding="UTF-8"?>
<svg xmlns="http://www.w3.org/2000/svg" xmlns:xlink="http://www.w3.org/1999/xlink" viewBox="0 0 200 200">
  <defs>
    <filter id="drop-shadow-6" filterUnits="userSpaceOnUse">
      <feOffset dx="4" dy="4"/>
      <feGaussianBlur result="blur" stdDeviation="0"/>
      <feFlood flood-color="#181a19" flood-opacity="1"/>
      <feComposite in2="blur" operator="in"/>
      <feComposite in="SourceGraphic"/>
    </filter>
    <filter id="drop-shadow-6-1" x="32.26" y="56.92" width="60.1" height="108.05" filterUnits="userSpaceOnUse">
      <feOffset dx="4" dy="4"/>
      <feGaussianBlur result="blur-2" stdDeviation="0"/>
      <feFlood flood-color="#181a19" flood-opacity="1"/>
      <feComposite in2="blur-2" operator="in"/>
      <feComposite in="SourceGraphic"/>
    </filter>
    <filter id="drop-shadow-7" x="104.82" y="33.15" width="60.1" height="108.05" filterUnits="userSpaceOnUse">
      <feOffset dx="4" dy="4"/>
      <feGaussianBlur result="blur-3" stdDeviation="0"/>
      <feFlood flood-color="#181a19" flood-opacity="1"/>
      <feComposite in2="blur-3" operator="in"/>
      <feComposite in="SourceGraphic"/>
    </filter>
    <filter id="drop-shadow-8" x="152.26" y="122.17" width="33.74" height="34.74" filterUnits="userSpaceOnUse">
      <feOffset dx="2" dy="3"/>
      <feGaussianBlur result="blur-4" stdDeviation="0"/>
      <feFlood flood-color="#181a19" flood-opacity="1"/>
      <feComposite in2="blur-4" operator="in"/>
      <feComposite in="SourceGraphic"/>
    </filter>
  </defs>
  <g style="isolation: isolate;">
    <g id="Illustration_x5F_Wireframing">
      <rect y="0" width="200" height="200" style="fill: #777dad;"/>
      <g>
        <g>
          <path d="M105.96,150.86l-.54.11c-.23.05-.41.23-.46.46l-.55,2.83,1.44,3.12c.05.12.16.17.26.17.13,0,.26-.08.29-.24l.56-2.88c.05-.23.23-.42.46-.46l2.87-.59c.15-.03.23-.16.23-.29,0-.11-.06-.21-.17-.27l-4.39-1.97" style="fill: #020302;"/>
          <path d="M100.63,146.39c-.16,0-.29.13-.29.29,0,.04,0,.08.03.12l3.49,7.57c.05.12.16.17.26.17.13,0,.26-.08.29-.24l.56-2.88c.05-.23.23-.41.46-.46l2.87-.59c.15-.03.23-.16.23-.29,0-.11-.06-.21-.17-.27l-7.6-3.41s-.08-.03-.12-.03" style="fill: #383d75;"/>
        </g>
        <g>
          <path d="M139.95,158.32c.02.15.03.3.03.46,0,0,0,.02,0,.03,0,2.19-1.79,3.98-3.98,3.99l-24,.12s-.01,0-.02,0c-.72,0-1.39-.19-1.97-.52.24,1.98,1.93,3.52,3.97,3.52,0,0,.01,0,.02,0l24-.12c2.19-.01,3.98-1.81,3.98-3.99,0,0,0-.02,0-.03,0-1.48-.83-2.77-2.03-3.46" style="fill: #020302;"/>
          <path d="M135.98,154.8s-.01,0-.02,0l-24,.12c-2.19.01-3.98,1.81-3.98,3.99,0,0,0,.02,0,.03,0,1.48.83,2.77,2.03,3.46.58.33,1.26.52,1.97.52,0,0,.01,0,.02,0l24-.12c2.19-.01,3.98-1.81,3.98-3.99,0,0,0-.02,0-.03,0-.15-.01-.31-.03-.46-.24-1.98-1.93-3.52-3.97-3.52" style="fill: #383d75;"/>
        </g>
      </g>
      <g>
        <rect x="32.31" y="56.94" width="56" height="104" rx="8" ry="8" transform="translate(.12 -.07) rotate(.07)" style="fill: #e7e4d7; filter: url(#drop-shadow-6-1);"/>
        <rect x="40.26" y="144.92" width="8" height="8" rx="1" ry="1" transform="translate(.17 -.05) rotate(.07)" style="fill: #ada178;"/>
        <rect x="56.26" y="144.94" width="8" height="8" rx="1" ry="1" transform="translate(.17 -.07) rotate(.07)" style="fill: #78ad85;"/>
        <rect x="72.26" y="144.96" width="8" height="8" rx="1" ry="1" transform="translate(.17 -.09) rotate(.07)" style="fill: #ad787b;"/>
        <path d="M78.32,96.71l-36-.04h0c-1.24,0-2.25,1.01-2.25,2.25l-.04,36c0,1.24,1.01,2.25,2.25,2.25l36,.04h0c.6,0,1.16-.23,1.59-.66.43-.42.66-.99.66-1.59l.04-36c0-1.24-1.01-2.25-2.25-2.25ZM42.32,97.17h0l36,.04c.54,0,1.02.26,1.34.65l-19.21,18.88-19.17-19.22h0c.29-.22.65-.35,1.04-.35ZM40.53,134.92l.04-36c0-.39.14-.75.35-1.04l19.17,19.22-19.2,18.87c-.22-.29-.36-.65-.36-1.05ZM78.27,136.71l-36-.04c-.39,0-.74-.13-1.04-.35l19.21-18.88,18.87,18.92h0c-.3.22-.66.35-1.04.35h0ZM80.03,134.97c0,.38-.13.74-.35,1.04l-18.87-18.91,19.13-18.8c.09.21.13.43.13.67l-.04,36Z" style="fill: #777dad; mix-blend-mode: multiply;"/>
      </g>
      <g>
        <rect x="104.87" y="33.17" width="56" height="104" rx="8" ry="8" transform="translate(.1 -.15) rotate(.07)" style="fill: #e7e4d7; filter: url(#drop-shadow-7);"/>
        <rect x="112.83" y="121.15" width="8" height="8" rx="1" ry="1" transform="translate(.14 -.13) rotate(.07)" style="fill: #ada178;"/>
        <rect x="128.83" y="121.17" width="8" height="8" rx="1" ry="1" transform="translate(.14 -.15) rotate(.07)" style="fill: #78ad85;"/>
        <rect x="144.83" y="121.19" width="8" height="8" rx="1" ry="1" transform="translate(.14 -.17) rotate(.07)" style="fill: #ad787b;"/>
        <path d="M152.51,41.6c-.42-.42-.99-.66-1.59-.66l-36-.04h0c-.6,0-1.16.23-1.59.66-.42.42-.66.99-.66,1.59l-.08,68c0,1.24,1.01,2.25,2.25,2.25l36,.04h0c1.24,0,2.25-1.01,2.25-2.25l.08-68c0-.6-.23-1.17-.66-1.59ZM114.92,41.4h0l36,.04c.47,0,.91.18,1.24.51.01.01.02.03.03.04l-19.31,34.66-19.23-34.7c.32-.34.77-.55,1.27-.55ZM113.17,43.15c0-.26.06-.51.17-.73l19.26,34.76-19.34,34.71c-.1-.22-.17-.47-.17-.73l.08-68ZM150.84,112.94h0l-36-.04c-.5,0-.95-.22-1.27-.55l19.31-34.66,19.23,34.71c-.32.34-.77.55-1.27.55ZM152.59,111.19c0,.26-.06.51-.17.73l-19.26-34.76,19.34-34.71c.11.23.17.48.17.73l-.08,68Z" style="fill: #777dad; mix-blend-mode: multiply;"/>
      </g>
      <g>
        <rect x="156.13" y="126.05" width="24" height="24" rx="2" ry="2" transform="translate(105.15 -70.18) rotate(33.78)" style="fill: #ada178; filter: url(#drop-shadow-8);"/>
        <path d="M162.93,139.08h0l4.17-6.23,6.23,4.17-4.17,6.23-6.23-4.17M167.93,130.7l-.97,1.45-1.45-.97-.28.42,1.45.97-4.17,6.23-1.45-.97-.28.42,1.45.97-.97,1.45.42.28.97-1.45,6.23,4.17-.97,1.45.42.28.97-1.45,1.45.97.28-.42-1.45-.97,4.17-6.23,1.45.97.28-.42-1.45-.97.97-1.45-.42-.28-.97,1.45-6.23-4.17.97-1.45-.42-.28" style="fill: #756638;"/>
      </g>
      <path d="M106.02,84.89c-.11-.49-.54-.86-1.06-.86-.08,0-.15,0-.23.02-.45.09-.78.47-.84.92-.07.01-.14.02-.2.03,0,0,0,0,0,0-2.32.49-3.78,2.44-4.81,5.01-1.54,3.87-2.17,9.25-3.25,13.82-.54,2.29-1.18,4.37-2.09,5.95-.91,1.58-2.06,2.64-3.62,2.97-.05,0-.09.02-.14.03-.12.02-.26.02-.39.03-.18-.43-.58-.73-1.07-.73-.08,0-.17,0-.25.03-.53.11-.93.58-.93,1.15,0,.09,0,.17.03.25.11.53.59.93,1.15.93.08,0,.17,0,.25-.03.51-.11.89-.55.92-1.09.18-.02.36-.05.53-.08,2.32-.49,3.78-2.44,4.81-5.01,1.54-3.87,2.17-9.25,3.25-13.82.54-2.29,1.18-4.37,2.09-5.95.91-1.58,2.06-2.64,3.62-2.97.05-.01.11,0,.16-.02.15.42.54.73,1.01.73.08,0,.15,0,.23-.02.49-.1.86-.54.86-1.07,0-.08,0-.16-.02-.23Z" style="fill: #e7e4d7;"/>
      <rect x="148.92" y="37.19" width="8" height="8" rx="4" ry="4" transform="translate(.05 -.17) rotate(.07)" style="fill: #ad787b;"/>
      <path d="M79.95,65.37c-.42-.42-.99-.66-1.59-.66l-36-.04h0c-1.24,0-2.25,1.01-2.25,2.25l-.02,20c0,1.24,1.01,2.25,2.25,2.25l36,.04h0c.6,0,1.16-.23,1.59-.66.42-.42.66-.99.66-1.59l.02-20c0-.6-.23-1.17-.66-1.59ZM42.36,65.17l36,.04c.52,0,.98.23,1.3.6l-19.19,10.99-19.17-11.26c.29-.23.66-.36,1.06-.36h0ZM40.6,66.92c0-.38.13-.73.33-1.02l19.04,11.18-19.03,10.9c-.23-.3-.36-.67-.36-1.06l.02-20ZM78.33,88.71l-36-.04c-.37,0-.72-.12-1.02-.33l19.16-10.97,18.83,11.05c-.28.19-.61.29-.96.29h0ZM80.08,86.97c0,.41-.15.79-.4,1.1l-18.71-10.98,18.97-10.86c.11.23.17.48.17.74l-.02,20Z" style="fill: #777dad; mix-blend-mode: multiply;"/>
    </g>
  </g>
</svg>