<svg width="356" height="200" viewBox="0 0 356 200" fill="none" xmlns="http://www.w3.org/2000/svg">
<path d="M356 0H0V200H356V0Z" fill="#777DAD"/>
<g filter="url(#filter0_d_9_1395)">
<path d="M216.635 31.8119L119.233 54.46C114.93 55.4607 112.252 59.7605 113.253 64.064L135.901 161.466C136.902 165.769 141.202 168.446 145.505 167.446L242.907 144.798C247.21 143.797 249.888 139.497 248.887 135.194L226.239 37.7921C225.238 33.4887 220.938 30.8112 216.635 31.8119Z" fill="#E7E4D7"/>
</g>
<path d="M222.539 50.3113L209.984 53.2306L207.065 40.6756L217.672 38.2092C218.743 37.9601 219.824 38.6328 220.073 39.7043L222.539 50.3113Z" fill="#ADA178"/>
<path d="M197.428 56.1382L209.978 53.2182L207.058 40.6682L194.508 43.5882L197.428 56.1382Z" fill="#D1CCB5"/>
<path d="M184.859 59.0677L197.414 56.1483L194.495 43.5933L181.94 46.5126L184.859 59.0677Z" fill="#ADA178"/>
<path d="M172.318 61.9782L184.868 59.0582L181.948 46.4982L169.398 49.4182L172.318 61.9782Z" fill="#D1CCB5"/>
<path d="M159.756 64.9023L172.311 61.9829L169.392 49.4279L156.837 52.3472L159.756 64.9023Z" fill="#ADA178"/>
<path d="M147.208 67.8083L159.758 64.8883L156.848 52.3383L144.288 55.2583L147.208 67.8083Z" fill="#D1CCB5"/>
<path d="M134.651 70.7371L147.206 67.8177L144.287 55.2627L131.732 58.182L134.651 70.7371Z" fill="#ADA178"/>
<path d="M122.098 73.6482L134.648 70.7282L131.728 58.1782L121.118 60.6482C120.038 60.8982 119.368 61.9682 119.618 63.0482L122.088 73.6582" fill="#D1CCB5"/>
<path d="M215.809 78.3357L228.364 75.4164L225.445 62.8613L212.89 65.7807L215.809 78.3357Z" fill="#ADA178"/>
<path d="M203.258 81.2482L215.818 78.3282L212.898 65.7782L200.338 68.6882L203.258 81.2482Z" fill="#D1CCB5"/>
<path d="M190.704 84.1706L203.259 81.2512L200.34 68.6962L187.784 71.6155L190.704 84.1706Z" fill="#ADA178"/>
<path d="M178.148 87.0782L190.708 84.1682L187.788 71.6082L175.238 74.5282L178.148 87.0782Z" fill="#D1CCB5"/>
<path d="M165.601 90.015L178.156 87.0957L175.237 74.5406L162.682 77.46L165.601 90.015Z" fill="#ADA178"/>
<path d="M153.048 92.9182L165.598 89.9982L162.678 77.4482L150.128 80.3682L153.048 92.9182Z" fill="#D1CCB5"/>
<path d="M140.476 95.8422L153.031 92.9229L150.112 80.3678L137.557 83.2871L140.476 95.8422Z" fill="#ADA178"/>
<path d="M127.938 98.7582L140.488 95.8382L137.568 83.2882L125.018 86.1982L127.938 98.7582Z" fill="#D1CCB5"/>
<path d="M221.644 103.451L234.199 100.531L231.279 87.9764L218.724 90.8958L221.644 103.451Z" fill="#ADA178"/>
<path d="M209.098 106.358L221.648 103.438L218.728 90.8782L206.178 93.7982L209.098 106.358Z" fill="#D1CCB5"/>
<path d="M196.531 109.285L209.086 106.366L206.167 93.811L193.612 96.7304L196.531 109.285Z" fill="#ADA178"/>
<path d="M183.988 112.188L196.538 109.268L193.628 96.7183L181.068 99.6383L183.988 112.188Z" fill="#D1CCB5"/>
<path d="M171.426 115.12L183.981 112.201L181.061 99.6459L168.506 102.565L171.426 115.12Z" fill="#ADA178"/>
<path d="M158.878 118.028L171.438 115.108L168.518 102.558L155.958 105.478L158.878 118.028Z" fill="#D1CCB5"/>
<path d="M146.321 120.945L158.876 118.026L155.956 105.471L143.401 108.39L146.321 120.945Z" fill="#ADA178"/>
<path d="M133.768 123.868L146.328 120.948L143.408 108.388L130.858 111.308L133.768 123.868Z" fill="#D1CCB5"/>
<path d="M227.478 128.554L240.033 125.634L237.114 113.079L224.559 115.999L227.478 128.554Z" fill="#ADA178"/>
<path d="M214.938 131.458L227.488 128.548L224.568 115.988L212.018 118.908L214.938 131.458Z" fill="#D1CCB5"/>
<path d="M202.375 134.398L214.93 131.479L212.011 118.924L199.456 121.843L202.375 134.398Z" fill="#ADA178"/>
<path d="M189.828 137.298L202.378 134.378L199.458 121.828L186.908 124.748L189.828 137.298Z" fill="#D1CCB5"/>
<path d="M177.261 140.225L189.816 137.306L186.896 124.751L174.341 127.67L177.261 140.225Z" fill="#ADA178"/>
<path d="M164.718 143.138L177.268 140.218L174.348 127.668L161.798 130.578L164.718 143.138Z" fill="#D1CCB5"/>
<path d="M152.145 146.06L164.701 143.141L161.781 130.586L149.226 133.505L152.145 146.06Z" fill="#ADA178"/>
<path d="M139.608 148.968L152.158 146.058L149.248 133.498L136.688 136.418L139.608 148.968Z" fill="#D1CCB5"/>
<path d="M134.658 70.7207L122.103 73.64L125.023 86.1951L137.578 83.2757L134.658 70.7207Z" fill="#ADA178"/>
<path d="M147.208 67.8082L134.658 70.7282L137.568 83.2782L150.128 80.3682L147.208 67.8082Z" fill="#D1CCB5"/>
<path d="M159.765 64.8852L147.21 67.8046L150.13 80.3596L162.685 77.4403L159.765 64.8852Z" fill="#ADA178"/>
<path d="M172.318 61.9781L159.758 64.8882L162.678 77.4482L175.238 74.5282L172.318 61.9781Z" fill="#D1CCB5"/>
<path d="M184.87 59.05L172.315 61.9694L175.235 74.5244L187.79 71.6051L184.87 59.05Z" fill="#ADA178"/>
<path d="M197.428 56.1382L184.868 59.0582L187.788 71.6082L200.338 68.6882L197.428 56.1382Z" fill="#D1CCB5"/>
<path d="M209.985 53.2048L197.43 56.1241L200.35 68.6792L212.905 65.7599L209.985 53.2048Z" fill="#ADA178"/>
<path d="M222.528 50.2982L209.978 53.2182L212.898 65.7782L225.448 62.8582L222.528 50.2982Z" fill="#D1CCB5"/>
<path d="M140.494 95.8255L127.938 98.7449L130.858 111.3L143.413 108.381L140.494 95.8255Z" fill="#ADA178"/>
<path d="M153.048 92.9182L140.488 95.8382L143.408 108.388L155.958 105.468L153.048 92.9182Z" fill="#D1CCB5"/>
<path d="M165.608 89.9903L153.053 92.9097L155.973 105.465L168.528 102.545L165.608 89.9903Z" fill="#ADA178"/>
<path d="M178.148 87.0782L165.598 89.9982L168.518 102.558L181.068 99.6383L178.148 87.0782Z" fill="#D1CCB5"/>
<path d="M190.716 84.1549L178.16 87.0742L181.08 99.6293L193.635 96.7099L190.716 84.1549Z" fill="#ADA178"/>
<path d="M203.258 81.2482L190.708 84.1682L193.628 96.7182L206.178 93.7982L203.258 81.2482Z" fill="#D1CCB5"/>
<path d="M215.811 78.312L203.256 81.2313L206.175 93.7864L218.73 90.867L215.811 78.312Z" fill="#ADA178"/>
<path d="M228.368 75.4082L215.818 78.3282L218.728 90.8782L231.288 87.9682L228.368 75.4082Z" fill="#D1CCB5"/>
<path d="M146.339 120.94L133.784 123.86L136.703 136.415L149.258 133.495L146.339 120.94Z" fill="#ADA178"/>
<path d="M158.878 118.028L146.328 120.948L149.248 133.498L161.798 130.578L158.878 118.028Z" fill="#D1CCB5"/>
<path d="M171.434 115.098L158.879 118.017L161.798 130.572L174.353 127.653L171.434 115.098Z" fill="#ADA178"/>
<path d="M183.988 112.188L171.438 115.108L174.348 127.668L186.908 124.748L183.988 112.188Z" fill="#D1CCB5"/>
<path d="M196.551 109.262L183.996 112.181L186.915 124.736L199.47 121.817L196.551 109.262Z" fill="#ADA178"/>
<path d="M209.098 106.358L196.538 109.278L199.458 121.828L212.018 118.908L209.098 106.358Z" fill="#D1CCB5"/>
<path d="M221.656 103.427L209.101 106.346L212.02 118.901L224.575 115.982L221.656 103.427Z" fill="#ADA178"/>
<path d="M234.208 100.518L221.648 103.438L224.568 115.988L237.128 113.068L234.208 100.518Z" fill="#D1CCB5"/>
<path d="M139.619 148.967L152.174 146.048L155.094 158.603L144.486 161.069C143.415 161.318 142.335 160.645 142.085 159.574L139.619 148.967Z" fill="#ADA178"/>
<path d="M164.718 143.138L152.158 146.058L155.078 158.608L167.638 155.688L164.718 143.138Z" fill="#D1CCB5"/>
<path d="M177.279 140.202L164.724 143.122L167.643 155.677L180.198 152.757L177.279 140.202Z" fill="#ADA178"/>
<path d="M189.828 137.298L177.268 140.218L180.188 152.768L192.738 149.858L189.828 137.298Z" fill="#D1CCB5"/>
<path d="M202.384 134.367L189.829 137.286L192.748 149.842L205.303 146.922L202.384 134.367Z" fill="#ADA178"/>
<path d="M214.938 131.468L202.378 134.378L205.298 146.938L217.848 144.018L214.938 131.468Z" fill="#D1CCB5"/>
<path d="M227.501 128.532L214.946 131.451L217.865 144.006L230.42 141.087L227.501 128.532Z" fill="#ADA178"/>
<path d="M240.038 125.628L227.488 128.548L230.408 141.098L241.018 138.628C242.098 138.378 242.768 137.308 242.518 136.228L240.048 125.618" fill="#D1CCB5"/>
<g filter="url(#filter1_d_9_1395)">
<path d="M207.198 130.678C209.423 130.678 211.228 128.874 211.228 126.648C211.228 124.422 209.423 122.618 207.198 122.618C204.972 122.618 203.168 124.422 203.168 126.648C203.168 128.874 204.972 130.678 207.198 130.678Z" fill="#777DAD"/>
<path d="M206.648 124.288C205.348 124.588 204.538 125.888 204.838 127.188C205.138 128.488 206.438 129.298 207.738 128.998C209.038 128.698 209.848 127.398 209.548 126.098C209.248 124.798 207.948 123.988 206.648 124.288Z" fill="#383D75"/>
</g>
<g filter="url(#filter2_d_9_1395)">
<path d="M215.688 113.818C217.913 113.818 219.718 112.014 219.718 109.788C219.718 107.562 217.913 105.758 215.688 105.758C213.462 105.758 211.658 107.562 211.658 109.788C211.658 112.014 213.462 113.818 215.688 113.818Z" fill="#777DAD"/>
<path d="M215.138 107.428C213.838 107.728 213.028 109.028 213.328 110.328C213.628 111.628 214.928 112.438 216.228 112.138C217.528 111.838 218.338 110.538 218.038 109.238C217.738 107.938 216.438 107.128 215.138 107.428Z" fill="#383D75"/>
</g>
<g filter="url(#filter3_d_9_1395)">
<path d="M247.218 85.8082C249.443 85.8082 251.248 84.0039 251.248 81.7782C251.248 79.5525 249.443 77.7482 247.218 77.7482C244.992 77.7482 243.188 79.5525 243.188 81.7782C243.188 84.0039 244.992 85.8082 247.218 85.8082Z" fill="#777DAD"/>
<path d="M246.668 79.4282C245.368 79.7282 244.558 81.0282 244.858 82.3282C245.158 83.6282 246.458 84.4382 247.758 84.1382C249.058 83.8382 249.868 82.5382 249.568 81.2382C249.268 79.9382 247.968 79.1282 246.668 79.4282Z" fill="#383D75"/>
</g>
<g filter="url(#filter4_d_9_1395)">
<path d="M173.338 98.8482C175.563 98.8482 177.368 97.0439 177.368 94.8182C177.368 92.5925 175.563 90.7882 173.338 90.7882C171.112 90.7882 169.308 92.5925 169.308 94.8182C169.308 97.0439 171.112 98.8482 173.338 98.8482Z" fill="#777DAD"/>
<path d="M172.788 92.4682C171.488 92.7682 170.678 94.0682 170.978 95.3682C171.278 96.6682 172.578 97.4782 173.878 97.1782C175.178 96.8782 175.988 95.5782 175.688 94.2782C175.388 92.9782 174.088 92.1682 172.788 92.4682Z" fill="#383D75"/>
</g>
<path d="M151.348 89.1782C151.848 91.3482 150.508 93.5082 148.338 94.0182C146.168 94.5282 144.008 93.1782 143.498 91.0082C142.988 88.8382 144.338 86.6782 146.508 86.1782C148.678 85.6782 150.838 87.0182 151.348 89.1882" fill="#181A19"/>
<path d="M149.228 87.1882C149.728 89.3582 148.388 91.5182 146.218 92.0282C144.048 92.5382 141.888 91.1882 141.378 89.0182C140.868 86.8482 142.218 84.6882 144.388 84.1882C146.558 83.6882 148.718 85.0282 149.228 87.1982" fill="#AD787B"/>
<path d="M144.758 85.7482C143.458 86.0482 142.648 87.3482 142.948 88.6482C143.248 89.9482 144.548 90.7582 145.848 90.4582C147.148 90.1582 147.958 88.8582 147.658 87.5582C147.358 86.2582 146.058 85.4482 144.758 85.7482Z" fill="#75383B"/>
<path d="M119.668 102.328C120.168 104.498 118.828 106.658 116.658 107.168C114.488 107.678 112.328 106.328 111.818 104.158C111.308 101.988 112.658 99.8281 114.828 99.3281C116.998 98.8281 119.158 100.168 119.668 102.338" fill="#181A19"/>
<path d="M117.548 100.338C118.048 102.508 116.708 104.668 114.538 105.178C112.368 105.688 110.208 104.338 109.698 102.168C109.188 99.9981 110.538 97.8381 112.708 97.3381C114.878 96.8381 117.038 98.1781 117.548 100.348" fill="#AD787B"/>
<path d="M113.078 98.8981C111.778 99.1981 110.968 100.498 111.268 101.798C111.568 103.098 112.868 103.908 114.168 103.608C115.468 103.308 116.278 102.008 115.978 100.708C115.678 99.4081 114.378 98.5981 113.078 98.8981Z" fill="#75383B"/>
<path d="M115.068 114.838C115.568 117.008 114.228 119.168 112.058 119.678C109.888 120.188 107.728 118.838 107.218 116.668C106.708 114.498 108.058 112.338 110.228 111.838C112.398 111.338 114.558 112.678 115.068 114.848" fill="#181A19"/>
<path d="M112.958 112.848C113.458 115.018 112.118 117.178 109.948 117.688C107.778 118.198 105.618 116.848 105.108 114.678C104.598 112.508 105.948 110.348 108.118 109.848C110.288 109.348 112.448 110.688 112.958 112.858" fill="#AD787B"/>
<path d="M108.488 111.398C107.188 111.698 106.378 112.998 106.678 114.298C106.978 115.598 108.278 116.408 109.578 116.108C110.878 115.808 111.688 114.508 111.388 113.208C111.088 111.908 109.788 111.098 108.488 111.398Z" fill="#75383B"/>
<path d="M211.198 62.0382C211.698 64.2082 210.358 66.3682 208.188 66.8782C206.018 67.3882 203.858 66.0382 203.348 63.8682C202.838 61.6982 204.188 59.5382 206.358 59.0382C208.528 58.5382 210.688 59.8782 211.198 62.0482" fill="#181A19"/>
<path d="M209.088 60.0482C209.588 62.2182 208.248 64.3782 206.078 64.8882C203.908 65.3982 201.748 64.0482 201.238 61.8782C200.728 59.7082 202.078 57.5482 204.248 57.0482C206.418 56.5482 208.578 57.8882 209.088 60.0582" fill="#AD787B"/>
<path d="M204.618 58.5982C203.318 58.8982 202.508 60.1982 202.808 61.4982C203.108 62.7982 204.408 63.6082 205.708 63.3082C207.008 63.0082 207.818 61.7082 207.518 60.4082C207.218 59.1082 205.918 58.2982 204.618 58.5982Z" fill="#75383B"/>
<path d="M157.188 114.288C157.688 116.458 156.348 118.618 154.178 119.128C152.008 119.638 149.848 118.288 149.338 116.118C148.828 113.948 150.178 111.788 152.348 111.288C154.518 110.788 156.678 112.128 157.188 114.298" fill="#181A19"/>
<path d="M155.068 112.298C155.568 114.468 154.228 116.628 152.058 117.138C149.888 117.648 147.728 116.298 147.218 114.128C146.708 111.958 148.058 109.798 150.228 109.298C152.398 108.798 154.558 110.138 155.068 112.308" fill="#AD787B"/>
<path d="M150.598 110.858C149.298 111.158 148.488 112.458 148.788 113.758C149.088 115.058 150.388 115.868 151.688 115.568C152.988 115.268 153.798 113.968 153.498 112.668C153.198 111.368 151.898 110.558 150.598 110.858Z" fill="#75383B"/>
<defs>
<filter id="filter0_d_9_1395" x="113.043" y="31.6022" width="140.053" height="140.053" filterUnits="userSpaceOnUse" color-interpolation-filters="sRGB">
<feFlood flood-opacity="0" result="BackgroundImageFix"/>
<feColorMatrix in="SourceAlpha" type="matrix" values="0 0 0 0 0 0 0 0 0 0 0 0 0 0 0 0 0 0 127 0" result="hardAlpha"/>
<feOffset dx="4" dy="4"/>
<feColorMatrix type="matrix" values="0 0 0 0 0.0941176 0 0 0 0 0.101961 0 0 0 0 0.0980392 0 0 0 1 0"/>
<feBlend mode="normal" in2="BackgroundImageFix" result="effect1_dropShadow_9_1395"/>
<feBlend mode="normal" in="SourceGraphic" in2="effect1_dropShadow_9_1395" result="shape"/>
</filter>
<filter id="filter1_d_9_1395" x="203.168" y="122.618" width="10.06" height="11.0601" filterUnits="userSpaceOnUse" color-interpolation-filters="sRGB">
<feFlood flood-opacity="0" result="BackgroundImageFix"/>
<feColorMatrix in="SourceAlpha" type="matrix" values="0 0 0 0 0 0 0 0 0 0 0 0 0 0 0 0 0 0 127 0" result="hardAlpha"/>
<feOffset dx="2" dy="3"/>
<feColorMatrix type="matrix" values="0 0 0 0 0.0941176 0 0 0 0 0.101961 0 0 0 0 0.0980392 0 0 0 1 0"/>
<feBlend mode="normal" in2="BackgroundImageFix" result="effect1_dropShadow_9_1395"/>
<feBlend mode="normal" in="SourceGraphic" in2="effect1_dropShadow_9_1395" result="shape"/>
</filter>
<filter id="filter2_d_9_1395" x="211.658" y="105.758" width="10.06" height="11.0599" filterUnits="userSpaceOnUse" color-interpolation-filters="sRGB">
<feFlood flood-opacity="0" result="BackgroundImageFix"/>
<feColorMatrix in="SourceAlpha" type="matrix" values="0 0 0 0 0 0 0 0 0 0 0 0 0 0 0 0 0 0 127 0" result="hardAlpha"/>
<feOffset dx="2" dy="3"/>
<feColorMatrix type="matrix" values="0 0 0 0 0.0941176 0 0 0 0 0.101961 0 0 0 0 0.0980392 0 0 0 1 0"/>
<feBlend mode="normal" in2="BackgroundImageFix" result="effect1_dropShadow_9_1395"/>
<feBlend mode="normal" in="SourceGraphic" in2="effect1_dropShadow_9_1395" result="shape"/>
</filter>
<filter id="filter3_d_9_1395" x="243.188" y="77.7482" width="10.06" height="11.0601" filterUnits="userSpaceOnUse" color-interpolation-filters="sRGB">
<feFlood flood-opacity="0" result="BackgroundImageFix"/>
<feColorMatrix in="SourceAlpha" type="matrix" values="0 0 0 0 0 0 0 0 0 0 0 0 0 0 0 0 0 0 127 0" result="hardAlpha"/>
<feOffset dx="2" dy="3"/>
<feColorMatrix type="matrix" values="0 0 0 0 0.0941176 0 0 0 0 0.101961 0 0 0 0 0.0980392 0 0 0 1 0"/>
<feBlend mode="normal" in2="BackgroundImageFix" result="effect1_dropShadow_9_1395"/>
<feBlend mode="normal" in="SourceGraphic" in2="effect1_dropShadow_9_1395" result="shape"/>
</filter>
<filter id="filter4_d_9_1395" x="169.308" y="90.7882" width="10.06" height="11.0601" filterUnits="userSpaceOnUse" color-interpolation-filters="sRGB">
<feFlood flood-opacity="0" result="BackgroundImageFix"/>
<feColorMatrix in="SourceAlpha" type="matrix" values="0 0 0 0 0 0 0 0 0 0 0 0 0 0 0 0 0 0 127 0" result="hardAlpha"/>
<feOffset dx="2" dy="3"/>
<feColorMatrix type="matrix" values="0 0 0 0 0.0941176 0 0 0 0 0.101961 0 0 0 0 0.0980392 0 0 0 1 0"/>
<feBlend mode="normal" in2="BackgroundImageFix" result="effect1_dropShadow_9_1395"/>
<feBlend mode="normal" in="SourceGraphic" in2="effect1_dropShadow_9_1395" result="shape"/>
</filter>
</defs>
</svg>
