<?xml version="1.0" encoding="UTF-8"?>
<svg id="Illustration_x5F_Development" xmlns="http://www.w3.org/2000/svg" xmlns:xlink="http://www.w3.org/1999/xlink" viewBox="0 0 200 200">
  <defs>
    <filter id="drop-shadow-12" filterUnits="userSpaceOnUse">
      <feOffset dx="4" dy="4"/>
      <feGaussianBlur result="blur" stdDeviation="0"/>
      <feFlood flood-color="#181a19" flood-opacity="1"/>
      <feComposite in2="blur" operator="in"/>
      <feComposite in="SourceGraphic"/>
    </filter>
    <filter id="drop-shadow-12-1" x="20" y="40.47" width="161.85" height="121.48" filterUnits="userSpaceOnUse">
      <feOffset dx="4" dy="4"/>
      <feGaussianBlur result="blur-2" stdDeviation="0"/>
      <feFlood flood-color="#181a19" flood-opacity="1"/>
      <feComposite in2="blur-2" operator="in"/>
      <feComposite in="SourceGraphic"/>
    </filter>
    <filter id="drop-shadow-13" x="33.62" y="31" width="51.38" height="37.38" filterUnits="userSpaceOnUse">
      <feOffset dx="2" dy="3"/>
      <feGaussianBlur result="blur-3" stdDeviation="0"/>
      <feFlood flood-color="#181a19" flood-opacity="1"/>
      <feComposite in2="blur-3" operator="in"/>
      <feComposite in="SourceGraphic"/>
    </filter>
    <filter id="drop-shadow-14" x="110.04" y="132.18" width="54.96" height="44.82" filterUnits="userSpaceOnUse">
      <feOffset dx="2" dy="3"/>
      <feGaussianBlur result="blur-4" stdDeviation="0"/>
      <feFlood flood-color="#181a19" flood-opacity="1"/>
      <feComposite in2="blur-4" operator="in"/>
      <feComposite in="SourceGraphic"/>
    </filter>
  </defs>
  <rect width="200" height="200" style="fill: #ad787b;"/>
  <g>
    <rect x="26.93" y="55.21" width="144" height="88" rx="8" ry="8" transform="translate(-21.5 27.61) rotate(-14.35)" style="fill: #e7e4d7; filter: url(#drop-shadow-12-1);"/>
    <path d="M30.96,79.56c-1.57.85-2.43,2.69-1.96,4.51.08.33.2.63.36.92.85,1.58,2.69,2.43,4.51,1.97.33-.08.64-.21.92-.36,1.57-.85,2.43-2.69,1.96-4.51-.08-.33-.2-.63-.36-.92-.85-1.58-2.69-2.43-4.51-1.97-.33.08-.64.21-.92.36" style="fill: #d1ccb5;"/>
    <rect x="43.87" y="73.14" width="40" height="4" rx="2" ry="2" transform="translate(-16.63 18.17) rotate(-14.35)" style="fill: #ada178;"/>
    <rect x="47.34" y="84.68" width="72" height="4" rx="2" ry="2" transform="translate(-18.88 23.36) rotate(-14.35)" style="fill: #78ad85;"/>
    <rect x="86.87" y="65.21" width="16" height="4" rx="2" ry="2" transform="translate(-13.7 25.61) rotate(-14.35)" style="fill: #ad787b;"/>
    <rect x="52.17" y="107.12" width="16" height="4" rx="2" ry="2" transform="translate(-25.16 18.32) rotate(-14.35)" style="fill: #777dad;"/>
    <rect x="71.3" y="100.18" width="32" height="4" rx="2" ry="2" transform="translate(-22.6 24.82) rotate(-14.35)" style="fill: #ad787b;"/>
    <rect x="55.64" y="118.65" width="48" height="4" rx="2" ry="2" transform="translate(-27.42 23.5) rotate(-14.35)" style="fill: #78ad85;"/>
    <rect x="105.83" y="104.28" width="60" height="4" rx="2" ry="2" transform="translate(-22.1 36.98) rotate(-14.35)" style="fill: #ada178;"/>
    <rect x="105.8" y="88.28" width="56" height="4" rx="2" ry="2" transform="translate(-18.2 35.98) rotate(-14.35)" style="fill: #78ad85;"/>
    <rect x="121.53" y="70.3" width="36" height="4" rx="2" ry="2" transform="translate(-13.57 36.83) rotate(-14.35)" style="fill: #ada178;"/>
    <rect x="59.23" y="131.18" width="72" height="4" rx="2" ry="2" transform="translate(-30.03 27.75) rotate(-14.35)" style="fill: #777dad;"/>
    <rect x="133.42" y="116.81" width="36" height="4" rx="2" ry="2" transform="translate(-24.72 41.23) rotate(-14.35)" style="fill: #ada178;"/>
    <rect x="105.75" y="56.29" width="48" height="4" rx="2" ry="2" transform="translate(-10.4 33.97) rotate(-14.35)" style="fill: #777dad;"/>
    <path d="M34.92,95.06c-1.57.85-2.43,2.69-1.96,4.51.08.33.2.63.36.92.85,1.58,2.69,2.43,4.51,1.97.33-.08.63-.21.92-.36,1.57-.85,2.43-2.69,1.96-4.51-.08-.33-.2-.63-.36-.92-.85-1.58-2.69-2.43-4.51-1.97-.33.08-.63.21-.92.36" style="fill: #d1ccb5;"/>
    <path d="M38.89,110.56c-1.57.85-2.43,2.69-1.96,4.51.08.33.2.63.36.92.85,1.58,2.69,2.43,4.51,1.97.33-.08.64-.21.92-.36,1.57-.85,2.43-2.69,1.96-4.51-.08-.33-.2-.63-.36-.92-.85-1.58-2.69-2.43-4.51-1.97-.33.08-.64.21-.92.36" style="fill: #d1ccb5;"/>
    <path d="M42.85,126.06c-1.57.85-2.43,2.69-1.96,4.51.08.33.2.63.36.92.85,1.58,2.69,2.43,4.51,1.97.33-.08.63-.21.92-.36,1.57-.85,2.43-2.69,1.96-4.51-.08-.33-.2-.63-.36-.92-.85-1.58-2.69-2.43-4.51-1.97-.33.08-.64.21-.92.36" style="fill: #d1ccb5;"/>
    <path d="M46.82,141.56c-1.57.85-2.43,2.69-1.96,4.51.08.33.2.63.36.92.85,1.58,2.69,2.43,4.51,1.97.33-.08.64-.21.92-.36,1.57-.85,2.43-2.69,1.96-4.51-.08-.33-.2-.63-.36-.92-.85-1.58-2.69-2.43-4.51-1.97-.33.08-.64.21-.92.36" style="fill: #d1ccb5;"/>
  </g>
  <g>
    <rect x="34.31" y="32.19" width="48" height="32" rx="4" ry="4" transform="translate(-2.81 3.62) rotate(-3.47)" style="fill: #777dad; filter: url(#drop-shadow-13);"/>
    <g>
      <path d="M49.91,40.45c-.09-.02-.19,0-.25.07l-7.5,8.47s-.05.07-.06.1c-.02.09,0,.19.08.25l8.47,7.5.1.05c.09.02.19,0,.25-.08.03-.03.05-.07.06-.1.02-.09,0-.19-.08-.25l-8.28-7.34,7.34-8.28s.05-.07.06-.1c.02-.09,0-.19-.08-.25l-.1-.05" style="fill: #383d75;"/>
      <path d="M65.88,39.48c-.09-.02-.19,0-.25.08-.03.03-.05.07-.05.1-.02.09,0,.19.08.25l8.28,7.34-7.34,8.28s-.05.07-.05.1c-.02.09,0,.19.08.25l.1.05c.09.02.19,0,.25-.08l7.5-8.47s.05-.07.05-.1c.02-.09,0-.19-.08-.25l-8.47-7.5-.1-.05" style="fill: #383d75;"/>
      <path d="M61.88,39.72c-.12-.03-.24.03-.29.15l-7.02,16.45s0,.02-.01.04c-.03.12.03.24.14.29h.03c.12.04.24-.02.29-.13l7.02-16.45s0-.02.01-.04c.03-.12-.03-.24-.14-.29h-.04" style="fill: #383d75;"/>
    </g>
  </g>
  <g>
    <rect x="112.52" y="137.09" width="48" height="32" rx="4" ry="4" transform="translate(45.91 -30.93) rotate(15.51)" style="fill: #78ad85; filter: url(#drop-shadow-14);"/>
    <g>
      <path d="M146.2,148.25s-.02,0-.04-.01c-1.08-.3-2.02-.11-2.79.56-.51.45-.93,1.1-1.25,1.95-.08.23-.16.47-.23.72,0,0-.19.66-.46,1.4-.06.15-.12.31-.18.47-.54,1.31-.93,1.58-1.08,1.54-.13-.03-.26.03-.3.15v.02c-.04.13.03.26.15.3h.03c.37.15.24,1.92-.29,3.82-.33,1.2-.37,2.23-.11,3.05.28.86.87,1.47,1.76,1.8.11.04.23.08.35.11.12.03.25-.03.3-.15,0,0,0-.02,0-.02.03-.12-.02-.25-.14-.3,0,0-.02,0-.03,0-.1-.03-.2-.06-.3-.1-.74-.28-1.23-.78-1.46-1.49-.23-.73-.19-1.66.11-2.76.22-.8.8-3.1.35-4.04h0c.37-.23.73-.8,1.12-1.74.07-.16.13-.32.19-.48.28-.75.47-1.41.48-1.45.07-.24.14-.47.22-.68.29-.76.66-1.35,1.11-1.74.63-.55,1.41-.71,2.33-.45.13.03.26-.03.3-.16,0,0,0-.01,0-.02.03-.12-.01-.25-.14-.3" style="fill: #387545;"/>
      <path d="M150.36,149.42c-.11-.04-.22-.08-.34-.11-.13-.03-.26.03-.3.16,0,0,0,.01,0,.02-.03.13.02.25.16.3,0,0,.01,0,.02,0,.11.03.21.06.31.1,1.87.7,1.77,2.68,1.34,4.25-.01.04-.27.99-.42,1.99-.15,1-.13,1.68.06,2.07h0c-.52.35-.97,1.3-1.31,2.18-.22.59-.39,1.15-.48,1.47-.06.23-.14.45-.22.68-.53,1.42-1.54,2.72-3.43,2.2-.12-.03-.25.03-.3.15,0,0,0,.02,0,.02-.03.13.03.26.15.3h.02c1.82.51,3.23-.37,4.03-2.49.09-.23.17-.47.24-.73.14-.49.29-.96.45-1.38.47-1.25.99-2.11,1.28-2.03.13.03.26-.03.3-.15v-.02c.04-.12,0-.25-.13-.3-.01,0-.02,0-.04-.01,0,0,0,0,0,0-.16-.06-.32-.5-.12-1.88.14-.97.41-1.92.41-1.93.69-2.49.1-4.19-1.66-4.85" style="fill: #387545;"/>
      <path d="M126.93,142.9s-.02,0-.04-.01l-4.09-1.14-4.41,15.9,4.1,1.14c.13.03.25-.03.3-.15,0,0,0-.02,0-.02.03-.12-.02-.25-.14-.3,0,0-.02,0-.03,0l-3.61-1,4.15-14.94,3.61,1c.13.03.25-.03.3-.15,0,0,0-.02,0-.02.03-.12-.01-.25-.14-.3" style="fill: #387545;"/>
      <path d="M134.84,145.1l-4.1-1.14c-.13-.03-.25.03-.3.15,0,0,0,.02,0,.02-.03.12.01.25.13.3.01,0,.03,0,.04.01l3.61,1-4.15,14.93-3.61-1c-.13-.03-.25.03-.3.15,0,0,0,.02,0,.02-.03.13.03.26.15.3h.02s4.1,1.14,4.1,1.14l4.41-15.9" style="fill: #387545;"/>
    </g>
  </g>
</svg>