<svg width="1820" height="1024" viewBox="0 0 1820 1024" fill="none" xmlns="http://www.w3.org/2000/svg">
<rect width="1820" height="1023.75" fill="#3D5E65"/>
<path d="M155 70H351C365.288 70 377 81.7471 377 96.1111V292.889C377 307.253 365.288 319 351 319H155C140.712 319 129 307.253 129 292.889V96.1111C129 81.7471 140.712 70 155 70ZM167 257.75C167 270.513 177.268 280.833 190 280.833C202.732 280.833 213 270.513 213 257.75C213 244.987 202.732 234.667 190 234.667C177.268 234.667 167 244.987 167 257.75ZM167 131.25C167 144.013 177.268 154.333 190 154.333C202.732 154.333 213 144.013 213 131.25C213 118.487 202.732 108.167 190 108.167C177.268 108.167 167 118.487 167 131.25ZM230 194.5C230 207.263 240.268 217.583 253 217.583C265.732 217.583 276 207.263 276 194.5C276 181.737 265.732 171.417 253 171.417C240.268 171.417 230 181.737 230 194.5ZM293 257.75C293 270.513 303.268 280.833 316 280.833C328.732 280.833 339 270.513 339 257.75C339 244.987 328.732 234.667 316 234.667C303.268 234.667 293 244.987 293 257.75ZM293 131.25C293 144.013 303.268 154.333 316 154.333C328.732 154.333 339 144.013 339 131.25C339 118.487 328.732 108.167 316 108.167C303.268 108.167 293 118.487 293 131.25Z" stroke="#436F77" stroke-width="4"/>
<path d="M678 68H482C466.6 68 454 80.65 454 96.1111V292.889C454 308.35 466.6 321 482 321H678C693.4 321 706 308.35 706 292.889V96.1111C706 80.65 693.4 68 678 68ZM517 278.833C505.38 278.833 496 269.416 496 257.75C496 246.084 505.38 236.667 517 236.667C528.62 236.667 538 246.084 538 257.75C538 269.416 528.62 278.833 517 278.833ZM517 152.333C505.38 152.333 496 142.916 496 131.25C496 119.584 505.38 110.167 517 110.167C528.62 110.167 538 119.584 538 131.25C538 142.916 528.62 152.333 517 152.333ZM580 215.583C568.38 215.583 559 206.166 559 194.5C559 182.834 568.38 173.417 580 173.417C591.62 173.417 601 182.834 601 194.5C601 206.166 591.62 215.583 580 215.583ZM643 278.833C631.38 278.833 622 269.416 622 257.75C622 246.084 631.38 236.667 643 236.667C654.62 236.667 664 246.084 664 257.75C664 269.416 654.62 278.833 643 278.833ZM643 152.333C631.38 152.333 622 142.916 622 131.25C622 119.584 631.38 110.167 643 110.167C654.62 110.167 664 119.584 664 131.25C664 142.916 654.62 152.333 643 152.333Z" fill="#4E868C"/>
<path d="M809 70H1005C1019.29 70 1031 81.7471 1031 96.1111V292.889C1031 307.253 1019.29 319 1005 319H809C794.712 319 783 307.253 783 292.889V96.1111C783 81.7471 794.712 70 809 70ZM821 257.75C821 270.513 831.268 280.833 844 280.833C856.732 280.833 867 270.513 867 257.75C867 244.987 856.732 234.667 844 234.667C831.268 234.667 821 244.987 821 257.75ZM821 131.25C821 144.013 831.268 154.333 844 154.333C856.732 154.333 867 144.013 867 131.25C867 118.487 856.732 108.167 844 108.167C831.268 108.167 821 118.487 821 131.25ZM884 194.5C884 207.263 894.268 217.583 907 217.583C919.732 217.583 930 207.263 930 194.5C930 181.737 919.732 171.417 907 171.417C894.268 171.417 884 181.737 884 194.5ZM947 257.75C947 270.513 957.268 280.833 970 280.833C982.732 280.833 993 270.513 993 257.75C993 244.987 982.732 234.667 970 234.667C957.268 234.667 947 244.987 947 257.75ZM947 131.25C947 144.013 957.268 154.333 970 154.333C982.732 154.333 993 144.013 993 131.25C993 118.487 982.732 108.167 970 108.167C957.268 108.167 947 118.487 947 131.25Z" stroke="#A9B4D0" stroke-width="4"/>
<path d="M1136 70H1332C1346.29 70 1358 81.7471 1358 96.1111V292.889C1358 307.253 1346.29 319 1332 319H1136C1121.71 319 1110 307.253 1110 292.889V96.1111C1110 81.7471 1121.71 70 1136 70ZM1148 257.75C1148 270.513 1158.27 280.833 1171 280.833C1183.73 280.833 1194 270.513 1194 257.75C1194 244.987 1183.73 234.667 1171 234.667C1158.27 234.667 1148 244.987 1148 257.75ZM1148 131.25C1148 144.013 1158.27 154.333 1171 154.333C1183.73 154.333 1194 144.013 1194 131.25C1194 118.487 1183.73 108.167 1171 108.167C1158.27 108.167 1148 118.487 1148 131.25ZM1211 194.5C1211 207.263 1221.27 217.583 1234 217.583C1246.73 217.583 1257 207.263 1257 194.5C1257 181.737 1246.73 171.417 1234 171.417C1221.27 171.417 1211 181.737 1211 194.5ZM1274 257.75C1274 270.513 1284.27 280.833 1297 280.833C1309.73 280.833 1320 270.513 1320 257.75C1320 244.987 1309.73 234.667 1297 234.667C1284.27 234.667 1274 244.987 1274 257.75ZM1274 131.25C1274 144.013 1284.27 154.333 1297 154.333C1309.73 154.333 1320 144.013 1320 131.25C1320 118.487 1309.73 108.167 1297 108.167C1284.27 108.167 1274 118.487 1274 131.25Z" stroke="#4E868C" stroke-width="4"/>
<path d="M1659 71H1463C1447.6 71 1435 83.7 1435 99.2222V296.778C1435 312.3 1447.6 325 1463 325H1659C1674.4 325 1687 312.3 1687 296.778V99.2222C1687 83.7 1674.4 71 1659 71ZM1498 282.667C1486.38 282.667 1477 273.212 1477 261.5C1477 249.788 1486.38 240.333 1498 240.333C1509.62 240.333 1519 249.788 1519 261.5C1519 273.212 1509.62 282.667 1498 282.667ZM1498 155.667C1486.38 155.667 1477 146.212 1477 134.5C1477 122.788 1486.38 113.333 1498 113.333C1509.62 113.333 1519 122.788 1519 134.5C1519 146.212 1509.62 155.667 1498 155.667ZM1561 219.167C1549.38 219.167 1540 209.712 1540 198C1540 186.288 1549.38 176.833 1561 176.833C1572.62 176.833 1582 186.288 1582 198C1582 209.712 1572.62 219.167 1561 219.167ZM1624 282.667C1612.38 282.667 1603 273.212 1603 261.5C1603 249.788 1612.38 240.333 1624 240.333C1635.62 240.333 1645 249.788 1645 261.5C1645 273.212 1635.62 282.667 1624 282.667ZM1624 155.667C1612.38 155.667 1603 146.212 1603 134.5C1603 122.788 1612.38 113.333 1624 113.333C1635.62 113.333 1645 122.788 1645 134.5C1645 146.212 1635.62 155.667 1624 155.667Z" fill="#4E868C"/>
<path d="M158 378H354C368.281 378 380 389.79 380 404.222V601.778C380 616.21 368.281 628 354 628H158C143.719 628 132 616.21 132 601.778V404.222C132 389.79 143.719 378 158 378ZM170 566.5C170 579.302 180.261 589.667 193 589.667C205.739 589.667 216 579.302 216 566.5C216 553.698 205.739 543.333 193 543.333C180.261 543.333 170 553.698 170 566.5ZM170 439.5C170 452.302 180.261 462.667 193 462.667C205.739 462.667 216 452.302 216 439.5C216 426.698 205.739 416.333 193 416.333C180.261 416.333 170 426.698 170 439.5ZM233 503C233 515.802 243.261 526.167 256 526.167C268.739 526.167 279 515.802 279 503C279 490.198 268.739 479.833 256 479.833C243.261 479.833 233 490.198 233 503ZM296 566.5C296 579.302 306.261 589.667 319 589.667C331.739 589.667 342 579.302 342 566.5C342 553.698 331.739 543.333 319 543.333C306.261 543.333 296 553.698 296 566.5ZM296 439.5C296 452.302 306.261 462.667 319 462.667C331.739 462.667 342 452.302 342 439.5C342 426.698 331.739 416.333 319 416.333C306.261 416.333 296 426.698 296 439.5Z" stroke="#A9B4D0" stroke-width="4"/>
<path d="M354 692H158C142.6 692 130 704.7 130 720.222V917.778C130 933.3 142.6 946 158 946H354C369.4 946 382 933.3 382 917.778V720.222C382 704.7 369.4 692 354 692ZM193 903.667C181.38 903.667 172 894.212 172 882.5C172 870.788 181.38 861.333 193 861.333C204.62 861.333 214 870.788 214 882.5C214 894.212 204.62 903.667 193 903.667ZM193 776.667C181.38 776.667 172 767.212 172 755.5C172 743.788 181.38 734.333 193 734.333C204.62 734.333 214 743.788 214 755.5C214 767.212 204.62 776.667 193 776.667ZM256 840.167C244.38 840.167 235 830.712 235 819C235 807.288 244.38 797.833 256 797.833C267.62 797.833 277 807.288 277 819C277 830.712 267.62 840.167 256 840.167ZM319 903.667C307.38 903.667 298 894.212 298 882.5C298 870.788 307.38 861.333 319 861.333C330.62 861.333 340 870.788 340 882.5C340 894.212 330.62 903.667 319 903.667ZM319 776.667C307.38 776.667 298 767.212 298 755.5C298 743.788 307.38 734.333 319 734.333C330.62 734.333 340 743.788 340 755.5C340 767.212 330.62 776.667 319 776.667Z" fill="#A9B4D0"/>
<path d="M485 378H681C695.281 378 707 389.79 707 404.222V601.778C707 616.21 695.281 628 681 628H485C470.719 628 459 616.21 459 601.778V404.222C459 389.79 470.719 378 485 378ZM497 566.5C497 579.302 507.261 589.667 520 589.667C532.739 589.667 543 579.302 543 566.5C543 553.698 532.739 543.333 520 543.333C507.261 543.333 497 553.698 497 566.5ZM497 439.5C497 452.302 507.261 462.667 520 462.667C532.739 462.667 543 452.302 543 439.5C543 426.698 532.739 416.333 520 416.333C507.261 416.333 497 426.698 497 439.5ZM560 503C560 515.802 570.261 526.167 583 526.167C595.739 526.167 606 515.802 606 503C606 490.198 595.739 479.833 583 479.833C570.261 479.833 560 490.198 560 503ZM623 566.5C623 579.302 633.261 589.667 646 589.667C658.739 589.667 669 579.302 669 566.5C669 553.698 658.739 543.333 646 543.333C633.261 543.333 623 553.698 623 566.5ZM623 439.5C623 452.302 633.261 462.667 646 462.667C658.739 462.667 669 452.302 669 439.5C669 426.698 658.739 416.333 646 416.333C633.261 416.333 623 426.698 623 439.5Z" stroke="#314348" stroke-width="4"/>
<path d="M485 694H681C695.281 694 707 705.79 707 720.222V917.778C707 932.21 695.281 944 681 944H485C470.719 944 459 932.21 459 917.778V720.222C459 705.79 470.719 694 485 694ZM497 882.5C497 895.302 507.261 905.667 520 905.667C532.739 905.667 543 895.302 543 882.5C543 869.698 532.739 859.333 520 859.333C507.261 859.333 497 869.698 497 882.5ZM497 755.5C497 768.302 507.261 778.667 520 778.667C532.739 778.667 543 768.302 543 755.5C543 742.698 532.739 732.333 520 732.333C507.261 732.333 497 742.698 497 755.5ZM560 819C560 831.802 570.261 842.167 583 842.167C595.739 842.167 606 831.802 606 819C606 806.198 595.739 795.833 583 795.833C570.261 795.833 560 806.198 560 819ZM623 882.5C623 895.302 633.261 905.667 646 905.667C658.739 905.667 669 895.302 669 882.5C669 869.698 658.739 859.333 646 859.333C633.261 859.333 623 869.698 623 882.5ZM623 755.5C623 768.302 633.261 778.667 646 778.667C658.739 778.667 669 768.302 669 755.5C669 742.698 658.739 732.333 646 732.333C633.261 732.333 623 742.698 623 755.5Z" stroke="#ECD88A" stroke-width="4"/>
<path d="M1008 376H812C796.6 376 784 388.7 784 404.222V601.778C784 617.3 796.6 630 812 630H1008C1023.4 630 1036 617.3 1036 601.778V404.222C1036 388.7 1023.4 376 1008 376ZM847 587.667C835.38 587.667 826 578.212 826 566.5C826 554.788 835.38 545.333 847 545.333C858.62 545.333 868 554.788 868 566.5C868 578.212 858.62 587.667 847 587.667ZM847 460.667C835.38 460.667 826 451.212 826 439.5C826 427.788 835.38 418.333 847 418.333C858.62 418.333 868 427.788 868 439.5C868 451.212 858.62 460.667 847 460.667ZM910 524.167C898.38 524.167 889 514.712 889 503C889 491.288 898.38 481.833 910 481.833C921.62 481.833 931 491.288 931 503C931 514.712 921.62 524.167 910 524.167ZM973 587.667C961.38 587.667 952 578.212 952 566.5C952 554.788 961.38 545.333 973 545.333C984.62 545.333 994 554.788 994 566.5C994 578.212 984.62 587.667 973 587.667ZM973 460.667C961.38 460.667 952 451.212 952 439.5C952 427.788 961.38 418.333 973 418.333C984.62 418.333 994 427.788 994 439.5C994 451.212 984.62 460.667 973 460.667Z" fill="#ECD88A"/>
<path d="M812 694H1008C1022.28 694 1034 705.79 1034 720.222V917.778C1034 932.21 1022.28 944 1008 944H812C797.719 944 786 932.21 786 917.778V720.222C786 705.79 797.719 694 812 694ZM824 882.5C824 895.302 834.261 905.667 847 905.667C859.739 905.667 870 895.302 870 882.5C870 869.698 859.739 859.333 847 859.333C834.261 859.333 824 869.698 824 882.5ZM824 755.5C824 768.302 834.261 778.667 847 778.667C859.739 778.667 870 768.302 870 755.5C870 742.698 859.739 732.333 847 732.333C834.261 732.333 824 742.698 824 755.5ZM887 819C887 831.802 897.261 842.167 910 842.167C922.739 842.167 933 831.802 933 819C933 806.198 922.739 795.833 910 795.833C897.261 795.833 887 806.198 887 819ZM950 882.5C950 895.302 960.261 905.667 973 905.667C985.739 905.667 996 895.302 996 882.5C996 869.698 985.739 859.333 973 859.333C960.261 859.333 950 869.698 950 882.5ZM950 755.5C950 768.302 960.261 778.667 973 778.667C985.739 778.667 996 768.302 996 755.5C996 742.698 985.739 732.333 973 732.333C960.261 732.333 950 742.698 950 755.5Z" stroke="#939CC1" stroke-width="4"/>
<path d="M1139 378H1335C1349.28 378 1361 389.79 1361 404.222V601.778C1361 616.21 1349.28 628 1335 628H1139C1124.72 628 1113 616.21 1113 601.778V404.222C1113 389.79 1124.72 378 1139 378ZM1151 566.5C1151 579.302 1161.26 589.667 1174 589.667C1186.74 589.667 1197 579.302 1197 566.5C1197 553.698 1186.74 543.333 1174 543.333C1161.26 543.333 1151 553.698 1151 566.5ZM1151 439.5C1151 452.302 1161.26 462.667 1174 462.667C1186.74 462.667 1197 452.302 1197 439.5C1197 426.698 1186.74 416.333 1174 416.333C1161.26 416.333 1151 426.698 1151 439.5ZM1214 503C1214 515.802 1224.26 526.167 1237 526.167C1249.74 526.167 1260 515.802 1260 503C1260 490.198 1249.74 479.833 1237 479.833C1224.26 479.833 1214 490.198 1214 503ZM1277 566.5C1277 579.302 1287.26 589.667 1300 589.667C1312.74 589.667 1323 579.302 1323 566.5C1323 553.698 1312.74 543.333 1300 543.333C1287.26 543.333 1277 553.698 1277 566.5ZM1277 439.5C1277 452.302 1287.26 462.667 1300 462.667C1312.74 462.667 1323 452.302 1323 439.5C1323 426.698 1312.74 416.333 1300 416.333C1287.26 416.333 1277 426.698 1277 439.5Z" stroke="#696D99" stroke-width="4"/>
<path d="M1335 692H1139C1123.6 692 1111 704.7 1111 720.222V917.778C1111 933.3 1123.6 946 1139 946H1335C1350.4 946 1363 933.3 1363 917.778V720.222C1363 704.7 1350.4 692 1335 692ZM1174 903.667C1162.38 903.667 1153 894.212 1153 882.5C1153 870.788 1162.38 861.333 1174 861.333C1185.62 861.333 1195 870.788 1195 882.5C1195 894.212 1185.62 903.667 1174 903.667ZM1174 776.667C1162.38 776.667 1153 767.212 1153 755.5C1153 743.788 1162.38 734.333 1174 734.333C1185.62 734.333 1195 743.788 1195 755.5C1195 767.212 1185.62 776.667 1174 776.667ZM1237 840.167C1225.38 840.167 1216 830.712 1216 819C1216 807.288 1225.38 797.833 1237 797.833C1248.62 797.833 1258 807.288 1258 819C1258 830.712 1248.62 840.167 1237 840.167ZM1300 903.667C1288.38 903.667 1279 894.212 1279 882.5C1279 870.788 1288.38 861.333 1300 861.333C1311.62 861.333 1321 870.788 1321 882.5C1321 894.212 1311.62 903.667 1300 903.667ZM1300 776.667C1288.38 776.667 1279 767.212 1279 755.5C1279 743.788 1288.38 734.333 1300 734.333C1311.62 734.333 1321 743.788 1321 755.5C1321 767.212 1311.62 776.667 1300 776.667Z" fill="#314348"/>
<path d="M1466 382H1662C1676.29 382 1688 393.747 1688 408.111V604.889C1688 619.253 1676.29 631 1662 631H1466C1451.71 631 1440 619.253 1440 604.889V408.111C1440 393.747 1451.71 382 1466 382ZM1478 569.75C1478 582.513 1488.27 592.833 1501 592.833C1513.73 592.833 1524 582.513 1524 569.75C1524 556.987 1513.73 546.667 1501 546.667C1488.27 546.667 1478 556.987 1478 569.75ZM1478 443.25C1478 456.013 1488.27 466.333 1501 466.333C1513.73 466.333 1524 456.013 1524 443.25C1524 430.487 1513.73 420.167 1501 420.167C1488.27 420.167 1478 430.487 1478 443.25ZM1541 506.5C1541 519.263 1551.27 529.583 1564 529.583C1576.73 529.583 1587 519.263 1587 506.5C1587 493.737 1576.73 483.417 1564 483.417C1551.27 483.417 1541 493.737 1541 506.5ZM1604 569.75C1604 582.513 1614.27 592.833 1627 592.833C1639.73 592.833 1650 582.513 1650 569.75C1650 556.987 1639.73 546.667 1627 546.667C1614.27 546.667 1604 556.987 1604 569.75ZM1604 443.25C1604 456.013 1614.27 466.333 1627 466.333C1639.73 466.333 1650 456.013 1650 443.25C1650 430.487 1639.73 420.167 1627 420.167C1614.27 420.167 1604 430.487 1604 443.25Z" stroke="#314348" stroke-width="4"/>
<path d="M1662 696H1466C1450.6 696 1438 708.65 1438 724.111V920.889C1438 936.35 1450.6 949 1466 949H1662C1677.4 949 1690 936.35 1690 920.889V724.111C1690 708.65 1677.4 696 1662 696ZM1501 906.833C1489.38 906.833 1480 897.416 1480 885.75C1480 874.084 1489.38 864.667 1501 864.667C1512.62 864.667 1522 874.084 1522 885.75C1522 897.416 1512.62 906.833 1501 906.833ZM1501 780.333C1489.38 780.333 1480 770.916 1480 759.25C1480 747.584 1489.38 738.167 1501 738.167C1512.62 738.167 1522 747.584 1522 759.25C1522 770.916 1512.62 780.333 1501 780.333ZM1564 843.583C1552.38 843.583 1543 834.166 1543 822.5C1543 810.834 1552.38 801.417 1564 801.417C1575.62 801.417 1585 810.834 1585 822.5C1585 834.166 1575.62 843.583 1564 843.583ZM1627 906.833C1615.38 906.833 1606 897.416 1606 885.75C1606 874.084 1615.38 864.667 1627 864.667C1638.62 864.667 1648 874.084 1648 885.75C1648 897.416 1638.62 906.833 1627 906.833ZM1627 780.333C1615.38 780.333 1606 770.916 1606 759.25C1606 747.584 1615.38 738.167 1627 738.167C1638.62 738.167 1648 747.584 1648 759.25C1648 770.916 1638.62 780.333 1627 780.333Z" fill="#CDC8AC"/>
</svg>
