<?xml version="1.0" encoding="UTF-8"?>
<svg xmlns="http://www.w3.org/2000/svg" xmlns:xlink="http://www.w3.org/1999/xlink" viewBox="0 0 200 200">
  <defs>
    <filter id="drop-shadow-6" filterUnits="userSpaceOnUse">
      <feOffset dx="4" dy="4"/>
      <feGaussianBlur result="blur" stdDeviation="0"/>
      <feFlood flood-color="#181a19" flood-opacity="1"/>
      <feComposite in2="blur" operator="in"/>
      <feComposite in="SourceGraphic"/>
    </filter>
    <filter id="drop-shadow-6-1" x="22" y="36" width="154.39" height="123.92" filterUnits="userSpaceOnUse">
      <feOffset dx="4" dy="4"/>
      <feGaussianBlur result="blur-2" stdDeviation="0"/>
      <feFlood flood-color="#181a19" flood-opacity="1"/>
      <feComposite in2="blur-2" operator="in"/>
      <feComposite in="SourceGraphic"/>
    </filter>
    <filter id="drop-shadow-7" x="73.84" y="132.76" width="20.36" height="21.05" filterUnits="userSpaceOnUse">
      <feOffset dx="2" dy="3"/>
      <feGaussianBlur result="blur-3" stdDeviation="0"/>
      <feFlood flood-color="#181a19" flood-opacity="1"/>
      <feComposite in2="blur-3" operator="in"/>
      <feComposite in="SourceGraphic"/>
    </filter>
    <filter id="drop-shadow-8" x="123.91" y="123.89" width="51.52" height="51.98" filterUnits="userSpaceOnUse">
      <feOffset dx="2" dy="3"/>
      <feGaussianBlur result="blur-4" stdDeviation="0"/>
      <feFlood flood-color="#181a19" flood-opacity="1"/>
      <feComposite in2="blur-4" operator="in"/>
      <feComposite in="SourceGraphic"/>
    </filter>
    <filter id="drop-shadow-9" x="50.43" y="127.63" width="20.3" height="20.99" filterUnits="userSpaceOnUse">
      <feOffset dx="2" dy="3"/>
      <feGaussianBlur result="blur-5" stdDeviation="0"/>
      <feFlood flood-color="#181a19" flood-opacity="1"/>
      <feComposite in2="blur-5" operator="in"/>
      <feComposite in="SourceGraphic"/>
    </filter>
    <filter id="drop-shadow-10" x="26.77" y="122.64" width="20.16" height="20.85" filterUnits="userSpaceOnUse">
      <feOffset dx="2" dy="3"/>
      <feGaussianBlur result="blur-6" stdDeviation="0"/>
      <feFlood flood-color="#181a19" flood-opacity="1"/>
      <feComposite in2="blur-6" operator="in"/>
      <feComposite in="SourceGraphic"/>
    </filter>
    <filter id="drop-shadow-11" x="97.35" y="137.99" width="20.2" height="20.89" filterUnits="userSpaceOnUse">
      <feOffset dx="2" dy="3"/>
      <feGaussianBlur result="blur-7" stdDeviation="0"/>
      <feFlood flood-color="#181a19" flood-opacity="1"/>
      <feComposite in2="blur-7" operator="in"/>
      <feComposite in="SourceGraphic"/>
    </filter>
  </defs>
  <g style="isolation: isolate;">
    <g id="Illustration_x5F_Adobe">
      <rect y="0" width="200" height="200" style="fill: #ada178;"/>
      <rect x="29.2" y="47.96" width="136" height="96" rx="8" ry="8" transform="translate(22.89 -18.64) rotate(12.41)" style="fill: #e7e4d7; filter: url(#drop-shadow-6-1);"/>
      <path d="M124.07,58.28h32c4.42,0,8,3.58,8,8v88h-40V58.28h0Z" transform="translate(26.2 -28.48) rotate(12.41)" style="fill: #e7e4d7; mix-blend-mode: multiply;"/>
      <rect x="38.52" y="51.76" width="80" height="72" rx="4" ry="4" transform="translate(20.69 -14.82) rotate(12.41)" style="fill: #e7e4d7; mix-blend-mode: multiply;"/>
      <g id="vlpa" style="filter: url(#drop-shadow-7);">
        <g id="vlpb">
          <g id="vlpc">
            <g id="vlpd">
              <path d="M78.43,132.79l12.51,2.75c.86.19,1.4,1.04,1.21,1.9l-2.66,12.12c-.19.86-1.04,1.4-1.9,1.21l-12.51-2.75c-.86-.19-1.4-1.04-1.21-1.9l2.66-12.12c.19-.86,1.04-1.4,1.9-1.21Z" style="fill: #777dad;"/>
            </g>
          </g>
        </g>
        <path d="M79.39,141.2h0c.16-.25.33-.53.49-.85.18-.3.34-.61.51-.9.15-.26.29-.52.41-.79h.01c.01.17.02.35.03.54.01.2.03.4.05.62.02.22.04.42.06.64.02.21.03.41.05.6.02.18.04.36.05.5h0l-1.65-.36h0M80.21,137.29l-.07.06c-.03.14-.08.28-.13.41l-.11.19-3.42,5.55.05.13,1.22.27.14-.06.83-1.43,2.42.53v-.03s.2,1.68.2,1.68l.09.09,1.36.3.09-.09-.92-7.16-.07-.07-1.67-.37h-.02" style="fill: #383d75;"/>
        <path d="M85.32,142.25h0c.06-.16.13-.3.25-.44.18-.22.45-.34.72-.34.08,0,.17.01.25.03.39.07.68.39.71.79h0v.25s-.03.07-.03.07l-.16.02c-.08-.01-.2-.04-.37-.07l-1.37-.3h0M86.14,140.31c-.15,0-.3.02-.44.05-.34.08-.65.23-.92.45-.28.22-.51.48-.68.78-.19.31-.31.65-.39,1-.05.24-.08.49-.08.74,0,.08,0,.16,0,.24.02.33.11.65.26.95.16.32.4.59.68.8.31.22.71.39,1.2.5.31.08.62.12.94.12.05,0,.09,0,.14,0,.19,0,.37-.02.56-.06l.06-.04.03-.08.22-1-.04-.06c-.13.02-.26.03-.4.03-.07,0-.14,0-.21,0-.23,0-.46-.03-.69-.08-.29-.06-.56-.18-.8-.35-.18-.12-.31-.29-.39-.5-.06-.16-.08-.32-.08-.49,0-.05,0-.09,0-.14l2.06.45c.17.04.32.1.47.13.15.03.28.05.38.06.11.02.18.03.22.03l.11-.06c.02-.06.05-.15.09-.27.03-.12.07-.26.1-.41.04-.18.06-.37.06-.56,0-.09,0-.17-.01-.26-.02-.29-.11-.57-.23-.83-.13-.27-.33-.49-.57-.67-.29-.21-.62-.35-.96-.42-.25-.05-.48-.09-.7-.09" style="fill: #383d75;"/>
      </g>
      <g>
        <path d="M141.48,124.2l29.5,12.4c2.04.86,2.99,3.2,2.14,5.24l-12.02,28.58c-.86,2.04-3.2,2.99-5.24,2.14l-29.5-12.4c-2.04-.86-2.99-3.2-2.14-5.24l12.02-28.58c.86-2.04,3.2-2.99,5.24-2.14Z" style="fill: #ada178; filter: url(#drop-shadow-8);"/>
        <path d="M156.76,146.09c-.08,0-.13.05-.18.16l-4.97,11.83s-.03.09-.03.13c0,.09.05.16.16.21l3.01,1.27s.07.02.1.02c.09,0,.15-.06.2-.18l4.97-11.83s.03-.08.03-.12c0-.08-.04-.14-.14-.18l-3.04-1.28s-.08-.03-.11-.03M159.74,141.45c-.25,0-.5.04-.74.14-.52.2-.92.61-1.13,1.14-.13.29-.2.6-.2.91,0,.24.04.49.13.72.22.51.63.91,1.14,1.11.27.13.58.2.87.2.26,0,.51-.05.75-.15.53-.23.93-.66,1.13-1.19.13-.28.19-.58.19-.89,0-.24-.04-.47-.12-.69-.19-.5-.57-.87-1.17-1.13-.27-.11-.56-.17-.85-.17M143.06,146.51h0c.5-.55,1.04-1.17,1.58-1.87.57-.66,1.12-1.34,1.66-1.98.49-.57.94-1.16,1.36-1.76h.03c-.05.43-.11.87-.17,1.35-.06.5-.11,1-.16,1.54-.05.54-.1,1.06-.15,1.6-.06.52-.1,1.02-.14,1.5-.03.46-.07.89-.11,1.25l-3.9-1.64h0M146.85,137.22l-.19.12c-.14.34-.32.66-.51.96-.14.16-.26.31-.37.44l-10.94,12.16c-.06.07-.09.14-.08.19,0,.07.04.12.14.15l2.89,1.21s.09.04.14.04c.09,0,.18-.05.24-.13l2.69-3.12,5.72,2.4-.28,4.19s0,.02,0,.03c0,.11.07.22.18.24l3.21,1.35s.08.03.11.03c.09,0,.13-.07.15-.21l1.05-18.18s0-.02,0-.03c0-.07-.05-.13-.15-.17l-3.98-1.67" style="fill: #756638;"/>
      </g>
      <g>
        <path d="M54.99,127.67l12.48,2.71c.86.19,1.41,1.04,1.22,1.9l-2.63,12.09c-.19.86-1.04,1.41-1.9,1.22l-12.48-2.71c-.86-.19-1.41-1.04-1.22-1.9l2.63-12.09c.19-.86,1.04-1.41,1.9-1.22Z" style="fill: #ad787b; filter: url(#drop-shadow-9);"/>
        <polyline points="56.9 132.16 56.79 132.22 55.33 138.92 55.39 139.04 56.67 139.32 56.78 139.23 58.24 132.54 58.23 132.52 58.16 132.43 56.9 132.16" style="fill: #75383b;"/>
        <path d="M59.79,137.66c0-.15.02-.29.05-.43.07-.34.21-.6.39-.78.19-.18.41-.3.66-.36.13-.03.26-.05.4-.05s.25.01.38.04l.21.06.17.07-.62,2.86-.24-.02c-.09-.01-.18-.02-.28-.05-.18-.04-.36-.11-.52-.2-.16-.09-.29-.21-.39-.36-.1-.16-.17-.34-.19-.53-.01-.09-.02-.17-.02-.26M62.84,132.86l-.08.06-.45,2.05-.2-.06-.13-.04c-.31-.07-.6-.1-.88-.1-.3,0-.58.04-.85.12-.48.14-.91.41-1.25.78-.33.36-.56.81-.66,1.29-.06.27-.09.52-.09.76,0,.29.04.55.12.8.15.43.42.82.79,1.1.39.3.85.5,1.33.6.34.07.68.11,1.02.13.07,0,.13,0,.2,0,.31,0,.63-.03.93-.09l.09-.09c.02-.11.04-.24.06-.38.02-.14.05-.28.07-.39l1.34-6.19h0s-.06-.07-.06-.07l-1.32-.29" style="fill: #75383b;"/>
      </g>
      <g id="Layer_2">
        <g id="Surfaces" style="filter: url(#drop-shadow-10);">
          <g id="Photo_Surface">
            <g id="Outline_no_shadow">
              <path d="M31.24,122.67l12.43,2.63c.86.18,1.41,1.02,1.23,1.88l-2.55,12.04c-.18.86-1.02,1.41-1.88,1.23l-12.43-2.63c-.86-.18-1.41-1.02-1.23-1.88l2.55-12.04c.18-.86,1.02-1.41,1.88-1.23Z" style="fill: #777dad;"/>
            </g>
          </g>
        </g>
        <path d="M33.04,130.7h0l.46-2.18s.14.02.27.05c.12.02.27.05.44.09.27.05.52.14.74.29.17.11.3.27.38.47.04.12.06.24.06.36,0,.08-.01.17-.03.25-.06.28-.17.49-.34.62-.18.13-.38.22-.6.23-.08,0-.17.01-.25.01-.17,0-.35-.02-.51-.05l-.34-.07-.25-.07M32.42,126.99l-.08.06-1.41,6.66.06.1,1.23.26h.03s.09-.07.09-.07l.44-2.08c.12.03.21.05.28.07.06.02.17.04.32.07.36.08.7.12,1.03.12.16,0,.32-.01.47-.03.45-.07.87-.26,1.21-.57.34-.31.56-.74.68-1.3.04-.17.05-.35.05-.52,0-.12,0-.24-.02-.36-.04-.3-.15-.59-.32-.84-.2-.29-.45-.54-.76-.71-.33-.21-.76-.37-1.29-.48-.19-.04-.39-.08-.59-.12-.2-.04-.39-.08-.57-.11s-.34-.06-.49-.09c-.15-.02-.25-.05-.36-.07" style="fill: #383d75;"/>
        <path d="M38.99,130.08c-.18,0-.35.02-.51.06-.31.07-.59.23-.81.45-.19.21-.33.46-.39.74-.03.11-.04.21-.04.32,0,.12.02.25.05.37.08.25.2.47.38.65.24.25.52.47.82.66.29.19.48.33.57.44.07.09.11.17.11.24,0,.02,0,.03,0,.05-.02.12-.12.21-.23.23-.05.01-.12.02-.19.02-.1,0-.22-.01-.37-.04-.26-.05-.51-.14-.74-.26-.27-.13-.51-.28-.74-.49l-.06-.02-.04.05-.24,1.13.05.14c.19.14.4.26.62.35.28.12.56.21.86.27.27.06.52.08.75.08.17,0,.32-.01.47-.04.32-.05.61-.2.85-.42.22-.22.38-.5.43-.81.03-.11.04-.22.04-.33,0-.12-.02-.25-.05-.37-.08-.25-.21-.46-.4-.65-.27-.26-.57-.49-.9-.68-.14-.1-.28-.2-.41-.31l-.18-.22-.03-.18.09-.16.23-.09s.05,0,.08,0c.11,0,.22.01.32.04.25.05.48.14.71.24.21.09.4.21.57.35l.12.02.05-.06.22-1.06v-.08s-.05-.07-.05-.07c-.16-.11-.34-.2-.53-.27-.26-.09-.53-.17-.79-.23-.25-.05-.47-.08-.68-.08" style="fill: #383d75;"/>
      </g>
      <g id="Layer_2-2" data-name="Layer_2" style="filter: url(#drop-shadow-11);">
        <path d="M101.83,138.02l12.47,2.66c.85.18,1.39,1.02,1.21,1.87l-2.58,12.09c-.18.85-1.02,1.39-1.87,1.21l-12.47-2.66c-.85-.18-1.39-1.02-1.21-1.87l2.58-12.09c.18-.85,1.02-1.39,1.87-1.21Z" style="fill: #777dad;"/>
        <g>
          <polyline points="106.17 150.16 102.06 149.28 101.98 149.14 103.4 142.52 103.49 142.44 103.51 142.45 104.78 142.72 104.84 142.79 104.84 142.81 103.68 148.25 106.68 148.89 106.73 148.99 106.3 150.08 106.25 150.15 106.17 150.16" style="fill: #777dad;"/>
          <path d="M108.31,145.19l1.13.24.11.13.02.16v.21s-.05.23-.05.23c.24-.18.52-.32.81-.41.33-.1.68-.11,1.01-.02l.08.09v.02s-.28,1.27-.28,1.27l-.12.05c-.41-.11-.85-.13-1.27-.04-.14.03-.28.08-.4.17l-.7,3.31-.1.07-1.26-.27-.09-.1v-.02s.77-3.59.77-3.59c.03-.16.07-.32.1-.49.03-.17.07-.34.1-.51.02-.15.04-.29.06-.44l.06-.06h.03" style="fill: #777dad;"/>
          <polyline points="103.49 142.44 103.4 142.52 101.98 149.14 102.06 149.28 106.17 150.16 106.25 150.15 106.3 150.08 106.73 148.99 106.68 148.89 103.68 148.25 104.84 142.81 104.84 142.79 104.78 142.72 103.51 142.45 103.49 142.44" style="fill: #383d75;"/>
          <path d="M108.28,145.19l-.06.06c-.01.15-.03.29-.06.44-.03.17-.06.33-.1.51-.03.17-.06.33-.1.49l-.77,3.59v.02s.08.1.08.1l1.26.27.1-.07.7-3.31c.12-.09.26-.13.4-.17.18-.04.36-.05.55-.05.24,0,.49.03.72.1l.12-.05.27-1.27v-.02s-.07-.09-.07-.09c-.15-.04-.31-.06-.46-.06-.19,0-.37.03-.55.08-.29.09-.57.23-.81.41h0l.04-.23v-.21s0-.16,0-.16l-.11-.13-1.13-.24h-.03" style="fill: #383d75;"/>
        </g>
      </g>
      <path d="M99.21,72.85l.43-1.95-1.95-.43-.16.73-37.11-8.17.16-.73-1.95-.43-.43,1.95.73.16-8.17,37.11-.73-.16-.43,1.95,1.95.43.16-.73,37.11,8.17-.16.73,1.95.43.43-1.95-.73-.16,8.17-37.11.73.16ZM89.82,109.7l-.73-.16-.16.73-37.11-8.17.16-.73-.73-.16,8.17-37.11.73.16.16-.73,37.11,8.17-.16.73.73.16-8.17,37.11Z" style="fill: #ada178;"/>
    </g>
  </g>
</svg>