<?xml version="1.0" encoding="UTF-8"?>
<svg id="Tile_x5F_Graph" xmlns="http://www.w3.org/2000/svg" viewBox="0 0 200 200">
  <path d="M184,0H16C7.16,0,0,7.16,0,16v168c0,8.84,7.16,16,16,16h168c8.84,0,16-7.16,16-16V16C200,7.16,192.84,0,184,0h0Z" style="fill: #78ad85;"/>
  <path d="M41.66,160h-12c-1.1,0-2,.34-2,.77v39.23h16v-39.23c0-.42-.9-.77-2-.77Z" style="fill: #387545;"/>
  <path d="M73.42,112h-12c-1.1,0-2,.76-2,1.69v86.31h16v-86.31c0-.93-.9-1.69-2-1.69Z" style="fill: #387545;"/>
  <path d="M105.66,64h-12c-1.1,0-2,1.17-2,2.62v133.38h16V66.62c0-1.44-.9-2.62-2-2.62Z" style="fill: #387545;"/>
  <path d="M137.89,128h-12c-1.1,0-2,.62-2,1.38v70.62h16v-70.62c0-.76-.9-1.38-2-1.38Z" style="fill: #387545;"/>
  <path d="M170.12,103h-12c-1.1,0-2,.84-2,1.87v95.13h16v-95.13c0-1.03-.9-1.87-2-1.87Z" style="fill: #387545;"/>
</svg>