<?xml version="1.0" encoding="UTF-8"?>
<svg id="Illustration_x5F_UI" xmlns="http://www.w3.org/2000/svg" viewBox="0 0 199 199">
  <path d="M16,0v2h167c7.72,0,14,6.28,14,14v167c0,7.72-6.28,14-14,14H16c-7.72,0-14-6.28-14-14V16c0-7.72,6.28-14,14-14V0M16,0C7.16,0,0,7.16,0,16v167c0,8.84,7.16,16,16,16h167c8.84,0,16-7.16,16-16V16C199,7.16,191.84,0,183,0H16Z" style="fill: #ad787b;"/>
  <path d="M129.21,98.5h-28.34v-28.45c0-.55-.45-1-1-1s-1,.45-1,1v28.45h-28.33c-.55,0-1,.45-1,1s.45,1,1,1h28.33v28.45c0,.55.45,1,1,1s1-.45,1-1v-28.45h28.34c.55,0,1-.45,1-1s-.45-1-1-1Z" style="fill: #ad787b;"/>
</svg>