<?xml version="1.0" encoding="UTF-8"?>
<svg id="Tile_x5F_Frame" xmlns="http://www.w3.org/2000/svg" viewBox="0 0 200 200">
  <path d="M184,2c7.72,0,14,6.28,14,14v168c0,7.72-6.28,14-14,14H16c-7.72,0-14-6.28-14-14V16C2,8.28,8.28,2,16,2h168M184,0H16C7.16,0,0,7.16,0,16v168c0,8.84,7.16,16,16,16h168c8.84,0,16-7.16,16-16V16C200,7.16,192.84,0,184,0h0Z" style="fill: #ada178;"/>
  <line x1="40" y1="136" x2="160" y2="136" style="fill: none; stroke: #ada178; stroke-miterlimit: 10; stroke-width: 2px;"/>
  <polygon points="160 63 65 63 65 40 63 40 63 63 40 63 40 65 63 65 63 160 65 160 65 65 160 65 160 63" style="fill: #ada178;"/>
  <line x1="136" y1="40" x2="136" y2="160" style="fill: none; stroke: #ada178; stroke-miterlimit: 10; stroke-width: 2px;"/>
</svg>