<?xml version="1.0" encoding="UTF-8"?>
<svg id="Tile_x5F_PS" xmlns="http://www.w3.org/2000/svg" viewBox="0 0 200 200">
  <rect width="200" height="200" rx="16" ry="16" style="fill: #777dad;"/>
  <path d="M64.52,72.04c1.57-.1,3.47-.11,5.62-.13.32-.01.63-.02.95-.02,3.06,0,6.03.49,8.82,1.59,2.4.89,4.4,2.53,5.82,4.66,1.29,2.13,1.97,4.58,1.96,7.04,0,.1,0,.2,0,.3,0,.06,0,.11,0,.17,0,3.55-.8,6.32-2.49,8.36-1.8,2.08-4.1,3.67-6.74,4.43-3.05,1.02-6.27,1.54-9.49,1.56l-4.38.03c-.05,0-.1,0-.15,0-.95,0-1.97-.07-3.07-.14l-.22-27.77h0c.44-.07,1.2-.13,2.26-.13.34,0,.72,0,1.13.02M70.09,55.64c-.22,0-.44,0-.66,0-2.48.02-4.96.04-7.52.14s-4.96.12-7.19.22c-2.23.1-4.3.12-6.28.22-1.9.1-3.22.11-4.63.12-.57,0-.82.33-.82.9,0,0,0,0,0,.01l.68,85.04c0,.74.33,1.07.98,1.07h.02l15.7-.13c.17,0,.25,0,.33,0,.52-.08.91-.5.91-1,0-.05,0-.11-.01-.16l-.21-26.53h0c.55,0,1.06,0,1.51,0,.83,0,1.51.01,2.04.06.51.05,1.21.06,2.13.06.58,0,1.24,0,2-.01,6.78-.05,12.97-.85,18.57-2.96,5.36-2.03,9.96-5.53,13.22-10.19,3.22-4.58,4.82-10.35,4.82-17.31,0-.11,0-.22,0-.33-.03-3.72-.72-7.27-1.99-10.73-1.35-3.54-3.44-6.75-6.11-9.37-3.16-3.03-6.98-5.32-11.13-6.69-4.49-1.64-9.9-2.43-16.39-2.43" style="fill: #383d75;"/>
  <path d="M141.32,75.56c-.19,0-.38,0-.57,0-5.87.05-10.74,1-14.6,3.01-3.54,1.68-6.58,4.35-8.62,7.67-1.77,3.02-2.73,6.36-2.73,9.86,0,.06,0,.11,0,.17h0c0,.11,0,.23,0,.34,0,2.78.68,5.54,1.97,8.07,1.59,2.8,3.76,5.18,6.34,6.97,3.66,2.45,7.56,4.4,11.78,5.86,4.06,1.54,6.8,2.76,8.13,3.82,1.33,1.06,2,2.13,2.01,3.29,0,.01,0,.02,0,.03,0,1.47-.9,2.87-2.2,3.45-1.48.76-3.71,1.19-6.85,1.21-.11,0-.21,0-.32,0-3.2,0-6.4-.39-9.44-1.16-3.64-.8-7.04-2.09-10.28-3.97-.15-.1-.31-.17-.46-.17-.1,0-.19.03-.29.09-.24.16-.32.49-.32.73,0,0,0,0,0,.01l.12,14.38h0c0,.05,0,.1,0,.15,0,.6.4,1.11.93,1.41,2.65,1.22,5.55,2.1,8.45,2.58,3.55.68,7.1.99,10.72.99.17,0,.35,0,.52,0,5.95-.05,10.9-1,14.94-2.77,3.71-1.52,6.91-4.1,9.2-7.43,2.02-3.09,3.14-6.77,3.14-10.47,0-.18,0-.36,0-.55h0c0-.12,0-.23,0-.35,0-2.85-.68-5.62-1.97-8.15-1.59-2.8-3.84-5.09-6.58-6.81-3.99-2.45-8.3-4.48-12.77-5.93-1.99-.81-3.98-1.7-5.89-2.68-1.08-.57-2.08-1.31-2.83-2.21-.5-.66-.84-1.4-.84-2.14,0-.01,0-.02,0-.03,0-.73.24-1.55.64-2.2.57-.83,1.48-1.42,2.55-1.67,1.4-.38,2.93-.63,4.42-.63.18,0,.36,0,.54.01.1,0,.19,0,.29,0,3.04,0,6.01.38,8.98,1,2.81.56,5.47,1.44,7.96,2.75.16.08.34.12.57.12s.53-.04.91-.13c.24-.16.4-.49.41-.81v-.02l-.11-13.47c0-.33-.09-.66-.17-.99-.17-.33-.5-.66-.83-.74-2.24-.89-4.64-1.53-7.12-1.84-3.2-.44-6.48-.66-9.69-.66" style="fill: #383d75;"/>
</svg>