<?xml version="1.0" encoding="UTF-8"?>
<svg id="Tile_x5F_ID" xmlns="http://www.w3.org/2000/svg" viewBox="0 0 200 200">
  <rect y="0" width="200" height="200" rx="16" ry="16" style="fill: #ad787b;"/>
  <path d="M71.76,60.8s-.1,0-.15.01l-15.56.02c-.72,0-1.12.32-1.12,1.04l.11,82.21c0,.88.32,1.28,1.04,1.28h0l15.64-.02c.72,0,1.12-.4,1.12-1.28l-.11-82.21-.08-.24c-.07-.5-.47-.81-.89-.81" style="fill: #75383b;"/>
  <path d="M103.52,113.32c0-.2,0-.39,0-.59,0-4.15.87-7.58,2.62-10.14,1.75-2.56,4.06-4.55,6.78-5.92,2.79-1.44,5.9-2.08,9.02-2.09h.02c.87,0,1.74.08,2.61.16.72.08,1.44.24,2.16.4l.05,35.12h0c-.73.27-1.51.42-2.35.42-.17,0-.34,0-.52-.02-1.04.08-2.15.16-3.35.16h-.03c-2.22,0-4.45-.32-6.59-1.03-2.08-.64-3.91-1.75-5.43-3.19-1.6-1.59-2.8-3.51-3.6-5.66-.89-2.45-1.37-5.03-1.38-7.63M143.8,53.84s-.08,0-.12.01l-16.2.02c-.56,0-.8.32-.8.88l.03,25.22h0c-.96-.08-1.76-.08-2.47-.16-.65-.07-1.17-.08-1.56-.08-.04,0-.08,0-.12,0-7.9.01-14.6,1.54-20.19,4.66-5.26,2.88-9.65,7.2-12.67,12.39-2.87,4.97-4.37,10.62-4.37,16.36,0,.16,0,.32,0,.48,0,7.26,1.45,13.33,4.41,18.19,2.88,4.71,7.04,8.53,12.07,10.84,5.17,2.38,10.85,3.57,16.56,3.57.2,0,.4,0,.61,0,4.15,0,8.3-.41,12.29-1.13,4.47-.8,8.86-2.09,13.01-3.85.56-.24.8-.72.8-1.28-.08-1.36-.16-2.95-.33-4.63-.08-1.76-.16-3.35-.17-4.79l-.1-75.98v-.16c-.07-.29-.34-.57-.68-.57" style="fill: #75383b;"/>
</svg>