<svg width="199" height="199" viewBox="0 0 199 199" fill="none" xmlns="http://www.w3.org/2000/svg">
<rect width="199" height="199" fill="#ADA178"/>
<rect width="111.998" height="54.9302" transform="translate(44 72.8486)" fill="#ADA178"/>
<path d="M100.865 102.959V101.104C100.865 97.8238 98.2032 95.1616 94.9227 95.1616H93.0678C91.6766 95.1616 90.5602 94.0452 90.5602 92.654V90.7991C90.5602 89.4079 91.6766 88.2915 93.0678 88.2915H97.4303C99.3196 88.2915 100.865 86.7457 100.865 84.8564H93.0678C89.7873 84.8564 87.1252 87.5186 87.1252 90.7991V92.654C87.1252 95.9345 89.7873 98.5967 93.0678 98.5967H94.9227C96.3139 98.5967 97.4303 99.7131 97.4303 101.104V102.959C97.4303 104.35 96.3139 105.467 94.9227 105.467H87.1252V108.902H94.9227C98.2032 108.902 100.865 106.24 100.865 102.959Z" fill="#181A19"/>
<path d="M120.617 95.1616H124.052C125.941 95.1616 127.487 93.6158 127.487 91.7266H120.617C118.728 91.7266 117.182 93.2723 117.182 95.1616V108.902H120.617V95.1616Z" fill="#181A19"/>
<path d="M72.8697 108.902H83.1748V84.8564H79.7398V105.467H72.8697V95.1616H74.5872C76.4765 95.1616 78.0223 93.6158 78.0223 91.7266H72.8697C70.9804 91.7266 69.4346 93.2723 69.4346 95.1616V105.467C69.4346 107.356 70.9632 108.902 72.8697 108.902Z" fill="#181A19"/>
<path d="M107.735 108.902H114.606V105.467H107.735V95.1616H111.171C113.06 95.1616 114.606 93.6158 114.606 91.7266H107.735V84.8564H104.3V105.467C104.3 107.356 105.829 108.902 107.735 108.902Z" fill="#181A19"/>
<path d="M149.128 95.1616H152.563C154.452 95.1616 155.998 93.6158 155.998 91.7266H149.128V84.8564H145.693V105.467C145.693 107.356 147.239 108.902 149.128 108.902H155.998V105.467H149.128V95.1616Z" fill="#181A19"/>
<path d="M132.468 108.902H137.62V105.467H132.468V95.1616H139.338V105.467C139.338 107.356 140.884 108.902 142.773 108.902V91.7266H132.468C130.579 91.7266 129.033 93.2723 129.033 95.1616V105.467C129.033 107.356 130.561 108.902 132.468 108.902Z" fill="#181A19"/>
<path d="M63.2515 90.9193V99.8848H57.7726C57.7726 101.774 59.3184 103.32 61.2077 103.32H63.2343V108.902H66.6694V84.8564H63.2343L44.3931 112.268C43.3797 113.762 44.4446 115.772 46.2308 115.772H155.981V112.337H48.5151L63.2515 90.9193Z" fill="#181A19"/>
</svg>
