<svg width="199" height="199" viewBox="0 0 199 199" fill="none" xmlns="http://www.w3.org/2000/svg">
<rect width="199" height="199" fill="#78AD85"/>
<rect width="112" height="70.7127" transform="translate(44 65.7412)" fill="#78AD85"/>
<path d="M140.081 101.296C138.726 102.425 136.75 103.779 135.508 104.626C135.621 105.078 136.016 106.489 136.299 107.844C138.162 108.86 140.307 109.368 142.565 109.368C144.371 109.368 146.121 109.029 147.645 108.352L142.395 99.3763C141.605 100.054 140.871 100.731 140.081 101.296ZM139.234 96.3279L130.258 91.0779C129.581 92.6021 129.242 94.4085 129.242 96.1585C129.242 98.473 129.863 100.562 130.766 102.425C132.065 102.707 133.42 103.046 133.928 103.215C134.887 101.86 136.242 99.8843 137.258 98.6424C137.879 97.7392 138.557 97.0053 139.234 96.3279ZM142.452 82.8359C137.258 82.8359 132.799 85.8279 130.597 90.1182C131.049 90.0053 131.557 89.9488 132.121 90.1182C132.629 90.2311 133.984 90.5698 135.508 90.9085C135.621 90.7392 135.678 90.6263 135.791 90.5698C135.903 90.4569 136.073 90.2875 136.299 90.0617C136.581 89.7795 137.258 90.5698 137.089 90.8521C136.92 91.0214 136.75 91.1908 136.637 91.3037C137.428 91.473 138.274 91.7553 139.008 91.9246C139.121 91.7553 139.178 91.473 139.347 91.3037C139.46 91.1908 139.629 91.0214 139.855 90.7956C140.137 90.5134 140.815 91.3037 140.645 91.5859C140.363 91.8682 140.194 92.0376 140.137 92.094L140.024 92.2069C141.21 92.5456 142.226 92.8279 142.678 92.8843C143.807 91.7553 144.71 90.8521 145.331 90.1746C146.968 88.6505 149.508 87.6908 150.355 88.5375C151.145 89.3843 150.242 91.9246 148.718 93.5617C148.097 94.1827 147.194 95.0859 146.065 96.215C146.178 96.6666 146.403 97.6827 146.742 98.9246L146.855 98.8117C146.968 98.6988 147.137 98.5295 147.363 98.3037C147.645 98.0214 148.323 98.8117 148.153 99.094C147.871 99.3763 147.702 99.5456 147.645 99.6021C147.476 99.7714 147.307 99.8843 147.024 99.9408C147.194 100.731 147.476 101.578 147.645 102.312C147.758 102.199 147.928 102.029 148.097 101.86C148.379 101.578 149.057 102.368 148.887 102.65C148.605 102.933 148.436 103.102 148.379 103.159C148.266 103.271 148.097 103.328 148.041 103.441C148.379 104.965 148.718 106.263 148.831 106.828C148.944 107.449 148.944 107.957 148.718 108.352C153.065 106.15 156 101.634 156 96.4972C155.774 88.7634 149.847 82.8359 142.452 82.8359Z" fill="#181A19"/>
<path d="M128.281 81.1982V83.7386H130.765V84.8676H128.281V87.4644H127.095V84.8676H124.668V83.7386H127.095V81.1982H128.281Z" fill="#181A19"/>
<path d="M44.0566 113.545C44.3954 113.432 44.9034 113.376 45.4115 113.376C46.2018 113.376 46.597 113.545 46.9357 113.828C47.2179 114.11 47.4437 114.449 47.4437 114.844C47.4437 115.465 47.105 115.86 46.4841 116.142C46.9921 116.255 47.6695 116.763 47.6695 117.61C47.6695 118.118 47.5002 118.457 47.1615 118.739C46.7099 119.078 46.1454 119.247 45.1857 119.247C44.6776 119.247 44.226 119.247 44.0566 119.134V113.545ZM44.847 115.916H45.5244C46.3147 115.916 46.7099 115.465 46.7099 114.957C46.7099 114.279 46.2018 113.997 45.4115 113.997C45.0728 113.997 44.9034 113.997 44.7341 114.11L44.847 115.916ZM44.847 118.626C45.0163 118.626 45.1857 118.626 45.4679 118.626C46.2583 118.626 46.9357 118.344 46.9357 117.497C46.9357 116.707 46.2583 116.368 45.4679 116.368H44.847V118.626Z" fill="#181A19"/>
<path d="M49.1372 114.279C48.8549 114.279 48.6855 113.997 48.6855 113.771C48.6855 113.488 48.8549 113.263 49.1936 113.263C49.4759 113.263 49.7017 113.432 49.7017 113.771C49.5888 114.109 49.4194 114.279 49.1372 114.279ZM48.742 115.069H49.5323V119.134H48.742V115.069Z" fill="#181A19"/>
<path d="M51.6204 113.206H50.8301V119.246H51.6204V113.206Z" fill="#181A19"/>
<path d="M56.5321 118.118C56.5321 118.456 56.5321 118.908 56.5321 119.134H55.8546V118.456C55.5724 118.908 55.1772 119.247 54.4998 119.247C53.4837 119.247 52.6934 118.4 52.6934 117.102C52.6934 115.747 53.5401 114.9 54.5563 114.9C55.1772 114.9 55.5724 115.239 55.8546 115.521V113.037H56.5321V118.118ZM55.7417 116.763C55.7417 116.65 55.7417 116.481 55.7417 116.424C55.6288 115.973 55.2337 115.577 54.6127 115.577C53.8224 115.577 53.4272 116.255 53.4272 117.215C53.4272 118.061 53.8788 118.739 54.6127 118.739C55.1208 118.739 55.5724 118.4 55.7417 117.892C55.7417 117.779 55.7417 117.723 55.7417 117.553V116.763Z" fill="#181A19"/>
<path d="M61.2754 118.004C61.2754 118.455 61.2754 118.794 61.2754 119.133H60.598V118.455C60.4286 118.794 59.977 119.246 59.2431 119.246C58.5657 119.246 57.7754 118.907 57.7754 117.439V115.068H58.5657V117.383C58.5657 118.173 58.848 118.681 59.5254 118.681C60.0335 118.681 60.3722 118.343 60.5415 118.004C60.6544 117.891 60.6544 117.722 60.6544 117.665V115.068H61.4447L61.2754 118.004Z" fill="#181A19"/>
<path d="M62.6283 116.141C62.6283 115.69 62.6283 115.351 62.6283 115.012H63.3058V115.69C63.4751 115.351 63.9832 114.899 64.6606 114.899C65.2816 114.899 66.1283 115.238 66.1283 116.706V119.19H65.338V116.819C65.338 116.141 65.0558 115.633 64.3783 115.633C63.8703 115.633 63.5316 115.972 63.3622 116.424C63.3622 116.537 63.2493 116.706 63.2493 116.762V119.246H62.459L62.6283 116.141Z" fill="#181A19"/>
<path d="M70.9284 118.625C70.9284 119.585 70.759 120.149 70.3074 120.488C69.8558 120.827 69.2913 120.996 68.7832 120.996C68.2751 120.996 67.7671 120.883 67.4284 120.657L67.5977 120.037C67.88 120.206 68.2751 120.375 68.7832 120.375C69.5735 120.375 70.138 119.924 70.138 118.907V118.456C69.8558 118.795 69.4606 119.133 68.8397 119.133C67.8235 119.133 67.0332 118.287 67.0332 117.101C67.0332 115.746 67.9929 114.899 68.8961 114.899C69.5735 114.899 70.0251 115.238 70.1945 115.577V115.069H70.8719C70.8719 115.351 70.8719 115.69 70.8719 116.198L70.9284 118.625ZM70.2509 116.649C70.2509 116.537 70.2509 116.367 70.2509 116.311C70.0816 115.859 69.7429 115.52 69.2348 115.52C68.5574 115.52 68.0493 116.141 68.0493 117.045C68.0493 117.835 68.5009 118.512 69.2348 118.512C69.6864 118.512 70.0816 118.23 70.2509 117.722C70.2509 117.609 70.3638 117.44 70.3638 117.27V116.593C70.3638 116.649 70.2509 116.649 70.2509 116.649Z" fill="#181A19"/>
<path d="M72.4514 119.302C72.1692 119.302 71.9434 119.02 71.9434 118.794C71.9434 118.455 72.1127 118.286 72.4514 118.286C72.7901 118.286 72.9595 118.568 72.9595 118.794C72.9595 119.02 72.7901 119.302 72.4514 119.302Z" fill="#181A19"/>
<path d="M75.9521 119.19L74.4844 113.488H75.2747L75.9521 116.367C76.1215 117.045 76.2908 117.835 76.4037 118.343C76.5166 117.722 76.686 117.045 76.8553 116.367L77.6457 113.488H78.436L79.1134 116.367C79.2828 117.045 79.4521 117.722 79.565 118.343C79.6779 117.722 79.8473 117.045 80.0166 116.367L80.807 113.488H81.5973L79.9602 119.19H79.1699L78.4924 116.198C78.3231 115.408 78.2102 114.9 78.1537 114.335C78.0408 114.956 77.8715 115.464 77.7021 116.198L76.8553 119.19H75.9521Z" fill="#181A19"/>
<path d="M82.6704 114.279C82.3881 114.279 82.2188 113.997 82.2188 113.771C82.2188 113.488 82.3881 113.263 82.7268 113.263C83.0091 113.263 83.2349 113.432 83.2349 113.771C83.1784 114.109 83.0091 114.279 82.6704 114.279ZM82.3316 115.069H83.122V119.134H82.3316V115.069Z" fill="#181A19"/>
<path d="M84.4195 116.311C84.4195 115.803 84.4195 115.352 84.4195 115.013H85.097V115.803C85.2663 115.295 85.7744 114.844 86.226 114.844C86.3389 114.844 86.3953 114.844 86.3953 114.844V115.521C86.2824 115.521 86.226 115.521 86.1131 115.521C85.605 115.521 85.1534 115.973 85.097 116.481C85.097 116.594 85.097 116.763 85.097 116.82V119.021H84.3066L84.4195 116.311Z" fill="#181A19"/>
<path d="M88.4273 114.109V115.126H89.5563V115.746H88.4273V117.948C88.4273 118.456 88.5966 118.738 89.0483 118.738C89.2176 118.738 89.387 118.738 89.4999 118.626V119.246C89.3305 119.359 89.1612 119.359 88.8225 119.359C88.4837 119.359 88.2015 119.246 88.0321 119.021C87.8628 118.738 87.7499 118.4 87.7499 117.892V115.634H87.1289V115.069H87.7499V114.279L88.4273 114.109Z" fill="#181A19"/>
<path d="M90.3473 118.456C90.6295 118.625 90.9682 118.738 91.3634 118.738C91.8715 118.738 92.1537 118.456 92.1537 118.117C92.1537 117.779 91.9844 117.609 91.3634 117.327C90.5731 117.045 90.2344 116.65 90.2344 116.142C90.2344 115.464 90.7424 114.956 91.7021 114.956C92.1537 114.956 92.4924 115.069 92.7182 115.238L92.5489 115.746C92.3795 115.633 92.0973 115.464 91.7021 115.464C91.3069 115.464 91.0247 115.746 91.0247 116.085C91.0247 116.424 91.307 116.593 91.815 116.763C92.4924 117.045 92.9441 117.383 92.9441 118.061C92.9441 118.851 92.3231 119.359 91.4199 119.359C90.9682 119.359 90.5731 119.246 90.2344 119.077L90.3473 118.456Z" fill="#181A19"/>
<path d="M96.8935 119.021C96.7242 119.133 96.2726 119.303 95.708 119.303C94.4097 119.303 93.6758 118.456 93.6758 117.158C93.6758 115.859 94.5226 114.956 95.8774 114.956C96.329 114.956 96.7242 115.069 96.8935 115.238L96.7242 115.859C96.5548 115.746 96.2726 115.69 95.8774 115.69C94.9177 115.69 94.4097 116.367 94.4097 117.214C94.4097 118.174 95.0306 118.738 95.8774 118.738C96.329 118.738 96.5548 118.625 96.8371 118.569L96.8935 119.021Z" fill="#181A19"/>
<path d="M97.8555 113.206H98.6458V115.746C98.7587 115.577 98.9845 115.295 99.1539 115.238C99.4361 115.069 99.6619 115.069 99.9442 115.069C100.452 115.069 101.412 115.408 101.412 116.875V119.359H100.622V116.988C100.622 116.311 100.339 115.803 99.6619 115.803C99.1539 115.803 98.8151 116.142 98.6458 116.593C98.6458 116.706 98.5329 116.763 98.5329 116.932V119.416H97.8555V113.206Z" fill="#181A19"/>
<path d="M105.532 118.174C105.532 118.513 105.532 118.851 105.645 119.19H104.967L104.855 118.682C104.572 119.021 104.177 119.303 103.556 119.303C102.709 119.303 102.258 118.682 102.258 118.118C102.258 117.101 103.105 116.593 104.742 116.593V116.48C104.742 116.142 104.629 115.521 103.782 115.521C103.33 115.521 102.992 115.634 102.653 115.859L102.484 115.351C102.822 115.182 103.33 115.013 103.838 115.013C105.137 115.013 105.363 115.859 105.363 116.706V118.174C105.476 118.174 105.532 118.174 105.532 118.174ZM104.855 117.101C104.008 117.101 103.161 117.271 103.161 118.061C103.161 118.569 103.5 118.739 103.838 118.739C104.347 118.739 104.685 118.4 104.855 118.061C104.855 117.948 104.855 117.892 104.855 117.779V117.101Z" fill="#181A19"/>
<path d="M107 115.633H106.379V115.069H107V114.899C107 114.278 107.169 113.77 107.508 113.431C107.79 113.149 108.185 113.093 108.524 113.093C108.806 113.093 109.032 113.206 109.145 113.206L109.032 113.827C108.919 113.714 108.75 113.714 108.524 113.714C107.903 113.714 107.734 114.335 107.734 114.899V115.181H108.75V115.802H107.734V119.359H107V115.633Z" fill="#181A19"/>
<path d="M110.5 114.109V115.126H111.629V115.746H110.5V117.948C110.5 118.456 110.669 118.738 111.121 118.738C111.29 118.738 111.459 118.738 111.572 118.626V119.246C111.403 119.359 111.233 119.359 110.895 119.359C110.556 119.359 110.274 119.246 110.104 119.021C109.935 118.738 109.822 118.4 109.822 117.892V115.634H109.201V115.069H109.822V114.279L110.5 114.109Z" fill="#181A19"/>
<path d="M112.871 119.302C112.589 119.302 112.363 119.02 112.363 118.794C112.363 118.455 112.533 118.286 112.871 118.286C113.154 118.286 113.379 118.568 113.379 118.794C113.379 119.02 113.097 119.302 112.871 119.302Z" fill="#181A19"/>
<path d="M116.54 113.433H115.75V119.134H116.54V113.433Z" fill="#181A19"/>
<path d="M117.839 116.141C117.839 115.69 117.839 115.351 117.839 115.012H118.517V115.69C118.686 115.351 119.194 114.899 119.872 114.899C120.493 114.899 121.339 115.238 121.339 116.706V119.19H120.549V116.819C120.549 116.141 120.267 115.633 119.589 115.633C119.081 115.633 118.743 115.972 118.573 116.424C118.573 116.537 118.46 116.706 118.46 116.762V119.246H117.67L117.839 116.141Z" fill="#181A19"/>
<path d="M122.695 116.141C122.695 115.69 122.695 115.351 122.695 115.012H123.372V115.69C123.542 115.351 124.05 114.899 124.727 114.899C125.348 114.899 126.195 115.238 126.195 116.706V119.19H125.404V116.819C125.404 116.141 125.122 115.633 124.445 115.633C123.937 115.633 123.598 115.972 123.429 116.424C123.429 116.537 123.316 116.706 123.316 116.762V119.246H122.525L122.695 116.141Z" fill="#181A19"/>
<path d="M129.128 119.303C127.999 119.303 127.152 118.456 127.152 117.158C127.152 115.803 128.112 114.956 129.185 114.956C130.37 114.956 131.16 115.803 131.16 117.101C131.16 118.625 130.144 119.303 129.128 119.303ZM129.128 118.682C129.806 118.682 130.427 118.004 130.427 117.045C130.427 116.367 130.088 115.521 129.241 115.521C128.394 115.521 127.943 116.367 127.943 117.158C127.943 118.004 128.451 118.682 129.128 118.682Z" fill="#181A19"/>
<path d="M132.46 115.068L133.251 117.383C133.42 117.722 133.533 118.06 133.589 118.399C133.702 118.06 133.759 117.722 133.928 117.383L134.718 115.068H135.509L133.872 119.133H133.194L131.67 115.068H132.46Z" fill="#181A19"/>
<path d="M139.122 118.174C139.122 118.513 139.122 118.851 139.235 119.19H138.557L138.444 118.682C138.162 119.021 137.767 119.303 137.146 119.303C136.299 119.303 135.848 118.682 135.848 118.118C135.848 117.101 136.694 116.593 138.332 116.593V116.48C138.332 116.142 138.219 115.521 137.372 115.521C136.92 115.521 136.582 115.634 136.243 115.859L136.073 115.351C136.412 115.182 136.92 115.013 137.428 115.013C138.727 115.013 138.952 115.859 138.952 116.706V118.174C139.065 118.174 139.122 118.174 139.122 118.174ZM138.388 117.101C137.541 117.101 136.694 117.271 136.694 118.061C136.694 118.569 137.033 118.739 137.372 118.739C137.88 118.739 138.219 118.4 138.388 118.061C138.388 117.948 138.388 117.892 138.388 117.779V117.101Z" fill="#181A19"/>
<path d="M141.378 114.109V115.126H142.507V115.746H141.378V117.948C141.378 118.456 141.548 118.738 141.999 118.738C142.169 118.738 142.338 118.738 142.451 118.626V119.246C142.282 119.359 142.112 119.359 141.774 119.359C141.435 119.359 141.153 119.246 140.983 119.021C140.814 118.738 140.701 118.4 140.701 117.892V115.634H140.08V115.069H140.701V114.279L141.378 114.109Z" fill="#181A19"/>
<path d="M143.75 114.279C143.468 114.279 143.299 113.997 143.299 113.771C143.299 113.488 143.468 113.263 143.807 113.263C144.089 113.263 144.315 113.432 144.315 113.771C144.259 114.109 143.976 114.279 143.75 114.279ZM143.412 115.069H144.202V119.134H143.412V115.069Z" fill="#181A19"/>
<path d="M147.136 119.303C146.007 119.303 145.16 118.456 145.16 117.158C145.16 115.803 146.12 114.956 147.192 114.956C148.378 114.956 149.168 115.803 149.168 117.101C149.168 118.625 148.152 119.303 147.136 119.303ZM147.136 118.682C147.813 118.682 148.434 118.004 148.434 117.045C148.434 116.367 148.096 115.521 147.249 115.521C146.402 115.521 145.95 116.367 145.95 117.158C145.95 118.004 146.459 118.682 147.136 118.682Z" fill="#181A19"/>
<path d="M150.242 116.141C150.242 115.69 150.242 115.351 150.242 115.012H150.919V115.69C151.088 115.351 151.596 114.899 152.274 114.899C152.895 114.899 153.742 115.238 153.742 116.706V119.19H152.951V116.819C152.951 116.141 152.669 115.633 151.992 115.633C151.484 115.633 151.145 115.972 150.975 116.424C150.975 116.537 150.863 116.706 150.863 116.762V119.246H150.072V116.198H150.242V116.141Z" fill="#181A19"/>
<path d="M155.323 119.302C155.04 119.302 154.814 119.02 154.814 118.794C154.814 118.455 154.984 118.286 155.323 118.286C155.605 118.286 155.831 118.568 155.831 118.794C155.831 119.02 155.661 119.302 155.323 119.302Z" fill="#181A19"/>
<path d="M59.0726 83.7383V93.6173H48.2903V83.7383H44V108.182H48.2903V97.3996H59.0726V108.182H63.3064V83.7383H59.0726Z" fill="#181A19"/>
<path d="M65.8477 96.553C65.8477 104.174 69.8557 108.408 77.0251 108.408C79.3396 108.408 81.7106 107.956 83.5735 107.222L84.0251 107.053L83.517 102.989L82.8396 103.327C81.5412 104.005 79.4525 104.456 77.8154 104.456C75.3315 104.456 73.4686 103.666 72.2267 102.311C71.0412 100.843 70.4202 98.7546 70.4202 96.045C70.4202 93.3917 71.0977 87.4079 77.4767 87.4079C79.1702 87.4079 80.8638 87.6901 82.5573 88.1982L83.2347 88.3675L83.7428 84.303L83.2347 84.1901C81.3718 83.7385 79.5089 83.5127 77.8154 83.5127C70.2509 83.5691 65.8477 88.424 65.8477 96.553Z" fill="#181A19"/>
<path d="M99.0966 83.7383H94.7498L85.9434 108.182H90.3466C90.3466 108.182 92.0401 103.327 92.3224 102.762H101.468C101.75 103.44 103.443 108.182 103.443 108.182H108.185L99.0966 83.7383ZM93.5079 99.0931C93.9595 97.7947 96.2176 91.5286 96.2176 91.5286C96.3869 91.0205 96.5563 90.3431 96.7256 89.7222C96.895 90.3431 97.0643 90.9076 97.3466 91.5286C97.3466 91.6415 99.6611 97.9076 100.169 99.0931H93.5079Z" fill="#181A19"/>
<path d="M104.629 83.7383V87.4641H111.347V108.182H115.581V87.4641H122.355V83.7383H104.629Z" fill="#181A19"/>
</svg>
