<svg width="356" height="200" viewBox="0 0 356 200" fill="none" xmlns="http://www.w3.org/2000/svg">
<path d="M356 0H0V200H356V0Z" fill="#AD787B"/>
<g filter="url(#filter0_d_9_607)">
<path d="M228.757 40.7161L104.75 72.4402C100.47 73.5353 97.8877 77.8929 98.9828 82.1734L116.828 151.927C117.923 156.207 122.28 158.79 126.561 157.695L250.567 125.971C254.848 124.875 257.43 120.518 256.335 116.237L238.49 46.4838C237.395 42.2033 233.037 39.6211 228.757 40.7161Z" fill="#E7E4D7"/>
</g>
<path d="M109.687 79.56C108.117 80.41 107.257 82.25 107.727 84.07C107.807 84.4 107.927 84.7 108.087 84.99C108.937 86.57 110.777 87.42 112.597 86.96C112.927 86.88 113.237 86.75 113.517 86.6C115.087 85.75 115.947 83.91 115.477 82.09C115.397 81.76 115.277 81.46 115.117 81.17C114.267 79.59 112.427 78.74 110.607 79.2C110.277 79.28 109.967 79.41 109.687 79.56Z" fill="#D1CCB5"/>
<path d="M159.54 68.7371L124.663 77.6595C123.593 77.9332 122.947 79.0226 123.221 80.0928C123.495 81.1629 124.584 81.8084 125.654 81.5347L160.531 72.6123C161.601 72.3385 162.247 71.2491 161.973 70.179C161.699 69.1089 160.61 68.4633 159.54 68.7371Z" fill="#ADA178"/>
<path d="M194.513 76.3159L128.635 93.1693C127.565 93.4431 126.919 94.5325 127.193 95.6026C127.467 96.6727 128.556 97.3183 129.626 97.0445L195.505 80.1911C196.575 79.9174 197.22 78.8279 196.946 77.7578C196.673 76.6877 195.583 76.0422 194.513 76.3159Z" fill="#78AD85"/>
<path d="M178.912 63.7854L167.286 66.7596C166.216 67.0333 165.57 68.1227 165.844 69.1928C166.118 70.263 167.207 70.9085 168.277 70.6348L179.903 67.6606C180.973 67.3869 181.619 66.2974 181.345 65.2273C181.071 64.1572 179.982 63.5117 178.912 63.7854Z" fill="#AD787B"/>
<path d="M144.221 105.698L132.596 108.672C131.526 108.946 130.88 110.035 131.154 111.105C131.428 112.176 132.517 112.821 133.587 112.547L145.213 109.573C146.283 109.299 146.928 108.21 146.655 107.14C146.381 106.07 145.291 105.424 144.221 105.698Z" fill="#777DAD"/>
<path d="M179.095 96.7678L151.969 103.707C150.899 103.981 150.253 105.071 150.527 106.141C150.801 107.211 151.89 107.856 152.96 107.583L180.087 100.643C181.157 100.369 181.802 99.2798 181.529 98.2097C181.255 97.1396 180.165 96.494 179.095 96.7678Z" fill="#AD787B"/>
<path d="M179.182 113.257L136.555 124.162C135.485 124.436 134.839 125.526 135.113 126.596C135.387 127.666 136.476 128.311 137.547 128.038L180.174 117.132C181.244 116.859 181.889 115.769 181.616 114.699C181.342 113.629 180.252 112.983 179.182 113.257Z" fill="#78AD85"/>
<path d="M241.19 97.4021L186.938 111.281C185.868 111.555 185.222 112.645 185.496 113.715C185.77 114.785 186.859 115.43 187.929 115.157L242.182 101.277C243.252 101.004 243.898 99.9141 243.624 98.844C243.35 97.7739 242.261 97.1284 241.19 97.4021Z" fill="#ADA178"/>
<path d="M237.221 81.9001L186.843 94.788C185.773 95.0618 185.127 96.1512 185.401 97.2213C185.675 98.2914 186.764 98.937 187.834 98.6632L238.212 85.7753C239.282 85.5015 239.928 84.4121 239.654 83.342C239.38 82.2719 238.291 81.6263 237.221 81.9001Z" fill="#78AD85"/>
<path d="M233.258 66.3894L202.256 74.3205C201.186 74.5942 200.54 75.6837 200.814 76.7538C201.088 77.8239 202.177 78.4694 203.247 78.1957L234.249 70.2646C235.319 69.9909 235.965 68.9015 235.691 67.8314C235.417 66.7613 234.328 66.1157 233.258 66.3894Z" fill="#ADA178"/>
<path d="M206.407 122.808L140.529 139.662C139.458 139.935 138.813 141.025 139.087 142.095C139.36 143.165 140.45 143.811 141.52 143.537L207.398 126.683C208.468 126.41 209.114 125.32 208.84 124.25C208.566 123.18 207.477 122.534 206.407 122.808Z" fill="#777DAD"/>
<path d="M245.154 112.901L214.152 120.832C213.082 121.106 212.437 122.196 212.71 123.266C212.984 124.336 214.074 124.981 215.144 124.708L246.145 116.777C247.215 116.503 247.861 115.413 247.587 114.343C247.313 113.273 246.224 112.628 245.154 112.901Z" fill="#ADA178"/>
<path d="M229.293 50.8933L186.666 61.7985C185.596 62.0723 184.95 63.1617 185.224 64.2318C185.498 65.3019 186.587 65.9475 187.657 65.6737L230.285 54.7685C231.355 54.4948 232 53.4054 231.727 52.3353C231.453 51.2651 230.363 50.6196 229.293 50.8933Z" fill="#777DAD"/>
<path d="M113.647 95.06C112.077 95.91 111.217 97.75 111.687 99.57C111.767 99.9 111.887 100.2 112.047 100.49C112.897 102.07 114.737 102.92 116.557 102.46C116.887 102.38 117.187 102.25 117.477 102.1C119.047 101.25 119.907 99.41 119.437 97.59C119.357 97.26 119.237 96.96 119.077 96.67C118.227 95.09 116.387 94.24 114.567 94.7C114.237 94.78 113.937 94.91 113.647 95.06Z" fill="#D1CCB5"/>
<path d="M117.617 110.56C116.047 111.41 115.187 113.25 115.657 115.07C115.737 115.4 115.857 115.7 116.017 115.99C116.867 117.57 118.707 118.42 120.527 117.96C120.857 117.88 121.167 117.75 121.447 117.6C123.017 116.75 123.877 114.91 123.407 113.09C123.327 112.76 123.207 112.46 123.047 112.17C122.197 110.59 120.357 109.74 118.537 110.2C118.207 110.28 117.897 110.41 117.617 110.56Z" fill="#D1CCB5"/>
<path d="M121.577 126.06C120.007 126.91 119.147 128.75 119.617 130.57C119.697 130.9 119.817 131.2 119.977 131.49C120.827 133.07 122.667 133.92 124.487 133.46C124.817 133.38 125.117 133.25 125.407 133.1C126.977 132.25 127.837 130.41 127.367 128.59C127.287 128.26 127.167 127.96 127.007 127.67C126.157 126.09 124.317 125.24 122.497 125.7C122.167 125.78 121.857 125.91 121.577 126.06Z" fill="#D1CCB5"/>
<path d="M125.547 141.56C123.977 142.41 123.117 144.25 123.587 146.07C123.667 146.4 123.787 146.7 123.947 146.99C124.797 148.57 126.637 149.42 128.457 148.96C128.787 148.88 129.097 148.75 129.377 148.6C130.947 147.75 131.807 145.91 131.337 144.09C131.257 143.76 131.137 143.46 130.977 143.17C130.127 141.59 128.287 140.74 126.467 141.2C126.137 141.28 125.827 141.41 125.547 141.56Z" fill="#D1CCB5"/>
<g filter="url(#filter1_d_9_607)">
<path d="M156.031 31.0112L116.105 33.4322C113.9 33.5659 112.22 35.4619 112.354 37.667L113.807 61.623C113.94 63.8281 115.836 65.5073 118.042 65.3735L157.968 62.9525C160.173 62.8188 161.852 60.9228 161.719 58.7177L160.266 34.7617C160.132 32.5567 158.236 30.8775 156.031 31.0112Z" fill="#777DAD"/>
</g>
<path d="M128.637 40.4499C128.547 40.4299 128.447 40.4499 128.387 40.5199L120.887 48.9899C120.887 48.9899 120.837 49.0599 120.827 49.0899C120.807 49.1799 120.827 49.2799 120.907 49.3399L129.377 56.8399L129.477 56.8899C129.567 56.9099 129.667 56.8899 129.727 56.8099C129.757 56.7799 129.777 56.7399 129.787 56.7099C129.807 56.6199 129.787 56.5199 129.707 56.4599L121.427 49.1199L128.767 40.8399C128.767 40.8399 128.817 40.7699 128.827 40.7399C128.847 40.6499 128.827 40.5499 128.747 40.4899L128.647 40.4399" fill="#383D75"/>
<path d="M144.607 39.48C144.517 39.46 144.417 39.48 144.357 39.56C144.327 39.59 144.307 39.63 144.307 39.66C144.287 39.75 144.307 39.85 144.387 39.91L152.667 47.25L145.327 55.53C145.327 55.53 145.277 55.6 145.277 55.63C145.257 55.72 145.277 55.82 145.357 55.88L145.457 55.93C145.547 55.95 145.647 55.93 145.707 55.85L153.207 47.38C153.207 47.38 153.257 47.31 153.257 47.28C153.277 47.19 153.257 47.09 153.177 47.03L144.707 39.53L144.607 39.48Z" fill="#383D75"/>
<path d="M140.607 39.72C140.487 39.69 140.367 39.75 140.317 39.87L133.297 56.32C133.297 56.32 133.297 56.34 133.287 56.36C133.257 56.48 133.317 56.6 133.427 56.65H133.457C133.577 56.69 133.697 56.63 133.747 56.52L140.767 40.07C140.767 40.07 140.767 40.05 140.777 40.03C140.807 39.91 140.747 39.79 140.637 39.74H140.597" fill="#383D75"/>
<g filter="url(#filter2_d_9_607)">
<path d="M238.798 143.022L200.255 132.326C198.126 131.735 195.922 132.982 195.331 135.111L188.913 158.237C188.322 160.365 189.569 162.57 191.698 163.161L230.241 173.857C232.37 174.448 234.574 173.201 235.165 171.072L241.583 147.946C242.174 145.818 240.927 143.613 238.798 143.022Z" fill="#78AD85"/>
</g>
<path d="M224.927 148.25C224.927 148.25 224.907 148.25 224.887 148.24C223.807 147.94 222.867 148.13 222.097 148.8C221.587 149.25 221.167 149.9 220.847 150.75C220.767 150.98 220.687 151.22 220.617 151.47C220.617 151.47 220.427 152.13 220.157 152.87C220.097 153.02 220.037 153.18 219.977 153.34C219.437 154.65 219.047 154.92 218.897 154.88C218.767 154.85 218.637 154.91 218.597 155.03V155.05C218.557 155.18 218.627 155.31 218.747 155.35H218.777C219.147 155.5 219.017 157.27 218.487 159.17C218.157 160.37 218.117 161.4 218.377 162.22C218.657 163.08 219.247 163.69 220.137 164.02C220.247 164.06 220.367 164.1 220.487 164.13C220.607 164.16 220.737 164.1 220.787 163.98V163.96C220.817 163.84 220.767 163.71 220.647 163.66C220.647 163.66 220.627 163.66 220.617 163.66C220.517 163.63 220.417 163.6 220.317 163.56C219.577 163.28 219.087 162.78 218.857 162.07C218.627 161.34 218.667 160.41 218.967 159.31C219.187 158.51 219.767 156.21 219.317 155.27C219.687 155.04 220.047 154.47 220.437 153.53C220.507 153.37 220.567 153.21 220.627 153.05C220.907 152.3 221.097 151.64 221.107 151.6C221.177 151.36 221.247 151.13 221.327 150.92C221.617 150.16 221.987 149.57 222.437 149.18C223.067 148.63 223.847 148.47 224.767 148.73C224.897 148.76 225.027 148.7 225.067 148.57C225.067 148.57 225.067 148.56 225.067 148.55C225.097 148.43 225.057 148.3 224.927 148.25Z" fill="#387545"/>
<path d="M229.087 149.42C228.977 149.38 228.867 149.34 228.747 149.31C228.617 149.28 228.487 149.34 228.447 149.47C228.447 149.47 228.447 149.48 228.447 149.49C228.417 149.62 228.467 149.74 228.607 149.79C228.607 149.79 228.617 149.79 228.627 149.79C228.737 149.82 228.837 149.85 228.937 149.89C230.807 150.59 230.707 152.57 230.277 154.14C230.267 154.18 230.007 155.13 229.857 156.13C229.707 157.13 229.727 157.81 229.917 158.2C229.397 158.55 228.947 159.5 228.607 160.38C228.387 160.97 228.217 161.53 228.127 161.85C228.067 162.08 227.987 162.3 227.907 162.53C227.377 163.95 226.367 165.25 224.477 164.73C224.357 164.7 224.227 164.76 224.177 164.88V164.9C224.147 165.03 224.207 165.16 224.327 165.2H224.347C226.167 165.71 227.577 164.83 228.377 162.71C228.467 162.48 228.547 162.24 228.617 161.98C228.757 161.49 228.907 161.02 229.067 160.6C229.537 159.35 230.057 158.49 230.347 158.57C230.477 158.6 230.607 158.54 230.647 158.42V158.4C230.687 158.28 230.647 158.15 230.517 158.1C230.507 158.1 230.497 158.1 230.477 158.09C230.317 158.03 230.157 157.59 230.357 156.21C230.497 155.24 230.767 154.29 230.767 154.28C231.457 151.79 230.867 150.09 229.107 149.43" fill="#387545"/>
<path d="M205.657 142.9C205.657 142.9 205.637 142.9 205.617 142.89L201.527 141.75L197.117 157.65L201.217 158.79C201.347 158.82 201.467 158.76 201.517 158.64V158.62C201.547 158.5 201.497 158.37 201.377 158.32C201.377 158.32 201.357 158.32 201.347 158.32L197.737 157.32L201.887 142.38L205.497 143.38C205.627 143.41 205.747 143.35 205.797 143.23V143.21C205.827 143.09 205.787 142.96 205.657 142.91" fill="#387545"/>
<path d="M213.567 145.1L209.467 143.96C209.337 143.93 209.217 143.99 209.167 144.11V144.13C209.137 144.25 209.177 144.38 209.297 144.43C209.307 144.43 209.327 144.43 209.337 144.44L212.947 145.44L208.797 160.37L205.187 159.37C205.057 159.34 204.937 159.4 204.887 159.52V159.54C204.857 159.67 204.917 159.8 205.037 159.84H205.057L209.157 160.98L213.567 145.08" fill="#387545"/>
<defs>
<filter id="filter0_d_9_607" x="98.7312" y="40.4646" width="161.855" height="121.482" filterUnits="userSpaceOnUse" color-interpolation-filters="sRGB">
<feFlood flood-opacity="0" result="BackgroundImageFix"/>
<feColorMatrix in="SourceAlpha" type="matrix" values="0 0 0 0 0 0 0 0 0 0 0 0 0 0 0 0 0 0 127 0" result="hardAlpha"/>
<feOffset dx="4" dy="4"/>
<feColorMatrix type="matrix" values="0 0 0 0 0.0941176 0 0 0 0 0.101961 0 0 0 0 0.0980392 0 0 0 1 0"/>
<feBlend mode="normal" in2="BackgroundImageFix" result="effect1_dropShadow_9_607"/>
<feBlend mode="normal" in="SourceGraphic" in2="effect1_dropShadow_9_607" result="shape"/>
</filter>
<filter id="filter1_d_9_607" x="112.347" y="31.0037" width="51.3795" height="37.3773" filterUnits="userSpaceOnUse" color-interpolation-filters="sRGB">
<feFlood flood-opacity="0" result="BackgroundImageFix"/>
<feColorMatrix in="SourceAlpha" type="matrix" values="0 0 0 0 0 0 0 0 0 0 0 0 0 0 0 0 0 0 127 0" result="hardAlpha"/>
<feOffset dx="2" dy="3"/>
<feColorMatrix type="matrix" values="0 0 0 0 0.0941176 0 0 0 0 0.101961 0 0 0 0 0.0980392 0 0 0 1 0"/>
<feBlend mode="normal" in2="BackgroundImageFix" result="effect1_dropShadow_9_607"/>
<feBlend mode="normal" in="SourceGraphic" in2="effect1_dropShadow_9_607" result="shape"/>
</filter>
<filter id="filter2_d_9_607" x="188.766" y="132.179" width="54.9631" height="44.8242" filterUnits="userSpaceOnUse" color-interpolation-filters="sRGB">
<feFlood flood-opacity="0" result="BackgroundImageFix"/>
<feColorMatrix in="SourceAlpha" type="matrix" values="0 0 0 0 0 0 0 0 0 0 0 0 0 0 0 0 0 0 127 0" result="hardAlpha"/>
<feOffset dx="2" dy="3"/>
<feColorMatrix type="matrix" values="0 0 0 0 0.0941176 0 0 0 0 0.101961 0 0 0 0 0.0980392 0 0 0 1 0"/>
<feBlend mode="normal" in2="BackgroundImageFix" result="effect1_dropShadow_9_607"/>
<feBlend mode="normal" in="SourceGraphic" in2="effect1_dropShadow_9_607" result="shape"/>
</filter>
</defs>
</svg>
