<?xml version="1.0" encoding="UTF-8"?>
<svg id="Illustration_x5F_Strategy-Concept" xmlns="http://www.w3.org/2000/svg" xmlns:xlink="http://www.w3.org/1999/xlink" viewBox="0 0 200 200">
  <defs>
    <filter id="drop-shadow-18" filterUnits="userSpaceOnUse">
      <feOffset dx="4" dy="4"/>
      <feGaussianBlur result="blur" stdDeviation="0"/>
      <feFlood flood-color="#181a19" flood-opacity="1"/>
      <feComposite in2="blur" operator="in"/>
      <feComposite in="SourceGraphic"/>
    </filter>
    <filter id="drop-shadow-18-1" x="31.87" y="31.88" width="140.05" height="140.05" filterUnits="userSpaceOnUse">
      <feOffset dx="4" dy="4"/>
      <feGaussianBlur result="blur-2" stdDeviation="0"/>
      <feFlood flood-color="#181a19" flood-opacity="1"/>
      <feComposite in2="blur-2" operator="in"/>
      <feComposite in="SourceGraphic"/>
    </filter>
    <filter id="drop-shadow-19" x="121.99" y="122.89" width="10.06" height="11.06" filterUnits="userSpaceOnUse">
      <feOffset dx="2" dy="3"/>
      <feGaussianBlur result="blur-3" stdDeviation="0"/>
      <feFlood flood-color="#181a19" flood-opacity="1"/>
      <feComposite in2="blur-3" operator="in"/>
      <feComposite in="SourceGraphic"/>
    </filter>
    <filter id="drop-shadow-20" x="130.48" y="106.03" width="10.06" height="11.06" filterUnits="userSpaceOnUse">
      <feOffset dx="2" dy="3"/>
      <feGaussianBlur result="blur-4" stdDeviation="0"/>
      <feFlood flood-color="#181a19" flood-opacity="1"/>
      <feComposite in2="blur-4" operator="in"/>
      <feComposite in="SourceGraphic"/>
    </filter>
    <filter id="drop-shadow-21" x="162.01" y="78.02" width="10.06" height="11.06" filterUnits="userSpaceOnUse">
      <feOffset dx="2" dy="3"/>
      <feGaussianBlur result="blur-5" stdDeviation="0"/>
      <feFlood flood-color="#181a19" flood-opacity="1"/>
      <feComposite in2="blur-5" operator="in"/>
      <feComposite in="SourceGraphic"/>
    </filter>
    <filter id="drop-shadow-22" x="88.13" y="91.06" width="10.06" height="11.06" filterUnits="userSpaceOnUse">
      <feOffset dx="2" dy="3"/>
      <feGaussianBlur result="blur-6" stdDeviation="0"/>
      <feFlood flood-color="#181a19" flood-opacity="1"/>
      <feComposite in2="blur-6" operator="in"/>
      <feComposite in="SourceGraphic"/>
    </filter>
  </defs>
  <rect width="200" height="200" style="fill: #777dad;"/>
  <rect x="41.89" y="41.91" width="116" height="116" rx="8" ry="8" transform="translate(-20.03 25.21) rotate(-13.09)" style="fill: #e7e4d7; filter: url(#drop-shadow-18-1);"/>
  <g>
    <path d="M127.17,39.31h12.89v12.89h-10.89c-1.1,0-2-.9-2-2v-10.89h0Z" transform="translate(274.13 60.07) rotate(166.91)" style="fill: #ada178;"/>
    <polyline points="116.25 56.41 128.8 53.49 125.88 40.94 113.33 43.86 116.25 56.41" style="fill: #d1ccb5;"/>
    <rect x="102.07" y="45.15" width="12.89" height="12.89" transform="translate(225.88 77.28) rotate(166.91)" style="fill: #ada178;"/>
    <polyline points="91.14 62.25 103.69 59.33 100.77 46.77 88.22 49.69 91.14 62.25" style="fill: #d1ccb5;"/>
    <rect x="76.96" y="50.98" width="12.89" height="12.89" transform="translate(177.64 94.48) rotate(166.91)" style="fill: #ada178;"/>
    <polyline points="66.03 68.08 78.58 65.16 75.67 52.61 63.11 55.53 66.03 68.08" style="fill: #d1ccb5;"/>
    <rect x="51.85" y="56.82" width="12.89" height="12.89" transform="translate(129.4 111.69) rotate(166.91)" style="fill: #ada178;"/>
    <path d="M40.92,73.92l12.55-2.92-2.92-12.55-10.61,2.47c-1.08.25-1.75,1.32-1.5,2.4l2.47,10.61" style="fill: #d1ccb5;"/>
    <rect x="133.01" y="64.42" width="12.89" height="12.89" transform="translate(291.33 108.31) rotate(166.91)" style="fill: #ada178;"/>
    <polyline points="122.08 81.52 134.64 78.6 131.72 66.05 119.16 68.96 122.08 81.52" style="fill: #d1ccb5;"/>
    <rect x="107.9" y="70.26" width="12.89" height="12.89" transform="translate(243.09 125.52) rotate(166.91)" style="fill: #ada178;"/>
    <polyline points="96.97 87.35 109.53 84.44 106.61 71.88 94.06 74.8 96.97 87.35" style="fill: #d1ccb5;"/>
    <rect x="82.79" y="76.09" width="12.89" height="12.89" transform="translate(194.85 142.73) rotate(166.91)" style="fill: #ada178;"/>
    <polyline points="71.87 93.19 84.42 90.27 81.5 77.72 68.95 80.64 71.87 93.19" style="fill: #d1ccb5;"/>
    <rect x="57.69" y="81.93" width="12.89" height="12.89" transform="translate(146.6 159.93) rotate(166.91)" style="fill: #ada178;"/>
    <polyline points="46.76 99.03 59.31 96.11 56.39 83.56 43.84 86.47 46.76 99.03" style="fill: #d1ccb5;"/>
    <rect x="138.85" y="89.53" width="12.89" height="12.89" transform="translate(308.54 156.56) rotate(166.91)" style="fill: #ada178;"/>
    <polyline points="127.92 106.63 140.47 103.71 137.55 91.15 125 94.07 127.92 106.63" style="fill: #d1ccb5;"/>
    <rect x="113.74" y="95.36" width="12.89" height="12.89" transform="translate(260.29 173.76) rotate(166.91)" style="fill: #ada178;"/>
    <polyline points="102.81 112.46 115.36 109.54 112.45 96.99 99.89 99.91 102.81 112.46" style="fill: #d1ccb5;"/>
    <rect x="88.63" y="101.2" width="12.89" height="12.89" transform="translate(212.05 190.97) rotate(166.91)" style="fill: #ada178;"/>
    <polyline points="77.7 118.3 90.26 115.38 87.34 102.83 74.78 105.75 77.7 118.3" style="fill: #d1ccb5;"/>
    <rect x="63.52" y="107.04" width="12.89" height="12.89" transform="translate(163.81 208.17) rotate(166.91)" style="fill: #ada178;"/>
    <polyline points="52.59 124.14 65.15 121.22 62.23 108.66 49.68 111.58 52.59 124.14" style="fill: #d1ccb5;"/>
    <rect x="144.68" y="114.64" width="12.89" height="12.89" transform="translate(325.74 204.8) rotate(166.91)" style="fill: #ada178;"/>
    <polyline points="133.76 131.73 146.31 128.82 143.39 116.26 130.84 119.18 133.76 131.73" style="fill: #d1ccb5;"/>
    <rect x="119.57" y="120.47" width="12.89" height="12.89" transform="translate(277.5 222.01) rotate(166.91)" style="fill: #ada178;"/>
    <polyline points="108.65 137.57 121.2 134.65 118.28 122.1 105.73 125.02 108.65 137.57" style="fill: #d1ccb5;"/>
    <rect x="94.47" y="126.31" width="12.89" height="12.89" transform="translate(229.26 239.21) rotate(166.91)" style="fill: #ada178;"/>
    <polyline points="83.54 143.41 96.09 140.49 93.17 127.94 80.62 130.85 83.54 143.41" style="fill: #d1ccb5;"/>
    <rect x="69.36" y="132.15" width="12.89" height="12.89" transform="translate(181.01 256.42) rotate(166.91)" style="fill: #ada178;"/>
    <polyline points="58.43 149.24 70.98 146.33 68.07 133.77 55.51 136.69 58.43 149.24" style="fill: #d1ccb5;"/>
    <rect x="42.21" y="72.29" width="12.89" height="12.89" transform="translate(-16.56 13.06) rotate(-13.09)" style="fill: #ada178;"/>
    <polyline points="66.03 68.08 53.48 71 56.39 83.55 68.95 80.64 66.03 68.08" style="fill: #d1ccb5;"/>
    <rect x="67.32" y="66.46" width="12.89" height="12.89" transform="translate(-14.59 18.59) rotate(-13.09)" style="fill: #ada178;"/>
    <polyline points="91.14 62.25 78.58 65.16 81.5 77.72 94.06 74.8 91.14 62.25" style="fill: #d1ccb5;"/>
    <rect x="92.43" y="60.62" width="12.89" height="12.89" transform="translate(-12.62 24.13) rotate(-13.09)" style="fill: #ada178;"/>
    <polyline points="116.25 56.41 103.69 59.33 106.61 71.88 119.16 68.96 116.25 56.41" style="fill: #d1ccb5;"/>
    <rect x="117.54" y="54.78" width="12.89" height="12.89" transform="translate(-10.64 29.66) rotate(-13.09)" style="fill: #ada178;"/>
    <polyline points="141.35 50.57 128.8 53.49 131.72 66.05 144.27 63.13 141.35 50.57" style="fill: #d1ccb5;"/>
    <rect x="48.05" y="97.4" width="12.89" height="12.89" transform="translate(-22.1 15.03) rotate(-13.09)" style="fill: #ada178;"/>
    <polyline points="71.87 93.19 59.31 96.11 62.23 108.66 74.78 105.74 71.87 93.19" style="fill: #d1ccb5;"/>
    <rect x="73.16" y="91.56" width="12.89" height="12.89" transform="translate(-20.12 20.57) rotate(-13.09)" style="fill: #ada178;"/>
    <polyline points="96.97 87.35 84.42 90.27 87.34 102.83 99.89 99.91 96.97 87.35" style="fill: #d1ccb5;"/>
    <rect x="98.27" y="85.73" width="12.89" height="12.89" transform="translate(-18.15 26.1) rotate(-13.09)" style="fill: #ada178;"/>
    <polyline points="122.08 81.52 109.53 84.44 112.45 96.99 125 94.07 122.08 81.52" style="fill: #d1ccb5;"/>
    <rect x="123.37" y="79.89" width="12.89" height="12.89" transform="translate(-16.18 31.63) rotate(-13.09)" style="fill: #ada178;"/>
    <polyline points="147.19 75.68 134.64 78.6 137.55 91.15 150.11 88.24 147.19 75.68" style="fill: #d1ccb5;"/>
    <rect x="53.89" y="122.51" width="12.89" height="12.89" transform="translate(-27.63 17.01) rotate(-13.09)" style="fill: #ada178;"/>
    <polyline points="77.7 118.3 65.15 121.22 68.07 133.77 80.62 130.85 77.7 118.3" style="fill: #d1ccb5;"/>
    <rect x="78.99" y="116.67" width="12.89" height="12.89" transform="translate(-25.66 22.54) rotate(-13.09)" style="fill: #ada178;"/>
    <polyline points="102.81 112.46 90.26 115.38 93.17 127.94 105.73 125.02 102.81 112.46" style="fill: #d1ccb5;"/>
    <rect x="104.1" y="110.84" width="12.89" height="12.89" transform="translate(-23.68 28.07) rotate(-13.09)" style="fill: #ada178;"/>
    <polyline points="127.92 106.63 115.36 109.55 118.28 122.1 130.84 119.18 127.92 106.63" style="fill: #d1ccb5;"/>
    <rect x="129.21" y="105" width="12.89" height="12.89" transform="translate(-21.71 33.61) rotate(-13.09)" style="fill: #ada178;"/>
    <polyline points="153.03 100.79 140.47 103.71 143.39 116.26 155.95 113.34 153.03 100.79" style="fill: #d1ccb5;"/>
    <path d="M59.72,147.62h12.89v12.89h-10.89c-1.1,0-2-.9-2-2v-10.89h0Z" transform="translate(-33.16 18.98) rotate(-13.09)" style="fill: #ada178;"/>
    <polyline points="83.54 143.41 70.98 146.33 73.9 158.88 86.46 155.96 83.54 143.41" style="fill: #d1ccb5;"/>
    <rect x="84.83" y="141.78" width="12.89" height="12.89" transform="translate(-31.19 24.51) rotate(-13.09)" style="fill: #ada178;"/>
    <polyline points="108.65 137.57 96.09 140.49 99.01 153.04 111.56 150.13 108.65 137.57" style="fill: #d1ccb5;"/>
    <rect x="109.94" y="135.94" width="12.89" height="12.89" transform="translate(-29.22 30.05) rotate(-13.09)" style="fill: #ada178;"/>
    <polyline points="133.76 131.74 121.2 134.65 124.12 147.21 136.67 144.29 133.76 131.74" style="fill: #d1ccb5;"/>
    <rect x="135.05" y="130.11" width="12.89" height="12.89" transform="translate(-27.24 35.58) rotate(-13.09)" style="fill: #ada178;"/>
    <path d="M158.86,125.9l-12.55,2.92,2.92,12.55,10.61-2.47c1.08-.25,1.75-1.32,1.5-2.4l-2.47-10.61" style="fill: #d1ccb5;"/>
  </g>
  <g style="filter: url(#drop-shadow-19);">
    <circle cx="126.02" cy="126.92" r="4.03" style="fill: #777dad;"/>
    <path d="M125.47,124.56c-1.3.3-2.11,1.6-1.81,2.9s1.6,2.11,2.9,1.81,2.11-1.6,1.81-2.9-1.6-2.11-2.9-1.81" style="fill: #383d75;"/>
  </g>
  <g style="filter: url(#drop-shadow-20);">
    <circle cx="134.51" cy="110.06" r="4.03" style="fill: #777dad;"/>
    <path d="M133.96,107.7c-1.3.3-2.11,1.6-1.81,2.9s1.6,2.11,2.9,1.81,2.11-1.6,1.81-2.9-1.6-2.11-2.9-1.81" style="fill: #383d75;"/>
  </g>
  <g style="filter: url(#drop-shadow-21);">
    <circle cx="166.04" cy="82.05" r="4.03" style="fill: #777dad;"/>
    <path d="M165.49,79.7c-1.3.3-2.11,1.6-1.81,2.9s1.6,2.11,2.9,1.81,2.11-1.6,1.81-2.9-1.6-2.11-2.9-1.81" style="fill: #383d75;"/>
  </g>
  <g style="filter: url(#drop-shadow-22);">
    <circle cx="92.16" cy="95.09" r="4.03" style="fill: #777dad;"/>
    <path d="M91.61,92.74c-1.3.3-2.11,1.6-1.81,2.9s1.6,2.11,2.9,1.81,2.11-1.6,1.81-2.9-1.6-2.11-2.9-1.81" style="fill: #383d75;"/>
  </g>
  <g>
    <path d="M70.17,89.45c.5,2.17-.84,4.33-3.01,4.84s-4.33-.84-4.84-3.01.84-4.33,3.01-4.83,4.33.84,4.84,3.01" style="fill: #181a19;"/>
    <path d="M68.05,87.46c.5,2.17-.84,4.33-3.01,4.84s-4.33-.84-4.84-3.01.84-4.33,3.01-4.83,4.33.84,4.84,3.01" style="fill: #ad787b;"/>
    <path d="M63.58,86.02c-1.3.3-2.11,1.6-1.81,2.9s1.6,2.11,2.9,1.81,2.11-1.6,1.81-2.9-1.6-2.11-2.9-1.81" style="fill: #75383b;"/>
  </g>
  <g>
    <path d="M38.49,102.6c.5,2.17-.84,4.33-3.01,4.84s-4.33-.84-4.84-3.01.84-4.33,3.01-4.83,4.33.84,4.84,3.01" style="fill: #181a19;"/>
    <path d="M36.37,100.61c.5,2.17-.84,4.33-3.01,4.84s-4.33-.84-4.84-3.01.84-4.33,3.01-4.83,4.33.84,4.84,3.01" style="fill: #ad787b;"/>
    <path d="M31.9,99.17c-1.3.3-2.11,1.6-1.81,2.9s1.6,2.11,2.9,1.81,2.11-1.6,1.81-2.9-1.6-2.11-2.9-1.81" style="fill: #75383b;"/>
  </g>
  <g>
    <path d="M33.89,115.11c.5,2.17-.84,4.33-3.01,4.84s-4.33-.84-4.84-3.01.84-4.33,3.01-4.83,4.33.84,4.84,3.01" style="fill: #181a19;"/>
    <path d="M31.78,113.12c.5,2.17-.84,4.33-3.01,4.84s-4.33-.84-4.84-3.01.84-4.33,3.01-4.83,4.33.84,4.84,3.01" style="fill: #ad787b;"/>
    <path d="M27.31,111.67c-1.3.3-2.11,1.6-1.81,2.9s1.6,2.11,2.9,1.81,2.11-1.6,1.81-2.9-1.6-2.11-2.9-1.81" style="fill: #75383b;"/>
  </g>
  <g>
    <path d="M130.02,62.31c.5,2.17-.84,4.33-3.01,4.84s-4.33-.84-4.84-3.01.84-4.33,3.01-4.83,4.33.84,4.84,3.01" style="fill: #181a19;"/>
    <path d="M127.91,60.32c.5,2.17-.84,4.33-3.01,4.84s-4.33-.84-4.84-3.01.84-4.33,3.01-4.83,4.33.84,4.84,3.01" style="fill: #ad787b;"/>
    <path d="M123.44,58.87c-1.3.3-2.11,1.6-1.81,2.9s1.6,2.11,2.9,1.81,2.11-1.6,1.81-2.9-1.6-2.11-2.9-1.81" style="fill: #75383b;"/>
  </g>
  <g>
    <path d="M76.01,114.56c.5,2.17-.84,4.33-3.01,4.84s-4.33-.84-4.84-3.01.84-4.33,3.01-4.83,4.33.84,4.84,3.01" style="fill: #181a19;"/>
    <path d="M73.89,112.57c.5,2.17-.84,4.33-3.01,4.84s-4.33-.84-4.84-3.01.84-4.33,3.01-4.83,4.33.84,4.84,3.01" style="fill: #ad787b;"/>
    <path d="M69.42,111.13c-1.3.3-2.11,1.6-1.81,2.9s1.6,2.11,2.9,1.81,2.11-1.6,1.81-2.9-1.6-2.11-2.9-1.81" style="fill: #75383b;"/>
  </g>
</svg>