<svg width="356" height="200" viewBox="0 0 356 200" fill="none" xmlns="http://www.w3.org/2000/svg">
<path d="M356 0H0V200H356V0Z" fill="#AD787B"/>
<g filter="url(#filter0_d_9_1632)">
<path d="M229.44 134.752H117.44C113.02 134.752 109.44 131.172 109.44 126.752V62.7522C109.44 58.3322 113.02 54.7522 117.44 54.7522H229.44C233.86 54.7522 237.44 58.3322 237.44 62.7522V126.752C237.44 131.172 233.86 134.752 229.44 134.752Z" fill="#E7E4D7"/>
<path d="M230.44 58.7522H116.44C114.78 58.7522 113.44 59.9422 113.44 61.4222V120.092C113.44 121.562 114.78 122.762 116.44 122.762H230.44C232.1 122.762 233.44 121.572 233.44 120.092V61.4222C233.44 59.9522 232.1 58.7522 230.44 58.7522Z" fill="#D1CCB5"/>
</g>
<g filter="url(#filter1_d_9_1632)">
<path d="M189.44 134.752H157.44V142.752H189.44V134.752Z" fill="#ADA178"/>
</g>
<g filter="url(#filter2_d_9_1632)">
<path d="M200.61 158.752H146.27C144.49 158.752 143.6 156.602 144.86 155.342L157.45 142.752H189.45L202.04 155.342C203.3 156.602 202.41 158.752 200.63 158.752H200.61Z" fill="#D1CCB5"/>
</g>
<g filter="url(#filter3_d_9_1632)">
<path d="M150.834 100.854L152.119 99.3212L106.143 60.77L104.858 62.3025L150.834 100.854Z" fill="#777DAD"/>
<path d="M149.54 102.372L150.83 100.842L104.86 62.2822L103.57 63.8222L149.54 102.372Z" fill="#383D75"/>
<path d="M146.97 105.432L148.26 103.902L102.29 65.3523L101 66.8823L146.97 105.432Z" fill="#383D75"/>
<path d="M148.259 103.904L149.544 102.372L103.568 63.8204L102.283 65.3529L148.259 103.904Z" fill="#777DAD"/>
<path d="M155.67 107.512L152.11 99.3022L146.97 105.432L155.67 107.512Z" fill="#E7E4D7"/>
<mask id="mask0_9_1632" style="mask-type:luminance" maskUnits="userSpaceOnUse" x="146" y="99" width="10" height="9">
<path d="M155.67 107.512L152.11 99.3022L146.97 105.432L155.67 107.512Z" fill="white"/>
</mask>
<g mask="url(#mask0_9_1632)">
<path d="M154.66 104.052L152.09 107.112L156.44 108.152L154.66 104.052Z" fill="#ADA178"/>
</g>
</g>
<g filter="url(#filter4_d_9_1632)">
<path d="M178.8 62.8221L170.73 95.8521L178.5 97.7521L186.58 64.7221L178.8 62.8221Z" fill="#78AD85"/>
<path d="M177.25 90.2321L177.15 90.6421L172.29 89.4521L172.4 89.0421L177.25 90.2321Z" fill="#387545"/>
<path d="M174.91 91.4021L174.81 91.8221L171.89 91.1021L171.99 90.6921L174.91 91.4021Z" fill="#387545"/>
<path d="M174.1 94.7022L174 95.1222L171.08 94.4122L171.18 93.9922L174.1 94.7022Z" fill="#387545"/>
<path d="M174.5 93.0522L174.4 93.4722L171.49 92.7522L171.59 92.3422L174.5 93.0522Z" fill="#387545"/>
<path d="M176.52 84.8022L176.42 85.2122L173.51 84.5022L173.61 84.0822L176.52 84.8022Z" fill="#387545"/>
<path d="M175.71 88.1021L175.61 88.5121L172.7 87.8021L172.8 87.3921L175.71 88.1021Z" fill="#387545"/>
<path d="M176.12 86.4522L176.02 86.8622L173.1 86.1522L173.2 85.7422L176.12 86.4522Z" fill="#387545"/>
<path d="M178.14 78.1922L178.03 78.6022L175.12 77.8922L175.22 77.4822L178.14 78.1922Z" fill="#387545"/>
<path d="M177.33 81.4921L177.23 81.9121L174.31 81.1921L174.41 80.7821L177.33 81.4921Z" fill="#387545"/>
<path d="M177.73 79.8421L177.63 80.2621L174.72 79.5421L174.82 79.1321L177.73 79.8421Z" fill="#387545"/>
<path d="M179.75 71.5922L179.65 72.0022L176.74 71.2922L176.84 70.8722L179.75 71.5922Z" fill="#387545"/>
<path d="M178.94 74.8921L178.84 75.3021L175.93 74.5921L176.03 74.1821L178.94 74.8921Z" fill="#387545"/>
<path d="M179.35 73.2421L179.25 73.6521L176.33 72.9421L176.43 72.5221L179.35 73.2421Z" fill="#387545"/>
<path d="M181.37 64.9821L181.26 65.3921L178.35 64.6821L178.45 64.2721L181.37 64.9821Z" fill="#387545"/>
<path d="M180.56 68.2821L180.46 68.7021L177.54 67.9821L177.64 67.5721L180.56 68.2821Z" fill="#387545"/>
<path d="M180.96 66.6321L180.86 67.0421L177.95 66.3321L178.05 65.9221L180.96 66.6321Z" fill="#387545"/>
<path d="M175.64 96.8321L175.59 97.0421L170.73 95.8521L170.78 95.6421L175.64 96.8321Z" fill="#387545"/>
<path d="M183.66 64.0121L183.61 64.2221L178.75 63.0321L178.8 62.8221L183.66 64.0121Z" fill="#387545"/>
<path d="M178.87 83.6221L178.77 84.0321L173.91 82.8521L174.01 82.4321L178.87 83.6221Z" fill="#387545"/>
<path d="M180.48 77.0122L180.38 77.4322L175.52 76.2421L175.63 75.8322L180.48 77.0122Z" fill="#387545"/>
<path d="M182.1 70.4122L182 70.8222L177.14 69.6322L177.24 69.2222L182.1 70.4122Z" fill="#387545"/>
<path d="M187.85 30.0322L193.68 31.4522C194.22 31.5822 194.55 32.1222 194.41 32.6622L186.57 64.7222L178.8 62.8222L186.64 30.7622C186.77 30.2222 187.31 29.8922 187.85 30.0322ZM190.29 32.6922C189.75 32.5622 189.21 32.8922 189.08 33.4222C188.95 33.9522 189.28 34.5022 189.81 34.6322C190.34 34.7622 190.89 34.4322 191.02 33.9022C191.15 33.3722 190.82 32.8222 190.29 32.6922Z" fill="#78AD85"/>
<path d="M185.33 57.2022L185.23 57.6122L180.37 56.4222L180.47 56.0122L185.33 57.2022Z" fill="#387545"/>
<path d="M182.98 58.3722L182.88 58.7922L179.96 58.0822L180.07 57.6622L182.98 58.3722Z" fill="#387545"/>
<path d="M182.17 61.6822L182.07 62.0922L179.16 61.3822L179.26 60.9622L182.17 61.6822Z" fill="#387545"/>
<path d="M182.58 60.0323L182.48 60.4423L179.56 59.7323L179.66 59.3123L182.58 60.0323Z" fill="#387545"/>
<path d="M184.59 51.7723L184.49 52.1823L181.58 51.4723L181.68 51.0623L184.59 51.7723Z" fill="#387545"/>
<path d="M183.79 55.0722L183.69 55.4822L180.77 54.7722L180.87 54.3622L183.79 55.0722Z" fill="#387545"/>
<path d="M184.19 53.4222L184.09 53.8322L181.18 53.1222L181.28 52.7122L184.19 53.4222Z" fill="#387545"/>
<path d="M186.21 45.1621L186.11 45.5821L183.19 44.8621L183.29 44.4521L186.21 45.1621Z" fill="#387545"/>
<path d="M185.4 48.4722L185.3 48.8822L182.39 48.1722L182.49 47.7522L185.4 48.4722Z" fill="#387545"/>
<path d="M185.81 46.8222L185.7 47.2322L182.79 46.5222L182.89 46.1022L185.81 46.8222Z" fill="#387545"/>
<path d="M187.82 38.5622L187.72 38.9722L184.81 38.2622L184.91 37.8522L187.82 38.5622Z" fill="#387545"/>
<path d="M187.02 41.8622L186.92 42.2722L184 41.5622L184.1 41.1522L187.02 41.8622Z" fill="#387545"/>
<path d="M187.42 40.2122L187.32 40.6222L184.4 39.9122L184.51 39.5022L187.42 40.2122Z" fill="#387545"/>
<path d="M183.71 63.8022L183.66 64.0122L178.8 62.8222L178.85 62.6222L183.71 63.8022Z" fill="#387545"/>
<path d="M186.94 50.5922L186.84 51.0122L181.98 49.8222L182.08 49.4122L186.94 50.5922Z" fill="#387545"/>
<path d="M188.56 43.9922L188.45 44.4022L183.6 43.2122L183.7 42.8022L188.56 43.9922Z" fill="#387545"/>
<path d="M190.17 37.3821L190.07 37.7921L185.21 36.6121L185.31 36.1921L190.17 37.3821Z" fill="#387545"/>
</g>
<g filter="url(#filter5_d_9_1632)">
<path d="M222.354 104.441L200.77 114.866C198.78 115.827 197.947 118.219 198.907 120.208L221.253 166.474C222.214 168.463 224.606 169.297 226.595 168.336L248.179 157.911C250.169 156.951 251.002 154.559 250.041 152.57L227.695 106.304C226.735 104.314 224.343 103.481 222.354 104.441Z" fill="#E7E4D7"/>
</g>
<path d="M224.07 106.152C223.78 106.152 223.48 106.212 223.2 106.352L201.72 116.722C201 117.072 200.59 117.782 200.59 118.522C200.59 118.812 200.65 119.112 200.79 119.392L221.89 163.092C222.23 163.802 222.95 164.222 223.69 164.222C223.98 164.222 224.28 164.162 224.56 164.022L246.04 153.652C246.76 153.302 247.17 152.592 247.17 151.852C247.17 151.562 247.11 151.262 246.97 150.982L225.87 107.282C225.53 106.572 224.81 106.152 224.07 106.152Z" fill="#D1CCB5"/>
<g filter="url(#filter6_d_9_1632)">
<path d="M254.697 54.907C255.165 55.197 255.31 55.8166 255.02 56.284L252.911 59.6828L251.211 58.6283L253.32 55.2295C253.61 54.7621 254.23 54.617 254.697 54.907Z" fill="#E7E4D7"/>
<path d="M235.636 78.0776L235.372 78.5024L243.02 83.2477L243.283 82.8229L235.636 78.0776Z" fill="#E7E4D7"/>
<path d="M207.31 107.172C206.11 106.022 209.53 100.512 210.68 99.3221L243.89 64.6621L246.78 67.4321L207.32 107.172H207.31Z" fill="#ADA178"/>
<path d="M210.68 100.322C211.232 100.322 211.68 99.8744 211.68 99.3221C211.68 98.7699 211.232 98.3221 210.68 98.3221C210.128 98.3221 209.68 98.7699 209.68 99.3221C209.68 99.8744 210.128 100.322 210.68 100.322Z" fill="#AD787B"/>
<path d="M228.93 120.592C230.49 121.152 233.91 115.642 234.47 114.082L250.77 68.9321L247.01 67.5721L228.93 120.582V120.592Z" fill="#ADA178"/>
<path d="M234.47 115.082C235.022 115.082 235.47 114.634 235.47 114.082C235.47 113.53 235.022 113.082 234.47 113.082C233.918 113.082 233.47 113.53 233.47 114.082C233.47 114.634 233.918 115.082 234.47 115.082Z" fill="#AD787B"/>
<path d="M240.262 80.0766L238.562 79.0221C238.093 78.7309 237.477 78.8753 237.185 79.3446C236.894 79.8139 237.039 80.4303 237.508 80.7215L239.207 81.776C239.677 82.0672 240.293 81.9229 240.584 81.4536C240.876 80.9843 240.731 80.3678 240.262 80.0766Z" fill="#ADA178"/>
<path d="M254.54 66.5621C252.79 69.3821 249.09 70.2421 246.28 68.5021C243.47 66.7621 242.6 63.0521 244.34 60.2421C246.09 57.4221 249.79 56.5621 252.6 58.3021C255.41 60.0421 256.28 63.7521 254.54 66.5621ZM251.55 60.0021C249.67 58.8421 247.21 59.4121 246.04 61.2921C244.88 63.1721 245.45 65.6321 247.33 66.8021C249.21 67.9721 251.67 67.3921 252.84 65.5121C254 63.6321 253.43 61.1721 251.55 60.0021Z" fill="#ADA178"/>
<path d="M249.422 63.4075C249.89 63.6975 250.035 64.3171 249.745 64.7845L246.054 70.7324L244.355 69.6779L248.045 63.73C248.335 63.2626 248.955 63.1175 249.422 63.4075Z" fill="#E7E4D7"/>
</g>
<defs>
<filter id="filter0_d_9_1632" x="109.44" y="54.7522" width="132" height="84" filterUnits="userSpaceOnUse" color-interpolation-filters="sRGB">
<feFlood flood-opacity="0" result="BackgroundImageFix"/>
<feColorMatrix in="SourceAlpha" type="matrix" values="0 0 0 0 0 0 0 0 0 0 0 0 0 0 0 0 0 0 127 0" result="hardAlpha"/>
<feOffset dx="4" dy="4"/>
<feColorMatrix type="matrix" values="0 0 0 0 0.0941176 0 0 0 0 0.101961 0 0 0 0 0.0980392 0 0 0 1 0"/>
<feBlend mode="normal" in2="BackgroundImageFix" result="effect1_dropShadow_9_1632"/>
<feBlend mode="normal" in="SourceGraphic" in2="effect1_dropShadow_9_1632" result="shape"/>
</filter>
<filter id="filter1_d_9_1632" x="157.44" y="134.752" width="36" height="12" filterUnits="userSpaceOnUse" color-interpolation-filters="sRGB">
<feFlood flood-opacity="0" result="BackgroundImageFix"/>
<feColorMatrix in="SourceAlpha" type="matrix" values="0 0 0 0 0 0 0 0 0 0 0 0 0 0 0 0 0 0 127 0" result="hardAlpha"/>
<feOffset dx="4" dy="4"/>
<feColorMatrix type="matrix" values="0 0 0 0 0.0941176 0 0 0 0 0.101961 0 0 0 0 0.0980392 0 0 0 1 0"/>
<feBlend mode="normal" in2="BackgroundImageFix" result="effect1_dropShadow_9_1632"/>
<feBlend mode="normal" in="SourceGraphic" in2="effect1_dropShadow_9_1632" result="shape"/>
</filter>
<filter id="filter2_d_9_1632" x="144.27" y="142.752" width="60.361" height="19" filterUnits="userSpaceOnUse" color-interpolation-filters="sRGB">
<feFlood flood-opacity="0" result="BackgroundImageFix"/>
<feColorMatrix in="SourceAlpha" type="matrix" values="0 0 0 0 0 0 0 0 0 0 0 0 0 0 0 0 0 0 127 0" result="hardAlpha"/>
<feOffset dx="2" dy="3"/>
<feColorMatrix type="matrix" values="0 0 0 0 0.0941176 0 0 0 0 0.101961 0 0 0 0 0.0980392 0 0 0 1 0"/>
<feBlend mode="normal" in2="BackgroundImageFix" result="effect1_dropShadow_9_1632"/>
<feBlend mode="normal" in="SourceGraphic" in2="effect1_dropShadow_9_1632" result="shape"/>
</filter>
<filter id="filter3_d_9_1632" x="101" y="60.7699" width="56.67" height="49.7423" filterUnits="userSpaceOnUse" color-interpolation-filters="sRGB">
<feFlood flood-opacity="0" result="BackgroundImageFix"/>
<feColorMatrix in="SourceAlpha" type="matrix" values="0 0 0 0 0 0 0 0 0 0 0 0 0 0 0 0 0 0 127 0" result="hardAlpha"/>
<feOffset dx="2" dy="3"/>
<feColorMatrix type="matrix" values="0 0 0 0 0.0941176 0 0 0 0 0.101961 0 0 0 0 0.0980392 0 0 0 1 0"/>
<feBlend mode="normal" in2="BackgroundImageFix" result="effect1_dropShadow_9_1632"/>
<feBlend mode="normal" in="SourceGraphic" in2="effect1_dropShadow_9_1632" result="shape"/>
</filter>
<filter id="filter4_d_9_1632" x="170.73" y="30" width="25.7122" height="70.7522" filterUnits="userSpaceOnUse" color-interpolation-filters="sRGB">
<feFlood flood-opacity="0" result="BackgroundImageFix"/>
<feColorMatrix in="SourceAlpha" type="matrix" values="0 0 0 0 0 0 0 0 0 0 0 0 0 0 0 0 0 0 127 0" result="hardAlpha"/>
<feOffset dx="2" dy="3"/>
<feColorMatrix type="matrix" values="0 0 0 0 0.0941176 0 0 0 0 0.101961 0 0 0 0 0.0980392 0 0 0 1 0"/>
<feBlend mode="normal" in2="BackgroundImageFix" result="effect1_dropShadow_9_1632"/>
<feBlend mode="normal" in="SourceGraphic" in2="effect1_dropShadow_9_1632" result="shape"/>
</filter>
<filter id="filter5_d_9_1632" x="198.508" y="104.042" width="55.9321" height="68.6929" filterUnits="userSpaceOnUse" color-interpolation-filters="sRGB">
<feFlood flood-opacity="0" result="BackgroundImageFix"/>
<feColorMatrix in="SourceAlpha" type="matrix" values="0 0 0 0 0 0 0 0 0 0 0 0 0 0 0 0 0 0 127 0" result="hardAlpha"/>
<feOffset dx="4" dy="4"/>
<feColorMatrix type="matrix" values="0 0 0 0 0.0941176 0 0 0 0 0.101961 0 0 0 0 0.0980392 0 0 0 1 0"/>
<feBlend mode="normal" in2="BackgroundImageFix" result="effect1_dropShadow_9_1632"/>
<feBlend mode="normal" in="SourceGraphic" in2="effect1_dropShadow_9_1632" result="shape"/>
</filter>
<filter id="filter6_d_9_1632" x="207.058" y="54.7576" width="50.3782" height="68.8744" filterUnits="userSpaceOnUse" color-interpolation-filters="sRGB">
<feFlood flood-opacity="0" result="BackgroundImageFix"/>
<feColorMatrix in="SourceAlpha" type="matrix" values="0 0 0 0 0 0 0 0 0 0 0 0 0 0 0 0 0 0 127 0" result="hardAlpha"/>
<feOffset dx="2" dy="3"/>
<feColorMatrix type="matrix" values="0 0 0 0 0.0941176 0 0 0 0 0.101961 0 0 0 0 0.0980392 0 0 0 1 0"/>
<feBlend mode="normal" in2="BackgroundImageFix" result="effect1_dropShadow_9_1632"/>
<feBlend mode="normal" in="SourceGraphic" in2="effect1_dropShadow_9_1632" result="shape"/>
</filter>
</defs>
</svg>
