<?xml version="1.0" encoding="UTF-8"?>
<svg id="Illustration_x5F_Research-Analysis" xmlns="http://www.w3.org/2000/svg" xmlns:xlink="http://www.w3.org/1999/xlink" viewBox="0 0 200 200">
  <defs>
    <filter id="drop-shadow-14" filterUnits="userSpaceOnUse">
      <feOffset dx="4" dy="4"/>
      <feGaussianBlur result="blur" stdDeviation="0"/>
      <feFlood flood-color="#181a19" flood-opacity="1"/>
      <feComposite in2="blur" operator="in"/>
      <feComposite in="SourceGraphic"/>
    </filter>
    <filter id="drop-shadow-14-1" x="25" y="39.69" width="152.25" height="125.63" filterUnits="userSpaceOnUse">
      <feOffset dx="4" dy="4"/>
      <feGaussianBlur result="blur-2" stdDeviation="0"/>
      <feFlood flood-color="#181a19" flood-opacity="1"/>
      <feComposite in2="blur-2" operator="in"/>
      <feComposite in="SourceGraphic"/>
    </filter>
    <filter id="drop-shadow-15" x="86.45" y="45.02" width="25.21" height="126.87" filterUnits="userSpaceOnUse">
      <feOffset dx="2" dy="3"/>
      <feGaussianBlur result="blur-3" stdDeviation="0"/>
      <feFlood flood-color="#181a19" flood-opacity="1"/>
      <feComposite in2="blur-3" operator="in"/>
      <feComposite in="SourceGraphic"/>
    </filter>
    <filter id="drop-shadow-16" x="27" y="28.99" width="56.99" height="58.01" filterUnits="userSpaceOnUse">
      <feOffset dx="2" dy="3"/>
      <feGaussianBlur result="blur-4" stdDeviation="0"/>
      <feFlood flood-color="#181a19" flood-opacity="1"/>
      <feComposite in2="blur-4" operator="in"/>
      <feComposite in="SourceGraphic"/>
    </filter>
    <filter id="drop-shadow-17" x="121.61" y="122.8" width="47.44" height="58.91" filterUnits="userSpaceOnUse">
      <feOffset dx="2" dy="3"/>
      <feGaussianBlur result="blur-5" stdDeviation="0"/>
      <feFlood flood-color="#181a19" flood-opacity="1"/>
      <feComposite in2="blur-5" operator="in"/>
      <feComposite in="SourceGraphic"/>
    </filter>
    <clipPath id="clippath">
      <circle cx="137.11" cy="138.29" r="11.62" style="fill: #e7e4d7;"/>
    </clipPath>
  </defs>
  <rect x="0" width="200" height="200" style="fill: #ada178;"/>
  <rect x="31.13" y="48.5" width="136" height="104" rx="8" ry="8" transform="translate(16.88 -14.22) rotate(8.97)" style="fill: #e7e4d7; filter: url(#drop-shadow-14-1);"/>
  <path d="M89.91,168.65l-.64-4.17c-.04-.27-.33-.32-.46-.07l-1.9,3.77c-.15.3-.51.15-.46-.19l19.23-121.88c.11-.68.64-1.17,1.18-1.08l1.98.31c.55.09.9.71.79,1.39l-19.23,121.88c-.05.34-.44.37-.49.04Z" style="fill: #ad787b; filter: url(#drop-shadow-15);"/>
  <g style="filter: url(#drop-shadow-16);">
    <path d="M81.65,52.25l-27.15,4.24,4.35-27.15c5.53.87,10.87,3.45,15.13,7.75,4.26,4.29,6.83,9.64,7.66,15.16Z" style="fill: #e7e4d7;"/>
    <path d="M73.9,75.98c-2.11,2.1-4.46,3.79-6.99,5.02-10.33,5.29-23.28,3.56-31.9-5.1l19.49-19.4,27.15-4.24c1.32,8.39-1.26,17.27-7.75,23.73Z" style="fill: #78ad85;"/>
    <path d="M58.75,29.33c-8.35-1.32-17.19,1.25-23.65,7.68-2.11,2.1-3.8,4.45-5.07,6.96-1.35,2.61-2.25,5.4-2.7,8.25-1.32,8.36,1.25,17.22,7.68,23.68l19.49-19.4,4.35-27.15s-.07-.01-.11-.02" style="fill: #777dad;"/>
  </g>
  <path d="M48.09,109.69h1c.28,0,.5.22.5.5v18.5h-2v-18.5c0-.28.22-.5.5-.5Z" transform="translate(19.17 -6.12) rotate(8.97)" style="fill: #777dad;"/>
  <path d="M59.56,116.53h1c.28,0,.5.22.5.5v13.5h-2v-13.5c0-.28.22-.5.5-.5Z" transform="translate(19.99 -7.85) rotate(8.97)" style="fill: #777dad;"/>
  <path d="M66.89,99.58h1c.28,0,.5.22.5.5v31.5h-2v-31.5c0-.28.22-.5.5-.5Z" transform="translate(18.84 -9.09) rotate(8.97)" style="fill: #777dad;"/>
  <path d="M54.72,101.68h1c.28,0,.5.22.5.5v27.5h-2v-27.5c0-.28.22-.5.5-.5Z" transform="translate(18.71 -7.19) rotate(8.97)" style="fill: #777dad;"/>
  <path d="M72.04,110.45h1c.28,0,.5.22.5.5v21.5h-2v-21.5c0-.28.22-.5.5-.5Z" transform="translate(19.82 -9.82) rotate(8.97)" style="fill: #777dad;"/>
  <g>
    <polyline points="47.16 96.19 42.18 127.8 73.78 132.79" style="fill: none; stroke: #777dad; stroke-miterlimit: 10; stroke-width: .5px;"/>
    <path d="M47.42,95.46l.42,1.1c.04.11-.05.23-.17.21l-1.17-.18c-.12-.02-.18-.16-.1-.26l.74-.92c.08-.09.23-.07.27.04Z" style="fill: #777dad;"/>
    <path d="M74.98,133.12l-1.1.42c-.11.04-.23-.05-.21-.17l.18-1.17c.02-.12.16-.18.26-.1l.92.74c.09.08.07.23-.04.27Z" style="fill: #777dad;"/>
  </g>
  <g>
    <path d="M150.93,102.6l-30.62-4.83c-.27-.04-.53.14-.57.42l-.16.99c-.04.27.14.53.42.57l30.62,4.83c.27.04.53-.14.57-.42l.16-.99c.04-.27-.14-.53-.42-.57" style="fill: #d1ccb5;"/>
    <path d="M150.31,106.55l-30.62-4.83c-.27-.04-.53.14-.57.42l-.16.99c-.04.27.14.53.42.57l30.62,4.83c.27.04.53-.14.57-.42l.16-.99c.04-.27-.14-.53-.42-.57" style="fill: #d1ccb5;"/>
    <path d="M149.69,110.5l-30.62-4.83c-.27-.04-.53.14-.57.42l-.16.99c-.04.27.14.53.42.57l30.62,4.83c.27.04.53-.14.57-.42l.16-.99c.04-.27-.14-.53-.42-.57" style="fill: #d1ccb5;"/>
    <path d="M149.06,114.45l-30.62-4.83c-.27-.04-.53.14-.57.42l-.16.99c-.04.27.14.53.42.57l30.62,4.83c.27.04.53-.14.57-.42l.16-.99c.04-.27-.14-.53-.42-.57" style="fill: #d1ccb5;"/>
    <path d="M148.44,118.4l-30.62-4.83c-.27-.04-.53.14-.57.42l-.16.99c-.04.27.14.53.42.57l30.62,4.83c.27.04.53-.14.57-.42l.16-.99c.04-.27-.14-.53-.42-.57" style="fill: #d1ccb5;"/>
    <path d="M147.82,122.35l-30.62-4.83c-.27-.04-.53.14-.57.42l-.16.99c-.04.27.14.53.42.57l30.62,4.83c.27.04.53-.14.57-.42l.16-.99c.04-.27-.14-.53-.42-.57" style="fill: #d1ccb5;"/>
    <path d="M147.19,126.31l-30.62-4.83c-.27-.04-.53.14-.57.42l-.16.99c-.04.27.14.53.42.57l30.62,4.83c.27.04.53-.14.57-.42l.16-.99c.04-.27-.14-.53-.42-.57" style="fill: #d1ccb5;"/>
    <path d="M146.57,130.26l-30.62-4.83c-.27-.04-.53.14-.57.42l-.16.99c-.04.27.14.53.42.57l30.62,4.83c.27.04.53-.14.57-.42l.16-.99c.04-.27-.14-.53-.42-.57" style="fill: #d1ccb5;"/>
    <path d="M145.94,134.21l-30.62-4.83c-.27-.04-.53.14-.57.42l-.16.99c-.04.27.14.53.42.57l30.62,4.83c.27.04.53-.14.57-.42l.16-.99c.04-.27-.14-.53-.42-.57" style="fill: #d1ccb5;"/>
    <path d="M145.32,138.16l-30.62-4.83c-.27-.04-.53.14-.57.42l-.16.99c-.04.27.14.53.42.57l30.62,4.83c.27.04.53-.14.57-.42l.16-.99c.04-.27-.14-.53-.42-.57" style="fill: #d1ccb5;"/>
    <path d="M144.7,142.11l-30.62-4.83c-.27-.04-.53.14-.57.42l-.16.99c-.04.27.14.53.42.57l30.62,4.83c.27.04.53-.14.57-.42l.16-.99c.04-.27-.14-.53-.42-.57" style="fill: #d1ccb5;"/>
    <path d="M144.07,146.06l-30.62-4.83c-.27-.04-.53.14-.57.42l-.16.99c-.04.27.14.53.42.57l30.62,4.83c.27.04.53-.14.57-.42l.16-.99c.04-.27-.14-.53-.42-.57" style="fill: #d1ccb5;"/>
    <path d="M143.45,150.02l-30.62-4.83c-.27-.04-.53.14-.57.42l-.16.99c-.04.27.14.53.42.57l30.62,4.83c.27.04.53-.14.57-.42l.16-.99c.04-.27-.14-.53-.42-.57" style="fill: #d1ccb5;"/>
  </g>
  <g style="filter: url(#drop-shadow-17);">
    <g>
      <circle cx="137.11" cy="138.29" r="11.62" style="fill: #e7e4d7;"/>
      <g style="clip-path: url(#clippath);">
        <path d="M150.71,130.91l-23.89-3.77c-.27-.04-.53.14-.57.42l-.37,2.38c-.04.27.14.53.42.57l23.89,3.77c.27.04.53-.14.57-.42l.37-2.38c.04-.27-.14-.53-.42-.57" style="fill: #d1ccb5;"/>
        <path d="M149.61,137.83l-23.89-3.77c-.27-.04-.53.14-.57.42l-.37,2.38c-.04.27.14.53.42.57l23.89,3.77c.27.04.53-.14.57-.42l.37-2.38c.04-.27-.14-.53-.42-.57" style="fill: #d1ccb5;"/>
        <path d="M148.52,144.74l-23.89-3.77c-.27-.04-.53.14-.57.42l-.37,2.38c-.04.27.14.53.42.57l23.89,3.77c.27.04.53-.14.57-.42l.37-2.38c.04-.27-.14-.53-.42-.57" style="fill: #d1ccb5;"/>
      </g>
    </g>
    <path d="M143.79,133.44l.61-.45c.22-.16.26-.47.1-.68-3.06-3.78-8.5-4.64-12.57-1.98-.22.15-.27.46-.12.67l.45.61c.13.18.37.24.57.14,3.46-1.59,7.56-.94,10.37,1.64.16.15.41.17.59.04Z" style="fill: #ada178;"/>
    <path d="M149.65,129.18c-5.04-6.92-14.73-8.45-21.65-3.42s-8.45,14.73-3.42,21.65c4.64,6.37,13.22,8.16,19.95,4.48l18.91,25.99c.65.89,1.9,1.09,2.79.44s1.09-1.9.44-2.79l-18.91-25.99c5.58-5.27,6.52-13.99,1.88-20.36ZM143.95,147.7c-5.19,3.78-12.46,2.63-16.24-2.56s-2.63-12.46,2.56-16.24,12.46-2.63,16.24,2.56c3.78,5.19,2.63,12.46-2.56,16.24Z" style="fill: #777dad;"/>
  </g>
  <circle cx="126.73" cy="79.55" r="1" style="fill: #78ad85;"/>
  <circle cx="130.37" cy="82.15" r="1" style="fill: #78ad85;"/>
  <circle cx="135.57" cy="74.87" r="1" style="fill: #78ad85;"/>
  <circle cx="138.58" cy="81.42" r="1" style="fill: #78ad85;"/>
  <circle cx="149.97" cy="86.25" r="1" style="fill: #78ad85;"/>
  <circle cx="148.67" cy="68.84" r="1" style="fill: #78ad85;"/>
  <circle cx="142.69" cy="81.05" r="1" style="fill: #78ad85;"/>
  <g>
    <polyline points="125.7 60.4 120.71 92.01 152.08 96.96" style="fill: none; stroke: #777dad; stroke-miterlimit: 10; stroke-width: .5px;"/>
    <path d="M125.96,59.67l.42,1.1c.04.11-.05.23-.17.21l-1.17-.18c-.12-.02-.18-.16-.1-.26l.74-.92c.08-.09.23-.07.27.04Z" style="fill: #777dad;"/>
    <path d="M153.27,97.29l-1.1.42c-.11.04-.23-.05-.21-.17l.18-1.17c.02-.12.16-.18.26-.1l.92.74c.09.08.07.23-.04.27Z" style="fill: #777dad;"/>
  </g>
  <circle cx="121.84" cy="84.85" r="1" style="fill: #78ad85;"/>
  <polyline points="121.84 84.85 126.73 79.55 130.37 82.15 135.57 74.87 138.58 81.42 142.69 81.05 148.67 68.84 149.97 86.25" style="fill: none; stroke: #78ad85; stroke-miterlimit: 10; stroke-width: .5px;"/>
  <path d="M72.33,138.79l-30.62-4.83c-.27-.04-.53.14-.57.42l-.16.99c-.04.27.14.53.42.57l30.62,4.83c.27.04.53-.14.57-.42l.16-.99c.04-.27-.14-.53-.42-.57" style="fill: #d1ccb5;"/>
</svg>