<?xml version="1.0" encoding="UTF-8"?>
<svg id="Tailoring" xmlns="http://www.w3.org/2000/svg" xmlns:xlink="http://www.w3.org/1999/xlink" viewBox="0 0 200 200">
  <defs>
    <filter id="drop-shadow-12" x="50.01" y="29" width="117.24" height="144.63" filterUnits="userSpaceOnUse">
      <feOffset dx="4" dy="4"/>
      <feGaussianBlur result="blur" stdDeviation="0"/>
      <feFlood flood-color="#181a19" flood-opacity="1"/>
      <feComposite in2="blur" operator="in"/>
      <feComposite in="SourceGraphic"/>
    </filter>
    <filter id="drop-shadow-13" x="25" y="79.17" width="68.37" height="40.17" filterUnits="userSpaceOnUse">
      <feOffset dx="2" dy="3"/>
      <feGaussianBlur result="blur-2" stdDeviation="0"/>
      <feFlood flood-color="#181a19" flood-opacity="1"/>
      <feComposite in2="blur-2" operator="in"/>
      <feComposite in="SourceGraphic"/>
    </filter>
  </defs>
  <rect width="200" height="200" style="fill: #ada178;"/>
  <g>
    <path d="M125.8,143.35c-.4,0-.8,0-1.21-.03-.14,0-.24-.12-.24-.26,0-.14.12-.22.26-.24.39.02.79.02,1.18.03.26,0,.52,0,.78-.01h0c.13,0,.24.11.25.24,0,.14-.1.25-.24.26-.27,0-.53.01-.8.01M128.57,143.18c-.12,0-.23-.09-.25-.22-.02-.14.08-.26.22-.28.64-.08,1.29-.18,1.94-.31.14-.03.27.06.3.19.03.14-.06.27-.19.3-.66.13-1.32.24-1.98.32h-.03M122.63,143.14h-.03c-.66-.09-1.32-.2-1.98-.34-.13-.03-.22-.16-.19-.3.03-.13.16-.22.3-.19.64.14,1.29.25,1.93.33.14.02.23.14.22.28-.02.13-.12.22-.25.22M132.45,142.38c-.11,0-.21-.07-.24-.18-.04-.13.04-.27.17-.31.62-.18,1.25-.39,1.86-.63.13-.05.27.01.32.14.05.13-.01.27-.14.32-.63.24-1.26.46-1.9.64h-.07M118.76,142.31h-.07c-.64-.2-1.28-.42-1.89-.67-.13-.05-.19-.2-.14-.32.05-.13.2-.19.32-.14.6.24,1.23.45,1.85.64.13.04.21.18.17.31-.03.11-.13.18-.24.18M136.14,140.95c-.09,0-.18-.05-.22-.14-.06-.12,0-.27.12-.33.58-.28,1.17-.6,1.73-.93.12-.07.27-.03.34.09.07.12.03.27-.09.34-.57.34-1.17.66-1.77.95l-.11.03M115.07,140.86l-.11-.03c-.6-.29-1.19-.62-1.76-.96-.12-.07-.16-.23-.08-.34.07-.12.23-.16.34-.09.56.34,1.14.65,1.72.94.12.06.18.21.11.33-.04.09-.13.14-.22.14M139.56,138.94l-.2-.11c-.08-.11-.05-.27.06-.35.54-.38,1.06-.78,1.55-1.2.1-.09.26-.08.35.03.09.11.07.26-.03.35-.5.42-1.04.83-1.59,1.22l-.14.05M111.68,138.82l-.15-.05c-.53-.38-1.06-.8-1.58-1.24-.11-.09-.12-.25-.03-.35.09-.1.25-.12.35-.03.5.43,1.02.84,1.54,1.21.11.08.14.24.06.35l-.2.1M142.6,136.4l-.18-.07c-.1-.1-.1-.26,0-.35.46-.46.91-.94,1.34-1.44.09-.1.25-.12.35-.03.1.09.12.25.03.35-.43.5-.89,1-1.36,1.47l-.18.07M108.66,136.24l-.18-.07c-.46-.47-.92-.97-1.35-1.48-.09-.11-.08-.26.03-.35.1-.09.26-.08.35.03.42.5.87.99,1.32,1.45.1.1.1.26,0,.35l-.18.07M145.17,133.39l-.15-.05c-.11-.08-.14-.24-.06-.35.38-.53.75-1.08,1.08-1.64.07-.12.22-.16.34-.08.12.07.16.22.09.34-.34.57-.71,1.13-1.1,1.67l-.2.1M106.12,133.21l-.2-.11c-.38-.54-.75-1.1-1.09-1.68-.07-.12-.03-.27.09-.34.12-.07.27-.03.34.09.34.57.7,1.12,1.07,1.65.08.11.05.27-.06.35l-.14.05M147.22,129.99l-.11-.03c-.12-.06-.17-.21-.11-.34.29-.59.56-1.19.8-1.79.05-.13.19-.19.32-.14.13.05.19.2.14.32-.24.62-.52,1.23-.81,1.83-.04.09-.13.14-.23.14M104.1,129.8c-.09,0-.18-.05-.22-.14-.29-.6-.56-1.21-.8-1.84-.05-.13.01-.27.14-.32.13-.05.27.01.32.14.24.61.5,1.22.78,1.8.06.12,0,.27-.11.33l-.11.03M148.67,126.31h-.07c-.13-.05-.21-.19-.17-.32.19-.61.35-1.25.49-1.9l.02-.08c.03-.13.16-.21.3-.19.13.03.22.16.19.3l-.02.09c-.14.65-.31,1.31-.5,1.93-.03.11-.13.18-.24.18M102.67,126.1c-.11,0-.21-.07-.24-.18-.19-.65-.35-1.3-.49-1.94-.03-.13.06-.27.2-.3.13-.02.27.06.3.2.13.63.29,1.27.48,1.9.04.13-.04.27-.17.31h-.07M149.52,122.35h-.03c-.14-.02-.23-.14-.22-.28.08-.65.14-1.31.17-1.96,0-.13.12-.24.25-.24h.01c.14,0,.24.12.24.26-.03.66-.09,1.33-.17,2-.02.13-.12.22-.25.22M101.87,122.22c-.12,0-.23-.09-.25-.22-.08-.66-.13-1.34-.16-2,0-.14.1-.25.24-.26.15.02.25.1.26.24.02.65.08,1.31.15,1.96.02.14-.08.26-.22.28h-.03M149.69,118.39c-.13,0-.24-.11-.25-.24-.02-.65-.08-1.3-.16-1.96-.02-.14.08-.26.22-.28.13-.02.26.08.28.22.08.67.14,1.34.16,2,0,.14-.1.25-.24.26h-.01M101.72,118.26h-.01c-.14,0-.24-.12-.24-.26.03-.66.09-1.34.18-2,.02-.14.14-.23.28-.22.14.02.23.14.22.28-.08.65-.14,1.31-.17,1.96,0,.13-.12.24-.25.24M149.21,114.46c-.12,0-.22-.08-.24-.2-.13-.64-.29-1.27-.48-1.9-.04-.13.04-.27.17-.31.13-.04.27.04.31.17.19.64.36,1.29.49,1.94.03.13-.06.27-.19.3h-.05M102.23,114.31h-.05c-.13-.03-.23-.15-.2-.28l.24.05-.24-.09c.14-.64.3-1.28.49-1.9.04-.13.18-.21.31-.17.13.04.21.18.17.31-.18.61-.34,1.23-.48,1.86-.03.12-.14.22-.26.22M148.08,110.66c-.1,0-.19-.06-.23-.16-.24-.62-.51-1.22-.79-1.8-.06-.12,0-.27.12-.33.12-.06.27,0,.33.11.29.59.56,1.21.8,1.84.05.13-.01.27-.14.32l-.09.02M103.37,110.54l-.09-.02c-.13-.05-.19-.2-.14-.32.24-.61.51-1.23.81-1.83.06-.12.21-.17.34-.11.12.06.17.21.11.33-.29.59-.56,1.19-.79,1.79-.04.1-.13.16-.23.16M146.35,107.1l-.21-.12c-.34-.57-.7-1.12-1.07-1.65-.08-.11-.05-.27.06-.35.11-.08.27-.05.35.06.38.54.75,1.1,1.09,1.68.07.12.03.27-.09.34l-.13.04M105.12,106.99l-.13-.04c-.12-.07-.16-.22-.09-.34.34-.57.71-1.13,1.1-1.67.08-.11.24-.14.35-.06.11.08.14.24.06.35-.38.53-.74,1.08-1.08,1.64l-.21.12M144.05,103.87l-.19-.09c-.42-.5-.87-.99-1.32-1.45-.1-.1-.1-.26,0-.35.1-.1.26-.1.35,0,.47.47.92.97,1.35,1.48.09.11.08.26-.03.35l-.16.06M107.44,103.77l-.16-.06c-.11-.09-.12-.25-.03-.35.43-.5.89-1,1.36-1.47.1-.1.26-.1.35,0,.1.1.1.26,0,.35-.46.46-.91.95-1.33,1.44l-.19.09M141.26,101.06l-.16-.06c-.5-.43-1.02-.83-1.54-1.21-.11-.08-.14-.24-.06-.35.08-.11.24-.14.35-.06.54.38,1.07.8,1.58,1.23.11.09.12.25.03.35l-.19.09M110.25,100.98l-.19-.09c-.09-.11-.08-.26.03-.35.51-.42,1.04-.84,1.59-1.23.11-.08.27-.06.35.06.08.11.05.27-.06.35-.53.38-1.06.78-1.55,1.2l-.16.06M138.04,98.75l-.13-.04c-.56-.33-1.14-.65-1.72-.94-.12-.06-.17-.21-.11-.33.06-.12.21-.17.34-.11.6.29,1.19.62,1.76.96.12.07.16.22.09.34l-.21.12M113.48,98.69l-.22-.12c-.07-.12-.03-.27.09-.34.57-.34,1.16-.66,1.76-.95.12-.06.27,0,.33.12.06.12,0,.27-.12.33-.59.29-1.17.6-1.73.93l-.13.04M134.48,97l-.09-.02c-.6-.24-1.23-.45-1.86-.64-.13-.04-.21-.18-.17-.31.04-.13.18-.21.31-.17.64.19,1.28.41,1.89.65.13.05.19.2.14.32-.04.1-.13.16-.23.16M117.04,96.96c-.1,0-.19-.06-.23-.16-.05-.13.01-.27.14-.32.62-.24,1.26-.46,1.89-.65.14-.04.27.04.31.17.04.13-.04.27-.17.31-.62.18-1.25.4-1.86.63l-.09.02M130.69,95.87h-.05c-.63-.14-1.28-.25-1.93-.34-.14-.02-.23-.14-.22-.28.02-.14.14-.24.28-.22.67.09,1.33.2,1.98.34.13.03.22.16.19.3-.02.12-.13.2-.24.2M120.84,95.83c-.12,0-.22-.08-.24-.2-.03-.13.06-.27.19-.3.65-.13,1.32-.24,1.98-.32.14-.02.26.08.28.22.02.14-.08.26-.22.28-.65.08-1.3.19-1.94.32h-.05M126.76,95.36h-.01c-.66-.03-1.31-.03-1.96,0-.14,0-.25-.1-.26-.24,0-.14.1-.25.24-.26.66-.03,1.33-.02,2.01,0,.14,0,.24.12.24.26,0,.13-.12.24-.25.24" style="fill: #ada178;"/>
    <path d="M124.62,142.82c-.14.02-.25.1-.26.24,0,0,0,0,0,.01,0,.13.11.24.24.25.4.02.81.02,1.21.03.27,0,.53,0,.8-.01.14,0,.24-.12.24-.25,0,0,0,0,0,0,0-.13-.12-.24-.25-.24h0c-.26,0-.52.01-.78.01-.39,0-.79,0-1.18-.03M130.53,142.36s-.03,0-.05,0c-.64.13-1.29.24-1.94.31-.13.01-.22.12-.22.25,0,.01,0,.02,0,.03.01.13.12.22.25.22h.03c.66-.08,1.32-.19,1.98-.32.12-.02.2-.13.2-.25,0-.02,0-.03,0-.05-.02-.12-.13-.2-.24-.2M120.68,142.31c-.11,0-.22.08-.24.2,0,.02,0,.03,0,.05,0,.12.08.22.2.25.66.14,1.32.25,1.98.34h.03c.12,0,.23-.09.25-.22,0-.01,0-.02,0-.03,0-.12-.09-.23-.22-.25-.64-.08-1.29-.2-1.93-.33-.02,0-.04,0-.05,0M134.33,141.24s-.06,0-.09.02c-.61.24-1.24.45-1.86.63-.11.03-.18.13-.18.24,0,.02,0,.05.01.07.03.11.13.18.24.18h.07c.63-.2,1.27-.41,1.9-.65.1-.04.16-.13.16-.23,0-.03,0-.06-.02-.09-.04-.1-.13-.16-.23-.16M116.89,141.17c-.1,0-.19.06-.23.16-.01.03-.02.06-.02.09,0,.1.06.19.16.23.62.24,1.25.46,1.89.66h.07c.11.01.21-.06.24-.17,0-.02.01-.05.01-.07,0-.11-.07-.2-.18-.24-.63-.19-1.25-.41-1.85-.64-.03-.01-.06-.02-.09-.02M137.89,139.52s-.09.01-.13.04c-.56.33-1.14.64-1.73.93-.09.04-.14.13-.14.22,0,.04,0,.07.03.11.04.09.13.14.22.14l.11-.03c.6-.29,1.19-.61,1.77-.95.08-.05.12-.13.12-.21,0-.04-.01-.09-.03-.13-.05-.08-.13-.12-.21-.12M113.33,139.41c-.08,0-.17.04-.21.12-.02.04-.04.09-.04.13,0,.08.04.17.12.21.57.34,1.16.67,1.76.96l.11.03c.09,0,.18-.05.22-.14.02-.03.03-.07.03-.11,0-.09-.05-.18-.14-.23-.58-.29-1.16-.6-1.72-.94-.04-.02-.08-.04-.13-.04M141.13,137.23c-.06,0-.11.02-.16.06-.49.41-1.02.82-1.55,1.2-.07.05-.11.13-.11.2,0,.05.01.1.05.14l.2.11.14-.05c.55-.39,1.08-.8,1.59-1.22.06-.05.09-.12.09-.19,0-.06-.02-.11-.06-.16-.05-.06-.12-.09-.19-.09M110.12,137.1c-.07,0-.14.03-.19.09-.04.05-.06.11-.06.16,0,.07.03.14.09.19.51.44,1.04.85,1.58,1.24l.15.05.2-.1s.05-.09.05-.14c0-.08-.04-.16-.1-.2-.52-.38-1.04-.78-1.54-1.21-.05-.04-.1-.06-.16-.06M143.95,134.45c-.07,0-.14.03-.19.09-.42.49-.87.98-1.34,1.44-.05.05-.07.11-.07.18,0,.06.02.13.07.18l.18.07.18-.07c.47-.47.93-.96,1.36-1.47.04-.05.06-.11.06-.16,0-.07-.03-.14-.09-.19-.05-.04-.11-.06-.16-.06M107.33,134.28c-.06,0-.11.02-.16.06-.06.05-.09.12-.09.19,0,.06.02.11.06.16.43.51.89,1.01,1.35,1.48l.18.07.18-.07s.07-.11.07-.18c0-.06-.02-.13-.07-.18-.45-.46-.9-.95-1.32-1.45-.05-.06-.12-.09-.19-.09M146.27,131.23c-.08,0-.17.04-.21.12-.33.55-.7,1.1-1.08,1.64-.03.04-.05.09-.05.14,0,.08.04.16.1.2l.15.05.2-.1c.39-.54.76-1.11,1.1-1.67.02-.04.04-.09.04-.13,0-.08-.04-.17-.12-.21-.04-.02-.09-.04-.13-.04M105.04,131.05s-.09.01-.13.03c-.08.05-.12.13-.12.21,0,.04.01.09.03.13.34.58.71,1.15,1.09,1.68l.2.11.14-.05c.07-.05.11-.13.11-.2,0-.05-.01-.1-.05-.15-.37-.52-.73-1.08-1.07-1.65-.05-.08-.13-.12-.22-.12M148.02,127.68c-.1,0-.19.06-.23.16-.24.61-.51,1.21-.8,1.79-.02.03-.03.07-.03.11,0,.09.05.18.14.23l.11.03c.09,0,.18-.05.23-.14.29-.6.57-1.21.81-1.83.01-.03.02-.06.02-.09,0-.1-.06-.19-.16-.23-.03-.01-.06-.02-.09-.02M103.31,127.48s-.06,0-.09.02c-.1.04-.16.13-.16.23,0,.03,0,.06.02.09.24.62.51,1.24.8,1.84.04.09.13.14.22.14l.11-.03c.09-.04.14-.13.14-.23,0-.04,0-.07-.03-.11-.28-.58-.55-1.19-.78-1.8-.04-.1-.13-.16-.23-.16M149.19,123.81c-.12,0-.23.08-.25.2l-.02.08c-.14.65-.3,1.28-.49,1.9,0,.02-.01.05-.01.07,0,.11.07.2.18.24h.07c.11.01.21-.06.24-.17.19-.63.36-1.28.5-1.93l.02-.09s0-.03,0-.05c0-.12-.08-.22-.2-.25-.01,0-.03,0-.04,0M102.18,123.68s-.03,0-.04,0c-.12.03-.2.13-.2.24,0,.02,0,.03,0,.05.13.64.3,1.3.49,1.94.03.11.13.18.24.18h.07c.11-.04.18-.14.18-.25,0-.02,0-.05-.01-.07-.19-.63-.35-1.27-.48-1.9-.03-.12-.14-.2-.25-.2M149.7,119.87h-.01c-.13,0-.24.1-.25.24-.03.65-.09,1.3-.17,1.96,0,.01,0,.02,0,.03,0,.12.09.23.22.25h.03c.12,0,.23-.09.25-.22.08-.66.14-1.34.17-2,0,0,0,0,0-.01,0-.13-.11-.24-.24-.25M101.71,119.75c-.14,0-.24.12-.24.25,0,0,0,0,0,0,.02.66.08,1.33.16,2,.02.13.12.22.25.22h.03c.13-.02.22-.12.22-.25,0-.01,0-.02,0-.03-.08-.65-.13-1.31-.15-1.96,0-.14-.11-.22-.26-.24M149.53,115.91s-.02,0-.03,0c-.13.02-.22.12-.22.25,0,.01,0,.02,0,.03.08.65.13,1.31.16,1.96,0,.13.12.24.25.24h.01c.14,0,.24-.12.24-.25,0,0,0,0,0,0-.03-.66-.08-1.33-.16-2-.02-.13-.13-.22-.25-.22M101.91,115.79c-.13,0-.24.09-.26.22-.09.66-.14,1.33-.18,2,0,0,0,0,0,.01,0,.13.11.24.24.25h.01c.13,0,.24-.1.25-.24.03-.65.09-1.31.17-1.96,0-.01,0-.02,0-.03,0-.12-.09-.23-.22-.25,0,0-.01,0-.02,0M148.73,112.03s-.05,0-.07.01c-.11.03-.18.13-.18.24,0,.02,0,.05.01.07.19.63.35,1.27.48,1.9.02.12.13.2.24.2h.05c.12-.03.2-.13.2-.25,0-.02,0-.03,0-.05-.13-.65-.3-1.3-.49-1.94-.03-.11-.13-.18-.24-.18M102.72,111.91c-.11,0-.21.07-.24.18-.19.62-.35,1.26-.49,1.9l.24.09-.24-.05s0,.03,0,.05c0,.11.08.2.2.23h.05c.12,0,.23-.09.26-.21.13-.63.29-1.25.48-1.86,0-.02.01-.05.01-.07,0-.11-.07-.2-.18-.24-.02,0-.05-.01-.07-.01M147.29,108.34s-.07,0-.11.03c-.09.04-.14.13-.14.23,0,.04,0,.07.03.11.28.58.55,1.18.79,1.8.04.1.13.16.23.16l.09-.02c.1-.04.16-.13.16-.23,0-.03,0-.06-.02-.09-.24-.63-.52-1.25-.8-1.84-.04-.09-.13-.14-.22-.14M104.18,108.23c-.09,0-.18.05-.23.14-.29.6-.57,1.22-.81,1.83-.01.03-.02.06-.02.09,0,.1.06.19.16.23l.09.02c.1,0,.19-.06.23-.16.24-.6.5-1.21.79-1.79.02-.03.03-.07.03-.11,0-.09-.05-.18-.14-.23-.04-.02-.07-.03-.11-.03M145.27,104.94c-.05,0-.1.02-.14.05-.07.05-.11.13-.11.2,0,.05.01.1.05.14.37.53.73,1.08,1.07,1.65l.21.12.13-.04c.08-.05.12-.13.12-.21,0-.04-.01-.09-.04-.13-.34-.58-.71-1.14-1.09-1.68-.05-.07-.13-.11-.2-.11M106.21,104.83c-.08,0-.15.04-.2.1-.39.54-.76,1.1-1.1,1.67-.02.04-.04.09-.04.13,0,.08.04.17.12.21l.13.04.21-.12c.34-.56.7-1.11,1.08-1.64.03-.04.05-.09.05-.14,0-.08-.04-.16-.1-.2-.04-.03-.1-.05-.15-.05M142.71,101.9c-.06,0-.13.02-.17.07-.05.05-.07.11-.07.18,0,.06.02.13.07.18.46.46.9.95,1.32,1.45l.19.09.16-.06c.06-.05.09-.12.09-.19,0-.06-.02-.11-.06-.16-.43-.51-.89-1.01-1.35-1.48-.05-.05-.11-.07-.18-.07M108.78,101.82c-.06,0-.13.02-.18.07-.48.47-.93.97-1.36,1.47-.04.05-.06.11-.06.16,0,.07.03.14.09.19l.16.06.19-.09c.42-.49.87-.98,1.33-1.44.05-.05.07-.11.07-.18,0-.06-.02-.13-.07-.18-.05-.05-.11-.07-.18-.07M139.7,99.34c-.08,0-.15.04-.2.1-.03.04-.05.09-.05.14,0,.08.04.16.1.2.52.38,1.04.78,1.54,1.21l.16.06.19-.09s.06-.11.06-.16c0-.07-.03-.14-.09-.19-.51-.44-1.04-.85-1.58-1.23-.04-.03-.1-.05-.15-.05M111.82,99.27c-.05,0-.1.02-.14.05-.55.39-1.08.8-1.59,1.23-.06.05-.09.12-.09.19,0,.06.02.11.06.16l.19.09.16-.06c.5-.42,1.02-.82,1.55-1.2.07-.05.11-.13.11-.2,0-.05-.02-.1-.05-.14-.05-.07-.13-.11-.2-.11M136.3,97.3c-.09,0-.18.05-.23.14-.02.03-.03.07-.03.11,0,.09.05.18.14.23.58.29,1.16.6,1.72.94l.13.04.21-.12s.04-.09.04-.13c0-.08-.04-.17-.12-.21-.57-.34-1.16-.66-1.76-.96-.03-.02-.07-.02-.11-.02M115.23,97.25s-.07,0-.11.03c-.6.29-1.19.61-1.76.95-.08.05-.12.13-.12.21,0,.04.01.09.03.13l.22.12.13-.04c.56-.33,1.14-.64,1.73-.93.09-.04.14-.13.14-.23,0-.04,0-.07-.03-.11-.04-.09-.13-.14-.23-.14M132.61,95.85c-.11,0-.2.07-.24.18,0,.02-.01.05-.01.07,0,.11.07.21.18.24.63.19,1.25.4,1.86.64l.09.02c.1,0,.19-.06.23-.16.01-.03.02-.06.02-.09,0-.1-.06-.19-.16-.23-.62-.24-1.25-.46-1.89-.65-.03,0-.05-.01-.08-.01M118.92,95.82s-.05,0-.07,0c-.63.19-1.27.41-1.89.65-.1.04-.16.13-.16.23,0,.03,0,.06.02.09.04.1.13.16.23.16l.09-.02c.61-.24,1.24-.45,1.86-.63.11-.03.18-.13.18-.24,0-.02,0-.05-.01-.07-.03-.11-.13-.18-.24-.18M128.73,95.03c-.12,0-.23.09-.24.22,0,.01,0,.02,0,.03,0,.12.09.23.22.25.65.08,1.3.2,1.93.33h.05c.12,0,.22-.07.24-.19,0-.02,0-.03,0-.05,0-.12-.08-.22-.2-.25-.64-.14-1.31-.25-1.98-.34-.01,0-.02,0-.04,0M122.8,95.01s-.02,0-.03,0c-.66.08-1.32.19-1.98.32-.12.03-.2.13-.2.25,0,.02,0,.03,0,.05.02.12.13.2.24.2h.05c.64-.14,1.29-.25,1.94-.32.13-.02.22-.12.22-.25,0-.01,0-.02,0-.03-.02-.13-.12-.22-.25-.22M125.68,94.84c-.31,0-.61,0-.92.02-.14,0-.24.12-.24.25,0,0,0,0,0,0,0,.14.12.23.26.24.3-.01.6-.02.9-.02.35,0,.7,0,1.06.03h.01c.13,0,.24-.1.25-.24,0,0,0,0,0-.01,0-.13-.11-.24-.24-.25-.36-.02-.73-.02-1.09-.02" style="fill: #756638;"/>
  </g>
  <g style="filter: url(#drop-shadow-12);">
    <path d="M146.68,47.88s-8.19,2.76-10.52,13.55c-1.17,5.41-1.36,11.74.72,18.56l5.17,5.95c.85.98,2.37.95,3.18-.06l17.57-21.92c.66-.83.59-2.03-.16-2.77l-15.95-13.31" style="fill: #e7e4d7;"/>
    <path d="M146.68,47.88s-8.19,2.76-10.52,13.55c-1.17,5.41-1.36,11.74.72,18.56l5.17,5.95c.85.98,2.37.95,3.18-.06l17.57-21.92c.66-.83.59-2.03-.16-2.77l-15.95-13.31" style="fill: #e7e4d7;"/>
    <path d="M76.29,32.74s6.33,5.89,4.02,16.68c-1.16,5.41-3.59,11.26-8.29,16.63l-7.16,3.3c-1.17.54-2.55-.11-2.87-1.37l-7-27.21c-.26-1.03.29-2.09,1.29-2.46l20.01-5.57" style="fill: #e7e4d7;"/>
    <path d="M76.29,32.74s6.33,5.89,4.02,16.68c-1.16,5.41-3.59,11.26-8.29,16.63l-7.16,3.3c-1.17.54-2.55-.11-2.87-1.37l-7-27.21c-.26-1.03.29-2.09,1.29-2.46l20.01-5.57" style="fill: #e7e4d7;"/>
    <path d="M110.55,44.65c-12.16-2.62-13.6-15.65-13.6-15.65l-20.66,3.74s9.79,17.25-4.27,33.31l-2.15,24.45c-.52,5.87-1.81,11.65-3.85,17.18l-15.75,42.66c-.81,2.2.36,4.63,2.57,5.37l17.57,5.87c9.29,3.11,18.9,5.17,28.65,6.16l18.43,1.87c2.33.24,4.39-1.5,4.55-3.83l3.18-45.36c.41-5.88,1.61-11.68,3.55-17.25l8.1-23.17c-6.21-20.42,9.81-32.12,9.81-32.12l-17.3-11.9s-6.67,11.29-18.83,8.67" style="fill: #e7e4d7;"/>
    <path d="M96.95,29s-.02.47-.02,1.3c0,5.07.72,23.4,11.19,25.65.66.14,1.32.21,1.97.21,11.16,0,19.29-20.19,19.29-20.19l-8.39-.74c-5.48-.48-10.89-1.64-16.09-3.46l-7.95-2.78" style="fill: #d1ccb5;"/>
  </g>
  <g>
    <path d="M57.01,127.9c-1.13.75-2.18,1.55-2.98,2.47-.79.92-1.38,1.9-1.73,2.94-.35,1.03-.46,2.14-.35,3.21.09.52.19,1.06.36,1.46.21.5.46,1.04.78,1.48.25.37.52.7.81,1l5.02-13.6-.06.03c-.64.32-1.24.67-1.84,1.01Z" style="fill: none;"/>
    <path d="M46.41,143.86s0,.01.01.02l-.02-.03s0,.01,0,.02Z" style="fill: #78ad85;"/>
    <path d="M44.71,130.76s0,.01,0,.02v-.03s0,.01,0,.02Z" style="fill: #78ad85;"/>
    <path d="M50.5,148c.16.11.32.22.49.32l.86-2.32-1.35,2Z" style="fill: #78ad85;"/>
    <path d="M52.56,144.08l1.34-3.62c-.29-.3-.56-.63-.81-1-.31-.45-.57-.99-.78-1.48-.17-.4-.27-.94-.36-1.46-.11-1.07,0-2.18.35-3.21.35-1.04.94-2.02,1.73-2.94.8-.91,1.85-1.72,2.98-2.47l-1.59-2.54h0s-.2.14-.2.14l-2.71-4.2c-.5.33-.99.68-1.47,1.05l1.79,2.37c-.14.11-.27.23-.41.34l-1.87-2.33c-.48.38-.96.78-1.41,1.21l2.08,2.16-.37.39-2.14-2.09c-.22.23-.45.44-.66.69-.21.24-.41.5-.61.76l2.34,1.85-.33.43-2.42-1.77.02-.02c-.39.54-.74,1.1-1.08,1.69l4.34,2.45c-.08.13-.17.26-.22.4l-4.42-2.26c-.31.6-.58,1.21-.81,1.85l2.81,1.01-.17.52-2.85-.88c-.2.65-.35,1.31-.47,1.98l2.92.5c-.03.18-.05.36-.07.54l-2.96-.37c-.09.68-.14,1.36-.14,2.04,0,0,0,0,0,0l3-.03c0,.18,0,.37.02.55l-2.98.16c.02.34.02.68.06,1.02.05.34.11.68.17,1.02l4.9-.95c.02.15.06.3.1.44l-4.86,1.19s-.01-.07-.02-.1c.14.6.31,1.2.56,1.82.04.11.1.21.14.31l2.75-1.16.22.5-2.7,1.27c.28.6.6,1.19.96,1.76l2.52-1.59.3.45-2.45,1.7c.38.56.81,1.08,1.28,1.59l2.2-2,.39.39-2.11,2.11c.49.49,1.01.97,1.58,1.39,0,0,0,0-.01,0l2.64-3.54Z" style="fill: #78ad85;"/>
    <path d="M44.99,141.22l.27.61h.02c-.09-.21-.19-.41-.28-.61h-.01Z" style="fill: #387545;"/>
    <path d="M47.76,140.05l-2.75,1.16c.09.21.18.4.28.6l2.7-1.27-.22-.5Z" style="fill: #387545;"/>
    <path d="M47.86,145.75l.48.49h0c-.16-.17-.32-.34-.47-.51l-.02.02Z" style="fill: #387545;"/>
    <path d="M50.08,143.73l-2.2,2c.15.17.31.34.47.51l2.11-2.11-.39-.39Z" style="fill: #387545;"/>
    <path d="M46.22,143.58l.18.27c-.06-.09-.1-.18-.16-.28h-.01Z" style="fill: #387545;"/>
    <path d="M46.6,144.14h.01c-.06-.1-.13-.18-.19-.26l.18.26Z" style="fill: #387545;"/>
    <path d="M48.76,141.98l-2.52,1.59c.06.09.1.19.16.28l.02.03c.06.09.13.17.19.26l2.45-1.7-.3-.45Z" style="fill: #387545;"/>
    <path d="M44.6,131.08h.02c.03-.1.05-.2.09-.3l-.1.3Z" style="fill: #387545;"/>
    <path d="M44.82,130.44l-.1.3c.03-.1.08-.2.12-.3h-.02Z" style="fill: #387545;"/>
    <path d="M47.64,131.45l-2.81-1.01c-.04.1-.08.2-.12.3v.03c-.05.1-.07.21-.1.31l2.85.88.17-.52Z" style="fill: #387545;"/>
    <path d="M43.93,136.46h.02c-.01-.22-.04-.45-.04-.67,0,.22,0,.45.02.67Z" style="fill: #387545;"/>
    <path d="M46.91,135.75l-3,.03s0,0,0,0c0,.22.03.45.04.67l2.98-.16c-.02-.18-.02-.36-.02-.55Z" style="fill: #387545;"/>
    <path d="M44.12,133.06c-.04.22-.06.45-.09.67h.02c.03-.22.07-.45.11-.67h-.03Z" style="fill: #387545;"/>
    <path d="M47.07,133.57l-2.92-.5c-.04.22-.08.45-.11.67l2.96.37c.02-.18.04-.36.07-.54Z" style="fill: #387545;"/>
    <path d="M51.02,122.31c-.16.12-.32.26-.48.39h0c.16-.12.33-.24.49-.37l-.02-.02Z" style="fill: #387545;"/>
    <path d="M52.83,124.7l-1.79-2.37c-.16.12-.33.25-.49.37l1.87,2.33c.14-.11.27-.23.41-.34Z" style="fill: #387545;"/>
    <path d="M47.41,125.82l-.38.5c.12-.17.26-.33.39-.49h0Z" style="fill: #387545;"/>
    <path d="M49.44,128.11l.33-.43-2.34-1.85c-.13.16-.27.32-.39.49l-.02.02,2.42,1.77Z" style="fill: #387545;"/>
    <path d="M49.13,123.92l-.44.46h0c.15-.15.29-.31.44-.45h0Z" style="fill: #387545;"/>
    <path d="M51.21,126.09l-2.08-2.16c-.15.14-.29.31-.44.46l2.14,2.09.37-.39Z" style="fill: #387545;"/>
    <path d="M52.51,121.29h0c.08-.05.17-.11.25-.17l-.25.17Z" style="fill: #387545;"/>
    <path d="M55.42,125.35l-2.65-4.24c-.08.05-.17.11-.25.17l2.71,4.2.2-.14Z" style="fill: #387545;"/>
    <path d="M50.49,148.01h0c-.19-.14-.39-.25-.57-.39.18.14.37.26.56.39Z" style="fill: #387545;"/>
    <path d="M52.56,144.08l-2.64,3.54s0,0,.01,0c.18.14.38.25.57.37l1.35-2,.71-1.92Z" style="fill: #387545;"/>
    <path d="M44.17,138.5c.03.19.08.39.13.58-.04-.19-.08-.39-.12-.58h0Z" style="fill: #387545;"/>
    <path d="M49.18,137.99c-.04-.15-.08-.29-.1-.44l-4.9.95c.04.19.08.39.12.58,0,.03.01.07.02.1l4.86-1.19Z" style="fill: #387545;"/>
    <path d="M45.94,128c-.11.19-.23.38-.32.58h.03c.1-.18.2-.38.31-.58h-.02Z" style="fill: #387545;"/>
    <path d="M50.29,130.46l-4.34-2.45c-.11.19-.21.39-.31.59l4.42,2.26c.06-.14.14-.27.22-.4Z" style="fill: #387545;"/>
    <path d="M55.42,125.35l1.59,2.54c.61-.34,1.2-.7,1.84-1.01l.06-.03,2.53-6.86-1.01-2.47-1.4.57,1.13,2.78-.47.19-1.13-2.78.27-.11-.97.4c-.22.09-.47.2-.73.31l1.16,2.77-.47.21-1.21-2.75s0,0,0,0l-1.3.59c-.08.04-.17.09-.25.13l1.34,2.67-.46.25-1.4-2.65c-.52.28-1.03.56-1.54.86l2.6,4.26c-.07.04-.14.08-.2.13Z" style="fill: #78ad85;"/>
    <path d="M62.77,116.56l1.13,2.78-.47.19-.95-2.34-.77,2.1,1.09,2.66-.47.19-.88-2.15-2.53,6.86.93-.42c.33-.15.64-.3,1.06-.46l4.66-1.91,9.32-3.82,18.64-7.64-1.14-2.78-.23.1-1.9-4.63.23-.1-5.76,2.36.4-.16,1.14,2.78-.47.19-1.14-2.78-1.4.57,1.9,4.63-.47.19-1.89-4.63.35-.14-3.61,1.48,1.14,2.78-.47.19-1.14-2.78.13-.05-1.67.69.15-.06,1.14,2.78-.47.19-1.14-2.78-1.4.57,1.89,4.63-.47.19-1.89-4.63-1.4.57,1.14,2.78-.47.19-1.14-2.78.33-.14-1.96.81-.21.09.45-.18,1.14,2.78-.47.19-1.14-2.78-3.53,1.45.27-.11,1.89,4.63-.47.19-1.89-4.63-1.4.57,1.13,2.78-.47.19-1.13-2.78.13-.05-1.64.67.1-.04,1.13,2.78-.47.19-1.13-2.78-1.46.6h0l.06-.03ZM88.86,105.86l1.14,2.78-.47.19-1.14-2.78.47-.19ZM86.53,106.82l.47-.19,1.14,2.78-.47.19-1.14-2.78ZM80.94,109.11l.47-.19,1.14,2.78-.47.19-1.14-2.78ZM69.76,113.7l.47-.19,1.14,2.78-.47.19-1.14-2.78Z" style="fill: #78ad85;"/>
    <polygon points="61.71 119.29 62.48 117.19 62.3 116.75 62.71 116.59 62.71 116.59 62.54 116.66 60.71 117.4 60.91 117.33 61.71 119.29" style="fill: #78ad85;"/>
    <polygon points="60.44 117.52 60.44 117.52 60.71 117.4 60.44 117.52" style="fill: #387545;"/>
    <polygon points="61.71 119.29 60.91 117.33 60.71 117.4 60.44 117.52 61.45 119.99 61.71 119.29" style="fill: #387545;"/>
    <polygon points="62.8 121.95 61.71 119.29 61.45 119.99 62.33 122.15 62.8 121.95" style="fill: #387545;"/>
    <polygon points="59.04 118.09 58.85 118.17 59.04 118.09 59.04 118.09" style="fill: #387545;"/>
    <polygon points="59.71 121.06 60.18 120.87 59.04 118.09 58.85 118.17 58.58 118.28 59.71 121.06" style="fill: #387545;"/>
    <path d="M55.07,119.82l-.51.28h0c.17-.08.34-.18.52-.27h0Z" style="fill: #387545;"/>
    <path d="M56.41,122.5l-1.34-2.67c-.17.09-.35.18-.52.27l1.4,2.65.46-.25Z" style="fill: #387545;"/>
    <path d="M57.15,118.88l-.52.23h0c.17-.08.35-.16.52-.23h0Z" style="fill: #387545;"/>
    <path d="M58.31,121.64l-1.16-2.77c-.17.08-.35.15-.52.23l1.21,2.75.47-.21Z" style="fill: #387545;"/>
    <polygon points="66.5 115.03 66.16 115.17 66.5 115.03 66.5 115.03" style="fill: #387545;"/>
    <polygon points="67.16 118 67.63 117.81 66.5 115.03 66.16 115.17 66.03 115.22 67.16 118" style="fill: #387545;"/>
    <polygon points="63.9 119.34 62.77 116.56 62.71 116.59 62.48 117.19 63.44 119.53 63.9 119.34" style="fill: #387545;"/>
    <polygon points="62.3 116.75 62.48 117.19 62.71 116.59 62.3 116.75" style="fill: #387545;"/>
    <polygon points="64.17 115.99 64.17 115.99 64.53 115.84 64.17 115.99" style="fill: #387545;"/>
    <polygon points="65.77 118.57 64.63 115.8 64.53 115.84 64.17 115.99 65.3 118.77 65.77 118.57" style="fill: #387545;"/>
    <polygon points="73.95 111.98 73.82 112.03 73.95 111.98 73.95 111.98" style="fill: #387545;"/>
    <polygon points="74.62 114.94 75.09 114.75 73.95 111.98 73.82 112.03 73.48 112.17 74.62 114.94" style="fill: #387545;"/>
    <polygon points="71.36 116.28 70.22 113.5 69.76 113.7 70.89 116.47 71.36 116.28" style="fill: #387545;"/>
    <polygon points="71.62 112.93 71.62 112.93 71.64 112.92 71.62 112.93" style="fill: #387545;"/>
    <polygon points="73.22 115.52 72.09 112.74 71.64 112.92 71.62 112.93 72.76 115.71 73.22 115.52" style="fill: #387545;"/>
    <rect x="81.49" y="108.9" width=".5" height="3" transform="translate(-35.74 39.2) rotate(-22.27)" style="fill: #387545;"/>
    <polygon points="77.21 110.64 77.21 110.64 77.53 110.51 77.21 110.64" style="fill: #387545;"/>
    <polygon points="78.81 113.22 77.68 110.45 77.53 110.51 77.21 110.64 78.35 113.42 78.81 113.22" style="fill: #387545;"/>
    <polygon points="79.54 109.68 79.2 109.82 79.54 109.68 79.54 109.68" style="fill: #387545;"/>
    <polygon points="80.21 112.65 80.68 112.46 79.54 109.68 79.2 109.82 79.07 109.87 80.21 112.65" style="fill: #387545;"/>
    <rect x="88.94" y="105.85" width=".5" height="3" transform="translate(-34.05 41.84) rotate(-22.29)" style="fill: #387545;"/>
    <polygon points="84.66 107.58 84.66 107.58 84.73 107.56 84.66 107.58" style="fill: #387545;"/>
    <polygon points="86.27 110.17 85.13 107.39 84.73 107.56 84.66 107.58 85.8 110.36 86.27 110.17" style="fill: #387545;"/>
    <rect x="87.08" y="106.61" width=".5" height="3" transform="translate(-34.47 41.18) rotate(-22.28)" style="fill: #387545;"/>
    <path d="M53.01,120.96c-.09.05-.17.1-.25.16.09-.05.17-.1.26-.15h0Z" style="fill: #387545;"/>
    <polygon points="55.42 125.35 52.76 121.12 55.42 125.35 55.42 125.35" style="fill: #387545;"/>
    <path d="M55.62,125.23l-2.6-4.26c-.09.05-.17.1-.26.15l2.65,4.24c.06-.05.13-.09.2-.13Z" style="fill: #387545;"/>
    <polygon points="90.49 105.19 90.49 105.19 90.49 105.19 90.49 105.19" style="fill: #387545;"/>
    <polygon points="92.15 109.92 92.38 109.82 90.49 105.19 90.49 105.19 90.49 105.19 90.25 105.29 92.15 109.92" style="fill: #387545;"/>
    <polygon points="67.89 114.46 67.89 114.46 68.09 114.38 67.89 114.46" style="fill: #387545;"/>
    <polygon points="70.25 118.9 68.36 114.27 68.09 114.38 67.89 114.46 69.79 119.09 70.25 118.9" style="fill: #387545;"/>
    <rect x="75.33" y="111.31" width=".5" transform="translate(-36.59 37.01) rotate(-22.3)" style="fill: #387545;"/>
    <rect x="76.27" y="111.12" width=".5" height="5" transform="translate(-37.33 37.44) rotate(-22.25)" style="fill: #387545;"/>
    <polygon points="83.27 108.16 83.15 108.2 83.27 108.16 83.27 108.16" style="fill: #387545;"/>
    <polygon points="84.7 112.97 85.16 112.78 83.27 108.16 83.15 108.2 82.8 108.35 84.7 112.97" style="fill: #387545;"/>
    <polygon points="93.99 112.41 93.75 112.5 93.75 112.5 96.55 111.35 93.51 103.95 90.72 105.1 90.72 105.1 90.95 105 93.99 112.41" style="fill: #ad787b;"/>
    <polygon points="92.38 109.82 93.52 112.6 93.75 112.5 90.72 105.1 90.49 105.19 92.38 109.82 92.38 109.82" style="fill: #181a19;"/>
    <polygon points="92.38 109.82 93.52 112.6 92.38 109.82 92.38 109.82" style="fill: #181a19;"/>
    <rect x="91.43" y="105.01" height="5" style="fill: #181a19;"/>
    <rect x="91.43" y="105.01" width="0" height="5" transform="translate(-36.59 48.11) rotate(-24.73)" style="fill: #181a19;"/>
    <rect x="92.23" y="104.75" width=".25" height="8" transform="translate(-34.36 43.18) rotate(-22.3)" style="fill: #181a19;"/>
  </g>
  <g style="filter: url(#drop-shadow-13);">
    <path d="M54.32,94.77l-18.46,7.7c-4.08,1.7-6.77,4.54-5.07,8.62h0c1.7,4.08,5.46,6.39,9.54,4.69,0,0,6.9-2.42,9.72-6.8l5.42-11.44-1.16-2.77ZM47.44,107.49c-1.92,2.8-6.6,4.92-8.1,5.45l-.13.05c-3.54,1.48-5.32-2.29-5.64-3.06-.35-.83-1.16-2.77,3.46-4.69l14.32-5.98-3.9,8.23Z" style="fill: #ad787b;"/>
    <g>
      <path d="M91.23,79.36c.77,1.85-36.14,17.25-36.14,17.25l-.77-1.85s7-4,6.32-5.62c10.93-4.12,30.04-11.1,30.59-9.78" style="fill: #777dad;"/>
      <path d="M54.32,94.77l.77,1.85s36.91-15.41,36.14-17.25c-.55-1.32-19.66,5.67-30.59,9.78.68,1.62-6.32,5.62-6.32,5.62" style="fill: #383d75;"/>
    </g>
    <path d="M52.78,91.07s37.68-13.56,38.55-11.49c1.06,2.54-21.09,11.78-34.93,17.56,2.29-2.06-.62-4.08-2.46-3.31" style="fill: #383d75;"/>
    <path d="M91.23,79.36c.77,1.85-35.76,18.17-35.76,18.17l-1.16-2.77s7-4,5.84-6.77c10.93-4.12,30.52-9.95,31.07-8.63Z" style="fill: #777dad;"/>
    <circle cx="61.7" cy="91.68" r="1" style="fill: #e7e4d7;"/>
    <path d="M52.79,91.09l-11.94-4.19c-5.1-1.07-11.67,2.13-11.67,2.13-4.08,1.7-5.08,6-3.38,10.08h0c1.7,4.08,5.62,4.16,9.69,2.46l18.46-7.7-1.16-2.77ZM34.33,98.8c-4.61,1.93-5.42-.01-5.77-.84-.32-.77-1.75-4.69,1.79-6.17l.13-.06c1.43-.7,6.23-2.53,9.57-1.92l8.59,3.02-14.32,5.98Z" style="fill: #ad787b;"/>
  </g>
  <g>
    <path d="M76.74,33.88c-.09,0-.18-.05-.23-.14-.26-.56-.44-.87-.44-.87-.07-.12-.03-.27.09-.34.12-.07.27-.03.34.09,0,0,.18.32.46.91.06.12,0,.27-.12.33-.03.02-.07.02-.11.02Z" style="fill: #ada178;"/>
    <path d="M73.9,63.95c-.05,0-.1-.02-.15-.05-.11-.08-.14-.24-.05-.35.39-.54.77-1.08,1.11-1.62.07-.12.23-.15.34-.08.12.07.15.23.08.34-.35.55-.73,1.1-1.13,1.65-.05.07-.12.1-.2.1ZM76.04,60.62s-.08,0-.12-.03c-.12-.07-.16-.22-.1-.34.32-.58.62-1.17.9-1.75.06-.13.21-.18.33-.12.12.06.18.21.12.33-.28.59-.59,1.19-.91,1.78-.05.08-.13.13-.22.13ZM77.72,57.03s-.06,0-.09-.02c-.13-.05-.19-.2-.14-.32.24-.61.45-1.23.64-1.86.04-.13.18-.2.31-.17.13.04.21.18.17.31-.2.63-.42,1.27-.66,1.89-.04.1-.13.16-.23.16ZM78.89,53.24s-.04,0-.06,0c-.13-.03-.22-.17-.19-.3.15-.64.27-1.29.37-1.93.02-.14.14-.23.29-.21.14.02.23.15.21.29-.1.65-.23,1.31-.38,1.96-.03.12-.13.19-.24.19ZM79.5,49.32s-.01,0-.02,0c-.14-.01-.24-.13-.23-.27.05-.65.09-1.31.1-1.96,0-.14.11-.25.25-.25h0c.14,0,.25.12.25.25,0,.66-.04,1.33-.1,2-.01.13-.12.23-.25.23ZM79.57,45.36c-.13,0-.24-.1-.25-.24-.03-.65-.09-1.31-.16-1.96-.02-.14.08-.26.22-.28.13-.02.26.08.28.22.08.66.13,1.33.17,1.99,0,.14-.1.25-.24.26h-.01ZM79.11,41.42c-.12,0-.22-.08-.25-.21-.12-.64-.25-1.28-.41-1.92-.03-.13.05-.27.18-.3.13-.04.27.05.3.18.16.65.3,1.31.42,1.95.02.14-.07.27-.2.29-.02,0-.03,0-.04,0ZM78.16,37.58c-.11,0-.21-.07-.24-.18-.19-.63-.41-1.25-.64-1.86-.05-.13.01-.27.14-.32.13-.05.27.01.32.14.24.62.46,1.25.66,1.89.04.13-.03.27-.17.31-.02,0-.05.01-.07.01Z" style="fill: #ada178;"/>
    <path d="M72.02,66.29c-.06,0-.12-.02-.16-.06-.1-.09-.12-.25-.02-.35.22-.25.44-.5.64-.76.09-.11.25-.12.35-.03.11.09.12.25.03.35-.21.26-.43.51-.65.77-.05.06-.12.09-.19.09Z" style="fill: #ada178;"/>
  </g>
  <g>
    <path d="M136.63,80.07c-.1-.32-.19-.65-.28-.97l.48-.13c.09.32.18.63.28.95l-.48.14Z" style="fill: #ada178;"/>
    <path d="M135.88,77.16c-.14-.65-.26-1.31-.36-1.97l.49-.07c.1.65.22,1.3.35,1.94l-.49.1ZM135.29,73.21c-.05-.67-.09-1.34-.1-2h.5c.01.64.04,1.3.1,1.96l-.5.04ZM135.73,69.24l-.5-.03c.04-.67.1-1.34.18-1.99l.5.06c-.08.64-.14,1.3-.17,1.96ZM136.22,65.34l-.49-.1c.13-.65.28-1.3.46-1.95l.48.13c-.17.63-.33,1.28-.45,1.91ZM137.26,61.55l-.47-.17c.22-.62.46-1.25.73-1.86l.46.2c-.26.61-.5,1.22-.72,1.83ZM138.82,57.94l-.45-.23c.3-.58.62-1.17.97-1.75l.43.26c-.34.57-.66,1.15-.96,1.72ZM140.83,54.57l-.41-.28c.37-.54.77-1.08,1.18-1.61l.39.31c-.41.52-.8,1.05-1.17,1.59ZM143.26,51.47l-.37-.33c.45-.5.91-.99,1.37-1.45l.35.36c-.46.45-.91.93-1.35,1.43Z" style="fill: #ada178;"/>
    <path d="M146.07,48.7l-.32-.38c.49-.42.79-.64.79-.64l.29.4s-.29.21-.76.61Z" style="fill: #ada178;"/>
  </g>
</svg>