<?xml version="1.0" encoding="UTF-8"?>
<svg xmlns="http://www.w3.org/2000/svg" viewBox="0 0 200 200">
  <g style="isolation: isolate;">
    <g id="Illustration_x5F_UX">
      <rect y="0" width="200" height="200" style="fill: #777dad;"/>
      <g>
        <rect x="28.89" y="57.63" width="144" height="96" rx="8" ry="8" transform="translate(-22.95 28.17) rotate(-14.29)" style="fill: #181a19;"/>
        <rect x="24.89" y="53.63" width="144" height="96" rx="8" ry="8" transform="translate(-22.08 27.06) rotate(-14.29)" style="fill: #e7e4d7;"/>
      </g>
      <g>
        <path d="M45.64,91.21l2.47,2.94c.22.26.55.39.88.35l3.81-.44c.83-.1,1.41.81.96,1.52l-2.03,3.25c-.18.28-.2.64-.06.95l1.59,3.49c.35.76-.34,1.59-1.15,1.39l-3.72-.93c-.33-.08-.67,0-.92.23l-2.83,2.59c-.62.57-1.62.17-1.67-.67l-.27-3.83c-.02-.34-.21-.64-.51-.8l-3.34-1.89c-.73-.41-.66-1.48.12-1.8l3.56-1.44c.31-.13.54-.4.61-.73l.76-3.76c.17-.82,1.21-1.09,1.75-.44Z" style="fill: #ada178;"/>
        <path d="M68.9,85.29l2.47,2.94c.22.26.55.39.88.35l3.81-.44c.83-.1,1.41.81.96,1.52l-2.03,3.25c-.18.28-.2.64-.06.95l1.59,3.49c.35.76-.34,1.59-1.15,1.39l-3.72-.93c-.33-.08-.67,0-.92.23l-2.83,2.59c-.62.57-1.62.17-1.67-.67l-.27-3.83c-.02-.34-.21-.64-.51-.8l-3.34-1.89c-.73-.41-.66-1.48.12-1.8l3.56-1.44c.31-.13.54-.4.61-.73l.76-3.76c.17-.82,1.21-1.09,1.75-.44Z" style="fill: #ada178;"/>
        <path d="M92.15,79.36l2.47,2.94c.22.26.55.39.88.35l3.81-.44c.83-.1,1.41.81.96,1.52l-2.03,3.25c-.18.28-.2.64-.06.95l1.59,3.49c.35.76-.34,1.59-1.15,1.39l-3.72-.93c-.33-.08-.67,0-.92.23l-2.83,2.59c-.62.57-1.62.17-1.67-.67l-.27-3.83c-.02-.34-.21-.64-.51-.8l-3.34-1.89c-.73-.41-.66-1.48.12-1.8l3.56-1.44c.31-.13.54-.4.61-.73l.76-3.76c.17-.82,1.21-1.09,1.75-.44Z" style="fill: #ada178;"/>
        <path d="M115.41,73.44l2.47,2.94c.22.26.55.39.88.35l3.81-.44c.83-.1,1.41.81.96,1.52l-2.03,3.25c-.18.28-.2.64-.06.95l1.59,3.49c.35.76-.34,1.59-1.15,1.39l-3.72-.93c-.33-.08-.67,0-.92.23l-2.83,2.59c-.62.57-1.62.17-1.67-.67l-.27-3.83c-.02-.34-.21-.64-.51-.8l-3.34-1.89c-.73-.41-.66-1.48.12-1.8l3.56-1.44c.31-.13.54-.4.61-.73l.76-3.76c.17-.82,1.21-1.09,1.75-.44Z" style="fill: #ada178;"/>
        <path d="M137,83.38c-.16,0-.31-.03-.47-.09-.45-.18-.75-.59-.78-1.07l-.27-3.83c-.02-.25-.16-.48-.38-.6l-3.34-1.88c-.42-.24-.66-.69-.63-1.17.03-.48.33-.9.78-1.08l3.56-1.44c.23-.09.4-.3.45-.55l.76-3.76c.1-.47.45-.84.92-.96.47-.12.95.04,1.27.41l2.47,2.94c.16.19.4.29.66.26l3.81-.44c.47-.06.94.16,1.2.57.26.41.26.92,0,1.33l-2.03,3.25c-.13.21-.15.48-.05.71l1.59,3.49c.2.44.13.95-.18,1.32-.31.37-.79.54-1.26.41l-3.72-.93c-.24-.06-.5,0-.69.18l-2.83,2.59c-.24.22-.54.33-.84.33ZM137.91,67.41c-.06,0-.13,0-.19.02-.29.07-.49.29-.55.58l-.76,3.76c-.08.41-.37.75-.76.91l-3.56,1.44c-.27.11-.45.35-.47.65-.02.29.12.56.38.7l3.34,1.88c.37.21.6.58.63,1l.27,3.83c.02.29.2.54.47.64.27.11.57.06.79-.14l2.83-2.6c.31-.28.74-.39,1.15-.29l3.72.93c.29.07.57-.02.76-.25.19-.23.23-.52.11-.79l-1.59-3.49c-.17-.38-.15-.82.08-1.18l2.03-3.25c.16-.25.16-.55,0-.8-.16-.25-.42-.37-.72-.34l-3.81.44c-.42.05-.83-.12-1.1-.44l-2.47-2.94c-.15-.17-.35-.27-.57-.27Z" style="fill: #ada178;"/>
      </g>
      <g>
        <path d="M155.03,22.72l7.02,8.37c.43.51,1.09.78,1.76.7l10.85-1.25c1.66-.19,2.81,1.63,1.92,3.05l-5.79,9.27c-.36.57-.4,1.28-.12,1.89l4.54,9.94c.7,1.52-.68,3.18-2.3,2.77l-10.6-2.64c-.65-.16-1.34.01-1.84.47l-8.05,7.39c-1.23,1.13-3.23.34-3.35-1.33l-.76-10.9c-.05-.67-.43-1.27-1.01-1.6l-9.51-5.37c-1.46-.82-1.32-2.97.23-3.6l10.13-4.09c.62-.25,1.08-.8,1.21-1.46l2.17-10.71c.33-1.64,2.41-2.17,3.49-.89Z" style="fill: #181a19;"/>
        <path d="M153.03,19.72l7.02,8.37c.43.51,1.09.78,1.76.7l10.85-1.25c1.66-.19,2.81,1.63,1.92,3.05l-5.79,9.27c-.36.57-.4,1.28-.12,1.89l4.54,9.94c.7,1.52-.68,3.18-2.3,2.77l-10.6-2.64c-.65-.16-1.34.01-1.84.47l-8.05,7.39c-1.23,1.13-3.23.34-3.35-1.33l-.76-10.9c-.05-.67-.43-1.27-1.01-1.6l-9.51-5.37c-1.46-.82-1.32-2.97.23-3.6l10.13-4.09c.62-.25,1.08-.8,1.21-1.46l2.17-10.71c.33-1.64,2.41-2.17,3.49-.89Z" style="fill: #ada178;"/>
      </g>
      <circle cx="27.43" cy="80.11" r="2" style="fill: #ad787b; mix-blend-mode: multiply;"/>
      <circle cx="35.19" cy="78.13" r="2" style="fill: #ada178; mix-blend-mode: multiply;"/>
      <circle cx="42.94" cy="76.16" r="2" style="fill: #78ad85; mix-blend-mode: multiply;"/>
      <path d="M148.28,88.67c-.33,0-.66.04-.99.12l-100.78,25.67c-1.81.46-3.01,2.09-3.01,3.88,0,.33.04.66.12.99l5.92,23.26c.46,1.81,2.09,3.01,3.87,3.01.33,0,.66-.04.99-.12l100.78-25.67c1.81-.46,3.01-2.09,3.01-3.88,0-.33-.04-.66-.12-.99l-5.92-23.26c-.46-1.81-2.09-3.01-3.87-3.01" style="fill: #d1ccb5;"/>
    </g>
  </g>
</svg>