<?xml version="1.0" encoding="UTF-8"?>
<svg id="Illustration_x5F_Webdev" xmlns="http://www.w3.org/2000/svg" xmlns:xlink="http://www.w3.org/1999/xlink" viewBox="0 0 200 200">
  <defs>
    <filter id="drop-shadow-3" filterUnits="userSpaceOnUse">
      <feOffset dx="4" dy="4"/>
      <feGaussianBlur result="blur" stdDeviation="0"/>
      <feFlood flood-color="#181a19" flood-opacity="1"/>
      <feComposite in2="blur" operator="in"/>
      <feComposite in="SourceGraphic"/>
    </filter>
    <filter id="drop-shadow-3-1" x="19.29" y="40.81" width="161.71" height="121.08" filterUnits="userSpaceOnUse">
      <feOffset dx="4" dy="4"/>
      <feGaussianBlur result="blur-2" stdDeviation="0"/>
      <feFlood flood-color="#181a19" flood-opacity="1"/>
      <feComposite in2="blur-2" operator="in"/>
      <feComposite in="SourceGraphic"/>
    </filter>
    <filter id="drop-shadow-4" x="81.19" y="27" width="55.55" height="46.46" filterUnits="userSpaceOnUse">
      <feOffset dx="2" dy="3"/>
      <feGaussianBlur result="blur-3" stdDeviation="0"/>
      <feFlood flood-color="#181a19" flood-opacity="1"/>
      <feComposite in2="blur-3" operator="in"/>
      <feComposite in="SourceGraphic"/>
    </filter>
    <filter id="drop-shadow-5" x="61" y="138.44" width="51.97" height="38.45" filterUnits="userSpaceOnUse">
      <feOffset dx="2" dy="3"/>
      <feGaussianBlur result="blur-4" stdDeviation="0"/>
      <feFlood flood-color="#181a19" flood-opacity="1"/>
      <feComposite in2="blur-4" operator="in"/>
      <feComposite in="SourceGraphic"/>
    </filter>
  </defs>
  <rect y="0" width="200" height="200" style="fill: #ad787b;"/>
  <g>
    <rect x="26.15" y="55.35" width="144" height="88" rx="8" ry="8" transform="translate(27.23 -20.96) rotate(14.13)" style="fill: #e7e4d7; filter: url(#drop-shadow-3-1);"/>
    <path d="M47.77,49.66c-1.79,0-3.42,1.21-3.88,3.02-.08.33-.12.65-.12.98,0,1.79,1.21,3.42,3.02,3.88.33.08.66.12.98.12,1.79,0,3.42-1.21,3.88-3.02.08-.33.12-.65.12-.98,0-1.79-1.21-3.42-3.02-3.88-.33-.08-.66-.12-.98-.12" style="fill: #d1ccb5;"/>
    <rect x="58.81" y="59.48" width="40" height="4" rx="2" ry="2" transform="translate(17.4 -17.38) rotate(14.13)" style="fill: #ada178;"/>
    <rect x="54.42" y="78.9" width="72" height="4" rx="2" ry="2" transform="translate(22.49 -19.63) rotate(14.13)" style="fill: #78ad85;"/>
    <rect x="101.84" y="67.29" width="16" height="4" rx="2" ry="2" transform="translate(20.24 -24.72) rotate(14.13)" style="fill: #ad787b;"/>
    <rect x="51.36" y="87.58" width="16" height="4" rx="2" ry="2" transform="translate(23.67 -11.78) rotate(14.13)" style="fill: #777dad;"/>
    <rect x="70.51" y="94.42" width="32" height="4" rx="2" ry="2" transform="translate(26.16 -18.2) rotate(14.13)" style="fill: #ad787b;"/>
    <rect x="46.96" y="107" width="48" height="4" rx="2" ry="2" transform="translate(28.76 -14.03) rotate(14.13)" style="fill: #78ad85;"/>
    <rect x="97.21" y="121.17" width="60" height="4" rx="2" ry="2" transform="translate(33.92 -27.33) rotate(14.13)" style="fill: #ada178;"/>
    <rect x="105.06" y="106.14" width="56" height="4" rx="2" ry="2" transform="translate(30.43 -29.22) rotate(14.13)" style="fill: #78ad85;"/>
    <rect x="128.66" y="93.06" width="36" height="4" rx="2" ry="2" transform="translate(27.65 -32.93) rotate(14.13)" style="fill: #ada178;"/>
    <rect x="42.69" y="125.45" width="72" height="4" rx="2" ry="2" transform="translate(33.5 -15.36) rotate(14.13)" style="fill: #777dad;"/>
    <rect x="116.94" y="139.61" width="36" height="4" rx="2" ry="2" transform="translate(38.66 -28.66) rotate(14.13)" style="fill: #ada178;"/>
    <rect x="120.75" y="76.08" width="48" height="4" rx="2" ry="2" transform="translate(23.45 -32.98) rotate(14.13)" style="fill: #777dad;"/>
    <path d="M43.86,65.18c-1.79,0-3.42,1.21-3.88,3.02-.08.33-.12.65-.12.98,0,1.79,1.21,3.42,3.02,3.88.33.08.66.12.98.12,1.79,0,3.42-1.21,3.88-3.02.08-.33.12-.65.12-.98,0-1.79-1.21-3.42-3.02-3.88-.33-.08-.66-.12-.98-.12" style="fill: #d1ccb5;"/>
    <path d="M39.96,80.7c-1.79,0-3.42,1.21-3.88,3.02-.08.33-.12.65-.12.98,0,1.79,1.21,3.42,3.02,3.88.33.08.66.12.98.12,1.79,0,3.42-1.21,3.88-3.02.08-.33.12-.65.12-.98,0-1.79-1.21-3.42-3.02-3.88-.33-.08-.66-.12-.98-.12" style="fill: #d1ccb5;"/>
    <path d="M36.05,96.21c-1.79,0-3.42,1.21-3.88,3.02-.08.33-.12.65-.12.98,0,1.79,1.21,3.42,3.02,3.88.33.08.66.12.98.12,1.79,0,3.42-1.21,3.88-3.02.08-.33.12-.65.12-.98,0-1.79-1.21-3.42-3.02-3.88-.33-.08-.66-.12-.98-.12" style="fill: #d1ccb5;"/>
    <path d="M32.14,111.73c-1.79,0-3.42,1.21-3.88,3.02-.08.33-.12.65-.12.98,0,1.79,1.21,3.42,3.02,3.88.33.08.66.12.98.12,1.79,0,3.42-1.21,3.88-3.02.08-.33.12-.65.12-.98,0-1.79-1.21-3.42-3.02-3.88-.33-.08-.66-.12-.98-.12" style="fill: #d1ccb5;"/>
  </g>
  <g>
    <rect x="83.97" y="32.73" width="48" height="32" rx="4" ry="4" transform="translate(-9.89 36.8) rotate(-18.51)" style="fill: #777dad; filter: url(#drop-shadow-4);"/>
    <g>
      <path d="M97.84,43.44c-.09,0-.18.05-.23.14l-5.05,10.13s-.03.08-.03.11c0,.09.05.18.14.22l10.13,5.05.11.03c.09,0,.18-.05.22-.14.02-.04.03-.08.03-.11,0-.09-.05-.18-.14-.22l-9.9-4.93,4.93-9.9s.03-.08.03-.11c0-.09-.05-.18-.14-.22l-.11-.03" style="fill: #383d75;"/>
      <path d="M113.01,38.35c-.09,0-.18.05-.23.14-.02.04-.03.08-.03.11,0,.09.05.18.14.22l9.9,4.93-4.93,9.9s-.03.08-.03.11c0,.09.05.18.14.22l.11.03c.09,0,.18-.05.22-.14l5.05-10.13s.03-.08.03-.11c0-.09-.05-.18-.14-.22l-10.13-5.05-.11-.03" style="fill: #383d75;"/>
      <path d="M109.21,39.62c-.12,0-.22.09-.24.22l-2.51,17.71s0,.03,0,.04c0,.12.09.23.21.24h.04c.12,0,.23-.09.25-.21l2.51-17.71s0-.03,0-.04c0-.12-.09-.23-.21-.24h-.04" style="fill: #383d75;"/>
    </g>
  </g>
  <g>
    <rect x="61.98" y="140.16" width="48" height="32" rx="4" ry="4" transform="translate(-13.49 8.23) rotate(-5.08)" style="fill: #78ad85; filter: url(#drop-shadow-5);"/>
    <g>
      <path d="M93.35,148.23s-.03,0-.04,0c-1.12.1-1.93.61-2.41,1.5-.32.6-.48,1.36-.48,2.26,0,.24.01.49.04.75,0,0,.06.69.06,1.47,0,.16,0,.33,0,.5-.05,1.41-.32,1.81-.47,1.83-.13.01-.23.12-.23.25v.02c.01.13.12.23.25.23h.03c.4,0,.89,1.7,1.07,3.67.11,1.24.44,2.21.97,2.89.56.71,1.33,1.07,2.28,1.07.12,0,.24,0,.36-.02.13-.01.23-.12.23-.25,0,0,0-.02,0-.03-.01-.13-.1-.23-.24-.23-.01,0-.02,0-.03,0-.11,0-.21.01-.31.01-.79,0-1.43-.3-1.89-.88-.47-.6-.77-1.48-.87-2.63-.07-.82-.34-3.18-1.09-3.91h0c.26-.35.4-1.01.44-2.03,0-.17,0-.35,0-.51,0-.81-.06-1.49-.06-1.52-.02-.25-.03-.49-.03-.72,0-.82.14-1.49.42-2.02.4-.74,1.07-1.16,2.02-1.24.13-.01.23-.12.23-.25,0,0,0-.01,0-.02-.01-.12-.1-.23-.23-.23" style="fill: #387545;"/>
      <path d="M97.65,147.86c-.12,0-.24,0-.36.02-.13.01-.23.12-.23.25,0,0,0,.01,0,.02.01.13.11.23.25.23,0,0,.01,0,.02,0,.11-.01.22-.02.32-.02,2,0,2.6,1.89,2.75,3.51,0,.04.09,1.02.31,2.01.21.99.47,1.62.79,1.92h0c-.36.51-.46,1.56-.46,2.5,0,.63.04,1.21.07,1.55.02.23.03.47.03.71,0,1.52-.49,3.09-2.44,3.26-.13.01-.23.12-.23.25,0,0,0,.02,0,.03.01.13.12.23.25.23h.02c1.88-.17,2.89-1.49,2.9-3.76,0-.24-.01-.5-.04-.77-.04-.51-.07-1-.07-1.45,0-1.33.18-2.33.48-2.35.13-.01.23-.12.23-.25v-.02c-.01-.12-.1-.23-.23-.23-.01,0-.03,0-.04,0,0,0,0,0,0,0-.17,0-.48-.36-.77-1.72-.21-.96-.3-1.94-.3-1.95-.23-2.57-1.38-3.96-3.26-3.96" style="fill: #387545;"/>
      <path d="M73.43,150s-.02,0-.04,0l-4.23.38,1.46,16.44,4.23-.38c.13-.01.23-.12.23-.25,0,0,0-.02,0-.03-.01-.13-.11-.23-.24-.23-.01,0-.02,0-.03,0l-3.74.33-1.37-15.44,3.73-.33c.13-.01.23-.12.23-.25,0,0,0-.02,0-.03-.01-.13-.1-.23-.23-.23" style="fill: #387545;"/>
      <path d="M81.61,149.27l-4.23.38c-.13.01-.23.12-.23.25,0,0,0,.02,0,.03.01.12.1.23.23.23.01,0,.03,0,.04,0l3.74-.33,1.37,15.44-3.74.33c-.13.01-.23.12-.23.25,0,0,0,.02,0,.03.01.13.12.23.25.23h.02s4.23-.38,4.23-.38l-1.46-16.43" style="fill: #387545;"/>
    </g>
  </g>
</svg>