<svg width="356" height="200" viewBox="0 0 356 200" fill="none" xmlns="http://www.w3.org/2000/svg">
<path d="M356 0H0V200H356V0Z" fill="#ADA178"/>
<g style="mix-blend-mode:multiply">
<path d="M214.536 30.5327L197.528 46.5317L197.871 46.8959L214.878 30.8969L214.536 30.5327Z" fill="#ADA178"/>
</g>
<g style="mix-blend-mode:multiply">
<path d="M218.529 30.532L201.522 46.531L201.864 46.8952L218.872 30.8962L218.529 30.532Z" fill="#ADA178"/>
</g>
<g style="mix-blend-mode:multiply">
<path d="M222.533 30.5313L205.525 46.5303L205.868 46.8945L222.875 30.8954L222.533 30.5313Z" fill="#ADA178"/>
</g>
<g style="mix-blend-mode:multiply">
<path d="M226.536 30.5305L209.529 46.5295L209.871 46.8937L226.879 30.8947L226.536 30.5305Z" fill="#ADA178"/>
</g>
<g style="mix-blend-mode:multiply">
<path d="M230.53 30.5298L213.522 46.5288L213.865 46.893L230.872 30.894L230.53 30.5298Z" fill="#ADA178"/>
</g>
<g style="mix-blend-mode:multiply">
<path d="M234.533 30.5291L217.526 46.5281L217.868 46.8923L234.876 30.8932L234.533 30.5291Z" fill="#ADA178"/>
</g>
<g style="mix-blend-mode:multiply">
<path d="M238.537 30.5283L221.529 46.5273L221.872 46.8915L238.879 30.8925L238.537 30.5283Z" fill="#ADA178"/>
</g>
<g style="mix-blend-mode:multiply">
<path d="M242.53 30.5276L225.523 46.5266L225.865 46.8908L242.873 30.8918L242.53 30.5276Z" fill="#ADA178"/>
</g>
<g style="mix-blend-mode:multiply">
<path d="M246.534 30.5269L229.526 46.5259L229.869 46.8901L246.876 30.891L246.534 30.5269Z" fill="#ADA178"/>
</g>
<g style="mix-blend-mode:multiply">
<path d="M250.537 30.5361L233.53 46.5352L233.872 46.8993L250.88 30.9003L250.537 30.5361Z" fill="#ADA178"/>
</g>
<g filter="url(#filter0_d_9_648)">
<path d="M226.692 38.7045H122.692C118.273 38.7045 114.692 42.2862 114.692 46.7045V142.704C114.692 147.123 118.273 150.704 122.692 150.704H226.692C231.11 150.704 234.692 147.123 234.692 142.704V46.7045C234.692 42.2862 231.11 38.7045 226.692 38.7045Z" fill="#E7E4D7"/>
</g>
<g style="mix-blend-mode:multiply">
<path d="M222.692 46.7045H126.692C124.483 46.7045 122.692 48.4953 122.692 50.7045V130.704C122.692 132.914 124.483 134.704 126.692 134.704H222.692C224.901 134.704 226.692 132.914 226.692 130.704V50.7045C226.692 48.4953 224.901 46.7045 222.692 46.7045Z" fill="#E7E4D7"/>
</g>
<g filter="url(#filter1_d_9_648)">
<path d="M170.622 100.934L164.422 95.8744L158.172 102.354C151.202 109.584 144.642 117.204 138.522 125.164L106.282 167.164C104.882 168.874 105.142 171.394 106.852 172.794C108.562 174.194 111.082 173.934 112.482 172.224L147.132 132.184C153.702 124.594 159.842 116.634 165.522 108.344L170.612 100.914L170.622 100.934Z" fill="#AD787B"/>
<path d="M182.692 79.8044L170.042 86.2944C168.192 87.2444 166.782 88.8844 166.112 90.8544L164.422 95.8744L170.622 100.934L175.202 98.2644C177.002 97.2144 178.322 95.5044 178.882 93.5044L182.692 79.8044Z" fill="#78AD85"/>
<path d="M170.042 86.2944C169.102 86.7744 168.272 87.4444 167.592 88.2344L167.782 88.4144C169.732 90.0244 171.882 90.8544 174.392 91.0844C175.352 91.1744 176.362 91.1444 177.372 91.1144C178.112 91.0944 178.852 91.0744 179.542 91.1044L182.692 79.8044L170.042 86.2944Z" fill="#78AD85"/>
<path d="M182.692 79.8044L170.042 86.2944C169.102 86.7744 168.272 87.4444 167.592 88.2344L167.782 88.4144C169.732 90.0244 171.882 90.8544 174.392 91.0844C174.882 91.1244 175.392 91.1444 175.912 91.1444C176.392 91.1444 176.882 91.1344 177.372 91.1144C177.862 91.1044 178.342 91.0844 178.812 91.0844C179.062 91.0844 179.302 91.0844 179.542 91.0944L182.692 79.7944" fill="#387545"/>
</g>
<g filter="url(#filter2_d_9_648)">
<path d="M138.541 34.4921L115.417 28.0703C113.288 27.4792 111.083 28.7256 110.492 30.8541L104.07 53.979C103.479 56.1076 104.726 58.3124 106.854 58.9035L129.979 65.3253C132.108 65.9164 134.312 64.67 134.903 62.5414L141.325 39.4165C141.916 37.288 140.67 35.0832 138.541 34.4921Z" fill="#E7E4D7"/>
</g>
<g style="mix-blend-mode:multiply">
<path d="M111.132 43.4944C115.082 40.9644 120.662 42.1244 124.032 45.2144C123.432 45.8744 125.372 43.7344 122.702 46.7044C125.382 43.7444 123.452 45.8844 124.042 45.2244C124.182 45.3444 124.392 45.5344 124.532 45.6544C127.402 48.0044 130.422 49.1644 134.252 49.9144C131.382 51.7844 127.392 51.6544 124.302 50.1644C123.282 49.6844 122.282 49.0044 121.432 48.2544C121.412 48.2344 121.372 48.2044 121.352 48.1844C121.952 47.5244 120.012 49.6644 122.682 46.6944C120.002 49.6544 121.942 47.5144 121.342 48.1744C121.322 48.1644 121.302 48.1344 121.282 48.1244C118.352 45.5244 115.132 44.2544 111.122 43.4844L111.132 43.4944Z" fill="#777DAD"/>
</g>
<g filter="url(#filter3_d_9_648)">
<path d="M180.998 149.008L200.634 145.205L205.197 168.767L185.561 172.57C183.392 172.99 181.294 171.573 180.874 169.403L177.832 153.695C177.412 151.526 178.829 149.428 180.998 149.008Z" fill="#78AD85"/>
<path d="M224.187 140.639L200.625 145.202L205.188 168.764L228.75 164.201L224.187 140.639Z" fill="#777DAD"/>
<path d="M224.188 140.646L243.823 136.844C245.993 136.423 248.091 137.84 248.511 140.01L251.553 155.718C251.973 157.888 250.556 159.986 248.386 160.406L228.751 164.208L224.188 140.646Z" fill="#AD787B"/>
</g>
<path d="M225.692 101.704V102.454H203.642C203.532 102.024 203.152 101.704 202.692 101.704C202.142 101.704 201.692 102.154 201.692 102.704C201.692 103.254 202.142 103.704 202.692 103.704C203.152 103.704 203.532 103.384 203.642 102.954H221.072C207.782 105.294 197.282 115.804 194.942 129.084V111.654C195.372 111.544 195.692 111.164 195.692 110.704C195.692 110.154 195.242 109.704 194.692 109.704C194.142 109.704 193.692 110.154 193.692 110.704C193.692 111.164 194.012 111.544 194.442 111.654V133.704H193.692V135.704H195.692V133.704H194.972C195.492 116.994 208.982 103.504 225.692 102.984V103.704H227.692V101.704H225.692Z" fill="#ADA178"/>
<defs>
<filter id="filter0_d_9_648" x="114.692" y="38.7045" width="124" height="116" filterUnits="userSpaceOnUse" color-interpolation-filters="sRGB">
<feFlood flood-opacity="0" result="BackgroundImageFix"/>
<feColorMatrix in="SourceAlpha" type="matrix" values="0 0 0 0 0 0 0 0 0 0 0 0 0 0 0 0 0 0 127 0" result="hardAlpha"/>
<feOffset dx="4" dy="4"/>
<feColorMatrix type="matrix" values="0 0 0 0 0.0941176 0 0 0 0 0.101961 0 0 0 0 0.0980392 0 0 0 1 0"/>
<feBlend mode="normal" in2="BackgroundImageFix" result="effect1_dropShadow_9_648"/>
<feBlend mode="normal" in="SourceGraphic" in2="effect1_dropShadow_9_648" result="shape"/>
</filter>
<filter id="filter1_d_9_648" x="105.38" y="79.7944" width="79.312" height="96.9019" filterUnits="userSpaceOnUse" color-interpolation-filters="sRGB">
<feFlood flood-opacity="0" result="BackgroundImageFix"/>
<feColorMatrix in="SourceAlpha" type="matrix" values="0 0 0 0 0 0 0 0 0 0 0 0 0 0 0 0 0 0 127 0" result="hardAlpha"/>
<feOffset dx="2" dy="3"/>
<feColorMatrix type="matrix" values="0 0 0 0 0.0941176 0 0 0 0 0.101961 0 0 0 0 0.0980392 0 0 0 1 0"/>
<feBlend mode="normal" in2="BackgroundImageFix" result="effect1_dropShadow_9_648"/>
<feBlend mode="normal" in="SourceGraphic" in2="effect1_dropShadow_9_648" result="shape"/>
</filter>
<filter id="filter2_d_9_648" x="103.923" y="27.9235" width="39.5487" height="40.5487" filterUnits="userSpaceOnUse" color-interpolation-filters="sRGB">
<feFlood flood-opacity="0" result="BackgroundImageFix"/>
<feColorMatrix in="SourceAlpha" type="matrix" values="0 0 0 0 0 0 0 0 0 0 0 0 0 0 0 0 0 0 127 0" result="hardAlpha"/>
<feOffset dx="2" dy="3"/>
<feColorMatrix type="matrix" values="0 0 0 0 0.0941176 0 0 0 0 0.101961 0 0 0 0 0.0980392 0 0 0 1 0"/>
<feBlend mode="normal" in2="BackgroundImageFix" result="effect1_dropShadow_9_648"/>
<feBlend mode="normal" in="SourceGraphic" in2="effect1_dropShadow_9_648" result="shape"/>
</filter>
<filter id="filter3_d_9_648" x="177.758" y="136.77" width="75.8684" height="38.8739" filterUnits="userSpaceOnUse" color-interpolation-filters="sRGB">
<feFlood flood-opacity="0" result="BackgroundImageFix"/>
<feColorMatrix in="SourceAlpha" type="matrix" values="0 0 0 0 0 0 0 0 0 0 0 0 0 0 0 0 0 0 127 0" result="hardAlpha"/>
<feOffset dx="2" dy="3"/>
<feColorMatrix type="matrix" values="0 0 0 0 0.0941176 0 0 0 0 0.101961 0 0 0 0 0.0980392 0 0 0 1 0"/>
<feBlend mode="normal" in2="BackgroundImageFix" result="effect1_dropShadow_9_648"/>
<feBlend mode="normal" in="SourceGraphic" in2="effect1_dropShadow_9_648" result="shape"/>
</filter>
</defs>
</svg>
