<svg width="199" height="199" viewBox="0 0 199 199" fill="none" xmlns="http://www.w3.org/2000/svg">
<rect width="199" height="199" fill="#777DAD"/>
<rect width="135.081" height="18.6465" transform="translate(32 90.6162)" fill="#777DAD"/>
<path d="M52.6583 94.7049C50.7053 94.704 48.8049 95.3375 47.243 96.51C46.3731 97.3389 45.8643 98.4769 45.8268 99.678C45.7892 100.879 46.226 102.047 47.0425 102.928L47.243 103.129C48.8053 104.3 50.7055 104.934 52.6583 104.934C54.6112 104.934 56.5113 104.3 58.0736 103.129C58.9599 102.254 59.4645 101.065 59.4776 99.8194C59.4906 99.1999 59.3722 98.5847 59.1302 98.0143C58.8882 97.4439 58.5281 96.9312 58.0736 96.51C56.5655 95.2384 54.6278 94.5925 52.6583 94.7049ZM55.4662 102.527C54.6642 103.238 53.6297 103.63 52.558 103.63C51.4864 103.63 50.4519 103.238 49.6498 102.527C48.9426 101.803 48.5467 100.831 48.5467 99.8194C48.5467 98.8074 48.9426 97.8356 49.6498 97.1117C50.447 96.4321 51.4603 96.0588 52.5079 96.0588C53.5555 96.0588 54.5688 96.4321 55.366 97.1117C55.7405 97.4534 56.0414 97.8677 56.2503 98.3296C56.4593 98.7914 56.5719 99.291 56.5813 99.7978C56.5907 100.305 56.4966 100.808 56.3049 101.277C56.1132 101.747 55.8278 102.172 55.4662 102.527ZM84.9495 96.4097H85.7518C85.8038 96.4133 85.8528 96.4356 85.8896 96.4724C85.9265 96.5093 85.9488 96.5583 85.9523 96.6103C85.9523 96.7106 85.9523 96.7106 85.852 96.8109L83.6458 99.318H83.5455L81.3393 96.8109C81.1387 96.6103 81.3393 96.4097 81.5399 96.4097H82.2418V95.3066H75.924V96.51H77.0271C77.222 96.5085 77.4145 96.5531 77.5888 96.6403C77.7631 96.7275 77.9143 96.8546 78.03 97.0114C78.2305 97.212 81.3393 100.822 81.4396 100.922C81.5399 101.023 81.5399 101.023 81.5399 101.123V103.229C81.4396 103.329 81.4396 103.43 81.239 103.43H79.9353V104.633H86.1529V103.329H84.7489C84.6486 103.329 84.5484 103.229 84.4481 103.129V101.023L84.5484 100.822C84.6486 100.722 87.8577 97.0114 87.958 96.8109C88.0431 96.6538 88.1778 96.5293 88.341 96.4568C88.5043 96.3842 88.6869 96.3677 88.8605 96.4097H90.0639V95.3066H84.9495V96.4097ZM42.1286 99.2177C41.7438 99.0392 41.3401 98.9047 40.9252 98.8165C39.904 98.5845 38.8631 98.4502 37.8164 98.4154C36.8409 98.331 35.8702 98.1971 34.9082 98.0143C34.7076 97.914 34.4068 97.7134 34.4068 97.4126C34.4096 97.2714 34.4478 97.1331 34.5179 97.0104C34.5879 96.8878 34.6877 96.7847 34.8079 96.7106C35.6262 96.343 36.519 96.1713 37.4153 96.2092C38.47 96.2289 39.5166 96.3977 40.5241 96.7106C40.7883 96.7827 41.0298 96.9207 41.226 97.1117C41.5736 97.4349 41.8178 97.8536 41.928 98.3151H43.1314V95.2064H41.8277V95.6075C41.8277 95.7078 41.7275 95.9083 41.4266 95.808C40.1441 95.1821 38.7417 94.8401 37.315 94.8052C36.1083 94.7858 34.9115 95.0252 33.8051 95.5072C33.3152 95.6789 32.8848 95.9874 32.5649 96.3962C32.245 96.805 32.0489 97.2969 32 97.8137C31.9991 98.5149 32.2704 99.1891 32.7568 99.6942C33.2431 100.199 33.9066 100.496 34.6074 100.521C35.5694 100.704 36.54 100.838 37.5156 100.922C38.4579 101.007 39.3952 101.141 40.3235 101.324C40.7246 101.424 41.3263 101.624 41.3263 102.226C41.3176 102.457 41.2349 102.679 41.0905 102.86C40.9461 103.04 40.7475 103.17 40.5241 103.229C39.804 103.564 39.0083 103.702 38.2176 103.63C37.2701 103.595 36.329 103.461 35.4096 103.229C34.7827 103.017 34.2272 102.635 33.8051 102.126C33.6119 101.819 33.476 101.479 33.404 101.123H32.1003V104.733H33.5042V104.332C33.5042 104.332 33.6045 104.031 33.8051 104.132C34.4775 104.424 35.1856 104.626 35.911 104.733C36.6283 104.938 37.3713 105.04 38.1173 105.034C39.1014 105.049 40.0821 104.914 41.0255 104.633C41.6206 104.427 42.192 104.158 42.7303 103.831C43.0281 103.614 43.2667 103.326 43.4244 102.993C43.582 102.66 43.6537 102.293 43.6328 101.925C43.6144 101.23 43.3677 100.561 42.9309 100.02C42.7303 99.6188 42.3292 99.4182 42.1286 99.2177ZM69.7065 96.4097H70.9099C71.4113 96.4097 71.5116 96.6103 71.5116 97.1117L71.6118 100.922L65.3943 95.2064H60.8815V96.4097H61.8844C62.5864 96.4097 62.6866 96.8109 62.6866 97.1117V102.427C62.6866 102.828 62.6866 103.129 62.2855 103.129H60.9818V104.332H66.1966V103.129H64.8929C64.3915 103.129 64.3915 102.828 64.3915 102.427V97.8137L71.6118 104.232H73.4169L73.3167 96.9112C73.3167 96.4097 73.3167 96.2092 73.9184 96.2092H75.1217V95.0058H69.8067L69.7065 96.4097ZM108.215 95.4069L105.508 101.324L102.8 95.4069H96.9835V96.6103H97.9863C98.6883 96.6103 98.7886 97.0114 98.7886 97.3123V102.627C98.7886 103.028 98.7886 103.329 98.3874 103.329H97.0837V104.533H101.998V103.329H100.995C100.493 103.329 100.493 103.028 100.493 102.627V96.9112L103.903 104.533H105.909L109.318 96.9112H109.419V102.627C109.419 103.129 109.419 103.329 108.917 103.329H107.914V104.533H113.931V103.329H112.628C112.226 103.329 112.227 102.928 112.227 102.627V97.3123C112.227 96.9112 112.327 96.6103 113.029 96.6103H114.032V95.4069H108.215ZM165.577 101.223C165.456 101.622 165.25 101.991 164.973 102.302C164.696 102.614 164.355 102.862 163.973 103.028C163.126 103.428 162.201 103.634 161.265 103.63H160.964C160.764 103.63 160.563 103.53 160.362 103.53C159.631 103.34 158.948 102.998 158.357 102.527C157.679 101.788 157.304 100.822 157.304 99.8194C157.304 98.8169 157.679 97.8508 158.357 97.1117C158.729 96.7524 159.169 96.47 159.651 96.2807C160.133 96.0914 160.647 95.999 161.165 96.0086H161.466C162.434 96.0048 163.392 96.21 164.273 96.6103C164.662 96.8063 164.999 97.0892 165.26 97.4371C165.521 97.785 165.698 98.1884 165.778 98.616H167.081V95.3066H165.778V95.7078C165.778 95.808 165.778 95.808 165.677 95.9083H165.377C164.159 95.195 162.776 94.8146 161.365 94.8052H161.165C159.306 94.8209 157.507 95.4561 156.05 96.6103C155.765 96.8285 155.527 97.1012 155.348 97.4126C154.874 98.1615 154.63 99.0332 154.646 99.9197V100.221C154.733 101.39 155.23 102.491 156.05 103.329C157.261 104.371 158.77 105.003 160.362 105.134C161.902 105.304 163.46 105.062 164.875 104.432C165.431 104.135 165.915 103.721 166.296 103.219C166.677 102.717 166.945 102.139 167.081 101.524V101.424H165.577V101.223ZM150.936 103.329C150.836 103.329 150.735 103.229 150.635 103.129V96.7106C150.635 96.6103 150.735 96.51 150.936 96.51H152.44V95.3066H146.122V96.51H147.426C147.526 96.51 147.626 96.6103 147.727 96.7106V103.129C147.626 103.229 147.626 103.329 147.426 103.329H146.122V104.533H152.44V103.329H150.936ZM141.91 99.318C141.567 99.1247 141.194 98.9892 140.807 98.9168C139.752 98.6847 138.678 98.5504 137.598 98.5157C136.623 98.4313 135.652 98.2974 134.69 98.1146C134.545 98.0629 134.419 97.9679 134.329 97.8423C134.239 97.7168 134.19 97.5668 134.189 97.4126C134.191 97.2714 134.229 97.1331 134.3 97.0104C134.37 96.8878 134.469 96.7847 134.59 96.7106C135.408 96.343 136.301 96.1713 137.197 96.2092C138.252 96.2289 139.298 96.3977 140.306 96.7106C140.57 96.7827 140.812 96.9207 141.008 97.1117C141.355 97.4349 141.599 97.8536 141.71 98.3151H142.913V95.2064H141.609V95.6075C141.609 95.7078 141.509 95.9083 141.208 95.808C139.926 95.1821 138.523 94.8401 137.097 94.8052C135.89 94.7858 134.693 95.0252 133.587 95.5072C133.097 95.6789 132.667 95.9874 132.347 96.3962C132.027 96.805 131.831 97.2969 131.782 97.8137C131.781 98.5149 132.052 99.1891 132.538 99.6942C133.025 100.199 133.688 100.496 134.389 100.521C135.351 100.704 136.322 100.838 137.297 100.922C138.24 101.007 139.177 101.141 140.105 101.324C140.506 101.424 141.108 101.624 141.108 102.326C141.099 102.557 141.017 102.78 140.872 102.96C140.728 103.141 140.529 103.27 140.306 103.329C139.586 103.664 138.79 103.802 137.999 103.73C137.052 103.695 136.111 103.561 135.191 103.329C134.564 103.118 134.009 102.736 133.587 102.226C133.394 101.919 133.258 101.579 133.186 101.223H131.882V104.834H133.286V104.432C133.286 104.432 133.386 104.132 133.587 104.232C134.259 104.524 134.967 104.727 135.693 104.834C136.41 105.039 137.153 105.14 137.899 105.134C138.883 105.149 139.864 105.014 140.807 104.733C141.402 104.527 141.974 104.258 142.512 103.931C142.81 103.714 143.048 103.426 143.206 103.093C143.364 102.76 143.435 102.393 143.415 102.026C143.396 101.361 143.148 100.723 142.713 100.221C142.713 99.7191 142.311 99.5185 141.91 99.318ZM124.662 96.4097H125.765C126.266 96.4097 126.366 96.6103 126.366 97.0114V101.624C126.366 102.728 125.965 103.831 123.057 103.831C120.349 103.831 120.45 101.925 120.45 101.624V97.0114C120.45 96.6103 120.55 96.4097 120.951 96.4097H122.054V95.2064H115.536V96.4097H116.639C117.14 96.4097 117.241 96.6103 117.241 97.1117V101.524C117.241 104.432 120.349 104.934 122.957 104.934C125.564 104.934 128.172 104.432 128.172 101.624V96.8109C128.172 96.4097 128.272 96.4097 128.673 96.4097H129.876V95.2064H124.561L124.662 96.4097Z" fill="#181A19"/>
</svg>
