<?xml version="1.0" encoding="UTF-8"?>
<svg id="Tile_x5F_AI" xmlns="http://www.w3.org/2000/svg" viewBox="0 0 200 200">
  <rect y="0" width="200" height="200" rx="16" ry="16" style="fill: #ada178;"/>
  <path d="M131.13,80.55c-.22,0-.4.03-.55.09-.36.15-.52.49-.53,1.07l-.35,64.18v.02c0,.25.04.47.12.66.18.42.55.66,1.13.66l16.34.09h0c.19,0,.36-.03.5-.09.4-.16.58-.57.58-1.24l.35-64.18v-.02c0-.22-.03-.42-.1-.58-.15-.37-.46-.57-.98-.57l-16.5-.09h-.01M68.06,108.8h0c1.27-3.49,2.54-7.4,3.73-11.65,1.36-4.16,2.63-8.32,3.9-12.32,1.18-3.58,2.12-7.16,2.89-10.74h.17c.57,2.01,1.14,4.18,1.8,6.51.65,2.42,1.39,4.84,2.21,7.43.82,2.59,1.55,5.09,2.38,7.68.74,2.5,1.47,4.93,2.21,7.18.74,2.17,1.39,4.26,1.88,6.01h0l-21.17-.12h0M67.83,58.62l-.67.91c0,1.83-.19,3.67-.53,5.42-.34,1-.6,1.91-.85,2.75l-27.26,77.12c-.06.25-.1.46-.1.65,0,.15.02.29.07.4.13.3.43.45.93.45l15.67.09c.06,0,.11,0,.17,0,.19,0,.38-.04.54-.11.43-.18.76-.56.88-1.06l6.44-19.55,31.01.17,6.73,19.88.05.13c.19.47.65.8,1.14.8.05,0,.1,0,.14,0l17.42.09s0,0,0,0c.21,0,.39-.03.53-.08.27-.11.39-.33.39-.66,0-.16-.03-.36-.09-.58l-29.96-86.02-.05-.17c-.13-.32-.46-.5-1.03-.51l-21.59-.12M139.65,52.68c-1.45,0-2.89.28-4.21.83-1.16.48-2.23,1.17-3.17,2.05-1.95,1.85-3.04,4.4-3.04,7.14,0,.09,0,.18,0,.27h0c0,.12,0,.25,0,.37,0,1.47.29,2.9.84,4.23.47,1.12,1.13,2.16,1.96,3.08,1.93,1.87,4.49,2.96,7.16,2.96.08,0,.16,0,.24,0,.21.01.42.02.62.02,1.31,0,2.61-.26,3.81-.76,1.19-.49,2.28-1.22,3.17-2.14,1.95-2.01,2.96-4.65,2.96-7.39,0-.09,0-.18,0-.27h0c0-.12,0-.24,0-.36,0-1.42-.28-2.82-.83-4.1-.46-1.08-1.09-2.09-1.89-2.97-1.82-1.93-4.32-2.94-7.57-2.96-.02,0-.04,0-.06,0" style="fill: #756638;"/>
</svg>