<?xml version="1.0" encoding="UTF-8"?>
<svg id="Tile_x5F_Lr" xmlns="http://www.w3.org/2000/svg" viewBox="0 0 200 200">
  <rect width="200" height="200" rx="16" ry="16" style="fill: #777dad;"/>
  <path d="M50.13,55.92c-.57.07-.95.53-.95,1.03,0,.05,0,.09,0,.14h0l-.19,85.24c0,1.01.39,1.48,1.32,1.49l52.84.12c.31,0,.62-.08.94-.23.23-.23.47-.62.47-1.01l2.45-14.51c.03-.15.05-.28.05-.4,0-.52-.28-.77-.98-.78l-38.56-.09.16-70.02v-.23c0-.42-.44-.72-.81-.72-.04,0-.08,0-.12.01l-16.31-.04c-.16,0-.23,0-.31,0" style="fill: #383d75;"/>
  <path d="M154.63,75.97c-3.99,0-7.95,1.01-11.5,2.96-3.36,1.87-6.41,4.28-8.91,7.16h0s0-.03,0-.05c0-1-.07-2-.15-2.92-.08-.86-.23-1.72-.38-2.58-.15-.7-.39-1.41-.7-1.95-.23-.78-.86-1.33-1.71-1.33l-14.6-.03c-.06-.03-.12-.05-.17-.05-.07,0-.13.04-.23.13-.34.07-.56.43-.56.79,0,.05,0,.1.01.15.23,1.87.38,3.67.46,5.54.07,2.11.07,4.29.14,6.48.06,1.67.07,3.26.07,4.82,0,.48,0,.95,0,1.43l-.1,46.21v.31c.07.64.53,1.03,1.15,1.03.06,0,.11,0,.17,0l16.24.04h0c.78,0,1.09-.31,1.09-1.17l.1-42.54c1.25-1.4,2.89-2.34,4.53-3.11,4.31-1.84,9.05-2.83,13.78-2.83.67,0,1.33.02,2,.06h.01c.93,0,1.31-.23,1.32-.93l.04-16.31c0-.15,0-.22,0-.3,0,0,0,0,0,0h0c-.07-.58-.53-.96-1.03-.96-.05,0-.09,0-.14,0-.3-.01-.61-.02-.91-.02" style="fill: #383d75;"/>
</svg>