<?xml version="1.0" encoding="UTF-8"?>
<svg id="Illustration_x5F_UI" xmlns="http://www.w3.org/2000/svg" viewBox="0 0 199 199">
  <path d="M183,0H16C7.16,0,0,7.16,0,16v167c0,8.84,7.16,16,16,16h167c8.84,0,16-7.16,16-16V16c0-8.84-7.16-16-16-16" style="fill: #d1ccb5;"/>
  <path d="M193.57,4.01l-94.07,94.07L5.43,4.01c-.5.44-.97.91-1.41,1.41l94.07,94.07L4.01,193.57c.44.5.91.97,1.41,1.41l94.07-94.07,94.07,94.07c.5-.44.97-.91,1.41-1.41l-94.07-94.07L194.99,5.43c-.44-.5-.91-.97-1.41-1.41Z" style="fill: #ada178;"/>
</svg>