<?xml version="1.0" encoding="UTF-8"?>
<svg id="Tile_x5F_Field" xmlns="http://www.w3.org/2000/svg" viewBox="0 0 199 199">
  <path d="M183,0H16C7.16,0,0,7.16,0,16v167C0,191.84,7.16,199,16,199h167c8.84,0,16-7.16,16-16V16C199,7.16,191.84,0,183,0" style="fill: #d1ccb5;"/>
  <path d="M164.12,82c1.1,0,2,.9,2,2v80c0,1.1-.9,2-2,2h-80c-1.1,0-2-.9-2-2v-80c0-1.1.9-2,2-2h80M164.12,80h-80c-2.21,0-4,1.79-4,4v80c0,2.21,1.79,4,4,4h80c2.21,0,4-1.79,4-4v-80c0-2.21-1.79-4-4-4h0Z" style="fill: #ad787b;"/>
  <rect x="32.12" y="32" width="88" height="88" rx="4" ry="4" style="fill: #ada178;"/>
</svg>