<?xml version="1.0" encoding="UTF-8"?>
<svg id="Tile_x5F_Vector" xmlns="http://www.w3.org/2000/svg" viewBox="0 0 200 200">
  <path d="M16,0V2h168c7.72,0,14,6.28,14,14v168c0,7.72-6.28,14-14,14H16c-7.72,0-14-6.28-14-14V16C2,8.28,8.28,2,16,2V0M16,0C7.16,0,0,7.16,0,16v168c0,8.84,7.16,16,16,16h168c8.84,0,16-7.16,16-16V16c0-8.84-7.16-16-16-16H16Z" style="fill: #78ad85;"/>
  <g>
    <path d="M39.85,195.15c0-85.77,69.53-155.29,155.29-155.29" style="fill: none; stroke: #78ad85; stroke-miterlimit: 10; stroke-width: 2px;"/>
    <rect x="35" y="190.29" width="9.71" height="9.71" style="fill: #78ad85;"/>
    <rect x="35" y="73.82" width="9.71" height="9.71" rx="1" ry="1" style="fill: #78ad85;"/>
    <rect x="73.82" y="35" width="9.71" height="9.71" rx="1" ry="1" style="fill: #78ad85;"/>
    <rect x="190.29" y="35" width="9.71" height="9.71" style="fill: #78ad85;"/>
    <line x1="39.85" y1="195.15" x2="39.85" y2="78.68" style="fill: none; stroke: #78ad85; stroke-miterlimit: 10; stroke-width: 2px;"/>
    <line x1="195.15" y1="39.85" x2="78.68" y2="39.85" style="fill: none; stroke: #78ad85; stroke-miterlimit: 10; stroke-width: 2px;"/>
  </g>
</svg>